<?xml version="1.0" standalone="no"?>
<!DOCTYPE svg PUBLIC "-//W3C//DTD SVG 20010904//EN"
 "http://www.w3.org/TR/2001/REC-SVG-20010904/DTD/svg10.dtd">
<svg version="1.0" xmlns="http://www.w3.org/2000/svg"
 width="1048.000000pt" height="279.000000pt" viewBox="0 0 1048.000000 279.000000"
 preserveAspectRatio="xMidYMid meet">
<metadata>
Created by potrace 1.16, written by Peter Selinger 2001-2019
</metadata>
<g transform="translate(0.000000,279.000000) scale(0.100000,-0.100000)"
fill="#000000" stroke="none">
<path d="M110 1350 l0 -1260 5085 0 5085 0 0 1260 0 1260 -5085 0 -5085 0 0
-1260z m880 1095 l0 -145 -435 0 -435 0 0 145 0 145 435 0 435 0 0 -145z m710
0 l0 -145 -350 0 -350 0 0 145 0 145 350 0 350 0 0 -145z m710 0 l0 -145 -350
0 -350 0 0 145 0 145 350 0 350 0 0 -145z m720 0 l0 -145 -350 0 -350 0 0 145
0 145 350 0 350 0 0 -145z m710 0 l0 -145 -350 0 -350 0 0 145 0 145 350 0
350 0 0 -145z m710 0 l0 -145 -345 0 -345 0 0 145 0 145 345 0 345 0 0 -145z
m720 0 l0 -145 -350 0 -350 0 0 145 0 145 350 0 350 0 0 -145z m710 0 l0 -145
-350 0 -350 0 0 145 0 145 350 0 350 0 0 -145z m720 0 l0 -145 -350 0 -350 0
0 145 0 145 350 0 350 0 0 -145z m710 0 l0 -145 -350 0 -350 0 0 145 0 145
350 0 350 0 0 -145z m710 0 l0 -145 -345 0 -345 0 0 145 0 145 345 0 345 0 0
-145z m720 0 l0 -145 -350 0 -350 0 0 145 0 145 350 0 350 0 0 -145z m710 0
l0 -145 -350 0 -350 0 0 145 0 145 350 0 350 0 0 -145z m710 0 l0 -145 -345 0
-345 0 0 145 0 145 345 0 345 0 0 -145z m-9275 -315 l0 -145 -432 -3 -433 -2
0 150 0 150 433 -2 432 -3 0 -145z m714 58 c0 -51 -5 -100 -10 -110 -6 -12 -6
-18 1 -18 5 0 10 -18 10 -40 l0 -40 -350 0 -350 0 0 150 0 150 349 0 350 0 0
-92z m711 62 c0 -22 -4 -29 -17 -28 -48 4 -113 -3 -113 -12 0 -5 9 -10 21 -10
24 0 53 -26 44 -40 -3 -5 -15 -10 -26 -10 -10 0 -19 -4 -19 -10 0 -5 9 -10 19
-10 11 0 23 -5 26 -11 10 -16 -25 -49 -52 -49 -15 0 -22 -4 -17 -11 4 -7 28
-9 70 -4 l64 7 0 -41 0 -41 -347 2 -348 3 -3 37 -3 38 74 -6 c56 -5 82 -3 104
8 24 12 31 12 41 1 7 -7 24 -13 37 -13 13 0 30 6 37 13 10 11 17 11 42 -1 27
-14 30 -14 48 8 26 32 25 113 -2 140 -26 26 -62 13 -74 -26 -8 -26 -13 -30
-47 -29 -22 0 -39 5 -39 11 0 18 23 34 52 34 15 0 28 5 28 10 0 13 -46 13 -71
-1 -15 -7 -24 -7 -34 1 -8 7 -51 12 -105 12 l-90 1 0 28 0 29 350 0 350 0 0
-30z m718 -117 l-3 -148 -347 -3 -348 -2 0 150 0 150 350 0 351 0 -3 -147z
m712 -3 l0 -150 -350 0 -350 0 0 150 0 150 350 0 350 0 0 -150z m710 0 l0
-150 -345 0 -345 0 0 99 c0 56 4 103 10 106 6 4 10 -18 10 -59 0 -37 4 -66 10
-66 6 0 10 36 10 87 0 85 0 86 -20 68 -20 -18 -20 -17 -20 23 l0 42 345 0 345
0 0 -150z m720 0 l0 -150 -350 0 -350 0 0 150 0 150 350 0 350 0 0 -150z m710
0 l0 -150 -350 0 -350 0 0 150 0 150 350 0 350 0 0 -150z m715 0 l0 -145 -347
-3 -348 -2 0 150 0 150 348 -2 347 -3 0 -145z m715 0 l0 -150 -350 0 -350 0 0
150 0 150 350 0 350 0 0 -150z m710 0 l0 -150 -345 0 -345 0 0 150 0 150 345
0 345 0 0 -150z m720 0 l0 -150 -350 0 -350 0 0 150 0 150 350 0 350 0 0 -150z
m710 0 l0 -150 -350 0 -350 0 0 150 0 150 350 0 350 0 0 -150z m710 0 l0 -150
-345 0 -345 0 0 150 0 150 345 0 345 0 0 -150z m-9272 -312 l3 -148 -436 0
-435 0 0 143 c0 79 3 147 7 150 3 4 198 6 432 5 l426 -3 3 -147z m709 2 l0
-150 -349 0 -348 0 0 150 0 150 349 0 349 0 -1 -150z m713 0 l0 -150 -351 0
-350 0 3 38 3 37 79 -4 c56 -2 77 0 72 8 -4 6 -20 11 -37 11 -16 0 -29 5 -29
10 0 6 18 10 40 10 29 0 40 -4 40 -15 0 -8 5 -15 10 -15 6 0 10 7 10 15 0 11
11 15 38 15 28 0 33 -3 22 -10 -13 -9 -13 -11 0 -20 24 -16 40 -12 40 10 0 20
0 20 21 -1 26 -26 57 -21 82 13 19 25 19 28 3 52 -10 16 -26 26 -41 26 -18 0
-25 5 -25 20 0 16 7 20 35 20 19 0 35 5 35 11 0 6 -17 9 -42 7 -40 -3 -43 -5
-50 -42 -10 -46 -7 -51 20 -37 30 16 52 3 52 -29 0 -20 -6 -29 -22 -33 -34 -9
-66 33 -70 90 -2 25 -8 48 -14 50 -6 2 -27 -20 -45 -49 l-34 -53 -3 53 c-3 50
-16 68 -28 37 -5 -12 -9 -12 -29 1 -13 8 -34 14 -47 13 -12 -1 -38 -1 -55 -1
-27 2 -33 6 -33 25 0 13 3 27 7 30 3 4 161 7 350 7 l343 0 0 -150z m718 -2 l3
-148 -351 0 -350 0 0 150 0 150 348 -2 347 -3 3 -147z m712 2 l0 -150 -350 0
-350 0 0 143 c0 79 3 147 7 150 3 4 161 7 350 7 l343 0 0 -150z m710 0 l0
-150 -345 0 -345 0 0 150 0 150 345 0 345 0 0 -150z m718 -2 l3 -148 -351 0
-350 0 0 38 0 39 48 -7 c52 -8 89 1 98 25 8 19 24 19 24 0 0 -8 5 -15 10 -15
6 0 10 7 10 15 0 10 10 15 34 15 25 0 33 -4 32 -16 0 -9 5 -19 12 -21 7 -3 12
4 12 16 0 26 11 27 33 1 29 -34 80 -20 91 25 10 38 -9 65 -44 65 -23 0 -30 4
-30 20 0 16 7 20 35 20 19 0 35 5 35 11 0 6 -17 9 -42 7 -41 -3 -43 -4 -49
-43 -8 -47 -7 -50 19 -36 30 16 52 3 52 -29 0 -37 -36 -48 -63 -20 -10 11 -22
20 -27 20 -6 0 -10 25 -10 55 0 31 -5 55 -10 55 -6 0 -25 -21 -43 -46 l-32
-46 -3 46 c-3 48 -14 58 -30 29 -9 -16 -11 -16 -27 0 -12 13 -31 17 -76 15
l-59 -3 0 33 0 32 348 -2 347 -3 3 -147z m712 2 l0 -150 -350 0 -350 0 0 143
c0 79 3 147 7 150 3 4 161 7 350 7 l343 0 0 -150z m718 -2 l3 -148 -351 0
-350 0 0 94 c0 74 3 95 15 100 12 4 15 -5 15 -53 0 -44 4 -60 16 -65 23 -9
117 -7 133 3 8 5 23 4 38 -4 30 -16 60 -9 74 16 6 13 20 19 42 18 18 0 26 -3
20 -6 -19 -7 -16 -33 3 -33 9 0 18 9 21 20 7 25 73 30 73 5 0 -18 16 -20 23
-2 3 7 6 5 6 -5 1 -24 21 -23 21 1 0 11 6 22 13 25 10 5 10 7 0 12 -17 8 -16
55 2 78 24 31 18 36 -40 36 -52 0 -77 -15 -35 -22 18 -3 18 -5 -8 -45 -37 -59
-52 -56 -52 12 0 30 -4 55 -10 55 -5 0 -22 -19 -37 -41 l-27 -42 -8 31 c-11
41 -42 58 -76 43 -17 -8 -28 -9 -36 -1 -14 14 -49 13 -64 -2 -7 -7 -12 -8 -12
-2 0 5 -18 9 -40 9 -22 0 -40 -3 -40 -6 0 -4 -7 -9 -15 -13 -12 -4 -15 4 -15
39 l0 45 348 -2 347 -3 3 -147z m712 2 l0 -150 -350 0 -350 0 0 150 0 150 350
0 350 0 0 -150z m710 0 l0 -150 -345 0 -345 0 0 150 0 150 345 0 345 0 0 -150z
m718 -2 l3 -148 -351 0 -350 0 0 150 0 150 348 -2 347 -3 3 -147z m712 2 l0
-150 -350 0 -350 0 0 143 c0 79 3 147 7 150 3 4 161 7 350 7 l343 0 0 -150z
m710 0 l0 -150 -345 0 -345 0 0 150 0 150 345 0 345 0 0 -150z m-9270 -315 l0
-145 -435 0 -435 0 0 145 0 145 435 0 435 0 0 -145z m710 101 c0 -26 -5 -47
-12 -50 -10 -5 -10 -7 0 -12 8 -4 12 -33 12 -95 l0 -89 -350 0 -350 0 0 145 0
145 350 0 350 0 0 -44z m710 -101 l0 -145 -350 0 -350 0 2 98 c1 73 3 82 5 35
6 -94 23 -76 23 23 0 76 -2 85 -15 74 -13 -11 -15 -7 -15 24 l0 36 350 0 350
0 0 -145z m720 0 l0 -145 -350 0 -350 0 0 145 0 145 350 0 350 0 0 -145z m710
0 l0 -145 -350 0 -350 0 0 145 0 145 350 0 350 0 0 -145z m710 0 l0 -145 -345
0 -345 0 0 145 0 145 345 0 345 0 0 -145z m720 0 l0 -145 -350 0 -351 0 3 92
c2 62 7 93 16 96 9 3 12 -13 12 -57 l0 -60 33 -6 c19 -4 47 -5 63 -3 l29 3 3
89 3 90 -21 -19 c-14 -13 -23 -16 -28 -8 -12 20 -69 19 -91 -1 -21 -19 -21
-19 -21 27 l0 47 350 0 350 0 0 -145z m710 0 l0 -145 -350 0 -350 0 0 145 0
145 350 0 350 0 0 -145z m720 121 c0 -15 -12 -34 -31 -51 -17 -14 -29 -29 -25
-32 3 -3 12 0 21 7 13 11 15 4 15 -54 0 -37 4 -66 10 -66 6 0 10 -16 10 -35
l0 -35 -350 0 -350 0 0 145 0 145 350 0 350 0 0 -24z m710 -121 l0 -145 -350
0 -350 0 0 145 0 145 350 0 350 0 0 -145z m710 0 l0 -145 -345 0 -345 0 0 145
0 145 345 0 345 0 0 -145z m720 0 l0 -145 -350 0 -350 0 0 95 c0 57 4 95 10
95 6 0 10 -27 10 -60 0 -33 4 -60 10 -60 6 0 10 36 10 87 0 85 0 86 -20 68
-20 -18 -20 -17 -20 23 l0 42 350 0 350 0 0 -145z m706 103 c-8 -54 -9 -75 -1
-170 l6 -78 -351 0 -350 0 0 145 0 145 351 0 351 0 -6 -42z m714 -103 l0 -145
-345 0 -345 0 0 34 c0 28 4 34 24 38 14 3 29 1 34 -4 13 -13 100 1 117 19 8 8
15 20 15 28 0 9 13 13 40 12 52 -2 50 -27 -3 -42 -21 -6 -35 -14 -31 -18 12
-12 49 -8 70 7 10 8 23 11 29 7 5 -5 22 -11 36 -15 23 -5 29 -1 43 28 28 59
18 114 -25 136 -16 9 -26 8 -44 -4 -15 -10 -26 -12 -30 -6 -8 13 -58 13 -72
-1 -8 -8 -17 -7 -34 4 -18 12 -36 13 -74 7 -61 -9 -95 4 -95 37 l0 23 345 0
345 0 0 -145z m-9275 -315 l0 -145 -432 -3 -433 -2 0 150 0 150 433 -2 432 -3
0 -145z m715 0 l0 -150 -350 0 -350 0 0 150 0 150 350 0 350 0 0 -150z m710 0
l0 -150 -347 2 -348 3 -3 148 -3 147 351 0 350 0 0 -150z m718 3 l-3 -148
-347 -3 -348 -2 0 150 0 150 350 0 351 0 -3 -147z m712 -3 l0 -150 -350 0
-350 0 0 150 0 150 350 0 350 0 0 -150z m710 0 l0 -150 -345 0 -345 0 0 150 0
150 345 0 345 0 0 -150z m720 0 l0 -150 -350 0 -350 0 0 150 0 150 350 0 350
0 0 -150z m710 0 l0 -150 -350 0 -350 0 0 150 0 150 350 0 350 0 0 -150z m715
0 l0 -145 -347 -3 -348 -2 0 150 0 150 348 -2 347 -3 0 -145z m715 0 l0 -150
-350 0 -350 0 0 150 0 150 350 0 350 0 0 -150z m710 0 l0 -150 -345 0 -345 0
0 150 0 150 345 0 345 0 0 -150z m720 0 l0 -150 -350 0 -350 0 0 94 c0 53 4
98 10 101 6 4 10 -17 10 -54 0 -34 4 -61 10 -61 6 0 10 34 10 82 0 80 0 81
-20 63 -20 -18 -20 -17 -20 28 l0 47 350 0 350 0 0 -150z m708 63 c-2 -49 -7
-91 -13 -95 -6 -5 -5 -12 3 -20 6 -6 12 -31 12 -55 l0 -43 -350 0 -350 0 0
150 0 150 350 0 350 0 -2 -87z m712 -63 l0 -150 -345 0 -345 0 0 35 c0 26 4
35 18 36 9 0 74 1 145 0 73 0 127 4 127 10 0 8 -23 13 -57 12 -7 0 4 19 25 42
20 24 40 41 45 38 4 -2 0 -11 -8 -19 -22 -22 -19 -50 7 -68 30 -21 51 -20 73
4 18 20 15 70 -5 70 -6 0 -5 9 2 20 24 38 -32 79 -67 50 -10 -8 -19 -9 -35 0
-11 6 -38 10 -58 9 -20 -1 -76 -2 -124 -1 l-88 2 0 30 0 30 345 0 345 0 0
-150z m-9272 -312 l3 -148 -436 0 -435 0 0 143 c0 79 3 147 7 150 3 4 198 6
432 5 l426 -3 3 -147z m712 2 l0 -150 -350 0 -350 0 0 150 0 150 350 0 350 0
0 -150z m710 0 l0 -150 -350 0 -350 0 0 143 c0 79 3 147 7 150 3 4 161 7 350
7 l343 0 0 -150z m718 -2 l3 -148 -351 0 -350 0 0 150 0 150 348 -2 347 -3 3
-147z m712 2 l0 -150 -350 0 -350 0 0 143 c0 79 3 147 7 150 3 4 161 7 350 7
l343 0 0 -150z m710 0 l0 -150 -345 0 -345 0 0 94 c0 53 4 98 10 101 6 4 10
-18 10 -59 0 -37 4 -66 10 -66 6 0 10 36 10 87 0 85 0 86 -20 68 -20 -18 -20
-17 -20 28 l0 47 345 0 345 0 0 -150z m718 -2 l3 -148 -351 0 -350 0 0 150 0
150 348 -2 347 -3 3 -147z m712 2 l0 -150 -350 0 -351 0 3 92 c3 79 6 93 21
96 15 3 17 -5 17 -57 l0 -61 74 0 c41 0 78 4 81 10 4 6 15 4 29 -5 26 -17 76
-6 76 17 0 8 5 6 11 -4 21 -38 82 -14 95 37 5 21 8 22 32 10 17 -10 31 -11 44
-4 19 10 23 3 12 -25 -8 -21 -31 -20 -43 1 -11 20 -16 17 -25 -14 -6 -18 -3
-23 11 -25 69 -5 109 24 93 68 -6 14 -7 36 -4 49 4 17 -1 27 -17 39 -33 22
-56 20 -84 -9 -14 -13 -25 -20 -25 -15 0 5 -11 17 -25 26 -23 15 -27 15 -50 0
-16 -10 -25 -26 -25 -42 0 -22 -2 -23 -20 -14 -12 6 -30 8 -40 5 -14 -4 -20
-2 -20 9 0 20 36 39 60 31 11 -4 20 -2 20 4 0 16 -46 24 -68 12 -15 -8 -28 -8
-45 0 -16 7 -31 8 -42 2 -9 -5 -36 -7 -60 -3 -36 6 -46 3 -62 -14 -18 -21 -18
-21 -21 18 -6 70 -29 66 353 66 l345 0 0 -150z m718 -2 l2 -148 -350 0 -350 0
0 150 0 150 348 -2 347 -3 3 -147z m712 72 c0 -64 -3 -80 -15 -80 -8 0 -15 -4
-15 -10 0 -5 7 -10 15 -10 12 0 15 -13 15 -60 l0 -60 -350 0 -350 0 0 89 c0
66 4 92 15 101 13 11 15 4 15 -54 0 -37 4 -66 10 -66 6 0 10 30 10 70 0 63 2
70 20 70 18 0 20 -7 20 -60 0 -47 -3 -60 -15 -60 -8 0 -15 -4 -15 -10 0 -14
113 -13 127 1 8 8 17 7 34 -4 26 -16 69 -7 69 14 0 8 7 6 18 -4 45 -41 92 -4
92 70 0 30 -6 49 -20 63 -24 24 -39 25 -65 6 -16 -12 -22 -12 -42 2 -19 12
-29 13 -49 3 -14 -6 -30 -8 -36 -5 -6 4 -42 7 -80 7 -51 -1 -74 -5 -89 -18
-19 -18 -19 -17 -19 33 l0 52 350 0 350 0 0 -80z m710 -70 l0 -150 -344 0
-345 0 0 150 0 150 344 0 345 0 0 -150z m718 -2 l3 -148 -351 0 -350 0 0 150
0 150 348 -2 347 -3 3 -147z m712 122 c0 -27 -4 -30 -41 -36 -35 -6 -45 -14
-72 -55 -41 -63 -57 -63 -57 -1 0 59 -9 70 -32 40 -15 -19 -18 -20 -18 -5 0
12 -8 17 -30 17 -16 0 -30 -4 -30 -10 0 -5 9 -10 20 -10 23 0 26 -25 8 -66
-10 -22 -10 -28 0 -32 17 -5 15 -22 -2 -22 -8 0 -18 -4 -21 -10 -4 -6 15 -10
49 -10 49 0 56 2 56 20 0 17 7 20 50 20 44 0 50 -3 50 -20 0 -12 6 -20 13 -19
46 6 57 -1 57 -36 l0 -35 -350 0 -350 0 0 143 c0 79 3 147 7 150 3 4 161 7
350 7 l343 0 0 -30z m710 -120 l0 -150 -345 0 -345 0 0 35 c0 19 5 45 11 59 7
14 8 33 4 43 -4 10 -9 51 -11 91 l-4 72 345 0 345 0 0 -150z m-9272 -317 l-3
-148 -430 0 -430 0 -3 148 -3 147 436 0 436 0 -3 -147z m710 0 l-3 -148 -345
0 -345 0 -3 148 -3 147 351 0 351 0 -3 -147z m712 -3 l0 -150 -347 2 -348 3
-3 86 c-2 68 1 89 13 99 13 11 15 5 15 -49 0 -34 4 -61 10 -61 6 0 10 34 10
82 0 78 -1 80 -18 65 -28 -25 -32 -21 -32 28 l0 45 350 0 350 0 0 -150z m718
3 l-3 -148 -347 -3 -348 -2 0 150 0 150 350 0 351 0 -3 -147z m712 -3 l0 -150
-347 2 -348 3 -3 148 -3 147 351 0 350 0 0 -150z m710 0 l0 -150 -345 0 -345
0 0 150 0 150 345 0 345 0 0 -150z m718 3 l-3 -148 -347 -3 -348 -2 0 150 0
150 350 0 351 0 -3 -147z m712 -3 l0 -150 -347 2 -348 3 -3 87 c-2 79 -1 88
18 98 19 10 20 8 20 -49 0 -56 2 -61 25 -67 13 -3 48 -3 77 0 61 6 62 6 107 3
32 -2 36 1 50 37 13 33 13 44 0 80 l-14 41 -67 2 c-49 1 -72 -3 -83 -13 -13
-14 -15 -14 -15 0 0 12 -10 16 -34 16 -19 0 -38 -4 -41 -10 -3 -5 -15 -15 -26
-20 -18 -10 -19 -7 -19 40 l0 50 350 0 350 0 0 -150z m718 3 l-3 -148 -347 -3
-348 -2 0 150 0 150 350 0 351 0 -3 -147z m710 55 c0 -51 -4 -101 -9 -110 -6
-12 -6 -18 1 -18 5 0 10 -18 10 -40 l0 -40 -347 2 -348 3 -3 148 -3 147 350 0
349 0 0 -92z m712 -58 l0 -150 -345 0 -345 0 0 38 0 38 131 -3 c128 -3 131 -2
153 22 13 14 33 25 45 25 18 0 20 -4 15 -26 -5 -20 -3 -25 7 -22 8 3 16 13 18
24 2 10 8 22 15 26 8 6 7 8 -1 8 -9 0 -13 18 -13 55 0 30 -4 55 -8 55 -5 0
-23 -20 -41 -45 -31 -43 -64 -56 -38 -15 19 31 -2 54 -52 58 -24 2 -41 -1 -41
-7 0 -6 15 -11 34 -11 19 0 38 -5 41 -10 9 -15 -12 -38 -38 -43 -21 -3 -21 -4
-2 -11 11 -4 26 -10 33 -12 6 -2 12 -13 12 -24 0 -11 -6 -20 -12 -20 -7 0 -23
-3 -35 -6 -20 -6 -23 -3 -23 24 0 17 -5 34 -10 37 -6 3 -7 17 -4 31 11 43 -10
54 -102 54 l-84 0 0 30 0 30 345 0 345 0 0 -150z m718 3 l-3 -148 -347 -3
-348 -2 0 150 0 150 350 0 351 0 -3 -147z m712 -3 l0 -150 -347 2 -348 3 -3
148 -3 147 351 0 350 0 0 -150z m710 0 l0 -150 -345 0 -345 0 0 150 0 150 345
0 345 0 0 -150z m-9275 -310 l0 -145 -432 -3 -433 -2 0 150 0 150 433 -2 432
-3 0 -145z m715 0 l0 -150 -350 0 -350 0 0 150 0 150 350 0 350 0 0 -150z
m710 0 l0 -150 -350 0 -350 0 0 150 0 150 350 0 350 0 0 -150z m720 0 l0 -150
-350 0 -350 0 0 95 c0 57 4 95 10 95 6 0 10 -24 10 -54 0 -30 5 -58 10 -61 6
-4 10 25 10 81 0 86 0 87 -20 69 -20 -18 -20 -17 -20 28 l0 47 350 0 350 0 0
-150z m710 0 l0 -150 -350 0 -350 0 0 150 0 150 350 0 350 0 0 -150z m710 0
l0 -150 -345 0 -345 0 0 150 0 150 345 0 345 0 0 -150z m720 0 l0 -150 -350 0
-350 0 0 150 0 150 350 0 350 0 0 -150z m710 0 l0 -150 -350 0 -350 0 0 150 0
150 350 0 350 0 0 -150z m715 0 l0 -145 -347 -3 -348 -2 0 150 0 150 348 -2
347 -3 0 -145z m715 0 l0 -150 -350 0 -350 0 0 150 0 150 350 0 350 0 0 -150z
m710 0 l0 -150 -345 0 -345 0 0 94 c0 53 4 98 10 101 6 4 10 -18 10 -59 0 -37
4 -66 10 -66 6 0 10 31 10 73 0 70 1 72 25 73 24 2 25 0 25 -62 0 -57 -2 -64
-20 -64 -11 0 -20 -4 -20 -10 0 -6 47 -10 120 -10 73 0 120 4 120 10 0 9 -28
15 -57 11 -22 -3 -14 14 22 49 38 37 43 60 20 83 -19 20 -234 18 -259 -2 -14
-12 -16 -9 -16 33 l0 46 345 0 345 0 0 -150z m720 0 l0 -150 -350 0 -350 0 0
150 0 150 350 0 350 0 0 -150z m707 62 c-2 -48 -6 -92 -9 -98 -4 -5 -3 -16 3
-24 5 -8 9 -32 9 -52 l0 -38 -350 0 -350 0 0 150 0 150 350 0 350 0 -3 -88z
m713 -62 l0 -150 -345 0 -345 0 0 35 0 35 83 0 c51 0 88 5 95 12 9 9 12 9 12
-1 0 -10 11 -12 43 -7 55 7 56 7 95 0 26 -5 36 -2 47 12 19 25 19 49 0 64 -11
9 -12 16 -4 26 14 18 2 52 -21 59 -25 8 -60 -11 -60 -32 0 -14 2 -14 20 2 10
9 26 15 35 12 22 -9 19 -38 -5 -44 -23 -6 -27 -23 -6 -23 7 0 20 -7 27 -16 11
-14 10 -18 -6 -30 -30 -22 -40 -17 -61 29 -15 33 -25 43 -46 45 -20 2 -28 9
-28 23 0 14 7 19 30 19 17 0 30 4 30 10 0 6 -54 8 -140 7 l-140 -3 0 33 0 33
345 0 345 0 0 -150z"/>
<path d="M539 2482 c-23 -16 -26 -74 -4 -95 20 -20 102 -30 144 -18 19 6 41 7
50 2 9 -5 38 -9 64 -9 l48 0 -3 65 -3 66 -139 1 c-99 1 -144 -3 -157 -12z"/>
<path d="M2210 2509 c0 -24 -4 -29 -17 -25 -64 17 -82 17 -102 -3 -60 -60 26
-145 112 -112 20 8 34 7 54 -2 21 -9 27 -9 31 1 3 9 9 9 24 1 49 -26 96 38 67
90 -11 20 -23 26 -49 26 -30 1 -35 5 -38 28 -4 37 -42 39 -42 2 0 -14 -4 -25
-10 -25 -5 0 -10 11 -10 25 0 14 -4 25 -10 25 -5 0 -10 -14 -10 -31z"/>
<path d="M2620 2462 c0 -47 5 -83 12 -90 17 -17 48 -15 48 4 0 8 4 13 10 9 10
-6 50 13 62 30 4 6 8 0 8 -11 0 -30 21 -37 128 -39 l92 -1 0 58 c0 42 3 57 11
52 7 -4 10 -1 7 6 -3 9 -29 13 -86 14 -71 1 -82 3 -82 18 0 10 -7 18 -17 18
-10 0 -27 3 -39 6 -17 4 -24 -2 -36 -33 l-16 -38 -11 31 c-11 29 -39 44 -82
44 -5 0 -9 -35 -9 -78z"/>
<path d="M3392 2463 c-21 -54 -27 -82 -20 -90 14 -18 37 -16 44 2 4 8 17 15
31 15 31 0 83 -30 83 -47 0 -7 5 -13 10 -13 6 0 10 12 10 26 0 14 4 23 10 19
6 -3 10 -17 10 -31 0 -17 5 -24 20 -24 16 0 20 7 20 32 0 25 3 29 12 20 35
-35 83 7 75 67 -3 22 -2 39 1 38 4 -1 7 3 7 8 0 6 -7 9 -15 8 -23 -3 -83 -4
-100 -2 -45 6 -59 -1 -62 -33 -3 -32 -4 -31 -21 20 -10 28 -24 52 -30 52 -7 0
-22 3 -33 6 -19 5 -25 -3 -52 -73z"/>
<path d="M4020 2467 c0 -88 5 -107 31 -107 14 0 19 8 20 28 1 16 3 20 6 10 6
-25 26 -22 57 8 l26 27 0 -25 c0 -38 17 -45 102 -43 42 1 82 -2 90 -6 10 -7 9
-9 -4 -9 -10 0 -18 -5 -18 -11 0 -6 10 -9 21 -7 16 2 27 18 42 57 l21 54 18
-42 c19 -45 17 -61 -8 -61 -15 0 -19 -16 -6 -24 5 -3 18 -3 30 1 15 3 30 27
51 78 36 86 37 95 13 95 -13 0 -23 -13 -32 -42 l-13 -43 -15 43 c-17 44 -52
60 -52 23 0 -26 -10 -51 -21 -51 -5 0 -9 11 -9 24 0 35 -21 46 -89 49 -50 2
-61 5 -61 20 0 9 -6 17 -12 17 -7 0 -23 3 -35 6 -20 5 -26 0 -41 -37 l-19 -44
-12 38 c-7 20 -18 37 -24 37 -7 0 -22 3 -34 6 -22 6 -23 4 -23 -69z"/>
<path d="M6226 2532 c-17 -28 -54 -145 -50 -157 8 -19 40 -19 48 0 3 9 18 15
34 15 16 0 35 -7 42 -15 13 -16 50 -21 50 -6 0 5 17 4 40 -1 30 -8 44 -7 55 2
13 10 15 9 15 -9 0 -24 1 -24 76 -38 55 -10 102 -2 115 19 5 7 9 43 9 79 l0
67 -66 1 c-36 0 -70 3 -74 6 -5 3 -20 3 -34 -1 -21 -5 -26 -14 -32 -50 -9 -62
-24 -65 -24 -5 0 50 -1 51 -30 51 -30 0 -30 -1 -30 -52 0 -38 -3 -49 -10 -38
-5 8 -10 32 -10 53 0 42 -20 52 -21 10 0 -25 -2 -24 -17 14 -9 23 -19 43 -22
46 -11 10 -59 17 -64 9z"/>
<path d="M6936 2524 c-9 -8 -16 -22 -16 -30 0 -22 46 -64 69 -64 27 0 35 -17
14 -28 -22 -11 -44 -5 -60 16 -17 21 -25 10 -17 -22 4 -19 14 -27 41 -32 91
-17 128 72 42 101 -51 18 -51 40 0 31 36 -5 41 -4 41 13 0 32 -86 43 -114 15z"/>
<path d="M7092 2484 c-15 -10 -22 -25 -22 -48 0 -46 30 -70 86 -71 35 0 44 -4
44 -17 0 -10 5 -18 10 -18 6 0 10 12 10 26 0 34 24 26 28 -9 2 -19 9 -27 23
-27 15 0 19 7 19 31 0 27 2 30 15 19 23 -19 64 -4 72 28 16 59 -5 96 -51 89
-17 -2 -41 0 -53 6 -14 6 -27 6 -35 0 -14 -10 -34 -10 -89 1 -24 4 -41 1 -57
-10z"/>
<path d="M7692 2515 c-29 -37 -28 -86 2 -122 20 -23 32 -28 71 -28 36 0 51 5
64 22 l18 22 21 -22 c17 -17 34 -21 76 -21 59 0 76 8 58 26 -7 7 -12 29 -12
51 0 34 2 37 15 23 8 -8 15 -27 15 -43 0 -39 11 -52 48 -59 25 -5 32 -3 32 9
0 8 -9 17 -20 20 -15 4 -20 14 -20 36 0 24 4 31 20 31 11 0 20 7 20 15 0 8 -9
15 -20 15 -13 0 -20 7 -20 20 0 12 -7 20 -16 20 -9 0 -18 -9 -21 -20 -3 -11
-10 -20 -15 -20 -5 0 -12 9 -15 20 -7 26 -19 25 -26 -1 -5 -19 -11 -21 -41
-16 -21 3 -41 0 -53 -8 -16 -12 -21 -10 -43 17 -19 23 -36 31 -71 35 -41 5
-48 2 -67 -22z"/>
<path d="M8330 2462 c0 -77 9 -102 36 -102 8 0 14 18 16 48 l3 47 30 -45 c34
-50 75 -67 75 -30 0 19 2 19 23 6 55 -34 156 -24 175 18 8 20 10 19 26 -12 26
-51 49 -42 78 33 25 61 25 65 7 65 -12 0 -24 -14 -36 -42 l-19 -41 -13 41
c-18 52 -50 60 -49 12 1 -17 -4 -36 -10 -42 -9 -9 -12 -6 -12 13 -1 39 -21 55
-76 62 -37 4 -57 2 -73 -9 -20 -14 -21 -14 -21 15 0 17 -4 31 -9 31 -5 0 -16
3 -25 6 -13 5 -16 -2 -16 -42 l0 -49 -25 41 c-21 36 -47 53 -77 54 -5 0 -8
-35 -8 -78z"/>
<path d="M9070 2456 c0 -68 3 -88 15 -92 25 -10 105 6 123 25 16 16 18 16 45
-3 20 -14 42 -20 75 -19 52 1 99 1 152 -1 25 -1 35 4 38 16 2 13 -2 15 -19 11
-15 -4 -26 0 -35 12 -18 24 -1 55 31 55 15 0 25 6 25 14 0 16 -105 29 -130 16
-9 -5 -38 -4 -65 1 -36 7 -54 6 -69 -4 -17 -12 -22 -10 -46 16 -22 25 -36 31
-83 35 l-57 4 0 -86z"/>
<path d="M9730 2535 c0 -3 13 -26 29 -49 17 -25 31 -59 33 -82 2 -32 7 -40 26
-42 19 -3 22 1 22 35 0 25 10 53 30 83 16 25 30 39 30 33 0 -7 9 -13 20 -13
18 0 20 -7 20 -56 0 -57 14 -84 44 -84 13 0 16 13 16 70 0 63 2 70 20 70 18 0
20 -7 20 -60 0 -51 3 -60 18 -60 10 0 23 -5 29 -11 20 -20 110 -1 133 28 27
34 26 78 -3 107 -28 28 -82 36 -250 35 -115 -1 -118 -1 -134 -26 l-17 -25 -17
20 c-16 20 -69 41 -69 27z"/>
<path d="M361 2217 c-14 -7 -26 -18 -29 -26 -3 -10 4 -12 37 -6 54 9 54 -8 1
-60 -61 -60 -52 -75 46 -75 33 0 54 4 54 11 0 7 7 8 18 4 9 -4 80 -9 157 -11
l140 -4 21 26 c21 26 22 26 29 5 7 -24 43 -36 79 -27 29 7 51 63 41 104 -16
65 -77 83 -114 36 -14 -18 -21 -21 -21 -12 0 30 -28 40 -112 39 -46 -1 -90 -2
-98 -2 -8 -1 -39 0 -69 2 -40 2 -57 -2 -66 -14 -10 -13 -14 -14 -26 -3 -22 21
-62 27 -88 13z"/>
<path d="M1458 2222 c-49 -1 -88 -7 -88 -12 0 -6 16 -10 35 -10 40 0 40 0 18
-43 -25 -50 -34 -97 -17 -97 8 0 14 10 14 23 1 43 50 130 66 115 2 -3 -7 -35
-21 -73 -14 -37 -23 -70 -20 -73 9 -9 22 10 35 51 12 37 23 46 35 27 3 -5 19
-10 36 -10 33 0 40 -23 12 -39 -13 -7 -23 -5 -36 6 -20 19 -35 10 -18 -11 13
-16 92 -30 120 -21 38 12 55 101 26 142 -17 24 -59 30 -197 25z"/>
<path d="M2159 2216 c-27 -13 -42 -59 -33 -106 8 -46 20 -60 54 -60 38 0 60
29 60 78 0 80 -31 113 -81 88z"/>
<path d="M2475 2206 c-28 -28 -32 -69 -13 -123 12 -32 14 -33 65 -33 29 0 53
5 53 10 0 6 -7 10 -15 10 -16 0 -14 27 7 83 9 24 8 31 -8 47 -34 32 -61 34
-89 6z"/>
<path d="M2664 2216 c-17 -8 -34 -21 -38 -31 -11 -30 -6 -90 10 -113 31 -45
114 -15 114 41 0 35 -32 60 -65 51 -25 -6 -26 -5 -16 15 13 23 40 28 58 10 7
-7 13 -7 17 -1 4 6 -4 18 -16 26 -27 19 -25 19 -64 2z"/>
<path d="M2803 2219 c-13 -5 -23 -15 -23 -24 0 -20 10 -19 25 2 7 9 19 14 29
10 22 -9 20 -22 -6 -47 -18 -17 -19 -20 -5 -20 12 0 17 -8 17 -29 0 -40 -14
-46 -39 -19 -12 12 -21 20 -22 17 -11 -58 -16 -54 71 -54 86 0 100 7 100 52 0
32 -28 56 -61 51 -24 -4 -26 -2 -19 16 5 14 18 22 39 24 17 2 31 8 31 14 0 7
-15 9 -42 5 -23 -3 -49 -2 -57 3 -9 4 -26 4 -38 -1z"/>
<path d="M3347 2222 c-24 -5 -39 -46 -28 -76 10 -24 30 -36 62 -36 12 0 16 -5
13 -14 -9 -22 -32 -27 -49 -9 -21 21 -30 10 -13 -16 17 -27 61 -28 88 -1 27
27 28 110 3 132 -21 18 -51 26 -76 20z"/>
<path d="M3536 2215 c-33 -17 -42 -106 -14 -142 12 -15 107 -28 119 -16 5 5
35 5 74 -1 49 -7 68 -6 80 4 17 14 20 51 4 67 -8 8 -8 17 0 31 14 26 4 51 -23
57 -41 10 -220 10 -240 0z"/>
<path d="M3980 2223 c-50 -7 -70 -14 -70 -24 0 -6 9 -8 20 -4 19 6 20 2 20
-59 0 -59 -2 -66 -20 -66 -11 0 -20 -4 -20 -9 0 -5 54 -9 120 -9 66 0 120 4
120 9 0 8 -24 13 -58 12 -7 -1 3 17 23 38 57 64 38 118 -39 106 -17 -2 -40 -1
-51 2 -11 4 -31 5 -45 4z"/>
<path d="M4923 2219 c-27 -10 -39 -50 -23 -79 9 -18 19 -21 46 -18 39 5 44 -9
15 -36 -17 -15 -20 -15 -34 -1 -19 18 -27 19 -27 3 1 -31 17 -41 49 -30 19 7
31 7 31 1 0 -5 18 -9 40 -9 32 0 43 5 57 26 15 24 15 29 2 53 -9 16 -25 27
-42 29 -19 2 -27 9 -27 23 0 15 7 19 36 19 23 0 33 4 28 11 -4 7 -25 10 -54 7
-27 -3 -54 -2 -62 2 -7 4 -23 4 -35 -1z"/>
<path d="M5815 2168 c-40 -61 -42 -68 -16 -68 30 0 51 -11 51 -26 0 -8 5 -14
10 -14 6 0 10 7 10 15 0 8 9 15 20 15 13 0 20 -7 20 -20 0 -11 5 -20 10 -20 6
0 10 9 10 20 0 12 7 20 18 20 16 1 16 1 0 14 -13 10 -18 27 -18 65 0 57 -16
68 -43 29 l-16 -23 0 23 c-1 35 -18 26 -56 -30z"/>
<path d="M6569 2211 c-30 -24 -33 -109 -4 -141 35 -39 94 -16 96 38 3 67 -7
97 -36 110 -32 15 -29 15 -56 -7z"/>
<path d="M7300 2222 c-27 -8 -40 -35 -40 -84 0 -55 24 -88 64 -88 33 0 56 35
56 85 0 61 -36 101 -80 87z"/>
<path d="M8010 2222 c-27 -8 -40 -35 -40 -84 0 -35 6 -54 20 -68 24 -24 63
-26 84 -4 23 22 22 116 -1 136 -23 19 -44 26 -63 20z"/>
<path d="M8717 2222 c-39 -8 -50 -103 -16 -146 23 -29 69 -35 89 -11 17 20 24
85 12 116 -11 28 -53 48 -85 41z"/>
<path d="M9412 2203 c-21 -21 -24 -31 -19 -71 12 -112 127 -109 127 3 0 78
-60 116 -108 68z"/>
<path d="M9609 2218 c-18 -7 -21 -14 -16 -42 3 -18 1 -38 -5 -44 -17 -17 -1
-57 27 -70 36 -17 80 -15 95 3 8 9 17 12 24 6 17 -13 82 -22 110 -15 24 6 26
11 26 58 0 75 -16 100 -68 107 -26 3 -53 1 -67 -7 -14 -7 -27 -9 -30 -4 -7 12
-71 17 -96 8z"/>
<path d="M10062 2222 c-12 -2 -33 -20 -47 -40 l-25 -37 0 38 c0 23 -5 37 -12
37 -12 0 -88 -100 -88 -114 0 -3 18 -6 40 -6 33 0 40 -3 40 -20 0 -11 5 -20
10 -20 6 0 10 7 10 15 0 23 47 19 55 -5 5 -16 12 -19 33 -14 15 4 32 11 38 16
7 5 16 2 24 -7 20 -25 67 -19 87 11 15 24 15 29 2 53 -11 20 -23 26 -47 26
-18 0 -32 5 -32 10 0 20 23 35 53 35 16 0 26 4 22 10 -9 15 -61 12 -75 -5 -11
-13 -14 -13 -24 -2 -14 18 -35 24 -64 19z"/>
<path d="M346 1894 c-21 -20 -21 -38 0 -30 9 3 27 9 40 12 38 10 30 -24 -17
-72 -23 -23 -38 -47 -35 -53 9 -14 136 -15 136 0 0 5 5 7 12 3 24 -15 92 -22
114 -12 13 6 28 23 33 37 l9 26 1 -27 c1 -16 6 -28 11 -28 6 0 10 34 10 82 0
77 -1 80 -17 65 -15 -13 -21 -13 -36 -2 -25 18 -112 18 -127 0 -11 -13 -15
-13 -33 0 -28 20 -81 19 -101 -1z"/>
<path d="M703 1903 c-25 -5 -32 -33 -8 -33 11 0 15 -12 15 -50 0 -38 -4 -50
-15 -50 -8 0 -15 -7 -15 -15 0 -11 13 -15 53 -15 59 0 87 19 87 58 0 20 2 20
28 7 15 -8 35 -12 45 -9 21 7 22 -9 2 -26 -8 -7 -25 -10 -40 -6 -18 5 -25 2
-25 -9 0 -14 21 -19 65 -16 48 5 75 100 41 146 -18 24 -83 26 -100 3 -11 -16
-14 -15 -29 3 -16 18 -50 22 -104 12z"/>
<path d="M1510 1890 c-11 -21 -1 -27 17 -9 12 12 53 3 53 -12 0 -5 -9 -14 -20
-21 -20 -13 -27 -29 -12 -27 25 4 33 -3 30 -28 -4 -34 -36 -43 -55 -17 -12 16
-15 17 -23 4 -19 -29 -10 -37 43 -40 85 -3 101 -1 115 17 16 22 15 38 -3 57
-9 9 -11 17 -5 21 17 11 11 54 -9 65 -11 5 -42 10 -70 10 -40 0 -52 -4 -61
-20z"/>
<path d="M2812 1898 c-15 -15 -16 -45 -1 -53 7 -5 5 -13 -6 -25 -20 -22 -13
-55 15 -70 28 -15 97 -15 115 0 20 16 20 59 -1 67 -13 5 -12 9 7 29 12 13 26
24 30 24 5 0 9 -28 11 -62 l3 -63 53 -3 c31 -2 52 1 52 7 0 6 -7 11 -15 11
-11 0 -15 17 -17 73 l-3 72 -35 1 c-19 0 -43 -6 -52 -14 -15 -12 -20 -12 -40
2 -26 19 -99 21 -116 4z"/>
<path d="M3519 1894 c-15 -18 -4 -31 14 -15 17 14 47 4 47 -15 0 -8 -7 -17
-15 -20 -21 -9 -19 -21 6 -27 15 -4 20 -12 17 -29 -4 -28 -37 -36 -54 -13 -12
16 -14 16 -28 2 -18 -18 -21 -37 -6 -37 6 0 10 5 10 10 0 7 7 7 21 0 11 -6 37
-11 57 -10 70 3 87 2 134 -1 65 -5 83 14 83 86 0 31 -6 60 -13 67 -20 20 -256
22 -273 2z"/>
<path d="M4272 1887 c-22 -24 -32 -51 -10 -29 24 24 30 11 26 -52 l-4 -64 118
-1 c67 0 118 4 118 10 0 5 -17 9 -37 9 l-37 0 26 28 c52 55 57 99 12 116 -48
18 -124 -3 -124 -35 0 -14 11 -11 24 6 14 19 56 9 56 -14 0 -16 -78 -101 -92
-101 -4 0 -8 33 -10 73 -3 64 -5 72 -23 75 -12 2 -30 -8 -43 -21z"/>
<path d="M5691 1886 c-27 -29 -27 -40 0 -26 20 11 21 10 17 -54 l-3 -65 90 -1
c50 0 98 -1 108 -1 42 0 66 60 31 79 -14 8 -14 10 0 21 40 33 -3 71 -78 68
-57 -2 -79 -24 -59 -56 10 -16 9 -22 -3 -32 -10 -8 -13 -21 -9 -36 4 -16 1
-23 -10 -23 -12 0 -15 14 -15 74 0 71 -1 74 -24 74 -14 0 -34 -10 -45 -22z"/>
<path d="M6906 1894 c-24 -24 -22 -116 4 -139 25 -23 70 -23 87 1 21 28 17
110 -7 134 -24 24 -63 26 -84 4z"/>
<path d="M7107 1855 c-21 -30 -35 -59 -32 -65 3 -5 19 -10 36 -10 19 0 29 -5
29 -15 0 -8 4 -15 9 -15 5 0 11 7 15 15 8 22 26 18 26 -5 0 -11 5 -20 10 -20
6 0 10 9 10 20 0 12 7 20 18 20 16 1 16 1 0 14 -13 10 -18 27 -18 65 0 55 -4
60 -32 34 -17 -15 -18 -15 -18 0 0 29 -14 19 -53 -38z"/>
<path d="M7616 1888 c-23 -33 -21 -103 4 -128 41 -41 110 -22 110 32 0 26 -36
58 -66 58 -16 0 -24 5 -21 13 2 6 16 11 31 10 14 -1 26 3 26 8 0 6 5 7 10 4 6
-3 10 -2 10 3 0 30 -84 29 -104 0z"/>
<path d="M7831 1886 c-22 -23 -30 -49 -9 -28 24 24 30 11 26 -52 l-4 -65 123
0 c76 0 121 4 118 9 -4 6 -19 10 -36 10 -37 0 -37 9 1 45 35 34 40 79 11 95
-47 25 -141 5 -141 -31 0 -14 12 -11 25 7 15 21 55 10 55 -14 0 -15 -81 -102
-95 -102 -3 0 -5 33 -5 74 0 71 -1 74 -24 74 -14 0 -34 -10 -45 -22z"/>
<path d="M8326 1888 c-18 -25 -21 -90 -6 -118 5 -10 23 -23 41 -29 27 -9 33
-8 56 15 22 22 25 32 21 76 -6 57 -25 78 -69 78 -17 0 -34 -8 -43 -22z"/>
<path d="M8522 1898 c-7 -7 -12 -19 -12 -27 1 -14 2 -14 13 1 13 17 67 14 67
-3 0 -15 -82 -99 -96 -99 -8 0 -14 -6 -14 -14 0 -10 22 -13 98 -14 53 -1 118
-2 144 -3 56 -2 78 13 78 52 0 30 -31 59 -63 59 -34 0 -15 35 21 38 60 6 32
22 -38 22 -39 0 -70 -4 -70 -10 0 -6 -9 -6 -26 0 -35 14 -88 12 -102 -2z"/>
<path d="M9223 1884 c-15 -24 -15 -29 -2 -53 10 -18 24 -27 47 -29 35 -4 40
-13 16 -33 -12 -10 -20 -10 -34 -1 -11 6 -26 9 -35 6 -17 -7 -21 -34 -5 -34 6
0 10 5 10 10 0 7 6 7 20 0 27 -15 86 -16 103 -2 8 7 17 9 21 5 6 -6 66 -14
109 -14 42 0 66 60 31 79 -14 8 -14 10 0 21 41 34 2 69 -76 69 -32 0 -60 -4
-64 -9 -3 -5 -13 -5 -24 1 -10 5 -37 10 -59 10 -33 0 -44 -5 -58 -26z"/>
<path d="M9972 1902 c-33 -22 -35 -117 -3 -146 22 -20 75 -24 94 -7 11 8 21 9
34 3 18 -10 58 -15 101 -13 30 1 45 39 26 68 -9 14 -10 24 -4 28 17 11 11 54
-9 65 -29 15 -107 12 -121 -5 -11 -13 -14 -13 -27 0 -15 16 -70 20 -91 7z"/>
<path d="M352 1584 c-34 -24 -27 -35 18 -28 31 5 40 3 40 -8 0 -8 -18 -32 -40
-53 -61 -59 -52 -75 41 -75 35 0 51 4 55 15 4 10 10 12 18 7 6 -5 31 -12 55
-16 51 -8 87 10 94 46 3 17 5 14 6 -9 0 -18 6 -33 11 -33 6 0 10 36 10 87 0
81 -1 85 -18 70 -11 -11 -22 -13 -33 -7 -9 5 -40 10 -69 11 -41 2 -56 -2 -66
-16 -8 -10 -14 -14 -14 -8 0 11 -51 33 -74 33 -6 0 -22 -7 -34 -16z"/>
<path d="M723 1593 c-29 -3 -43 -9 -43 -19 0 -8 7 -14 15 -14 12 0 15 -13 15
-55 0 -42 -3 -55 -15 -55 -8 0 -15 -7 -15 -15 0 -24 102 -21 124 4 17 19 18
19 37 0 21 -21 60 -25 90 -9 20 11 27 64 9 75 -6 4 -5 13 3 25 20 33 -2 55
-53 55 -50 0 -73 -22 -53 -54 16 -25 -3 -46 -24 -26 -11 12 -11 18 -1 35 11
19 10 24 -11 41 -13 10 -26 18 -30 17 -3 -1 -25 -3 -48 -5z"/>
<path d="M1386 1573 c-31 -26 -33 -37 -6 -28 18 6 20 2 20 -53 0 -66 6 -72 81
-72 35 0 37 2 44 38 4 20 16 54 28 75 17 31 26 37 54 37 l33 0 -22 -52 c-23
-59 -33 -98 -25 -98 9 0 25 33 52 105 l24 64 -129 3 c-121 3 -130 2 -154 -19z"/>
<path d="M1847 1577 c-13 -18 -16 -19 -16 -4 -1 22 -61 25 -61 3 0 -9 7 -12
20 -9 24 6 27 -20 8 -62 -9 -21 -9 -28 1 -35 16 -9 6 -30 -15 -30 -8 0 -14 -4
-14 -10 0 -11 69 -14 94 -4 9 3 16 15 16 26 0 14 5 18 16 14 9 -3 31 -6 49 -6
27 0 34 -4 38 -22 3 -22 4 -22 12 -3 5 11 13 24 19 28 8 6 7 10 -1 14 -21 8
-15 57 7 71 19 12 20 10 20 -52 0 -49 4 -65 16 -70 22 -9 24 -8 24 9 0 8 -4
15 -10 15 -6 0 -10 32 -10 77 l0 76 -23 -21 c-27 -26 -37 -28 -37 -7 0 33 -36
13 -65 -35 -38 -65 -55 -65 -55 -1 0 58 -11 70 -33 38z"/>
<path d="M2631 1589 c-20 -8 -23 -14 -18 -43 3 -18 1 -38 -5 -44 -18 -18 0
-59 33 -72 42 -18 83 -3 87 31 2 14 -4 31 -12 38 -14 11 -14 15 -1 28 8 8 15
20 15 27 0 31 -59 52 -99 35z"/>
<path d="M2828 1593 c-21 -5 -34 -41 -20 -55 7 -7 5 -19 -6 -38 -15 -27 -15
-30 1 -48 21 -22 98 -38 123 -24 9 5 39 5 70 0 63 -10 91 0 100 36 9 39 -11
66 -51 66 -19 0 -35 4 -35 9 0 17 40 39 61 34 11 -3 19 0 19 6 0 11 -16 12
-110 11 -57 -1 -106 1 -120 4 -8 2 -23 1 -32 -1z"/>
<path d="M4380 1583 c-11 -8 -20 -25 -20 -38 0 -22 -2 -23 -35 -12 -19 6 -35
16 -35 24 0 8 13 13 35 13 19 0 35 5 35 10 0 6 -24 10 -54 10 -47 0 -54 -3
-60 -22 -12 -45 -7 -55 25 -56 39 -1 53 -14 44 -41 -8 -25 -43 -28 -60 -4 -8
10 -14 12 -19 5 -18 -29 60 -62 105 -45 18 7 42 8 66 2 56 -13 71 -11 93 11
23 23 28 106 8 132 -18 22 -102 29 -128 11z"/>
<path d="M4998 1593 c-28 -7 -24 -77 5 -98 l22 -15 -22 -6 c-16 -4 -23 -14
-23 -30 0 -22 4 -24 48 -24 54 0 52 -5 55 109 2 59 -26 80 -85 64z"/>
<path d="M5688 1593 c-18 -4 -33 -32 -22 -42 4 -3 9 0 11 7 3 6 16 12 29 12
17 0 24 -6 24 -20 0 -11 -7 -20 -15 -20 -22 0 -18 -18 6 -25 14 -5 19 -14 17
-28 -4 -29 -44 -35 -64 -10 -14 17 -15 17 -12 -2 8 -53 121 -60 134 -8 4 14 2
34 -4 44 -10 15 -7 21 18 39 l29 21 3 -68 3 -68 44 -3 c24 -2 49 2 54 7 8 8 5
11 -11 11 -21 0 -22 4 -22 74 0 74 0 75 -27 78 -17 2 -37 -4 -50 -16 -21 -17
-24 -18 -40 -4 -19 16 -76 27 -105 21z"/>
<path d="M6144 1585 c-12 -8 -25 -30 -28 -50 -7 -33 -9 -35 -46 -35 -22 0 -40
-4 -40 -10 0 -5 19 -10 43 -10 34 0 44 -4 52 -22 8 -18 18 -23 47 -23 20 0 40
-3 44 -7 14 -14 44 -8 64 12 25 25 27 95 4 128 -12 17 -24 22 -52 21 -20 -1
-44 1 -52 5 -8 3 -25 0 -36 -9z"/>
<path d="M6329 1581 c-13 -11 -21 -23 -16 -27 4 -4 13 1 21 11 8 11 20 16 30
12 20 -8 21 -47 1 -47 -22 0 -18 -17 6 -23 15 -4 20 -12 17 -29 -4 -29 -34
-35 -59 -12 -16 14 -19 15 -19 2 0 -8 9 -23 19 -32 18 -16 23 -17 50 -3 25 13
31 13 35 1 10 -25 99 -10 118 19 13 21 9 67 -7 73 -21 8 -19 40 3 50 21 9 -58
23 -94 16 -29 -5 -32 -22 -5 -22 17 0 19 -5 14 -34 -5 -30 -3 -35 18 -38 28
-4 41 -48 15 -48 -9 0 -16 5 -16 10 0 6 -5 10 -11 10 -6 0 -8 -7 -5 -16 4 -11
1 -14 -12 -12 -10 2 -18 14 -20 33 -2 16 -8 33 -14 36 -7 4 -6 14 1 27 9 18 8
25 -9 42 -25 25 -32 25 -61 1z"/>
<path d="M6948 1593 c-37 -4 -38 -5 -38 -44 0 -30 4 -39 18 -39 29 -1 63 -33
52 -50 -6 -10 -10 -11 -10 -2 0 6 -4 12 -10 12 -5 0 -10 -7 -10 -16 0 -12 -7
-14 -30 -9 -18 4 -30 3 -30 -4 0 -31 122 -21 145 12 18 26 20 97 3 119 -16 20
-42 26 -90 21z"/>
<path d="M7117 1593 c-45 -4 -58 -23 -15 -23 22 0 22 -1 2 -107 -4 -20 -2 -33
4 -33 6 0 12 12 14 27 3 24 7 27 46 28 23 1 42 -2 42 -6 0 -18 -35 -40 -57
-36 -15 3 -22 0 -20 -7 7 -22 46 -18 72 8 19 19 25 35 25 68 0 24 -4 48 -8 54
-7 11 -48 35 -54 32 -2 -1 -24 -3 -51 -5z"/>
<path d="M7812 1584 c-10 -8 -13 -20 -9 -41 3 -17 1 -35 -5 -41 -6 -6 -8 -22
-4 -36 5 -19 16 -28 47 -36 23 -6 53 -8 68 -4 14 4 31 6 38 5 7 -1 17 15 22
36 16 57 48 103 71 103 11 0 20 -1 20 -3 0 -2 -11 -31 -25 -65 -27 -66 -30
-82 -16 -82 7 0 74 161 68 166 -1 1 -60 4 -131 6 -83 2 -134 -1 -144 -8z"/>
<path d="M8241 1591 c-25 -3 -46 -11 -48 -18 -3 -7 3 -9 16 -6 20 5 21 1 21
-61 0 -60 -2 -66 -21 -66 -11 0 -18 -4 -15 -9 7 -11 236 -12 236 -1 0 11 -49
22 -63 13 -6 -4 5 13 26 38 58 72 46 111 -35 108 -23 -1 -50 1 -58 3 -8 3 -35
2 -59 -1z"/>
<path d="M9239 1588 c-10 -4 -19 -14 -19 -23 0 -20 16 -19 24 2 4 10 10 13 14
8 4 -6 13 -10 21 -10 31 0 21 -28 -28 -76 -28 -28 -51 -53 -51 -57 0 -9 147
-14 172 -6 10 3 18 15 18 27 0 12 11 42 24 67 17 34 29 46 49 48 l27 3 -25
-67 c-27 -72 -29 -84 -17 -84 8 0 74 161 69 166 -6 6 -261 8 -278 2z"/>
<path d="M9991 1574 c-16 -20 -20 -36 -16 -63 3 -20 7 -47 9 -61 7 -61 106
-19 106 45 0 92 -55 136 -99 79z"/>
<path d="M10137 1584 c-12 -12 -8 -64 5 -64 6 0 4 -8 -7 -20 -40 -44 13 -98
71 -71 17 8 24 19 24 40 0 16 -4 33 -10 36 -6 4 -5 13 3 25 17 29 -2 54 -44
58 -19 2 -38 0 -42 -4z"/>
<path d="M340 1259 c-15 -26 -7 -34 18 -20 62 33 68 -6 11 -65 -23 -23 -38
-47 -35 -53 9 -14 136 -15 136 0 0 5 5 7 12 3 6 -4 33 -9 60 -11 53 -4 74 6
88 42 8 18 9 17 9 -7 1 -16 6 -28 11 -28 6 0 10 34 10 82 0 78 -1 81 -19 64
-16 -15 -19 -15 -31 -1 -8 10 -30 15 -65 15 -35 0 -57 -5 -65 -15 -12 -14 -15
-14 -30 0 -26 23 -97 20 -110 -6z"/>
<path d="M693 1273 c-7 -2 -13 -12 -13 -20 0 -9 6 -13 15 -9 12 4 15 -5 15
-49 0 -42 -3 -55 -15 -55 -8 0 -15 -7 -15 -15 0 -12 13 -15 55 -15 42 0 55 3
55 15 0 8 -4 15 -10 15 -16 0 -12 27 10 70 19 38 23 40 65 40 50 0 53 -5 26
-58 -32 -64 -35 -82 -13 -82 14 0 27 19 51 71 17 40 31 78 31 85 0 11 -25 14
-122 13 -68 0 -129 -3 -135 -6z"/>
<path d="M1197 1262 c-25 -27 -23 -106 3 -132 20 -20 45 -25 74 -14 37 14 40
133 4 156 -23 14 -64 9 -81 -10z"/>
<path d="M1385 1257 c-8 -12 -15 -41 -15 -64 0 -56 26 -83 79 -83 58 0 73 20
69 92 l-3 58 32 0 32 0 -24 -42 c-26 -49 -40 -98 -27 -98 5 0 19 26 31 59 23
63 41 85 65 79 12 -2 10 -16 -14 -75 -19 -51 -24 -73 -15 -73 7 0 24 30 38 68
14 37 28 75 32 84 7 17 -3 18 -129 17 -127 0 -137 -2 -151 -22z"/>
<path d="M2096 1261 c-11 -13 -14 -21 -7 -26 6 -3 14 0 17 8 7 19 51 19 58 0
7 -16 -70 -103 -90 -103 -8 0 -14 -6 -14 -13 0 -21 283 -22 305 -1 33 33 5 94
-43 94 -15 0 -22 6 -22 20 0 16 7 20 35 20 19 0 35 5 35 10 0 6 -30 10 -70 10
-42 0 -70 -4 -70 -10 0 -7 -6 -7 -19 0 -33 17 -96 12 -115 -9z"/>
<path d="M2556 1258 c-7 -13 -16 -40 -19 -60 -4 -29 -1 -42 18 -62 25 -27 49
-33 60 -16 4 7 12 7 25 0 31 -17 59 -11 76 15 17 26 67 35 79 15 3 -5 -1 -10
-9 -10 -9 0 -16 -7 -16 -15 0 -8 4 -15 9 -15 23 0 41 14 41 31 0 21 19 17 61
-14 31 -22 63 -16 80 14 11 21 4 59 -12 59 -5 0 -4 9 3 20 17 26 0 54 -34 58
-28 3 -60 -21 -53 -41 3 -7 -6 -25 -20 -42 l-24 -30 -1 58 c0 32 -4 57 -10 57
-6 0 -25 -21 -43 -46 l-32 -45 -6 30 c-4 17 -12 38 -19 46 -15 17 -51 20 -67
4 -8 -8 -13 -8 -17 0 -12 19 -55 12 -70 -11z"/>
<path d="M3532 1272 c-18 -12 -32 -69 -25 -104 9 -48 34 -56 163 -56 63 0 121
5 128 11 15 12 16 49 1 64 -8 8 -8 17 0 31 13 25 5 50 -17 56 -29 8 -236 6
-250 -2z"/>
<path d="M4247 1265 c-32 -31 -18 -46 17 -20 25 19 42 19 50 -1 4 -10 -11 -33
-41 -65 -25 -27 -43 -52 -39 -56 11 -12 136 -16 136 -5 0 5 -14 12 -31 16
l-30 6 28 35 c15 19 32 35 38 35 5 0 4 -5 -3 -12 -19 -19 -14 -55 10 -72 34
-24 113 -21 132 5 14 21 11 48 -7 60 -5 4 -3 15 5 28 10 16 10 25 2 39 -11 16
-42 19 -149 13 -5 0 -31 2 -56 5 -35 4 -50 2 -62 -11z"/>
<path d="M4764 1255 c-21 -33 -14 -113 12 -132 25 -18 58 -16 77 5 24 26 23
113 -1 135 -28 25 -69 21 -88 -8z"/>
<path d="M5117 1248 c-13 -18 -32 -45 -41 -59 l-17 -26 41 -7 c26 -4 40 -11
40 -21 0 -8 5 -15 10 -15 6 0 10 7 10 15 0 8 9 15 20 15 13 0 20 -7 20 -20 0
-11 5 -20 10 -20 6 0 10 9 10 19 0 11 6 22 13 25 10 5 10 7 0 12 -8 3 -13 26
-13 60 0 60 -16 72 -44 32 l-16 -22 0 22 c0 31 -15 27 -43 -10z"/>
<path d="M5672 1268 c-15 -15 -16 -45 -2 -53 7 -4 5 -14 -4 -27 -28 -40 6 -78
70 -78 33 0 46 5 58 22 13 18 16 19 16 5 0 -9 5 -17 10 -17 6 0 10 8 10 18 0
35 51 122 71 122 23 0 24 5 -6 -68 -27 -66 -30 -82 -17 -82 7 0 33 57 68 153
6 16 -4 17 -128 17 -91 0 -138 -4 -146 -12z"/>
<path d="M6189 1258 c-18 -33 -14 -106 7 -129 24 -26 69 -25 88 3 9 12 16 41
16 63 0 56 -22 85 -65 85 -25 0 -37 -6 -46 -22z"/>
<path d="M6386 1261 c-10 -11 -16 -36 -16 -69 0 -72 15 -80 156 -80 61 0 116
3 121 7 21 13 24 49 6 67 -13 12 -14 19 -5 22 16 5 16 47 -1 60 -8 7 -60 11
-129 11 -98 0 -118 -2 -132 -18z"/>
<path d="M7089 1259 c-12 -23 -3 -41 11 -20 4 8 20 15 34 17 21 2 26 -2 26
-20 0 -29 -76 -98 -107 -98 -24 0 -33 -17 -10 -19 202 -13 203 -13 217 39 15
55 47 102 70 102 21 0 23 7 -19 -97 -15 -38 -17 -53 -8 -53 12 0 68 131 67
157 0 10 -34 13 -135 12 -125 0 -136 -2 -146 -20z"/>
<path d="M7621 1271 c-9 -6 -12 -20 -9 -40 3 -18 1 -34 -4 -37 -15 -9 -8 -50
10 -67 36 -32 112 -13 112 28 0 7 -8 21 -17 31 -13 13 -14 19 -5 22 15 5 16
44 0 60 -14 14 -67 16 -87 3z"/>
<path d="M7812 1268 c-15 -15 -16 -45 -2 -53 6 -4 4 -12 -5 -21 -38 -38 1 -84
70 -84 47 0 60 7 69 36 4 14 1 28 -10 38 -15 16 -14 18 7 37 l24 21 3 -58 c2
-32 9 -62 15 -66 18 -11 107 -10 107 2 0 6 -9 10 -20 10 -18 0 -20 7 -20 75
l0 75 -32 -2 c-18 -1 -41 -8 -50 -16 -16 -13 -20 -13 -36 1 -22 20 -102 23
-120 5z"/>
<path d="M8203 1273 c-21 -8 -14 -26 7 -20 18 5 20 0 20 -59 0 -57 -2 -64 -20
-64 -11 0 -20 -4 -20 -9 0 -5 54 -9 120 -10 68 0 120 4 120 10 0 9 -21 13 -54
10 -15 -1 -11 7 18 39 37 41 46 79 24 98 -13 10 -190 14 -215 5z"/>
<path d="M8572 1268 c-15 -15 -16 -38 -1 -38 6 0 1 -13 -10 -29 -23 -32 -27
-51 -10 -51 6 0 9 -7 5 -15 -4 -11 1 -15 17 -15 12 0 31 -3 42 -5 27 -7 55 11
36 24 -11 7 -11 9 0 14 12 4 11 7 -1 16 -12 9 -13 14 -2 31 15 25 15 53 0 68
-15 15 -61 15 -76 0z"/>
<path d="M9042 1268 c-15 -15 -16 -45 -2 -53 6 -4 4 -12 -5 -21 -20 -21 -19
-40 5 -64 20 -20 74 -27 96 -12 22 14 25 49 7 68 -13 12 -14 19 -5 22 15 5 16
44 0 60 -16 16 -80 16 -96 0z"/>
<path d="M9231 1267 c-13 -13 -15 -37 -2 -37 5 0 11 6 14 13 7 18 51 14 55 -5
1 -8 -20 -36 -48 -62 -27 -26 -50 -50 -50 -54 0 -4 65 -9 145 -10 l144 -3 17
27 c16 24 16 29 3 53 -9 16 -25 27 -42 29 -19 2 -27 9 -27 23 0 15 7 19 36 19
20 0 33 4 29 10 -8 14 -260 11 -274 -3z"/>
<path d="M9991 1266 c-6 -7 -10 -31 -9 -53 0 -22 -2 -44 -5 -50 -12 -18 23
-53 53 -53 47 0 63 25 58 93 -3 36 -10 62 -19 68 -21 13 -65 11 -78 -5z"/>
<path d="M346 954 c-22 -22 -20 -38 4 -30 11 3 29 9 40 12 35 11 24 -28 -20
-71 -58 -56 -53 -65 30 -65 45 0 70 4 70 11 0 8 4 8 13 1 18 -15 89 -20 114
-9 12 5 27 22 32 36 9 26 9 26 10 -6 1 -18 6 -33 11 -33 6 0 10 36 10 87 0 81
-1 85 -17 70 -16 -13 -21 -14 -37 -2 -21 16 -111 14 -128 -3 -7 -7 -19 -5 -36
4 -36 18 -77 18 -96 -2z"/>
<path d="M723 963 c-29 -3 -43 -9 -43 -19 0 -8 7 -14 15 -14 11 0 15 -12 15
-50 0 -38 -4 -50 -15 -50 -8 0 -15 -7 -15 -15 0 -13 11 -15 62 -13 54 3 64 6
74 27 l12 23 7 -21 c14 -46 91 -47 115 -1 21 40 -17 88 -61 77 -23 -6 -25 6
-4 23 8 7 25 10 40 6 28 -7 37 17 9 28 -42 16 -104 -17 -104 -56 0 -15 -4 -18
-17 -13 -10 4 -26 10 -35 12 -22 6 -24 43 -3 43 9 0 18 -7 21 -15 8 -20 24
-19 24 0 0 12 -45 41 -53 33 -1 -1 -21 -3 -44 -5z"/>
<path d="M1200 950 c-14 -14 -20 -33 -20 -67 0 -57 6 -68 44 -83 38 -14 75 9
78 48 3 58 -4 88 -24 105 -27 22 -53 22 -78 -3z"/>
<path d="M1406 920 c-54 -75 -55 -80 -13 -80 27 0 36 -5 41 -22 l7 -23 9 23
c12 27 30 29 30 2 0 -11 5 -20 10 -20 6 0 10 5 10 11 0 8 4 8 14 0 8 -6 40
-12 71 -13 46 -1 60 2 71 17 18 24 18 40 -1 59 -9 9 -11 17 -5 21 17 11 11 54
-10 65 -10 6 -41 8 -67 4 -26 -3 -60 -5 -75 -5 -15 0 -31 -5 -34 -11 -5 -8
-10 -6 -14 7 -5 14 -13 8 -44 -35z"/>
<path d="M2062 954 c-43 -30 -19 -97 36 -97 27 0 30 -3 21 -19 -11 -21 -39
-24 -57 -6 -6 6 -14 9 -18 6 -3 -4 4 -16 16 -28 23 -23 51 -20 83 8 25 22 24
105 -3 132 -24 24 -48 25 -78 4z"/>
<path d="M2253 944 c-29 -29 -31 -92 -5 -122 24 -28 86 -35 113 -13 43 35 19
101 -38 101 -13 0 -23 5 -23 11 0 6 7 9 15 5 9 -3 15 0 15 10 0 12 6 15 21 11
13 -3 19 -1 16 6 -2 7 -23 12 -47 13 -33 1 -50 -5 -67 -22z"/>
<path d="M2815 954 c-17 -18 -20 -40 -5 -49 6 -4 4 -16 -6 -31 -15 -22 -15
-26 -1 -48 17 -25 75 -39 112 -26 11 4 45 4 75 0 30 -4 65 -4 77 1 30 11 39
46 18 69 -11 12 -13 20 -6 25 17 10 13 53 -7 64 -9 5 -42 7 -72 5 -66 -5 -63
-5 -122 1 -34 3 -51 0 -63 -11z"/>
<path d="M3533 959 c-13 -4 -23 -15 -23 -24 0 -19 16 -20 23 -1 8 19 57 8 57
-13 0 -19 -69 -91 -88 -91 -7 0 -12 -7 -12 -15 0 -12 17 -15 93 -15 l93 0 12
43 c16 60 48 107 72 107 11 0 20 -1 20 -3 0 -2 -11 -31 -25 -65 -27 -66 -30
-82 -17 -82 8 0 73 152 67 158 -6 7 -253 9 -272 1z"/>
<path d="M3953 963 c-43 -4 -61 -23 -23 -23 18 0 20 -7 20 -60 0 -53 -2 -60
-20 -60 -11 0 -20 -4 -20 -10 0 -6 47 -10 120 -10 73 0 120 4 120 10 0 6 -16
10 -36 10 l-36 0 36 40 c20 22 36 49 36 60 0 16 7 20 34 20 l33 0 -23 -47
c-25 -48 -31 -93 -14 -93 6 0 10 8 10 19 0 10 13 45 30 77 16 32 28 59 27 60
-2 3 -176 6 -197 4 -8 -1 -24 0 -35 3 -11 2 -39 2 -62 0z"/>
<path d="M4775 957 c-13 -11 -17 -22 -12 -44 3 -17 1 -35 -5 -41 -17 -17 0
-62 28 -72 51 -20 107 35 75 73 -6 8 -6 18 -1 27 31 49 -35 93 -85 57z"/>
<path d="M4979 963 c-17 -4 -29 -31 -29 -65 0 -13 7 -16 28 -13 38 4 54 -7 50
-36 -4 -30 -44 -38 -62 -13 -8 10 -15 13 -19 7 -8 -13 21 -38 51 -46 29 -7 79
10 86 29 9 22 46 17 56 -8 l9 -23 7 23 c8 27 34 29 41 2 7 -25 23 -26 23 -1 0
11 6 22 13 25 10 5 10 7 0 12 -8 3 -13 25 -13 55 0 41 -3 49 -19 49 -10 0 -22
-8 -26 -17 -6 -16 -8 -15 -17 7 l-9 25 -17 -21 c-9 -11 -24 -30 -32 -42 -14
-19 -18 -20 -52 -9 -21 6 -38 17 -38 23 0 7 17 15 38 19 31 6 34 9 17 15 -21
9 -60 10 -86 3z"/>
<path d="M6203 955 c-42 -29 -33 -138 13 -155 31 -12 70 5 78 34 26 95 -27
166 -91 121z"/>
<path d="M6407 944 c-32 -27 -34 -38 -7 -29 18 6 20 2 20 -54 l0 -60 93 -3
c50 -2 103 1 117 7 28 11 38 48 20 71 -10 11 -10 17 0 29 13 16 5 54 -13 57
-82 11 -137 0 -137 -27 0 -19 16 -19 24 0 3 8 12 15 21 15 23 0 31 -31 12 -45
-22 -16 -21 -22 4 -28 15 -4 20 -12 17 -29 -4 -29 -34 -35 -59 -12 -17 16 -19
16 -19 1 0 -10 -4 -17 -10 -17 -6 0 -10 30 -10 69 0 64 -2 69 -23 73 -15 3
-34 -4 -50 -18z"/>
<path d="M7645 915 c-40 -63 -43 -75 -17 -75 11 0 27 -9 37 -20 22 -24 58 -26
79 -4 18 17 21 50 6 59 -5 3 -7 20 -3 37 5 23 2 34 -12 45 -34 24 -53 15 -90
-42z"/>
<path d="M7808 959 c-10 -5 -18 -17 -18 -26 0 -15 2 -14 19 1 19 18 51 12 51
-9 0 -7 -10 -20 -22 -28 -18 -12 -19 -16 -7 -16 23 -1 41 -25 33 -45 -8 -21
-50 -21 -58 0 -5 13 -9 14 -21 4 -35 -29 -2 -43 103 -42 44 0 70 50 40 80 -8
8 -8 15 1 26 17 20 5 53 -22 60 -33 9 -80 7 -99 -5z"/>
<path d="M8885 943 c-28 -24 -28 -46 0 -23 13 11 15 4 15 -54 l0 -66 125 0
c77 0 125 4 125 10 0 6 -16 10 -36 10 l-36 0 36 40 c41 46 45 73 14 94 -33 21
-127 15 -144 -9 -12 -16 -14 -16 -14 -3 0 27 -54 28 -85 1z"/>
<path d="M9632 954 c-26 -18 -28 -36 -7 -54 14 -11 13 -14 -1 -24 -9 -7 -14
-22 -12 -36 7 -54 100 -59 106 -6 2 15 -1 33 -7 39 -6 8 -6 18 -1 27 14 22 12
36 -6 54 -20 20 -43 20 -72 0z"/>
<path d="M9968 963 c-10 -2 -21 -17 -24 -31 -3 -15 -7 -33 -10 -40 -3 -9 5
-11 29 -7 42 8 64 -13 47 -44 -12 -24 -48 -28 -56 -6 -5 11 -10 12 -25 2 -20
-12 -26 -37 -9 -37 6 0 10 5 10 12 0 9 3 9 12 0 7 -7 28 -12 49 -12 36 0 36 0
64 75 15 42 26 78 24 80 -7 6 -94 13 -111 8z"/>
<path d="M340 629 c-13 -24 -5 -38 12 -21 7 7 22 12 35 12 36 0 28 -32 -18
-73 -22 -21 -39 -43 -37 -50 6 -16 138 -23 138 -7 0 6 5 8 11 4 7 -4 32 -9 57
-11 52 -4 88 15 95 49 3 17 5 14 6 -9 0 -18 6 -33 11 -33 6 0 10 33 10 80 0
77 -1 80 -20 68 -15 -10 -22 -10 -32 0 -18 18 -113 15 -128 -3 -12 -14 -15
-14 -30 0 -26 23 -97 20 -110 -6z"/>
<path d="M687 643 c-13 -13 -7 -32 8 -27 12 5 15 -4 15 -50 0 -43 -3 -56 -15
-56 -8 0 -15 -7 -15 -15 0 -11 13 -15 54 -15 47 0 57 4 75 27 30 38 16 82 -28
86 -13 1 -21 8 -21 19 0 13 8 18 30 18 17 0 30 5 30 10 0 11 -123 14 -133 3z"/>
<path d="M1370 640 c0 -6 18 -10 40 -10 l40 0 -16 -25 c-8 -13 -22 -45 -29
-70 -12 -39 -12 -45 0 -45 8 0 15 9 15 20 0 39 51 133 64 119 4 -3 -5 -36 -19
-73 -28 -75 -28 -76 -16 -76 5 0 18 21 29 48 17 38 21 42 21 21 2 -45 22 -61
83 -65 65 -5 88 10 88 55 0 37 -22 54 -60 49 -16 -3 -30 -2 -30 1 1 18 31 41
54 41 14 0 26 4 26 9 0 4 -65 9 -145 10 -91 0 -145 -3 -145 -9z"/>
<path d="M1776 643 c-13 -13 -5 -24 14 -18 19 6 20 2 20 -59 0 -59 -2 -66 -20
-66 -11 0 -20 -4 -20 -10 0 -15 103 -12 125 4 16 11 21 11 33 0 17 -18 43 -18
67 0 16 11 22 11 46 -3 26 -14 29 -14 48 3 42 38 18 103 -34 94 -20 -4 -25 -1
-25 14 0 24 27 34 52 19 25 -15 35 -7 18 14 -16 19 -54 19 -70 0 -12 -14 -15
-14 -30 0 -20 18 -61 20 -78 3 -8 -8 -15 -8 -24 -1 -14 12 -112 16 -122 6z"/>
<path d="M2296 634 c-22 -21 -29 -57 -22 -99 8 -41 36 -60 74 -49 15 4 33 6
40 5 9 -1 12 19 12 77 l0 79 -44 1 c-29 2 -50 -3 -60 -14z"/>
<path d="M2470 635 c-21 -25 -24 -89 -6 -123 15 -29 21 -32 66 -32 28 0 50 5
50 10 0 6 -7 10 -15 10 -12 0 -13 9 -8 45 8 62 -11 105 -47 105 -15 0 -33 -7
-40 -15z"/>
<path d="M2637 632 c-37 -40 -12 -152 33 -152 51 0 68 40 56 125 -7 43 -9 45
-40 45 -19 0 -40 -8 -49 -18z"/>
<path d="M2789 634 c-6 -8 -9 -18 -5 -21 4 -4 11 -1 15 6 11 17 45 10 49 -11
2 -10 -6 -19 -19 -23 -22 -7 -22 -8 5 -22 30 -16 31 -39 4 -57 -13 -8 -21 -6
-36 7 -25 23 -32 21 -32 -6 0 -21 4 -23 84 -25 49 -1 87 2 91 8 3 5 -3 10 -14
10 -19 0 -21 6 -21 74 l0 75 -54 0 c-36 0 -59 -6 -67 -15z"/>
<path d="M3326 628 c-9 -12 -16 -28 -16 -35 0 -22 39 -53 66 -53 28 0 29 -17
1 -34 -12 -8 -21 -5 -36 8 -17 15 -21 16 -21 5 0 -41 66 -53 100 -19 25 25 28
111 4 134 -24 24 -80 20 -98 -6z"/>
<path d="M3520 630 c-5 -10 -10 -41 -10 -69 0 -42 4 -53 23 -64 27 -17 93 -21
102 -7 4 7 12 7 25 0 32 -17 115 -12 133 8 21 23 22 46 2 62 -11 9 -12 16 -2
31 9 14 9 24 1 37 -10 14 -29 17 -138 19 -114 2 -127 0 -136 -17z"/>
<path d="M4056 628 c-23 -33 -21 -103 4 -128 42 -42 89 -17 97 53 4 34 1 54
-11 72 -21 33 -68 34 -90 3z"/>
<path d="M4245 628 c-18 -27 -20 -98 -2 -122 16 -22 91 -33 111 -17 10 8 21 9
33 3 26 -13 104 -14 119 -1 16 13 19 65 4 74 -6 4 -5 13 3 25 9 15 9 25 1 38
-9 14 -29 17 -132 19 -115 2 -122 1 -137 -19z"/>
<path d="M4907 632 c-25 -27 -23 -106 3 -132 23 -23 58 -26 84 -7 26 19 33 99
12 132 -20 31 -74 35 -99 7z"/>
<path d="M5102 638 c-15 -15 -16 -45 -1 -54 8 -5 6 -10 -5 -16 -9 -5 -16 -20
-16 -33 0 -14 -4 -25 -10 -25 -5 0 -10 -7 -10 -15 0 -18 17 -20 22 -4 3 9 9 9
25 0 12 -6 40 -11 62 -11 63 0 91 42 54 82 -9 11 -11 18 -5 18 18 0 14 57 -4
64 -27 10 -99 7 -112 -6z"/>
<path d="M5600 630 c-11 -20 3 -30 15 -10 8 14 42 13 51 -2 4 -6 -2 -19 -15
-29 -21 -17 -21 -18 -1 -24 13 -4 20 -15 20 -30 0 -32 -11 -37 -45 -19 -36 19
-45 9 -17 -18 19 -20 26 -21 52 -11 17 7 32 7 36 2 8 -14 68 -11 89 4 14 11
17 22 12 54 -5 27 -2 45 8 59 27 36 19 44 -45 44 -33 0 -60 -4 -60 -10 0 -5
15 -10 34 -10 36 0 53 -19 33 -39 -6 -6 -19 -11 -29 -11 -10 0 -18 -4 -18 -10
0 -5 9 -10 19 -10 18 0 19 -3 9 -31 -8 -23 -15 -29 -32 -27 -11 2 -20 10 -18
17 1 7 -4 23 -12 36 -11 16 -12 25 -4 33 8 8 8 18 0 37 -15 32 -66 35 -82 5z"/>
<path d="M6190 635 c-32 -39 -4 -95 48 -95 26 0 26 -17 -1 -34 -12 -8 -21 -5
-36 8 -17 15 -21 16 -21 5 0 -23 21 -39 51 -39 57 0 91 94 53 148 -18 26 -75
30 -94 7z"/>
<path d="M6397 597 c-21 -30 -37 -56 -37 -59 0 -3 16 -9 35 -12 21 -4 35 -13
35 -21 0 -8 5 -15 10 -15 6 0 10 7 10 15 0 8 7 15 15 15 8 0 15 -9 15 -20 0
-11 5 -20 10 -20 6 0 10 5 10 10 0 7 6 7 19 0 11 -5 38 -10 61 -10 57 0 80 14
80 50 0 16 -4 32 -10 35 -6 4 -5 13 3 25 21 35 -2 55 -67 58 -32 2 -64 -2 -71
-8 -10 -8 -14 -7 -18 2 -3 11 -8 11 -26 0 -12 -7 -21 -8 -21 -2 0 22 -19 7
-53 -43z"/>
<path d="M7080 640 c0 -5 18 -10 39 -10 l40 0 -24 -42 c-29 -54 -41 -102 -24
-96 7 2 18 24 26 49 13 46 47 98 57 88 3 -3 -5 -34 -19 -69 -28 -70 -29 -80
-16 -80 6 0 22 34 38 75 25 69 30 75 56 75 16 0 27 -3 25 -7 -17 -34 -38 -84
-43 -106 -11 -43 13 -32 24 11 16 56 48 102 71 102 12 0 19 -4 16 -8 -2 -4
-16 -38 -30 -75 -19 -50 -22 -67 -12 -67 8 0 16 8 19 18 2 9 16 47 30 85 l26
67 -149 0 c-93 0 -150 -4 -150 -10z"/>
<path d="M7855 610 c-4 -22 -11 -42 -16 -46 -27 -16 21 -84 60 -84 39 0 71 77
40 96 -7 4 -9 21 -6 40 6 34 5 34 -33 34 -37 0 -38 -1 -45 -40z"/>
<path d="M8457 632 c-25 -28 -23 -106 4 -133 17 -17 29 -20 62 -15 23 3 50 6
60 7 16 0 25 19 9 19 -4 0 -8 24 -8 53 1 32 -5 61 -13 70 -19 24 -93 23 -114
-1z"/>
<path d="M9190 635 c-7 -8 -15 -35 -17 -59 -5 -38 -2 -48 20 -70 45 -45 107
-29 107 28 0 40 -14 53 -58 58 -31 3 -32 4 -18 23 12 16 17 18 27 8 15 -15 33
-17 24 -3 -3 6 -1 10 4 10 6 0 11 5 11 10 0 16 -86 12 -100 -5z"/>
<path d="M9959 628 c-7 -13 -12 -43 -12 -67 0 -34 5 -48 22 -63 28 -22 69 -23
98 -3 15 11 22 12 25 3 4 -12 81 -21 110 -12 27 8 41 74 26 120 -13 38 -14 39
-66 42 -32 2 -60 -2 -68 -9 -11 -9 -18 -9 -26 -1 -7 7 -31 12 -55 12 -34 0
-45 -5 -54 -22z"/>
<path d="M340 319 c-13 -24 -5 -38 12 -21 7 7 22 12 35 12 35 0 29 -31 -17
-75 -58 -56 -53 -65 30 -65 48 0 70 4 70 12 0 9 3 9 12 0 7 -7 35 -12 63 -12
54 0 78 15 88 55 3 11 5 4 6 -17 0 -21 6 -38 11 -38 6 0 10 36 10 87 0 83 -1
86 -19 69 -16 -15 -19 -15 -31 -1 -16 19 -96 18 -127 -1 -18 -11 -23 -11 -33
1 -8 9 -30 15 -56 15 -34 0 -46 -5 -54 -21z"/>
<path d="M687 333 c-13 -13 -7 -32 8 -27 12 5 15 -4 15 -50 0 -43 -3 -56 -15
-56 -8 0 -15 -7 -15 -15 0 -12 13 -15 60 -15 54 0 60 2 60 21 0 15 4 19 16 15
9 -3 29 -6 45 -6 19 0 29 -5 29 -15 0 -22 33 -18 53 5 19 22 22 40 8 40 -6 0
-11 24 -13 53 -3 47 -5 52 -28 55 -21 2 -31 -7 -60 -53 -19 -30 -38 -55 -42
-55 -5 0 -8 25 -8 57 0 55 0 56 -20 38 -18 -16 -20 -16 -20 -2 0 13 -9 17 -33
17 -19 0 -37 -3 -40 -7z"/>
<path d="M1553 287 c-51 -72 -51 -77 -9 -77 25 0 36 -5 36 -14 0 -24 21 -30
27 -7 7 27 23 27 23 1 0 -11 5 -20 10 -20 6 0 10 9 10 19 0 11 6 22 13 25 10
5 10 7 0 12 -8 3 -13 26 -13 59 l0 54 -31 -2 c-24 -2 -38 -12 -66 -50z"/>
<path d="M2121 315 c-25 -27 -22 -47 5 -25 14 12 15 7 13 -51 l-3 -64 47 -3
c28 -2 47 1 47 7 0 6 -7 11 -15 11 -8 0 -15 5 -15 10 0 6 15 10 34 10 26 0 35
-5 41 -22 l8 -23 4 23 c6 30 53 32 53 2 0 -11 5 -20 10 -20 6 0 10 9 10 20 0
11 7 20 15 20 8 0 15 5 15 10 0 6 -7 10 -15 10 -12 0 -15 13 -15 55 0 61 -17
74 -40 30 -17 -32 -28 -32 -32 3 -3 26 -5 24 -45 -32 l-43 -59 0 56 c0 56 -1
57 -27 57 -17 0 -38 -11 -52 -25z"/>
<path d="M2493 333 c-21 -8 -14 -25 7 -18 19 6 20 2 20 -59 0 -59 -2 -66 -20
-66 -11 0 -20 -4 -20 -10 0 -17 218 -11 235 7 20 19 19 42 -2 65 -9 11 -11 18
-5 18 18 0 14 57 -4 64 -25 9 -72 7 -79 -4 -4 -6 -11 -7 -17 -4 -13 8 -99 14
-115 7z"/>
<path d="M3339 321 c-19 -16 -24 -29 -24 -69 0 -62 16 -82 66 -82 31 0 42 5
56 26 15 24 15 29 2 53 -10 18 -24 27 -47 29 -35 4 -40 13 -18 31 11 9 15 8
20 -4 3 -9 10 -13 16 -10 6 4 8 11 5 16 -4 5 1 9 10 9 9 0 13 5 10 10 -10 17
-71 11 -96 -9z"/>
<path d="M3528 329 c-10 -5 -18 -17 -18 -24 0 -19 16 -19 23 -2 8 20 51 14 55
-7 4 -20 -64 -96 -85 -96 -7 0 -13 -7 -13 -15 0 -12 16 -15 85 -15 86 0 119
16 45 22 l-40 3 52 54 53 54 3 -67 3 -66 54 0 c30 0 57 5 60 10 3 6 -3 10 -14
10 -19 0 -21 6 -21 76 l0 76 -32 -3 c-18 -2 -43 -12 -56 -23 l-22 -20 -16 22
c-12 17 -25 22 -57 22 -23 0 -50 -5 -59 -11z"/>
<path d="M4249 319 c-27 -27 -18 -35 15 -14 21 14 29 15 41 5 18 -15 9 -34
-40 -83 -19 -19 -35 -40 -35 -46 0 -7 44 -10 130 -10 102 0 133 3 145 15 34
34 8 94 -41 94 -14 0 -24 6 -24 14 0 15 21 26 51 26 10 0 19 5 19 10 0 13 -65
13 -110 0 -22 -6 -38 -6 -44 0 -18 18 -85 11 -107 -11z"/>
<path d="M4722 306 c-25 -26 -25 -28 -5 -22 21 7 22 4 25 -51 l3 -58 63 -3
c61 -4 85 10 42 23 -17 6 -20 15 -20 75 l0 70 -40 -3 c-30 -1 -48 -10 -68 -31z"/>
<path d="M4990 300 c0 -29 4 -40 15 -40 12 0 13 -4 5 -19 -15 -29 -13 -31 21
-31 17 0 28 -4 24 -10 -3 -5 -19 -10 -36 -10 -25 0 -29 4 -29 29 0 38 -26 64
-57 58 -17 -3 -23 0 -23 14 0 15 8 19 35 19 19 0 35 5 35 10 0 6 -18 10 -39
10 -41 0 -51 -11 -51 -56 0 -21 3 -23 31 -17 41 8 62 -21 40 -56 -7 -11 -14
-11 -40 2 -34 17 -50 7 -25 -17 18 -19 55 -21 72 -4 9 9 12 9 12 0 0 -9 17
-12 55 -11 46 2 55 5 55 21 0 15 8 18 55 18 48 0 55 -2 55 -20 0 -11 5 -20 10
-20 6 0 10 9 10 19 0 11 6 22 13 25 10 5 10 7 0 12 -8 3 -13 26 -13 60 0 71
-18 71 -66 -1 -20 -30 -43 -55 -50 -55 -10 0 -14 15 -14 55 l0 55 -50 0 -50 0
0 -40z"/>
<path d="M5678 329 c-10 -5 -18 -17 -18 -24 0 -17 16 -20 22 -5 6 18 52 16 56
-3 4 -18 -70 -101 -91 -103 -7 0 -20 -2 -29 -2 -10 -1 -18 -6 -18 -12 0 -6 40
-10 100 -10 60 0 100 4 100 10 0 6 -19 10 -41 10 l-42 0 39 43 c22 24 49 48
62 54 22 11 22 10 22 -53 l0 -64 55 0 c30 0 55 5 55 10 0 6 -9 10 -20 10 -18
0 -20 7 -20 76 l0 75 -27 -3 c-16 -1 -39 -11 -52 -20 -23 -18 -25 -18 -43 2
-21 22 -80 27 -110 9z"/>
<path d="M6136 320 c-8 -8 -17 -30 -21 -47 -6 -30 -10 -33 -46 -33 -21 0 -39
-5 -39 -11 0 -6 17 -9 41 -8 36 3 43 0 55 -22 12 -24 18 -26 83 -27 61 0 71 3
76 19 5 15 15 19 48 18 23 -1 34 -3 25 -6 -27 -7 -21 -30 7 -30 18 0 25 5 25
18 0 26 41 25 58 -1 7 -11 23 -20 36 -20 52 0 75 64 36 97 -11 10 -20 26 -20
37 0 19 0 19 13 1 9 -12 16 -14 21 -7 9 14 -39 46 -58 39 -8 -3 -23 -19 -32
-34 -53 -86 -48 -85 -54 -18 l-5 60 -40 -53 -40 -53 -6 35 c-9 55 -22 64 -90
63 -40 -1 -65 -7 -73 -17z"/>
<path d="M6910 320 c-15 -15 -20 -33 -20 -69 0 -59 18 -81 64 -81 38 0 59 19
59 55 0 35 -20 55 -54 55 -19 0 -29 5 -29 14 0 24 22 31 36 12 12 -17 13 -16
23 3 16 29 14 31 -24 31 -22 0 -43 -8 -55 -20z"/>
<path d="M7096 319 c-11 -9 -17 -21 -13 -26 5 -4 14 -1 20 7 17 21 51 19 55
-4 5 -25 -62 -92 -99 -100 -61 -12 -24 -24 79 -25 l109 -2 12 43 c18 61 49
108 72 108 20 0 21 6 -20 -97 -16 -41 -18 -53 -7 -53 8 0 16 8 19 18 2 9 16
47 30 84 l26 67 -131 -1 c-108 -1 -134 -4 -152 -19z"/>
<path d="M8541 315 c-25 -27 -22 -47 4 -25 13 11 15 4 15 -54 l0 -67 56 3 55
3 18 53 c19 56 46 92 68 92 18 0 17 -7 -13 -79 -23 -58 -26 -88 -5 -65 10 11
61 140 61 154 0 11 -55 13 -123 4 -50 -7 -55 -24 -6 -24 16 0 29 -1 29 -3 0
-2 -9 -22 -20 -45 -11 -22 -20 -48 -20 -57 0 -8 -9 -15 -20 -15 -18 0 -20 7
-20 75 l0 75 -27 0 c-17 0 -38 -11 -52 -25z"/>
<path d="M9246 285 c-20 -30 -36 -59 -36 -65 0 -5 16 -10 35 -10 28 0 35 -4
35 -20 0 -11 5 -20 10 -20 6 0 10 9 10 20 0 11 7 20 15 20 8 0 15 -8 15 -18 0
-16 10 -18 82 -20 47 -1 87 3 95 9 16 14 17 51 1 67 -8 8 -8 15 2 27 10 12 10
21 2 40 -11 24 -15 24 -99 22 -64 -1 -91 -6 -100 -17 -11 -13 -12 -13 -13 3 0
30 -16 19 -54 -38z"/>
<path d="M9983 323 c14 -52 16 -72 7 -78 -5 -3 -10 -22 -10 -41 0 -33 1 -34
39 -34 23 0 46 7 55 16 18 17 21 50 6 59 -5 3 -7 19 -3 35 8 41 -11 60 -59 60
-33 0 -39 -3 -35 -17z"/>
<path d="M10143 334 c-16 -7 -17 -64 -1 -64 6 0 4 -7 -5 -18 -21 -23 -22 -46
-1 -66 18 -19 65 -21 82 -4 15 15 16 65 1 70 -8 3 -8 10 2 26 10 16 11 26 3
40 -11 17 -57 26 -81 16z"/>
</g>
</svg>
