<?xml version="1.0" encoding="UTF-8" standalone="no"?>
<!DOCTYPE svg PUBLIC "-//W3C//DTD SVG 1.1//EN"
"http://www.w3.org/Graphics/SVG/1.1/DTD/svg11.dtd">


<!-- Page 1 -->
<svg x="0" y="0" width="935" height="1210" viewBox="0 0 935 1210" version="1.1" xmlns="http://www.w3.org/2000/svg" xmlns:xlink="http://www.w3.org/1999/xlink"
style="display: block;margin-left: auto;margin-right: auto;">
<defs>
<clipPath id="c_1"><path d="M0,0H935V1210H0Z"/></clipPath>
<style type="text/css"><![CDATA[
text { white-space: pre; }
path, image { pointer-events: none; }
text::-moz-selection {
	color: transparent;
	background: rgba(0, 106, 173, 0.4);
}
text::selection {
	color: transparent;
	background: rgba(0, 106, 173, 0.4);
}

.s1{
font-size: 16.80px;
font-family: DejaVuSans-Bold_a;
fill: TRANSPARENT;
}
.s2{
font-size: 16.80px;
font-family: DejaVuSans_5;
fill: TRANSPARENT;
}
.s3{
font-size: 15.29px;
font-family: DejaVuSans_5;
fill: TRANSPARENT;
}

.g0{
fill: none;
stroke: #000000;
stroke-width: 1.145;
stroke-linecap: butt;
stroke-linejoin: round;
}

]]></style>

<path d="M410,0V469L-14,1114H299L553,717l254,397h315L697,469V0Z"
id="f0_2"
transform="scale(0.001,-0.001)"/>

<path d="M687,509c0,0,0,76,-44,122c0,0,-44,47,-116,47c0,0,-78,0,-126,-44c0,0,-49,-43,-61,-125ZM544,-20c0,0,-227,0,-353,114C191,94,66,209,66,417c0,0,0,204,123,321c0,0,123,118,340,118c0,0,197,0,315,-119c0,0,118,-118,118,-317V344H337c0,0,10,-94,68,-141c0,0,59,-47,163,-47c0,0,85,0,173,25c0,0,89,25,182,76V51C923,51,828,15,733,-2c0,0,-94,-18,-189,-18Z"
id="f0_3"
transform="scale(0.001,-0.001)"/>

<path d="M463,156c0,0,75,0,127,54c0,0,51,54,51,135v30H502c0,0,-83,0,-125,-28c0,0,-43,-28,-43,-83c0,0,0,-50,34,-79c0,0,34,-29,95,-29ZM357,-20c0,0,-130,0,-211,74c0,0,-80,76,-80,197c0,0,0,147,101,215c0,0,101,69,317,69H641v21c0,0,0,63,-50,92c0,0,-49,30,-155,30c0,0,-86,0,-160,-17c0,0,-74,-18,-137,-52V813c0,0,86,21,172,32c0,0,86,11,173,11c0,0,226,0,326,-90c0,0,100,-89,100,-290V0H641V124C641,124,588,48,521,13c0,0,-68,-33,-164,-33Z"
id="f0_4"
transform="scale(0.001,-0.001)"/>

<path d="M128,0V836H395V698c0,0,52,82,118,120c0,0,67,38,161,38c0,0,13,0,29,-2c0,0,15,-1,45,-4l1,-242c0,0,-35,17,-70,25c0,0,-35,7,-70,7c0,0,-103,0,-158,-66c0,0,-56,-66,-56,-189V0Z"
id="f0_5"
transform="scale(0.001,-0.001)"/>

<path d="M-85,-305V-88h45c0,0,88,0,134,50c0,0,46,49,46,146V1114H427V108c0,0,0,-207,-113,-310c0,0,-113,-103,-341,-103Z"
id="f0_6"
transform="scale(0.001,-0.001)"/>

<path d="M128,0V836H395V713c0,0,60,73,128,108c0,0,68,35,150,35c0,0,145,0,220,-89c0,0,75,-89,75,-258V0H699V389c0,0,0,109,-5,150c0,0,-5,41,-16,60c0,0,-16,26,-43,41c0,0,-27,14,-61,14c0,0,-84,0,-131,-64c0,0,-48,-65,-48,-179V0Z"
id="f0_7"
transform="scale(0.001,-0.001)"/>

<path d="M140,0V1114H915V897H427V689H886V472H427V0Z"
id="f0_8"
transform="scale(0.001,-0.001)"/>

<path d="M573,172c0,0,86,0,131,63c0,0,45,63,45,182c0,0,0,119,-45,182c0,0,-45,63,-131,63c0,0,-86,0,-132,-63c0,0,-46,-63,-46,-182c0,0,0,-119,46,-182c0,0,46,-63,132,-63ZM672,-20c0,0,-87,0,-155,33c0,0,-67,35,-122,108V0H128V1161H395V713c0,0,55,73,122,108c0,0,68,35,155,35c0,0,154,0,253,-123c0,0,100,-123,100,-316c0,0,0,-193,-100,-316c0,0,-99,-121,-253,-121Z"
id="f0_9"
transform="scale(0.001,-0.001)"/>

<path d="M140,0V1114H505L759,518l255,596h365V0H1107V815L850,214H668L412,815V0Z"
id="f0_a"
transform="scale(0.001,-0.001)"/>

<path d="M744,410L592,853L439,410ZM8,0L420,1114H763L1175,0H887L816,203H367L297,0Z"
id="f0_b"
transform="scale(0.001,-0.001)"/>

<path d="M573,172c0,0,86,0,131,63c0,0,45,63,45,182c0,0,0,119,-45,182c0,0,-45,63,-131,63c0,0,-86,0,-132,-63c0,0,-46,-63,-46,-182c0,0,0,-119,46,-182c0,0,46,-63,132,-63ZM128,-317V836H395V713c0,0,55,73,122,108c0,0,68,35,155,35c0,0,154,0,253,-123c0,0,100,-123,100,-316c0,0,0,-193,-100,-316c0,0,-99,-121,-253,-121c0,0,-87,0,-155,33c0,0,-67,35,-122,108V-317Z"
id="f0_c"
transform="scale(0.001,-0.001)"/>

<path d="M153,-328v175h83c0,0,68,0,99,21c0,0,31,22,48,78l8,23L19,836H286L510,269L701,836H968L617,-78c0,0,-53,-139,-124,-195c0,0,-70,-55,-186,-55Z"
id="f0_d"
transform="scale(0.001,-0.001)"/>

<path d="M415,-20c0,0,-144,0,-220,87c0,0,-76,89,-76,259V836H388V752c0,0,0,-67,-1,-170c0,0,0,-103,0,-137c0,0,0,-101,5,-145c0,0,5,-44,18,-65c0,0,16,-26,43,-40c0,0,26,-14,60,-14c0,0,84,0,132,64c0,0,47,64,47,178V836H959V0H692V121C692,121,632,48,564,13c0,0,-67,-33,-149,-33Z"
id="f0_e"
transform="scale(0.001,-0.001)"/>

<path d="M128,0V1161H395V0Z"
id="f0_f"
transform="scale(0.001,-0.001)"/>

<path d="M520,194c0,0,84,0,130,61c0,0,46,61,46,172c0,0,0,112,-46,174c0,0,-46,61,-130,61c0,0,-82,0,-129,-61c0,0,-46,-62,-46,-174c0,0,0,-115,45,-174c0,0,45,-59,130,-59ZM469,-328c0,0,-78,0,-151,12c0,0,-73,12,-147,36V-71c0,0,70,-41,137,-61c0,0,67,-20,135,-20c0,0,131,0,192,58c0,0,61,57,61,178v58C696,142,641,69,575,34C575,34,508,0,421,0C421,0,268,0,168,121C168,121,68,241,68,428c0,0,0,187,100,307c0,0,100,120,253,120c0,0,87,0,154,-35c0,0,66,-34,121,-108V836H965V84c0,0,0,-200,-127,-306c0,0,-127,-106,-369,-106Z"
id="f0_g"
transform="scale(0.001,-0.001)"/>

<path d="M545,-20c0,0,-106,0,-212,20C333,0,226,19,119,58V301c0,0,107,-57,207,-85c0,0,99,-29,192,-29c0,0,94,0,144,31c0,0,50,31,50,90c0,0,0,52,-34,80c0,0,-34,29,-136,51L431,464c0,0,-167,35,-244,114c0,0,-77,78,-77,211c0,0,0,166,107,256c0,0,107,89,309,89c0,0,92,0,189,-14c0,0,97,-13,200,-41V843c0,0,-92,41,-179,62c0,0,-87,21,-165,21c0,0,-103,0,-152,-28c0,0,-49,-29,-49,-88c0,0,0,-45,33,-70c0,0,33,-25,121,-43L646,672c0,0,186,-37,264,-113c0,0,79,-76,79,-216c0,0,0,-185,-110,-275c0,0,-109,-88,-334,-88Z"
id="f0_h"
transform="scale(0.001,-0.001)"/>

<path d="M649,187c0,0,132,0,205,97c0,0,72,97,72,272c0,0,0,176,-72,273c0,0,-73,97,-205,97c0,0,-131,0,-203,-97c0,0,-72,-97,-72,-273c0,0,0,-175,72,-272c0,0,72,-97,203,-97Zm0,-207c0,0,-268,0,-420,152C229,132,76,286,76,556c0,0,0,271,153,425c0,0,152,153,420,153c0,0,269,0,421,-153c0,0,152,-154,152,-425c0,0,0,-270,-152,-424c0,0,-152,-152,-421,-152Z"
id="f0_i"
transform="scale(0.001,-0.001)"/>

<path d="M547,-20c0,0,-226,0,-354,114C193,94,66,210,66,417c0,0,0,207,127,323c0,0,128,116,354,116c0,0,66,0,129,-12c0,0,64,-11,128,-34V592c0,0,-55,37,-110,55c0,0,-54,18,-113,18c0,0,-112,0,-175,-65c0,0,-62,-66,-62,-183c0,0,0,-117,62,-183c0,0,63,-65,175,-65c0,0,62,0,119,19c0,0,56,19,104,55V24C804,24,741,1,676,-9c0,0,-64,-11,-129,-11Z"
id="f0_j"
transform="scale(0.001,-0.001)"/>

<path d="M443,0C443,0,285,0,219,66c0,0,-66,66,-66,224V645H20V836H153v237H419V836H695V645H419V290c0,0,0,-58,24,-79c0,0,23,-20,91,-20H672V0Z"
id="f0_k"
transform="scale(0.001,-0.001)"/>

<path d="M140,0V1114H460L866,350v764h272V0H818L412,764V0Z"
id="f0_l"
transform="scale(0.001,-0.001)"/>

<path d="M526,169c0,0,87,0,133,64c0,0,46,64,46,184c0,0,0,120,-46,184c0,0,-46,64,-133,64c0,0,-89,0,-135,-64c0,0,-47,-64,-47,-184c0,0,0,-120,47,-184c0,0,46,-64,135,-64Zm0,-189c0,0,-217,0,-339,115C187,95,66,211,66,417c0,0,0,206,121,322c0,0,122,117,339,117c0,0,215,0,336,-117c0,0,122,-116,122,-322c0,0,0,-206,-122,-322C862,95,741,-20,526,-20Z"
id="f0_m"
transform="scale(0.001,-0.001)"/>

<path d="M352,0L23,836H291L499,258L706,836H974L645,0Z"
id="f0_n"
transform="scale(0.001,-0.001)"/>

<path d="M530,217c0,0,176,0,269,87c0,0,93,88,93,254c0,0,0,166,-93,252c0,0,-92,87,-269,87H427V217ZM140,0V1114H443c0,0,253,0,378,-36c0,0,124,-37,213,-123c0,0,78,-76,116,-174c0,0,38,-98,38,-223c0,0,0,-126,-38,-225c0,0,-38,-99,-116,-174c0,0,-90,-87,-215,-123C819,36,694,0,443,0Z"
id="f0_o"
transform="scale(0.001,-0.001)"/>

<path d="M377,0V897H8v217H1034V897H665V0Z"
id="f0_p"
transform="scale(0.001,-0.001)"/>

<path d="M121,0V211L528,570c0,0,54,50,80,96c0,0,27,47,27,98c0,0,0,78,-53,126c0,0,-53,48,-140,48c0,0,-67,0,-147,-29c0,0,-80,-28,-171,-85v245c0,0,97,32,192,48c0,0,95,17,186,17c0,0,199,0,310,-88c0,0,111,-88,111,-245c0,0,0,-91,-47,-170c0,0,-47,-79,-197,-211L441,211H931V0Z"
id="f0_q"
transform="scale(0.001,-0.001)"/>

<path d="M532,174c0,0,92,0,132,87c0,0,39,86,39,297c0,0,0,209,-39,294c0,0,-39,86,-132,86c0,0,-92,0,-132,-86c0,0,-39,-85,-39,-294c0,0,0,-211,39,-297c0,0,40,-87,132,-87Zm0,-194c0,0,-220,0,-339,149C193,129,73,279,73,556c0,0,0,278,120,428c0,0,119,150,339,150c0,0,220,0,339,-150c0,0,119,-150,119,-428c0,0,0,-277,-119,-427C871,129,752,-20,532,-20Z"
id="f0_r"
transform="scale(0.001,-0.001)"/>

<path d="M190,0V127H436V977L168,923v137l267,54H586V127H832V0Z"
id="f1_2"
transform="scale(0.001,-0.001)"/>

<path d="M163,0V190H321V0Z"
id="f1_3"
transform="scale(0.001,-0.001)"/>

<path d="M280,0L660,987H125v127H841v-64L437,0Z"
id="f1_4"
transform="scale(0.001,-0.001)"/>

<path d="M467,496c0,0,102,0,161,69c0,0,59,70,59,190c0,0,0,120,-59,190c0,0,-59,70,-161,70c0,0,-101,0,-160,-70c0,0,-60,-70,-60,-190c0,0,0,-120,60,-190c0,0,59,-69,160,-69ZM403,-20c0,0,-57,0,-115,11c0,0,-58,10,-121,32V160c0,0,57,-26,115,-40c0,0,58,-14,115,-14c0,0,149,0,228,100c0,0,79,100,90,305c0,0,-44,-65,-110,-99c0,0,-66,-35,-147,-35c0,0,-167,0,-265,102c0,0,-97,101,-97,276c0,0,0,172,101,275c0,0,102,104,270,104c0,0,194,0,295,-148c0,0,102,-148,102,-430c0,0,0,-263,-125,-420C739,136,614,-20,403,-20Z"
id="f1_5"
transform="scale(0.001,-0.001)"/>

<path d="M111,0V127c0,0,86,89,234,238c0,0,148,150,186,193c0,0,73,81,101,138c0,0,29,56,29,110c0,0,0,89,-62,145c0,0,-62,56,-162,56c0,0,-71,0,-150,-25c0,0,-78,-24,-168,-75v153c0,0,91,37,170,55c0,0,79,19,145,19c0,0,173,0,276,-86c0,0,103,-87,103,-232c0,0,0,-68,-26,-130c0,0,-26,-61,-94,-145c0,0,-18,-22,-118,-125C575,416,475,313,293,127H818V0Z"
id="f1_6"
transform="scale(0.001,-0.001)"/>

<path d="M505,98c0,0,101,0,160,70c0,0,60,69,60,189c0,0,0,121,-60,191c0,0,-59,69,-160,69c0,0,-102,0,-161,-69c0,0,-59,-70,-59,-191c0,0,0,-120,59,-189c0,0,59,-70,161,-70ZM504,-20c0,0,-193,0,-295,147c0,0,-102,148,-102,429c0,0,0,264,125,421c0,0,125,157,337,157c0,0,56,0,114,-11c0,0,58,-11,121,-34V952c0,0,-57,27,-115,41c0,0,-58,14,-115,14c0,0,-149,0,-228,-101c0,0,-79,-100,-90,-304c0,0,44,65,111,100c0,0,66,34,146,34c0,0,168,0,266,-102c0,0,97,-101,97,-277c0,0,0,-171,-101,-275C775,82,673,-20,504,-20Z"
id="f1_7"
transform="scale(0.001,-0.001)"/>

<path d="M486,98c0,0,117,0,175,114c0,0,59,115,59,344c0,0,0,230,-59,344c0,0,-58,115,-175,115c0,0,-117,0,-175,-115c0,0,-59,-114,-59,-344c0,0,0,-229,59,-344c0,0,58,-114,175,-114ZM485,-20c0,0,-187,0,-285,147c0,0,-99,148,-99,429c0,0,0,282,98,430c0,0,99,148,286,148c0,0,188,0,286,-148c0,0,99,-148,99,-430c0,0,0,-281,-99,-429c0,0,-98,-147,-286,-147Z"
id="f1_8"
transform="scale(0.001,-0.001)"/>

<path d="M414,-20c0,0,-70,0,-144,13c0,0,-75,13,-154,40V179c0,0,63,-36,138,-55c0,0,74,-18,156,-18c0,0,142,0,216,55c0,0,74,56,74,163c0,0,0,98,-69,153c0,0,-69,56,-192,56H309V657H445c0,0,111,0,170,44c0,0,59,45,59,128c0,0,0,86,-61,132c0,0,-61,46,-174,46c0,0,-62,0,-133,-13c0,0,-71,-14,-156,-42v134c0,0,85,24,160,36c0,0,75,12,142,12c0,0,171,0,271,-78c0,0,100,-78,100,-211c0,0,0,-92,-53,-156c0,0,-52,-64,-150,-89c0,0,108,-23,169,-96c0,0,61,-73,61,-180c0,0,0,-165,-114,-255c0,0,-113,-89,-322,-89Z"
id="f1_9"
transform="scale(0.001,-0.001)"/>

<path d="M486,98c0,0,107,0,169,58c0,0,62,57,62,157c0,0,0,101,-62,159c0,0,-61,57,-169,57c0,0,-108,0,-169,-57c0,0,-62,-58,-62,-159c0,0,0,-100,62,-158c0,0,61,-57,169,-57Zm-1,549c0,0,97,0,152,49c0,0,54,48,54,135c0,0,0,87,-54,135c0,0,-55,49,-152,49c0,0,-97,0,-151,-49c0,0,-54,-48,-54,-135c0,0,0,-87,54,-135c0,0,54,-49,151,-49Zm0,-667c0,0,-184,0,-283,85c0,0,-98,86,-98,248c0,0,0,107,61,181c0,0,61,74,170,99c0,0,-97,24,-151,90c0,0,-54,67,-54,162c0,0,0,134,95,212c0,0,95,77,260,77c0,0,167,0,261,-77c0,0,95,-78,95,-212c0,0,0,-95,-54,-162c0,0,-54,-66,-151,-90c0,0,109,-25,170,-99c0,0,61,-74,61,-181c0,0,0,-162,-99,-248c0,0,-98,-85,-283,-85Z"
id="f1_a"
transform="scale(0.001,-0.001)"/>

<path d="M578,388V982L197,388ZM578,0V263H74V408l464,706H727V388H887V263H727V0Z"
id="f1_b"
transform="scale(0.001,-0.001)"/>

<path d="M411,-20c0,0,-70,0,-142,11c0,0,-73,11,-151,35V178c0,0,67,-37,139,-54c0,0,72,-18,152,-18c0,0,129,0,204,67c0,0,75,68,75,184c0,0,0,117,-75,184c0,0,-75,68,-204,68c0,0,-61,0,-121,-13c0,0,-60,-13,-123,-42v560H757V987H303V714c0,0,33,11,66,17c0,0,33,5,65,5c0,0,187,0,296,-102c0,0,109,-102,109,-277c0,0,0,-179,-112,-279c0,0,-112,-98,-316,-98Z"
id="f1_c"
transform="scale(0.001,-0.001)"/>

<path d="M74,357V479H476V357Z"
id="f1_d"
transform="scale(0.001,-0.001)"/>

<path d="M180,0V198H433V918L173,864v196l258,54H705V198H958V0Z"
id="f0_s"
transform="scale(0.001,-0.001)"/>

<path d="M507,561c0,0,76,0,114,49c0,0,38,49,38,146c0,0,0,97,-38,146c0,0,-38,49,-114,49c0,0,-75,0,-113,-49c0,0,-38,-49,-38,-146c0,0,0,-97,38,-146c0,0,38,-49,113,-49ZM443,-20c0,0,-78,0,-149,11c0,0,-72,10,-140,33V231c0,0,68,-33,131,-49c0,0,62,-16,123,-16c0,0,129,0,200,72c0,0,72,71,84,211c0,0,-50,-37,-108,-56c0,0,-57,-18,-124,-18c0,0,-171,0,-276,99C184,474,79,574,79,736c0,0,0,180,117,288c0,0,117,108,313,108c0,0,217,0,337,-147c0,0,119,-147,119,-415c0,0,0,-276,-139,-434C826,136,686,-20,443,-20Z"
id="f0_t"
transform="scale(0.001,-0.001)"/>

<path d="M532,159c0,0,79,0,122,44c0,0,42,44,42,126c0,0,0,82,-42,126c0,0,-43,44,-122,44c0,0,-81,0,-124,-44c0,0,-43,-44,-43,-126c0,0,0,-82,43,-126c0,0,43,-44,124,-44Zm0,520c0,0,67,0,104,35c0,0,37,36,37,102c0,0,0,67,-37,102c0,0,-37,35,-104,35c0,0,-69,0,-106,-35c0,0,-37,-36,-37,-102c0,0,0,-66,37,-102c0,0,37,-35,106,-35Zm0,-699c0,0,-218,0,-328,83C204,63,93,148,93,314c0,0,0,107,58,178c0,0,58,70,171,101c0,0,-102,31,-153,94c0,0,-52,64,-52,159c0,0,0,141,106,214c0,0,105,74,309,74c0,0,202,0,307,-73c0,0,106,-74,106,-215c0,0,0,-95,-52,-159c0,0,-52,-63,-154,-94c0,0,113,-31,171,-101c0,0,58,-71,58,-178c0,0,0,-166,-110,-251c0,0,-110,-83,-326,-83Z"
id="f0_u"
transform="scale(0.001,-0.001)"/>

<path d="M228,0L639,903H103v211H942V952L508,0Z"
id="f0_v"
transform="scale(0.001,-0.001)"/>

<path d="M553,159c0,0,76,0,113,49c0,0,38,49,38,147c0,0,0,98,-38,147c0,0,-37,49,-113,49c0,0,-76,0,-113,-49c0,0,-38,-49,-38,-147c0,0,0,-98,38,-147c0,0,37,-49,113,-49ZM550,-20c0,0,-217,0,-336,145C214,125,95,272,95,541c0,0,0,276,139,434c0,0,139,157,381,157c0,0,77,0,149,-11c0,0,73,-12,143,-36V879c0,0,-70,34,-133,50c0,0,-63,16,-122,16c0,0,-128,0,-200,-72c0,0,-71,-71,-83,-211c0,0,49,37,106,55c0,0,58,18,125,18c0,0,171,0,276,-100c0,0,105,-100,105,-262c0,0,0,-179,-117,-287C864,86,747,-20,550,-20Z"
id="f0_w"
transform="scale(0.001,-0.001)"/>

<path d="M491,-20c0,0,-95,0,-188,18c0,0,-93,17,-185,55V279c0,0,91,-53,173,-79c0,0,82,-26,154,-26c0,0,105,0,165,51c0,0,60,51,60,138c0,0,0,88,-60,139c0,0,-60,50,-165,50c0,0,-62,0,-132,-16c0,0,-70,-16,-151,-49v627H877V903H391V730c0,0,33,9,66,14c0,0,33,5,69,5c0,0,204,0,318,-102c0,0,113,-102,113,-284c0,0,0,-180,-123,-282C834,81,710,-20,491,-20Z"
id="f0_x"
transform="scale(0.001,-0.001)"/>

<path d="M562,411V877L247,411ZM562,0V202H68V449l447,665H834V411H993V202H834V0Z"
id="f0_y"
transform="scale(0.001,-0.001)"/>


</defs>
<path d="M0,0
L0,1210
L935,1210
L935,0 Z " 
fill="#FFFFFF" stroke="none"/>
<g clip-path="url(#c_1)">
<path d="M76.4,82.5H819.6M76.4,105.4H819.6M76.4,128.3H819.6M76.4,151.2H819.6M76.4,174.1H819.6M76.4,197H819.6M76.4,219.9H819.6M76.4,242.8H819.6M76.4,265.7H819.6M77,81.9V266.3M141.2,81.9V266.3M193.3,81.9V266.3M245.5,81.9V266.3M297.6,81.9V266.3M349.7,81.9V266.3M401.9,81.9V266.3M454,81.9V266.3M506.2,81.9V266.3M558.3,81.9V266.3M610.5,81.9V266.3M662.6,81.9V266.3M714.7,81.9V266.3M766.9,81.9v24M819,81.9v24m-52.1,-1.1v24m52.1,-24v24m-52.1,-1.1v24m52.1,-24v24m-52.1,-1.1v24.1M819,150.6v24.1m-52.1,-1.2v24.1M819,173.5v24.1m-52.1,-1.2v24.1M819,196.4v24.1m-52.1,-1.1v24m52.1,-24v24m-52.1,-1.1v24m52.1,-24v24M819,81.9V266.3" class="g0"/>
<g fill="#000000" >
<use xlink:href="#f0_2" transform="matrix(11,0,0,11,96.4,99.8)"/>
<use xlink:href="#f0_3" transform="matrix(11,0,0,11,108.6,99.8)"/>
<use xlink:href="#f0_4" transform="matrix(11,0,0,11,120,99.8)"/>
<use xlink:href="#f0_5" transform="matrix(11,0,0,11,131.4,99.8)"/>
<use xlink:href="#f0_6" transform="matrix(11,0,0,11,162.3,99.8)"/>
<use xlink:href="#f0_4" transform="matrix(11,0,0,11,168.5,99.8)"/>
<use xlink:href="#f0_7" transform="matrix(11,0,0,11,179.8,99.8)"/>
<use xlink:href="#f0_8" transform="matrix(11,0,0,11,209,99.8)"/>
<use xlink:href="#f0_3" transform="matrix(11,0,0,11,220.5,99.8)"/>
<use xlink:href="#f0_9" transform="matrix(11,0,0,11,231.9,99.8)"/>
<use xlink:href="#f0_a" transform="matrix(11,0,0,11,259.9,99.8)"/>
<use xlink:href="#f0_4" transform="matrix(11,0,0,11,276.5,99.8)"/>
<use xlink:href="#f0_5" transform="matrix(11,0,0,11,287.8,99.8)"/>
<use xlink:href="#f0_b" transform="matrix(11,0,0,11,314.9,99.8)"/>
<use xlink:href="#f0_c" transform="matrix(11,0,0,11,327.9,99.8)"/>
<use xlink:href="#f0_5" transform="matrix(11,0,0,11,339.9,99.8)"/>
<use xlink:href="#f0_a" transform="matrix(11,0,0,11,361.5,99.8)"/>
<use xlink:href="#f0_4" transform="matrix(11,0,0,11,378.1,99.8)"/>
<use xlink:href="#f0_d" transform="matrix(11,0,0,11,389.4,99.8)"/>
<use xlink:href="#f0_6" transform="matrix(11,0,0,11,422.4,99.8)"/>
<use xlink:href="#f0_e" transform="matrix(11,0,0,11,428.7,99.8)"/>
<use xlink:href="#f0_7" transform="matrix(11,0,0,11,440.6,99.8)"/>
<use xlink:href="#f0_6" transform="matrix(11,0,0,11,480.6,99.8)"/>
<use xlink:href="#f0_e" transform="matrix(11,0,0,11,486.9,99.8)"/>
<use xlink:href="#f0_f" transform="matrix(11,0,0,11,498.8,99.8)"/>
<use xlink:href="#f0_b" transform="matrix(11,0,0,11,519.8,99.8)"/>
<use xlink:href="#f0_e" transform="matrix(11,0,0,11,532.8,99.8)"/>
<use xlink:href="#f0_g" transform="matrix(11,0,0,11,544.7,99.8)"/>
<use xlink:href="#f0_h" transform="matrix(11,0,0,11,573.4,99.8)"/>
<use xlink:href="#f0_3" transform="matrix(11,0,0,11,585.4,99.8)"/>
<use xlink:href="#f0_c" transform="matrix(11,0,0,11,596.9,99.8)"/>
<use xlink:href="#f0_i" transform="matrix(11,0,0,11,628.7,99.8)"/>
<use xlink:href="#f0_j" transform="matrix(11,0,0,11,643,99.8)"/>
<use xlink:href="#f0_k" transform="matrix(11,0,0,11,653,99.8)"/>
<use xlink:href="#f0_l" transform="matrix(11,0,0,11,676.5,99.8)"/>
<use xlink:href="#f0_m" transform="matrix(11,0,0,11,690.5,99.8)"/>
<use xlink:href="#f0_n" transform="matrix(11,0,0,11,702.1,99.8)"/>
<use xlink:href="#f0_o" transform="matrix(11,0,0,11,730.1,99.8)"/>
<use xlink:href="#f0_3" transform="matrix(11,0,0,11,744,99.8)"/>
<use xlink:href="#f0_j" transform="matrix(11,0,0,11,755.5,99.8)"/>
<use xlink:href="#f0_2" transform="matrix(11,0,0,11,779.9,99.8)"/>
<use xlink:href="#f0_p" transform="matrix(11,0,0,11,792.1,99.8)"/>
<use xlink:href="#f0_o" transform="matrix(11,0,0,11,803.6,99.8)"/>
<use xlink:href="#f0_q" transform="matrix(11,0,0,11,92.6,122.7)"/>
</g>
<text x="96" y="99" dx="0,0,.1,0" class="s1">Year</text>
<text x="162" y="99" class="s1">Jan</text>
<text x="209" y="99" dx="0,0,.1" class="s1">Feb</text>
<text x="259" y="99" dx="0,-.1,0" class="s1">Mar</text>
<text x="314" y="99" class="s1">Apr</text>
<text x="361" y="99" dx="0,-.1,0" class="s1">May</text>
<text x="422" y="99" class="s1">Jun</text>
<text x="480" y="99" class="s1">Jul</text>
<text x="519" y="99" class="s1">Aug</text>
<text x="573" y="99" dx="0,0,.1" class="s1">Sep</text>
<text x="628" y="99" dx="0,.1,0" class="s1">Oct</text>
<text x="676" y="99" dx="0,0,.1" class="s1">Nov</text>
<text x="730" y="99" dx="0,-.1,.1" class="s1">Dec</text>
<text x="779" y="99" class="s1">YTD</text>
<g fill="#000000" >
<use xlink:href="#f0_r" transform="matrix(11,0,0,11,104.3,122.7)"/>
<use xlink:href="#f0_q" transform="matrix(11,0,0,11,116.1,122.7)"/>
<use xlink:href="#f0_r" transform="matrix(11,0,0,11,127.8,122.7)"/>
<use xlink:href="#f1_2" transform="matrix(11,0,0,11,154.5,122.7)"/>
</g>
<text x="92" y="122" dx="0,.1,.1,.1" class="s1">2020</text>
<g fill="#000000" >
<use xlink:href="#f1_3" transform="matrix(11,0,0,11,165.2,122.7)"/>
<use xlink:href="#f1_4" transform="matrix(11,0,0,11,170.5,122.7)"/>
<use xlink:href="#f1_5" transform="matrix(11,0,0,11,181.2,122.7)"/>
<use xlink:href="#f1_6" transform="matrix(11,0,0,11,195.9,122.7)"/>
<use xlink:href="#f1_7" transform="matrix(11,0,0,11,206.6,122.7)"/>
<use xlink:href="#f1_3" transform="matrix(11,0,0,11,217.3,122.7)"/>
<use xlink:href="#f1_8" transform="matrix(11,0,0,11,222.6,122.7)"/>
<use xlink:href="#f1_9" transform="matrix(11,0,0,11,233.3,122.7)"/>
<use xlink:href="#f1_6" transform="matrix(11,0,0,11,248,122.7)"/>
<use xlink:href="#f1_7" transform="matrix(11,0,0,11,258.7,122.7)"/>
<use xlink:href="#f1_3" transform="matrix(11,0,0,11,269.3,122.7)"/>
<use xlink:href="#f1_7" transform="matrix(11,0,0,11,274.7,122.7)"/>
<use xlink:href="#f1_9" transform="matrix(11,0,0,11,285.4,122.7)"/>
<use xlink:href="#f1_5" transform="matrix(11,0,0,11,310.8,122.7)"/>
<use xlink:href="#f1_3" transform="matrix(11,0,0,11,321.5,122.7)"/>
<use xlink:href="#f1_7" transform="matrix(11,0,0,11,326.8,122.7)"/>
<use xlink:href="#f1_a" transform="matrix(11,0,0,11,337.5,122.7)"/>
<use xlink:href="#f1_2" transform="matrix(11,0,0,11,352.3,122.7)"/>
<use xlink:href="#f1_6" transform="matrix(11,0,0,11,363,122.7)"/>
<use xlink:href="#f1_3" transform="matrix(11,0,0,11,373.7,122.7)"/>
<use xlink:href="#f1_2" transform="matrix(11,0,0,11,379,122.7)"/>
<use xlink:href="#f1_b" transform="matrix(11,0,0,11,389.7,122.7)"/>
<use xlink:href="#f1_2" transform="matrix(11,0,0,11,404.4,122.7)"/>
<use xlink:href="#f1_2" transform="matrix(11,0,0,11,415.1,122.7)"/>
<use xlink:href="#f1_3" transform="matrix(11,0,0,11,425.8,122.7)"/>
<use xlink:href="#f1_c" transform="matrix(11,0,0,11,431.1,122.7)"/>
<use xlink:href="#f1_5" transform="matrix(11,0,0,11,441.8,122.7)"/>
<use xlink:href="#f1_d" transform="matrix(11,0,0,11,471.8,122.7)"/>
<use xlink:href="#f1_4" transform="matrix(11,0,0,11,477.9,122.7)"/>
<use xlink:href="#f1_3" transform="matrix(11,0,0,11,488.6,122.7)"/>
<use xlink:href="#f1_b" transform="matrix(11,0,0,11,493.9,122.7)"/>
<use xlink:href="#f1_8" transform="matrix(11,0,0,11,546,122.7)"/>
<use xlink:href="#f1_8" transform="matrix(11,0,0,11,598.3,122.7)"/>
<use xlink:href="#f1_8" transform="matrix(11,0,0,11,650.4,122.7)"/>
<use xlink:href="#f1_8" transform="matrix(11,0,0,11,702.5,122.7)"/>
<use xlink:href="#f1_8" transform="matrix(11,0,0,11,754.7,122.7)"/>
<use xlink:href="#f1_a" transform="matrix(11,0,0,11,769.4,122.7)"/>
<use xlink:href="#f1_8" transform="matrix(11,0,0,11,780.1,122.7)"/>
<use xlink:href="#f1_3" transform="matrix(11,0,0,11,790.8,122.7)"/>
<use xlink:href="#f1_b" transform="matrix(11,0,0,11,796.1,122.7)"/>
<use xlink:href="#f1_7" transform="matrix(11,0,0,11,806.8,122.7)"/>
<use xlink:href="#f0_q" transform="matrix(11,0,0,11,92.6,145.6)"/>
</g>
<text x="154" y="122" dx="0,0,0,0,0,-.2,0,0,0,0,0,-.2,0,0,0,0" class="s2">1.79 26.03 26.63</text>
<text x="310" y="122" dx="0,0,0,0,0,-.1,0,0,0,0,0,-.2,0,0,0,0" class="s2">9.68 12.14 11.59</text>
<text x="471" y="122" dx="0,.1,0,0" class="s2">-7.4</text>
<text x="546" y="122" class="s2">0</text>
<text x="598" y="122" class="s2">0</text>
<text x="650" y="122" class="s2">0</text>
<text x="702" y="122" class="s2">0</text>
<text x="754" y="122" dx="0,0,-.2,0,0,0,0" class="s2">0 80.46</text>
<g fill="#000000" >
<use xlink:href="#f0_r" transform="matrix(11,0,0,11,104.3,145.6)"/>
<use xlink:href="#f0_s" transform="matrix(11,0,0,11,116.1,145.6)"/>
<use xlink:href="#f0_t" transform="matrix(11,0,0,11,127.8,145.6)"/>
<use xlink:href="#f1_2" transform="matrix(11,0,0,11,154.5,145.6)"/>
</g>
<text x="92" y="145" dx="0,.1,.1,.1" class="s1">2019</text>
<g fill="#000000" >
<use xlink:href="#f1_b" transform="matrix(11,0,0,11,165.2,145.6)"/>
<use xlink:href="#f1_3" transform="matrix(11,0,0,11,175.8,145.6)"/>
<use xlink:href="#f1_9" transform="matrix(11,0,0,11,181.2,145.6)"/>
<use xlink:href="#f1_6" transform="matrix(11,0,0,11,195.9,145.6)"/>
<use xlink:href="#f1_b" transform="matrix(11,0,0,11,206.6,145.6)"/>
<use xlink:href="#f1_3" transform="matrix(11,0,0,11,217.3,145.6)"/>
<use xlink:href="#f1_c" transform="matrix(11,0,0,11,222.6,145.6)"/>
<use xlink:href="#f1_7" transform="matrix(11,0,0,11,233.3,145.6)"/>
<use xlink:href="#f1_b" transform="matrix(11,0,0,11,258.7,145.6)"/>
<use xlink:href="#f1_3" transform="matrix(11,0,0,11,269.4,145.6)"/>
<use xlink:href="#f1_a" transform="matrix(11,0,0,11,274.7,145.6)"/>
<use xlink:href="#f1_2" transform="matrix(11,0,0,11,285.4,145.6)"/>
<use xlink:href="#f1_c" transform="matrix(11,0,0,11,310.8,145.6)"/>
<use xlink:href="#f1_3" transform="matrix(11,0,0,11,321.5,145.6)"/>
<use xlink:href="#f1_9" transform="matrix(11,0,0,11,326.8,145.6)"/>
<use xlink:href="#f1_5" transform="matrix(11,0,0,11,337.5,145.6)"/>
<use xlink:href="#f1_6" transform="matrix(11,0,0,11,363,145.6)"/>
<use xlink:href="#f1_3" transform="matrix(11,0,0,11,373.7,145.6)"/>
<use xlink:href="#f1_2" transform="matrix(11,0,0,11,379,145.6)"/>
<use xlink:href="#f1_6" transform="matrix(11,0,0,11,389.7,145.6)"/>
<use xlink:href="#f1_9" transform="matrix(11,0,0,11,404.4,145.6)"/>
<use xlink:href="#f1_b" transform="matrix(11,0,0,11,415.1,145.6)"/>
<use xlink:href="#f1_3" transform="matrix(11,0,0,11,425.8,145.6)"/>
<use xlink:href="#f1_c" transform="matrix(11,0,0,11,431.1,145.6)"/>
<use xlink:href="#f1_9" transform="matrix(11,0,0,11,441.8,145.6)"/>
<use xlink:href="#f1_6" transform="matrix(11,0,0,11,467.2,145.6)"/>
<use xlink:href="#f1_3" transform="matrix(11,0,0,11,477.9,145.6)"/>
<use xlink:href="#f1_2" transform="matrix(11,0,0,11,483.2,145.6)"/>
<use xlink:href="#f1_a" transform="matrix(11,0,0,11,493.9,145.6)"/>
<use xlink:href="#f1_2" transform="matrix(11,0,0,11,508.8,145.6)"/>
<use xlink:href="#f1_8" transform="matrix(11,0,0,11,519.5,145.6)"/>
<use xlink:href="#f1_3" transform="matrix(11,0,0,11,530.1,145.6)"/>
<use xlink:href="#f1_b" transform="matrix(11,0,0,11,535.5,145.6)"/>
<use xlink:href="#f1_4" transform="matrix(11,0,0,11,546.2,145.6)"/>
<use xlink:href="#f1_8" transform="matrix(11,0,0,11,571.5,145.6)"/>
<use xlink:href="#f1_3" transform="matrix(11,0,0,11,582.2,145.6)"/>
<use xlink:href="#f1_b" transform="matrix(11,0,0,11,587.5,145.6)"/>
<use xlink:href="#f1_2" transform="matrix(11,0,0,11,598.2,145.6)"/>
<use xlink:href="#f1_7" transform="matrix(11,0,0,11,623.6,145.6)"/>
<use xlink:href="#f1_3" transform="matrix(11,0,0,11,634.3,145.6)"/>
<use xlink:href="#f1_2" transform="matrix(11,0,0,11,639.6,145.6)"/>
<use xlink:href="#f1_6" transform="matrix(11,0,0,11,650.3,145.6)"/>
<use xlink:href="#f1_8" transform="matrix(11,0,0,11,675.7,145.6)"/>
<use xlink:href="#f1_3" transform="matrix(11,0,0,11,686.4,145.6)"/>
<use xlink:href="#f1_6" transform="matrix(11,0,0,11,691.7,145.6)"/>
<use xlink:href="#f1_c" transform="matrix(11,0,0,11,702.4,145.6)"/>
<use xlink:href="#f1_6" transform="matrix(11,0,0,11,728,145.6)"/>
<use xlink:href="#f1_3" transform="matrix(11,0,0,11,738.7,145.6)"/>
<use xlink:href="#f1_5" transform="matrix(11,0,0,11,744,145.6)"/>
<use xlink:href="#f1_a" transform="matrix(11,0,0,11,754.7,145.6)"/>
<use xlink:href="#f1_2" transform="matrix(11,0,0,11,785.4,145.6)"/>
<use xlink:href="#f1_8" transform="matrix(11,0,0,11,796.1,145.6)"/>
<use xlink:href="#f1_a" transform="matrix(11,0,0,11,806.8,145.6)"/>
<use xlink:href="#f0_q" transform="matrix(11,0,0,11,92.6,168.5)"/>
</g>
<text x="154" y="145" dx="0,0,0,0,0,-.2,0,0,0,0" class="s2">14.3 24.56</text>
<text x="258" y="145" class="s2">4.81</text>
<text x="310" y="145" class="s2">5.39</text>
<text x="363" y="145" dx="0,0,0,0,0,-.2,0,0,0,0" class="s2">2.12 34.53</text>
<text x="467" y="145" class="s2">2.18 10.47</text>
<text x="571" y="145" class="s2">0.41</text>
<text x="623" y="145" class="s2">6.12</text>
<text x="675" y="145" class="s2">0.25</text>
<text x="727" y="145" class="s2">2.98</text>
<text x="785" y="145" class="s2">108</text>
<g fill="#000000" >
<use xlink:href="#f0_r" transform="matrix(11,0,0,11,104.3,168.5)"/>
<use xlink:href="#f0_s" transform="matrix(11,0,0,11,116.1,168.5)"/>
<use xlink:href="#f0_u" transform="matrix(11,0,0,11,127.8,168.5)"/>
<use xlink:href="#f1_2" transform="matrix(11,0,0,11,143.8,168.5)"/>
</g>
<text x="92" y="168" dx="0,.1,.1,.1" class="s1">2018</text>
<g fill="#000000" >
<use xlink:href="#f1_c" transform="matrix(11,0,0,11,154.5,168.5)"/>
<use xlink:href="#f1_3" transform="matrix(11,0,0,11,165.2,168.5)"/>
<use xlink:href="#f1_2" transform="matrix(11,0,0,11,170.5,168.5)"/>
<use xlink:href="#f1_4" transform="matrix(11,0,0,11,181.2,168.5)"/>
<use xlink:href="#f1_2" transform="matrix(11,0,0,11,195.9,168.5)"/>
<use xlink:href="#f1_b" transform="matrix(11,0,0,11,206.6,168.5)"/>
<use xlink:href="#f1_3" transform="matrix(11,0,0,11,217.3,168.5)"/>
<use xlink:href="#f1_2" transform="matrix(11,0,0,11,222.6,168.5)"/>
<use xlink:href="#f1_9" transform="matrix(11,0,0,11,233.3,168.5)"/>
<use xlink:href="#f1_a" transform="matrix(11,0,0,11,258.7,168.5)"/>
<use xlink:href="#f1_3" transform="matrix(11,0,0,11,269.4,168.5)"/>
<use xlink:href="#f1_a" transform="matrix(11,0,0,11,274.7,168.5)"/>
<use xlink:href="#f1_7" transform="matrix(11,0,0,11,285.4,168.5)"/>
<use xlink:href="#f1_9" transform="matrix(11,0,0,11,310.8,168.5)"/>
<use xlink:href="#f1_3" transform="matrix(11,0,0,11,321.5,168.5)"/>
<use xlink:href="#f1_2" transform="matrix(11,0,0,11,326.8,168.5)"/>
<use xlink:href="#f1_2" transform="matrix(11,0,0,11,337.5,168.5)"/>
<use xlink:href="#f1_4" transform="matrix(11,0,0,11,363,168.5)"/>
<use xlink:href="#f1_3" transform="matrix(11,0,0,11,373.7,168.5)"/>
<use xlink:href="#f1_c" transform="matrix(11,0,0,11,379,168.5)"/>
<use xlink:href="#f1_5" transform="matrix(11,0,0,11,389.7,168.5)"/>
<use xlink:href="#f1_2" transform="matrix(11,0,0,11,404.4,168.5)"/>
<use xlink:href="#f1_2" transform="matrix(11,0,0,11,415.1,168.5)"/>
<use xlink:href="#f1_3" transform="matrix(11,0,0,11,425.8,168.5)"/>
<use xlink:href="#f1_6" transform="matrix(11,0,0,11,431.1,168.5)"/>
<use xlink:href="#f1_5" transform="matrix(11,0,0,11,441.8,168.5)"/>
<use xlink:href="#f1_2" transform="matrix(11,0,0,11,467.2,168.5)"/>
<use xlink:href="#f1_3" transform="matrix(11,0,0,11,477.9,168.5)"/>
<use xlink:href="#f1_9" transform="matrix(11,0,0,11,483.2,168.5)"/>
<use xlink:href="#f1_2" transform="matrix(11,0,0,11,493.9,168.5)"/>
<use xlink:href="#f1_d" transform="matrix(11,0,0,11,513.3,168.5)"/>
<use xlink:href="#f1_8" transform="matrix(11,0,0,11,519.4,168.5)"/>
<use xlink:href="#f1_3" transform="matrix(11,0,0,11,530.1,168.5)"/>
<use xlink:href="#f1_9" transform="matrix(11,0,0,11,535.4,168.5)"/>
<use xlink:href="#f1_c" transform="matrix(11,0,0,11,546.1,168.5)"/>
<use xlink:href="#f1_2" transform="matrix(11,0,0,11,560.8,168.5)"/>
<use xlink:href="#f1_c" transform="matrix(11,0,0,11,571.5,168.5)"/>
<use xlink:href="#f1_3" transform="matrix(11,0,0,11,582.2,168.5)"/>
<use xlink:href="#f1_5" transform="matrix(11,0,0,11,587.5,168.5)"/>
<use xlink:href="#f1_4" transform="matrix(11,0,0,11,598.2,168.5)"/>
<use xlink:href="#f1_6" transform="matrix(11,0,0,11,623.6,168.5)"/>
<use xlink:href="#f1_3" transform="matrix(11,0,0,11,634.3,168.5)"/>
<use xlink:href="#f1_a" transform="matrix(11,0,0,11,639.6,168.5)"/>
<use xlink:href="#f1_4" transform="matrix(11,0,0,11,650.3,168.5)"/>
<use xlink:href="#f1_2" transform="matrix(11,0,0,11,665,168.5)"/>
<use xlink:href="#f1_6" transform="matrix(11,0,0,11,675.7,168.5)"/>
<use xlink:href="#f1_3" transform="matrix(11,0,0,11,686.4,168.5)"/>
<use xlink:href="#f1_4" transform="matrix(11,0,0,11,691.7,168.5)"/>
<use xlink:href="#f1_b" transform="matrix(11,0,0,11,702.4,168.5)"/>
<use xlink:href="#f1_4" transform="matrix(11,0,0,11,728,168.5)"/>
<use xlink:href="#f1_3" transform="matrix(11,0,0,11,738.7,168.5)"/>
<use xlink:href="#f1_6" transform="matrix(11,0,0,11,744,168.5)"/>
<use xlink:href="#f1_4" transform="matrix(11,0,0,11,754.7,168.5)"/>
<use xlink:href="#f1_5" transform="matrix(11,0,0,11,769.4,168.5)"/>
<use xlink:href="#f1_5" transform="matrix(11,0,0,11,780.1,168.5)"/>
<use xlink:href="#f1_3" transform="matrix(11,0,0,11,790.8,168.5)"/>
<use xlink:href="#f1_5" transform="matrix(11,0,0,11,796.1,168.5)"/>
<use xlink:href="#f1_a" transform="matrix(11,0,0,11,806.8,168.5)"/>
<use xlink:href="#f0_q" transform="matrix(11,0,0,11,92.6,191.4)"/>
</g>
<text x="143" y="168" dx="0,0,0,0,0,0,-.2,0,0,0,0" class="s2">15.17 14.13</text>
<text x="258" y="168" class="s2">8.86</text>
<text x="310" y="168" class="s2">3.11</text>
<text x="363" y="168" dx="0,0,0,0,0,-.2,0,0,0,0" class="s2">7.59 11.29</text>
<text x="467" y="168" dx="0,0,0,0,0,4.5,.1,0,0,0,0,-.2,0,0,0,0" class="s2">1.31 -0.35 15.97</text>
<text x="623" y="168" dx="0,0,0,0,0,-.2,0,0,0,0" class="s2">2.87 12.74</text>
<text x="727" y="168" dx="0,0,0,0,0,-.2,0,0,0,0" class="s2">7.27 99.98</text>
<g fill="#000000" >
<use xlink:href="#f0_r" transform="matrix(11,0,0,11,104.3,191.4)"/>
<use xlink:href="#f0_s" transform="matrix(11,0,0,11,116.1,191.4)"/>
<use xlink:href="#f0_v" transform="matrix(11,0,0,11,127.8,191.4)"/>
<use xlink:href="#f1_8" transform="matrix(11,0,0,11,154.5,191.4)"/>
</g>
<text x="92" y="191" dx="0,.1,.1,.1" class="s1">2017</text>
<g fill="#000000" >
<use xlink:href="#f1_3" transform="matrix(11,0,0,11,165.2,191.4)"/>
<use xlink:href="#f1_8" transform="matrix(11,0,0,11,170.5,191.4)"/>
<use xlink:href="#f1_4" transform="matrix(11,0,0,11,181.2,191.4)"/>
<use xlink:href="#f1_c" transform="matrix(11,0,0,11,206.6,191.4)"/>
<use xlink:href="#f1_3" transform="matrix(11,0,0,11,217.3,191.4)"/>
<use xlink:href="#f1_6" transform="matrix(11,0,0,11,222.6,191.4)"/>
<use xlink:href="#f1_c" transform="matrix(11,0,0,11,233.3,191.4)"/>
<use xlink:href="#f1_d" transform="matrix(11,0,0,11,252.5,191.4)"/>
<use xlink:href="#f1_8" transform="matrix(11,0,0,11,258.6,191.4)"/>
<use xlink:href="#f1_3" transform="matrix(11,0,0,11,269.3,191.4)"/>
<use xlink:href="#f1_b" transform="matrix(11,0,0,11,274.6,191.4)"/>
<use xlink:href="#f1_9" transform="matrix(11,0,0,11,285.3,191.4)"/>
<use xlink:href="#f1_c" transform="matrix(11,0,0,11,310.8,191.4)"/>
<use xlink:href="#f1_3" transform="matrix(11,0,0,11,321.5,191.4)"/>
<use xlink:href="#f1_7" transform="matrix(11,0,0,11,326.8,191.4)"/>
<use xlink:href="#f1_a" transform="matrix(11,0,0,11,337.5,191.4)"/>
<use xlink:href="#f1_6" transform="matrix(11,0,0,11,363,191.4)"/>
<use xlink:href="#f1_3" transform="matrix(11,0,0,11,373.7,191.4)"/>
<use xlink:href="#f1_6" transform="matrix(11,0,0,11,379,191.4)"/>
<use xlink:href="#f1_a" transform="matrix(11,0,0,11,389.7,191.4)"/>
<use xlink:href="#f1_8" transform="matrix(11,0,0,11,415.1,191.4)"/>
<use xlink:href="#f1_3" transform="matrix(11,0,0,11,425.8,191.4)"/>
<use xlink:href="#f1_4" transform="matrix(11,0,0,11,431.1,191.4)"/>
<use xlink:href="#f1_b" transform="matrix(11,0,0,11,441.8,191.4)"/>
<use xlink:href="#f1_c" transform="matrix(11,0,0,11,467.2,191.4)"/>
<use xlink:href="#f1_3" transform="matrix(11,0,0,11,477.9,191.4)"/>
<use xlink:href="#f1_a" transform="matrix(11,0,0,11,483.2,191.4)"/>
<use xlink:href="#f1_4" transform="matrix(11,0,0,11,493.9,191.4)"/>
<use xlink:href="#f1_8" transform="matrix(11,0,0,11,519.4,191.4)"/>
<use xlink:href="#f1_3" transform="matrix(11,0,0,11,530.1,191.4)"/>
<use xlink:href="#f1_7" transform="matrix(11,0,0,11,535.4,191.4)"/>
<use xlink:href="#f1_a" transform="matrix(11,0,0,11,546.1,191.4)"/>
<use xlink:href="#f1_9" transform="matrix(11,0,0,11,571.5,191.4)"/>
<use xlink:href="#f1_3" transform="matrix(11,0,0,11,582.2,191.4)"/>
<use xlink:href="#f1_6" transform="matrix(11,0,0,11,587.5,191.4)"/>
<use xlink:href="#f1_4" transform="matrix(11,0,0,11,598.2,191.4)"/>
<use xlink:href="#f1_a" transform="matrix(11,0,0,11,623.6,191.4)"/>
<use xlink:href="#f1_3" transform="matrix(11,0,0,11,634.3,191.4)"/>
<use xlink:href="#f1_a" transform="matrix(11,0,0,11,639.6,191.4)"/>
<use xlink:href="#f1_2" transform="matrix(11,0,0,11,650.3,191.4)"/>
<use xlink:href="#f1_2" transform="matrix(11,0,0,11,665,191.4)"/>
<use xlink:href="#f1_6" transform="matrix(11,0,0,11,675.7,191.4)"/>
<use xlink:href="#f1_3" transform="matrix(11,0,0,11,686.4,191.4)"/>
<use xlink:href="#f1_b" transform="matrix(11,0,0,11,691.7,191.4)"/>
<use xlink:href="#f1_6" transform="matrix(11,0,0,11,702.4,191.4)"/>
<use xlink:href="#f1_a" transform="matrix(11,0,0,11,728,191.4)"/>
<use xlink:href="#f1_3" transform="matrix(11,0,0,11,738.7,191.4)"/>
<use xlink:href="#f1_6" transform="matrix(11,0,0,11,744,191.4)"/>
<use xlink:href="#f1_c" transform="matrix(11,0,0,11,754.7,191.4)"/>
<use xlink:href="#f1_c" transform="matrix(11,0,0,11,769.4,191.4)"/>
<use xlink:href="#f1_6" transform="matrix(11,0,0,11,780.1,191.4)"/>
<use xlink:href="#f1_3" transform="matrix(11,0,0,11,790.8,191.4)"/>
<use xlink:href="#f1_a" transform="matrix(11,0,0,11,796.1,191.4)"/>
<use xlink:href="#f1_5" transform="matrix(11,0,0,11,806.8,191.4)"/>
<use xlink:href="#f0_q" transform="matrix(11,0,0,11,92.6,214.3)"/>
</g>
<text x="154" y="191" class="s2">0.07</text>
<text x="206" y="191" dx="0,0,0,0,0,4.4,.1,0,0,0" class="s2">5.25 -0.43</text>
<text x="310" y="191" class="s2">5.68</text>
<text x="363" y="191" class="s2">2.28</text>
<text x="415" y="191" class="s2">0.74</text>
<text x="467" y="191" class="s2">5.87</text>
<text x="519" y="191" class="s2">0.68</text>
<text x="571" y="191" class="s2">3.27</text>
<text x="623" y="191" dx="0,0,0,0,0,-.2,0,0,0,0" class="s2">8.81 12.42</text>
<text x="727" y="191" dx="0,0,0,0,0,-.2,0,0,0,0" class="s2">8.25 52.89</text>
<g fill="#000000" >
<use xlink:href="#f0_r" transform="matrix(11,0,0,11,104.3,214.3)"/>
<use xlink:href="#f0_s" transform="matrix(11,0,0,11,116.1,214.3)"/>
<use xlink:href="#f0_w" transform="matrix(11,0,0,11,127.8,214.3)"/>
<use xlink:href="#f1_8" transform="matrix(11,0,0,11,154.5,214.3)"/>
</g>
<text x="92" y="214" dx="0,.1,.1,.1" class="s1">2016</text>
<g fill="#000000" >
<use xlink:href="#f1_3" transform="matrix(11,0,0,11,165.2,214.3)"/>
<use xlink:href="#f1_b" transform="matrix(11,0,0,11,170.5,214.3)"/>
<use xlink:href="#f1_9" transform="matrix(11,0,0,11,181.2,214.3)"/>
<use xlink:href="#f1_5" transform="matrix(11,0,0,11,217.3,214.3)"/>
<use xlink:href="#f1_3" transform="matrix(11,0,0,11,228,214.3)"/>
<use xlink:href="#f1_7" transform="matrix(11,0,0,11,233.3,214.3)"/>
<use xlink:href="#f1_c" transform="matrix(11,0,0,11,258.7,214.3)"/>
<use xlink:href="#f1_3" transform="matrix(11,0,0,11,269.4,214.3)"/>
<use xlink:href="#f1_a" transform="matrix(11,0,0,11,274.7,214.3)"/>
<use xlink:href="#f1_a" transform="matrix(11,0,0,11,285.4,214.3)"/>
<use xlink:href="#f1_4" transform="matrix(11,0,0,11,310.8,214.3)"/>
<use xlink:href="#f1_3" transform="matrix(11,0,0,11,321.5,214.3)"/>
<use xlink:href="#f1_6" transform="matrix(11,0,0,11,326.8,214.3)"/>
<use xlink:href="#f1_4" transform="matrix(11,0,0,11,337.5,214.3)"/>
<use xlink:href="#f1_2" transform="matrix(11,0,0,11,352.3,214.3)"/>
<use xlink:href="#f1_6" transform="matrix(11,0,0,11,363,214.3)"/>
<use xlink:href="#f1_3" transform="matrix(11,0,0,11,373.7,214.3)"/>
<use xlink:href="#f1_4" transform="matrix(11,0,0,11,379,214.3)"/>
<use xlink:href="#f1_c" transform="matrix(11,0,0,11,389.7,214.3)"/>
<use xlink:href="#f1_a" transform="matrix(11,0,0,11,415.1,214.3)"/>
<use xlink:href="#f1_3" transform="matrix(11,0,0,11,425.8,214.3)"/>
<use xlink:href="#f1_c" transform="matrix(11,0,0,11,431.1,214.3)"/>
<use xlink:href="#f1_b" transform="matrix(11,0,0,11,441.8,214.3)"/>
<use xlink:href="#f1_2" transform="matrix(11,0,0,11,456.5,214.3)"/>
<use xlink:href="#f1_7" transform="matrix(11,0,0,11,467.2,214.3)"/>
<use xlink:href="#f1_3" transform="matrix(11,0,0,11,477.9,214.3)"/>
<use xlink:href="#f1_5" transform="matrix(11,0,0,11,483.2,214.3)"/>
<use xlink:href="#f1_9" transform="matrix(11,0,0,11,493.9,214.3)"/>
<use xlink:href="#f1_8" transform="matrix(11,0,0,11,519.4,214.3)"/>
<use xlink:href="#f1_3" transform="matrix(11,0,0,11,530.1,214.3)"/>
<use xlink:href="#f1_2" transform="matrix(11,0,0,11,535.4,214.3)"/>
<use xlink:href="#f1_9" transform="matrix(11,0,0,11,546.1,214.3)"/>
<use xlink:href="#f1_2" transform="matrix(11,0,0,11,560.8,214.3)"/>
<use xlink:href="#f1_8" transform="matrix(11,0,0,11,571.5,214.3)"/>
<use xlink:href="#f1_3" transform="matrix(11,0,0,11,582.2,214.3)"/>
<use xlink:href="#f1_5" transform="matrix(11,0,0,11,587.5,214.3)"/>
<use xlink:href="#f1_2" transform="matrix(11,0,0,11,598.2,214.3)"/>
<use xlink:href="#f1_d" transform="matrix(11,0,0,11,617.5,214.3)"/>
<use xlink:href="#f1_b" transform="matrix(11,0,0,11,623.6,214.3)"/>
<use xlink:href="#f1_3" transform="matrix(11,0,0,11,634.3,214.3)"/>
<use xlink:href="#f1_9" transform="matrix(11,0,0,11,639.6,214.3)"/>
<use xlink:href="#f1_9" transform="matrix(11,0,0,11,650.3,214.3)"/>
<use xlink:href="#f1_2" transform="matrix(11,0,0,11,686.4,214.3)"/>
<use xlink:href="#f1_3" transform="matrix(11,0,0,11,697.1,214.3)"/>
<use xlink:href="#f1_c" transform="matrix(11,0,0,11,702.4,214.3)"/>
<use xlink:href="#f1_2" transform="matrix(11,0,0,11,717.3,214.3)"/>
<use xlink:href="#f1_6" transform="matrix(11,0,0,11,728,214.3)"/>
<use xlink:href="#f1_3" transform="matrix(11,0,0,11,738.7,214.3)"/>
<use xlink:href="#f1_2" transform="matrix(11,0,0,11,744,214.3)"/>
<use xlink:href="#f1_b" transform="matrix(11,0,0,11,754.7,214.3)"/>
<use xlink:href="#f1_a" transform="matrix(11,0,0,11,769.4,214.3)"/>
<use xlink:href="#f1_2" transform="matrix(11,0,0,11,780.1,214.3)"/>
<use xlink:href="#f1_3" transform="matrix(11,0,0,11,790.8,214.3)"/>
<use xlink:href="#f1_4" transform="matrix(11,0,0,11,796.1,214.3)"/>
<use xlink:href="#f1_c" transform="matrix(11,0,0,11,806.8,214.3)"/>
<use xlink:href="#f0_q" transform="matrix(11,0,0,11,92.6,237.3)"/>
</g>
<text x="154" y="214" class="s2">0.43</text>
<text x="217" y="214" class="s2">9.6</text>
<text x="258" y="214" class="s2">5.88</text>
<text x="310" y="214" dx="0,0,0,0,0,-.1,0,0,0,0" class="s2">7.27 12.75</text>
<text x="415" y="214" dx="0,0,0,0,0,-.2,0,0,0,0" class="s2">8.54 16.93</text>
<text x="519" y="214" dx="0,0,0,0,0,-.2,0,0,0,0,0,4.4,.1,0,0,0" class="s2">0.13 10.91 -4.33</text>
<text x="686" y="214" dx="0,0,0,0,0,0,0,0,0,0,-.2,0,0,0,0" class="s2">1.5 12.14 81.75</text>
<g fill="#000000" >
<use xlink:href="#f0_r" transform="matrix(11,0,0,11,104.3,237.3)"/>
<use xlink:href="#f0_s" transform="matrix(11,0,0,11,116.1,237.3)"/>
<use xlink:href="#f0_x" transform="matrix(11,0,0,11,127.8,237.3)"/>
<use xlink:href="#f1_9" transform="matrix(11,0,0,11,154.5,237.3)"/>
</g>
<text x="92" y="237" dx="0,.1,.1,.1" class="s1">2015</text>
<g fill="#000000" >
<use xlink:href="#f1_3" transform="matrix(11,0,0,11,165.2,237.3)"/>
<use xlink:href="#f1_4" transform="matrix(11,0,0,11,170.5,237.3)"/>
<use xlink:href="#f1_7" transform="matrix(11,0,0,11,181.2,237.3)"/>
<use xlink:href="#f1_2" transform="matrix(11,0,0,11,195.9,237.3)"/>
<use xlink:href="#f1_8" transform="matrix(11,0,0,11,206.6,237.3)"/>
<use xlink:href="#f1_3" transform="matrix(11,0,0,11,217.3,237.3)"/>
<use xlink:href="#f1_7" transform="matrix(11,0,0,11,222.6,237.3)"/>
<use xlink:href="#f1_7" transform="matrix(11,0,0,11,233.3,237.3)"/>
<use xlink:href="#f1_2" transform="matrix(11,0,0,11,248,237.3)"/>
<use xlink:href="#f1_8" transform="matrix(11,0,0,11,258.7,237.3)"/>
<use xlink:href="#f1_3" transform="matrix(11,0,0,11,269.3,237.3)"/>
<use xlink:href="#f1_2" transform="matrix(11,0,0,11,274.7,237.3)"/>
<use xlink:href="#f1_9" transform="matrix(11,0,0,11,285.4,237.3)"/>
<use xlink:href="#f1_5" transform="matrix(11,0,0,11,310.8,237.3)"/>
<use xlink:href="#f1_3" transform="matrix(11,0,0,11,321.5,237.3)"/>
<use xlink:href="#f1_8" transform="matrix(11,0,0,11,326.8,237.3)"/>
<use xlink:href="#f1_9" transform="matrix(11,0,0,11,337.5,237.3)"/>
<use xlink:href="#f1_8" transform="matrix(11,0,0,11,363,237.3)"/>
<use xlink:href="#f1_3" transform="matrix(11,0,0,11,373.7,237.3)"/>
<use xlink:href="#f1_7" transform="matrix(11,0,0,11,379,237.3)"/>
<use xlink:href="#f1_a" transform="matrix(11,0,0,11,389.7,237.3)"/>
<use xlink:href="#f1_8" transform="matrix(11,0,0,11,425.8,237.3)"/>
<use xlink:href="#f1_3" transform="matrix(11,0,0,11,436.5,237.3)"/>
<use xlink:href="#f1_a" transform="matrix(11,0,0,11,441.8,237.3)"/>
<use xlink:href="#f1_2" transform="matrix(11,0,0,11,456.5,237.3)"/>
<use xlink:href="#f1_8" transform="matrix(11,0,0,11,467.2,237.3)"/>
<use xlink:href="#f1_3" transform="matrix(11,0,0,11,477.9,237.3)"/>
<use xlink:href="#f1_9" transform="matrix(11,0,0,11,483.2,237.3)"/>
<use xlink:href="#f1_4" transform="matrix(11,0,0,11,493.9,237.3)"/>
<use xlink:href="#f1_5" transform="matrix(11,0,0,11,519.4,237.3)"/>
<use xlink:href="#f1_3" transform="matrix(11,0,0,11,530.1,237.3)"/>
<use xlink:href="#f1_b" transform="matrix(11,0,0,11,535.4,237.3)"/>
<use xlink:href="#f1_9" transform="matrix(11,0,0,11,546.1,237.3)"/>
<use xlink:href="#f1_b" transform="matrix(11,0,0,11,571.5,237.3)"/>
<use xlink:href="#f1_3" transform="matrix(11,0,0,11,582.2,237.3)"/>
<use xlink:href="#f1_4" transform="matrix(11,0,0,11,587.5,237.3)"/>
<use xlink:href="#f1_4" transform="matrix(11,0,0,11,598.2,237.3)"/>
<use xlink:href="#f1_6" transform="matrix(11,0,0,11,612.9,237.3)"/>
<use xlink:href="#f1_9" transform="matrix(11,0,0,11,623.6,237.3)"/>
<use xlink:href="#f1_3" transform="matrix(11,0,0,11,634.3,237.3)"/>
<use xlink:href="#f1_b" transform="matrix(11,0,0,11,639.6,237.3)"/>
<use xlink:href="#f1_c" transform="matrix(11,0,0,11,650.3,237.3)"/>
<use xlink:href="#f1_2" transform="matrix(11,0,0,11,675.7,237.3)"/>
<use xlink:href="#f1_8" transform="matrix(11,0,0,11,686.4,237.3)"/>
<use xlink:href="#f1_3" transform="matrix(11,0,0,11,697.1,237.3)"/>
<use xlink:href="#f1_4" transform="matrix(11,0,0,11,702.4,237.3)"/>
<use xlink:href="#f1_7" transform="matrix(11,0,0,11,738.7,237.3)"/>
<use xlink:href="#f1_3" transform="matrix(11,0,0,11,749.4,237.3)"/>
<use xlink:href="#f1_4" transform="matrix(11,0,0,11,754.7,237.3)"/>
<use xlink:href="#f1_2" transform="matrix(11,0,0,11,785.4,237.3)"/>
<use xlink:href="#f1_8" transform="matrix(11,0,0,11,796.1,237.3)"/>
<use xlink:href="#f1_8" transform="matrix(11,0,0,11,806.8,237.3)"/>
<use xlink:href="#f0_q" transform="matrix(11,0,0,11,92.6,260)"/>
</g>
<text x="154" y="237" dx="0,0,0,0,0,-.2,0,0,0,0,0,-.2,0,0,0,0" class="s2">3.76 10.66 10.13</text>
<text x="310" y="237" class="s2">9.03</text>
<text x="363" y="237" class="s2">0.68</text>
<text x="425" y="237" dx="0,0,0,0,-.2,0,0,0,0" class="s2">0.8 10.37</text>
<text x="519" y="237" class="s2">9.43</text>
<text x="571" y="237" dx="0,0,0,0,0,-.2,0,0,0,0" class="s2">4.77 23.45</text>
<text x="675" y="237" class="s2">10.7</text>
<text x="738" y="237" class="s2">6.7</text>
<text x="785" y="237" class="s2">100</text>
<g fill="#000000" >
<use xlink:href="#f0_r" transform="matrix(11,0,0,11,104.3,260)"/>
<use xlink:href="#f0_s" transform="matrix(11,0,0,11,116.1,260)"/>
<use xlink:href="#f0_y" transform="matrix(11,0,0,11,127.8,260)"/>
<use xlink:href="#f1_2" transform="matrix(11,0,0,11,165.2,260)"/>
</g>
<text x="92" y="260" dx="0,.1,.1,.1" class="s1">2014</text>
<g fill="#000000" >
<use xlink:href="#f1_3" transform="matrix(11,0,0,11,175.9,260)"/>
<use xlink:href="#f1_b" transform="matrix(11,0,0,11,181.2,260)"/>
<use xlink:href="#f1_9" transform="matrix(11,0,0,11,206.6,260)"/>
<use xlink:href="#f1_3" transform="matrix(11,0,0,11,217.3,260)"/>
<use xlink:href="#f1_2" transform="matrix(11,0,0,11,222.6,260)"/>
<use xlink:href="#f1_b" transform="matrix(11,0,0,11,233.3,260)"/>
<use xlink:href="#f1_2" transform="matrix(11,0,0,11,248,260)"/>
<use xlink:href="#f1_9" transform="matrix(11,0,0,11,258.7,260)"/>
<use xlink:href="#f1_3" transform="matrix(11,0,0,11,269.3,260)"/>
<use xlink:href="#f1_2" transform="matrix(11,0,0,11,274.7,260)"/>
<use xlink:href="#f1_9" transform="matrix(11,0,0,11,285.4,260)"/>
<use xlink:href="#f1_7" transform="matrix(11,0,0,11,310.8,260)"/>
<use xlink:href="#f1_3" transform="matrix(11,0,0,11,321.5,260)"/>
<use xlink:href="#f1_6" transform="matrix(11,0,0,11,326.8,260)"/>
<use xlink:href="#f1_2" transform="matrix(11,0,0,11,337.5,260)"/>
<use xlink:href="#f1_9" transform="matrix(11,0,0,11,363,260)"/>
<use xlink:href="#f1_3" transform="matrix(11,0,0,11,373.7,260)"/>
<use xlink:href="#f1_6" transform="matrix(11,0,0,11,379,260)"/>
<use xlink:href="#f1_c" transform="matrix(11,0,0,11,389.7,260)"/>
<use xlink:href="#f1_d" transform="matrix(11,0,0,11,409,260)"/>
<use xlink:href="#f1_2" transform="matrix(11,0,0,11,415.1,260)"/>
<use xlink:href="#f1_3" transform="matrix(11,0,0,11,425.8,260)"/>
<use xlink:href="#f1_c" transform="matrix(11,0,0,11,431.1,260)"/>
<use xlink:href="#f1_b" transform="matrix(11,0,0,11,441.8,260)"/>
<use xlink:href="#f1_9" transform="matrix(11,0,0,11,467.2,260)"/>
<use xlink:href="#f1_3" transform="matrix(11,0,0,11,477.9,260)"/>
<use xlink:href="#f1_6" transform="matrix(11,0,0,11,483.2,260)"/>
<use xlink:href="#f1_2" transform="matrix(11,0,0,11,493.9,260)"/>
<use xlink:href="#f1_d" transform="matrix(11,0,0,11,513.3,260)"/>
<use xlink:href="#f1_8" transform="matrix(11,0,0,11,519.4,260)"/>
<use xlink:href="#f1_3" transform="matrix(11,0,0,11,530.1,260)"/>
<use xlink:href="#f1_b" transform="matrix(11,0,0,11,535.4,260)"/>
<use xlink:href="#f1_7" transform="matrix(11,0,0,11,546.1,260)"/>
<use xlink:href="#f1_7" transform="matrix(11,0,0,11,571.5,260)"/>
<use xlink:href="#f1_3" transform="matrix(11,0,0,11,582.2,260)"/>
<use xlink:href="#f1_6" transform="matrix(11,0,0,11,587.5,260)"/>
<use xlink:href="#f1_4" transform="matrix(11,0,0,11,598.2,260)"/>
<use xlink:href="#f1_2" transform="matrix(11,0,0,11,612.9,260)"/>
<use xlink:href="#f1_6" transform="matrix(11,0,0,11,623.6,260)"/>
<use xlink:href="#f1_3" transform="matrix(11,0,0,11,634.3,260)"/>
<use xlink:href="#f1_2" transform="matrix(11,0,0,11,639.6,260)"/>
<use xlink:href="#f1_b" transform="matrix(11,0,0,11,650.3,260)"/>
<use xlink:href="#f1_9" transform="matrix(11,0,0,11,675.7,260)"/>
<use xlink:href="#f1_3" transform="matrix(11,0,0,11,686.4,260)"/>
<use xlink:href="#f1_2" transform="matrix(11,0,0,11,691.7,260)"/>
<use xlink:href="#f1_4" transform="matrix(11,0,0,11,702.4,260)"/>
<use xlink:href="#f1_c" transform="matrix(11,0,0,11,728,260)"/>
<use xlink:href="#f1_3" transform="matrix(11,0,0,11,738.7,260)"/>
<use xlink:href="#f1_b" transform="matrix(11,0,0,11,744,260)"/>
<use xlink:href="#f1_a" transform="matrix(11,0,0,11,754.7,260)"/>
<use xlink:href="#f1_c" transform="matrix(11,0,0,11,769.4,260)"/>
<use xlink:href="#f1_c" transform="matrix(11,0,0,11,780.1,260)"/>
<use xlink:href="#f1_3" transform="matrix(11,0,0,11,790.8,260)"/>
<use xlink:href="#f1_9" transform="matrix(11,0,0,11,796.1,260)"/>
<use xlink:href="#f1_a" transform="matrix(11,0,0,11,806.8,260)"/>
<use xlink:href="#f1_2" transform="matrix(10,0,0,10,182,319.6)"/>
</g>
<text x="165" y="260" class="s2">1.4</text>
<text x="206" y="260" dx="0,0,0,0,0,-.2,0,0,0,0" class="s2">3.14 13.13</text>
<text x="310" y="260" class="s2">6.21</text>
<text x="363" y="260" dx="0,0,0,0,0,4.4,.1,0,0,0" class="s2">3.25 -1.54</text>
<text x="467" y="260" dx="0,0,0,0,0,4.5,.1,0,0,0" class="s2">3.21 -0.46</text>
<text x="571" y="260" dx="0,0,0,0,0,-.2,0,0,0,0" class="s2">6.27 12.14</text>
<text x="675" y="260" class="s2">3.17</text>
<text x="727" y="260" dx="0,0,0,0,0,-.2,0,0,0,0" class="s2">5.48 55.38</text>
<text x="181" y="319" class="s3">1</text>

</g>

<!-- Any embedded fonts defined here -->
<style type="text/css" ><![CDATA[

@font-face {
	font-family: DejaVuSans-Bold_a;
	src: url("fonts/DejaVuSans-Bold_a.woff") format("woff");
}

@font-face {
	font-family: DejaVuSans_5;
	src: url("fonts/DejaVuSans_5.woff") format("woff");
}

]]></style>

</svg>
