<svg width="4000" height="800" xmlns="http://www.w3.org/2000/svg">

 <g>
  <title>background</title>
  <rect fill="none" id="canvas_background" height="802" width="4002" y="-1" x="-1"/>
 </g>
 <g>
  <title>Layer 1</title>
  <g transform="matrix(10.1554,0,0,10.030914,-822.878662,124.783867) " id="svg_9">
   <path id="svg_10" d="m149.19406,34.75941c-4.274,17.143 -21.637,27.576 -38.782,23.301c-17.138,-4.274 -27.571,-21.638 -23.295,-38.78c4.272,-17.145 21.635,-27.579 38.775,-23.305c17.144,4.274 27.576,21.64 23.302,38.784z" fill="#f7931a"/>
   <path id="svg_11" d="m132.26406,22.45941c0.637,-4.258 -2.605,-6.547 -7.038,-8.074l1.438,-5.768l-3.511,-0.875l-1.4,5.616c-0.923,-0.23 -1.871,-0.447 -2.813,-0.662l1.41,-5.653l-3.509,-0.875l-1.439,5.766c-0.764,-0.174 -1.514,-0.346 -2.242,-0.527l0.004,-0.018l-4.842,-1.209l-0.934,3.75s2.605,0.597 2.55,0.634c1.422,0.355 1.679,1.296 1.636,2.042l-1.638,6.571c0.098,0.025 0.225,0.061 0.365,0.117c-0.117,-0.029 -0.242,-0.061 -0.371,-0.092l-2.296,9.205c-0.174,0.432 -0.615,1.08 -1.609,0.834c0.035,0.051 -2.552,-0.637 -2.552,-0.637l-1.743,4.019l4.569,1.139c0.85,0.213 1.683,0.436 2.503,0.646l-1.453,5.834l3.507,0.875l1.439,-5.772c0.958,0.26 1.888,0.5 2.798,0.726l-1.434,5.745l3.511,0.875l1.453,-5.823c5.987,1.133 10.489,0.676 12.384,-4.739c1.527,-4.36 -0.076,-6.875 -3.226,-8.515c2.294,-0.529 4.022,-2.038 4.483,-5.155zm-8.022,11.249c-1.085,4.36 -8.426,2.003 -10.806,1.412l1.928,-7.729c2.38,0.594 10.012,1.77 8.878,6.317zm1.086,-11.312c-0.99,3.966 -7.1,1.951 -9.082,1.457l1.748,-7.01c1.982,0.494 8.365,1.416 7.334,5.553z" fill="#FFF"/>
  </g>
  <g transform="matrix(0.364718,0,0,0.364718,434.784821,95.375214) " id="svg_12">
   <polygon id="svg_13" points="5168.53028678894,-56.3922119140625 4628.83057975769,839.207763671875 5168.53028678894,593.9078369140625 " fill="#8A92B2"/>
   <polygon id="svg_14" points="5168.53028678894,593.9078369140625 4628.83057975769,839.207763671875 5168.53028678894,1158.307861328125 " fill="#62688F"/>
   <polygon id="svg_15" points="5708.33057975769,839.207763671875 5168.53028678894,-56.3922119140625 5168.53028678894,593.9078369140625 " fill="#62688F"/>
   <polygon id="svg_16" points="5168.53028678894,1158.307861328125 5708.33057975769,839.207763671875 5168.53028678894,593.9078369140625 " fill="#454A75"/>
   <polygon id="svg_17" points="4628.83057975769,941.607666015625 5168.53028678894,1702.207763671875 5168.53028678894,1260.5078125 " fill="#8A92B2"/>
   <polygon id="svg_18" points="5168.53028678894,1260.5078125 5168.53028678894,1702.207763671875 5708.63038444519,941.607666015625 " fill="#62688F"/>
  </g>
  <path id="svg_19" fill="#bebebe" d="m3217.226,395.503c0,177.116 -143.578,320.698 -320.692,320.698c-177.117,0 -320.697,-143.582 -320.697,-320.698c0,-177.115 143.58,-320.695 320.697,-320.695c177.112,0 320.692,143.58 320.692,320.695"/>
  <path id="svg_20" fill="#bebebe" d="m3164.139,395.506c0,139.503 -113.095,252.608 -252.605,252.608c-139.509,0 -252.612,-113.105 -252.612,-252.608c0,-139.514 113.103,-252.611 252.612,-252.611c139.512,0 252.605,113.095 252.605,252.611"/>
  <path id="svg_21" fill="#fff" d="m2877.79,481.174l20.83,-78.435l49.316,-18.017l12.266,-46.095l-0.419,-1.144l-48.544,17.735l34.977,-131.701l-99.195,0l-45.741,171.873l-38.191,13.951l-12.619,47.522l38.161,-13.94l-26.958,101.292l263.996,0l16.924,-63.041l-164.803,0"/>
  <path id="svg_22" fill="#2775ca" d="m3590.763,716.793c177.884,0 320.993,-143.108 320.993,-320.992c0,-177.884 -143.109,-320.993 -320.993,-320.993c-177.884,0 -320.992,143.109 -320.992,320.993c0,177.884 143.108,320.992 320.992,320.992z"/>
  <path id="svg_23" fill="#fff" d="m3679.037,446.623c0,-46.81 -28.088,-62.859 -84.262,-69.546c-40.124,-5.35 -48.148,-16.05 -48.148,-34.776c0,-18.727 13.376,-30.761 40.124,-30.761c24.074,0 37.45,8.025 44.136,28.087c1.339,4.013 5.351,6.686 9.364,6.686l21.397,0c5.351,0 9.364,-4.012 9.364,-9.36l0,-1.338c-5.351,-29.426 -29.426,-52.162 -60.187,-54.836l0,-32.099c0,-5.351 -4.012,-9.364 -10.698,-10.701l-20.062,0c-5.352,0 -9.364,4.012 -10.702,10.701l0,30.76c-40.125,5.352 -65.534,32.1 -65.534,65.538c0,44.136 26.748,61.521 82.922,68.21c37.45,6.687 49.487,14.712 49.487,36.113c0,21.4 -18.726,36.112 -44.136,36.112c-34.777,0 -46.814,-14.715 -50.827,-34.777c-1.334,-5.347 -5.347,-8.025 -9.359,-8.025l-22.74,0c-5.347,0 -9.359,4.012 -9.359,9.364l0,1.338c5.347,33.434 26.748,57.509 70.884,64.199l0,32.099c0,5.347 4.012,9.36 10.699,10.698l20.062,0c5.351,0 9.363,-4.012 10.702,-10.698l0,-32.099c40.124,-6.69 66.873,-34.777 66.873,-70.889z"/>
  <path id="svg_24" fill="#fff" d="m3522.552,587.057c-104.322,-37.446 -157.822,-153.806 -119.033,-256.793c20.062,-56.174 64.198,-98.972 119.033,-119.034c5.351,-2.674 8.025,-6.686 8.025,-13.376l0,-18.724c0,-5.351 -2.674,-9.363 -8.025,-10.698c-1.339,0 -4.012,0 -5.351,1.335c-127.058,40.125 -196.608,175.211 -156.484,302.27c24.075,74.896 81.587,132.409 156.484,156.483c5.351,2.674 10.702,0 12.037,-5.351c1.339,-1.335 1.339,-2.674 1.339,-5.347l0,-18.727c0,-4.013 -4.012,-9.36 -8.025,-12.038zm141.773,-417.29c-5.351,-2.674 -10.701,0 -12.037,5.351c-1.339,1.339 -1.339,2.674 -1.339,5.351l0,18.723c0,5.352 4.012,10.7 8.025,13.376c104.323,37.448 157.823,153.807 119.034,256.795c-20.062,56.174 -64.198,98.971 -119.034,119.033c-5.35,2.674 -8.025,6.686 -8.025,13.376l0,18.723c0,5.352 2.675,9.364 8.025,10.699c1.339,0 4.012,0 5.351,-1.335c127.059,-40.124 196.609,-175.211 156.485,-302.269c-24.075,-76.236 -82.926,-133.749 -156.485,-157.823z"/>
  <g stroke="null" id="svg_34">
   <g stroke="null" transform="matrix(1.4512660046637085,0,0,1.4512660046637085,-30559.39155315432,-15254.752431166693) " id="svg_29">
    <metadata stroke="null" transform="translate(-6.890535354614258,-365.1983947753906) translate(17.22633934020996,-1.8189894035458565e-12) translate(17.22633934020996,-6.890535354614258) translate(-196.38026428222656,-506.4543762207031) translate(0,530.5718383789062) translate(201.5488739013672,-1.8189894035458565e-12) translate(18.066648483276367,0) translate(-7.226659774780273,3.6133298873901367) translate(7.226659774780273,-148.1465301513672) translate(-6.230460166931152,170.29925537109375) translate(21999.55859375,0) translate(0,10888.669921875) " id="svg_30"/>
    <path stroke="null" id="svg_32" d="m22266.34554,10566.46451c122.74,0 222.22,99.5 222.22,222.22c0,122.74 -99.48,222.22 -222.22,222.22c-122.72,0 -222.22,-99.49 -222.22,-222.22c0,-122.72 99.5,-222.22 222.22,-222.22z" fill-rule="nonzero" fill="#F5AC37"/>
    <path stroke="null" id="svg_33" d="m22274.53554,10804.37451l84.44,0c1.8,0 2.65,0 2.78,-2.36c0.69,-8.59 0.69,-17.23 0,-25.83c0,-1.67 -0.83,-2.36 -2.64,-2.36l-168.05,0c-2.08,0 -2.64,0.69 -2.64,2.64l0,24.72c0,3.19 0,3.19 3.33,3.19l82.78,0zm77.79,-59.44c0.24,-0.63 0.24,-1.32 0,-1.94c-1.41,-3.07 -3.08,-6 -5.02,-8.75c-2.92,-4.7 -6.36,-9.03 -10.28,-12.92c-1.85,-2.35 -3.99,-4.46 -6.39,-6.25c-12.02,-10.23 -26.31,-17.47 -41.67,-21.11c-7.75,-1.74 -15.67,-2.57 -23.61,-2.5l-74.58,0c-2.08,0 -2.36,0.83 -2.36,2.64l0,49.3c0,2.08 0,2.64 2.64,2.64l160.27,0c0,0 1.39,-0.28 1.67,-1.11l-0.68,0l0.01,0zm0,88.33c-2.36,-0.26 -4.74,-0.26 -7.1,0l-154.02,0c-2.08,0 -2.78,0 -2.78,2.78l0,48.2c0,2.22 0,2.78 2.78,2.78l71.11,0c3.4,0.26 6.8,0.02 10.13,-0.69c10.32,-0.74 20.47,-2.98 30.15,-6.67c3.52,-1.22 6.92,-2.81 10.13,-4.72l0.97,0c16.67,-8.67 30.21,-22.29 38.75,-39.01c0,0 0.97,-2.1 -0.12,-2.65l0,-0.02zm-191.81,78.75l0,-0.83l0,-32.36l0,-10.97l0,-32.64c0,-1.81 0,-2.08 -2.22,-2.08l-30.14,0c-1.67,0 -2.36,0 -2.36,-2.22l0,-26.39l32.22,0c1.8,0 2.5,0 2.5,-2.36l0,-26.11c0,-1.67 0,-2.08 -2.22,-2.08l-30.14,0c-1.67,0 -2.36,0 -2.36,-2.22l0,-24.44c0,-1.53 0,-1.94 2.22,-1.94l29.86,0c2.08,0 2.64,0 2.64,-2.64l0,-74.86c0,-2.22 0,-2.78 2.78,-2.78l104.16,0c7.56,0.3 15.07,1.13 22.5,2.5c15.31,2.83 30.02,8.3 43.47,16.11c8.92,5.25 17.13,11.59 24.44,18.89c5.5,5.71 10.46,11.89 14.86,18.47c4.37,6.67 8,13.8 10.85,21.25c0.35,1.94 2.21,3.25 4.15,2.92l24.86,0c3.19,0 3.19,0 3.33,3.06l0,22.78c0,2.22 -0.83,2.78 -3.06,2.78l-19.17,0c-1.94,0 -2.5,0 -2.36,2.5c0.76,8.46 0.76,16.95 0,25.41c0,2.36 0,2.64 2.65,2.64l21.93,0c0.97,1.25 0,2.5 0,3.76c0.14,1.61 0.14,3.24 0,4.85l0,16.81c0,2.36 -0.69,3.06 -2.78,3.06l-26.25,0c-1.83,-0.35 -3.61,0.82 -4.03,2.64c-6.25,16.25 -16.25,30.82 -29.17,42.5c-4.72,4.25 -9.68,8.25 -14.86,11.94c-5.56,3.2 -10.97,6.53 -16.67,9.17c-10.49,4.72 -21.49,8.2 -32.78,10.41c-10.72,1.92 -21.59,2.79 -32.5,2.64l-96.39,0l0,-0.14l0.04,-0.03z" fill-rule="nonzero" fill="#FEFEFD"/>
   </g>
  </g>
  <style transform="matrix(0.02863024461930852,0,0,0.02863024461930852,0,0) " type="text/css">.st0{fill:#0AC18E;}
	.st1{fill:#FFFFFF;}</style>
  <g stroke="null" id="svg_42">
   <circle stroke="null" transform="matrix(0.8281251359249261,0,0,0.8281251359249261,-55907.40801062876,-28150.507929475552) " id="svg_41" r="394" cy="34470.04066" cx="68784.78706" class="st0"/>
   <path stroke="null" d="m1156.7797,285.43822c-16.39688,-37.18282 -54.07657,-45.13282 -100.20314,-37.43126l-14.82344,-57.47188l-34.94688,9.02656l14.575,57.30626c-9.19219,2.31875 -18.63282,4.30625 -27.99063,6.95625l-14.575,-56.97501l-34.94688,9.02656l14.82344,57.47188c-7.53594,2.15313 -70.55626,18.30157 -70.55626,18.30157l9.60625,37.43126c0,0 25.67188,-7.20469 25.42344,-6.625c14.24375,-3.72656 20.95157,3.39531 24.09844,10.10313l40.74376,157.5094c0.49688,4.55469 -0.33125,12.33906 -10.10313,14.98906c0.57969,0.33125 -25.42344,6.54219 -25.42344,6.54219l3.80938,43.64219c0,0 62.44064,-15.98282 70.63907,-18.05313l14.98906,58.13438l34.94688,-9.02656l-14.98906,-58.54845c9.60625,-2.23594 18.96407,-4.55469 28.07344,-6.95625l14.90625,58.2172l34.94688,-9.02656l-14.98906,-58.05157c53.82813,-13.08438 91.83908,-47.03751 84.0547,-98.96095c-4.96875,-31.30313 -39.17032,-56.97501 -67.57501,-59.87345c17.47344,-15.48594 26.33438,-38.09376 15.48594,-67.65782l0,0zm-16.81094,137.05471c6.95625,51.42657 -64.51095,57.72032 -88.11251,63.93126l-20.5375,-76.93283c23.68438,-6.21094 96.89064,-32.29688 108.65002,13.00156zm-43.06251,-104.75783c7.37031,45.71251 -53.74532,51.01251 -73.4547,56.06407l-18.71563,-69.81095c19.79219,-4.88594 77.18126,-28.57032 92.17033,13.74688z" class="st1" id="svg_39"/>
  </g>
 </g>
</svg>