<?xml version="1.0" encoding="utf-8"?>
<svg viewBox="-822.904 124.808 3204.66 641.985" xmlns="http://www.w3.org/2000/svg">
  <g transform="matrix(0.268774, 0, 0, 0.268774, 161.137787, 427.307251)" style="">
    <path fill="#f7931a" d="m63.033,39.744c-4.274,17.143-21.637,27.576-38.782,23.301-17.138-4.274-27.571-21.638-23.295-38.78,4.272-17.145,21.635-27.579,38.775-23.305,17.144,4.274,27.576,21.64,23.302,38.784z"/>
    <path fill="#FFF" d="m46.103,27.444c0.637-4.258-2.605-6.547-7.038-8.074l1.438-5.768-3.511-0.875-1.4,5.616c-0.923-0.23-1.871-0.447-2.813-0.662l1.41-5.653-3.509-0.875-1.439,5.766c-0.764-0.174-1.514-0.346-2.242-0.527l0.004-0.018-4.842-1.209-0.934,3.75s2.605,0.597,2.55,0.634c1.422,0.355,1.679,1.296,1.636,2.042l-1.638,6.571c0.098,0.025,0.225,0.061,0.365,0.117-0.117-0.029-0.242-0.061-0.371-0.092l-2.296,9.205c-0.174,0.432-0.615,1.08-1.609,0.834,0.035,0.051-2.552-0.637-2.552-0.637l-1.743,4.019,4.569,1.139c0.85,0.213,1.683,0.436,2.503,0.646l-1.453,5.834,3.507,0.875,1.439-5.772c0.958,0.26,1.888,0.5,2.798,0.726l-1.434,5.745,3.511,0.875,1.453-5.823c5.987,1.133,10.489,0.676,12.384-4.739,1.527-4.36-0.076-6.875-3.226-8.515,2.294-0.529,4.022-2.038,4.483-5.155zm-8.022,11.249c-1.085,4.36-8.426,2.003-10.806,1.412l1.928-7.729c2.38,0.594,10.012,1.77,8.878,6.317zm1.086-11.312c-0.99,3.966-7.1,1.951-9.082,1.457l1.748-7.01c1.982,0.494,8.365,1.416,7.334,5.553z"/>
  </g>
  <circle cx="202.939" cy="445.8" r="320.992" fill="#fff" stroke="#ffce45" stroke-miterlimit="10" stroke-width="10.3" style=""/>
  <path fill="#ffce45" d="M 202.942 194.57 L 448.833 440.46 L 202.942 686.351 L -42.95 440.46 Z" style=""/>
  <path fill="#febe44" d="M 202.939 520.697 L -43.155 440.449 L 202.939 194.563 L 449.034 440.449 L 202.939 520.697 Z" style=""/>
  <path fill="#fff" d="M 42.443 424.4 L 154.791 424.4 L 202.939 370.902 L 256.438 424.4 L 368.786 424.4 L 202.939 245.184 L 42.443 424.4 Z" style=""/>
  <path fill="#d9a547" opacity=".42" d="M 202.939 686.336 L 202.939 194.563 L 448.825 440.449 L 202.939 686.336 Z" style=""/>
  <g transform="matrix(10.1554, 0, 0, 10.030914, -822.878662, 124.783867)" style="">
    <path fill="#f7931a" d="m63.033,39.744c-4.274,17.143-21.637,27.576-38.782,23.301-17.138-4.274-27.571-21.638-23.295-38.78,4.272-17.145,21.635-27.579,38.775-23.305,17.144,4.274,27.576,21.64,23.302,38.784z"/>
    <path fill="#FFF" d="m46.103,27.444c0.637-4.258-2.605-6.547-7.038-8.074l1.438-5.768-3.511-0.875-1.4,5.616c-0.923-0.23-1.871-0.447-2.813-0.662l1.41-5.653-3.509-0.875-1.439,5.766c-0.764-0.174-1.514-0.346-2.242-0.527l0.004-0.018-4.842-1.209-0.934,3.75s2.605,0.597,2.55,0.634c1.422,0.355,1.679,1.296,1.636,2.042l-1.638,6.571c0.098,0.025,0.225,0.061,0.365,0.117-0.117-0.029-0.242-0.061-0.371-0.092l-2.296,9.205c-0.174,0.432-0.615,1.08-1.609,0.834,0.035,0.051-2.552-0.637-2.552-0.637l-1.743,4.019,4.569,1.139c0.85,0.213,1.683,0.436,2.503,0.646l-1.453,5.834,3.507,0.875,1.439-5.772c0.958,0.26,1.888,0.5,2.798,0.726l-1.434,5.745,3.511,0.875,1.453-5.823c5.987,1.133,10.489,0.676,12.384-4.739,1.527-4.36-0.076-6.875-3.226-8.515,2.294-0.529,4.022-2.038,4.483-5.155zm-8.022,11.249c-1.085,4.36-8.426,2.003-10.806,1.412l1.928-7.729c2.38,0.594,10.012,1.77,8.878,6.317zm1.086-11.312c-0.99,3.966-7.1,1.951-9.082,1.457l1.748-7.01c1.982,0.494,8.365,1.416,7.334,5.553z"/>
  </g>
  <g transform="matrix(0.364718, 0, 0, 0.364718, 434.784821, 95.375214)" style="">
    <polygon fill="#8A92B2" points="959.8,80.7 420.1,976.3 959.8,731 &#9;"/>
    <polygon fill="#62688F" points="959.8,731 420.1,976.3 959.8,1295.4 &#9;"/>
    <polygon fill="#62688F" points="1499.6,976.3 959.8,80.7 959.8,731 &#9;"/>
    <polygon fill="#454A75" points="959.8,1295.4 1499.6,976.3 959.8,731 &#9;"/>
    <polygon fill="#8A92B2" points="420.1,1078.7 959.8,1839.3 959.8,1397.6 &#9;"/>
    <polygon fill="#62688F" points="959.8,1397.6 959.8,1839.3 1499.9,1078.7 &#9;"/>
  </g>
  <path d="M 1682.226 445.503 C 1682.226 622.619 1538.648 766.201 1361.534 766.201 C 1184.417 766.201 1040.837 622.619 1040.837 445.503 C 1040.837 268.388 1184.417 124.808 1361.534 124.808 C 1538.646 124.808 1682.226 268.388 1682.226 445.503" fill="#bebebe" style=""/>
  <path d="M 1614.139 445.506 C 1614.139 585.009 1501.044 698.114 1361.534 698.114 C 1222.025 698.114 1108.922 585.009 1108.922 445.506 C 1108.922 305.992 1222.025 192.895 1361.534 192.895 C 1501.046 192.895 1614.139 305.99 1614.139 445.506" fill="#bebebe" style=""/>
  <path d="M 1342.79 531.174 L 1363.62 452.739 L 1412.936 434.722 L 1425.202 388.627 L 1424.783 387.483 L 1376.239 405.218 L 1411.216 273.517 L 1312.021 273.517 L 1266.28 445.39 L 1228.089 459.341 L 1215.47 506.863 L 1253.631 492.923 L 1226.673 594.215 L 1490.669 594.215 L 1507.593 531.174 L 1342.79 531.174" fill="#fff" style=""/>
  <path d="M 2060.763 766.793 C 2238.647 766.793 2381.756 623.685 2381.756 445.801 C 2381.756 267.917 2238.647 124.808 2060.763 124.808 C 1882.879 124.808 1739.771 267.917 1739.771 445.801 C 1739.771 623.685 1882.879 766.793 2060.763 766.793 Z" fill="#2775ca" style=""/>
  <path d="M 2149.037 496.623 C 2149.037 449.813 2120.949 433.764 2064.775 427.077 C 2024.651 421.727 2016.627 411.027 2016.627 392.301 C 2016.627 373.574 2030.003 361.54 2056.751 361.54 C 2080.825 361.54 2094.201 369.565 2100.887 389.627 C 2102.226 393.64 2106.238 396.313 2110.251 396.313 L 2131.648 396.313 C 2136.999 396.313 2141.012 392.301 2141.012 386.953 L 2141.012 385.615 C 2135.661 356.189 2111.586 333.453 2080.825 330.779 L 2080.825 298.68 C 2080.825 293.329 2076.813 289.316 2070.127 287.979 L 2050.065 287.979 C 2044.713 287.979 2040.701 291.991 2039.363 298.68 L 2039.363 329.44 C 1999.238 334.792 1973.829 361.54 1973.829 394.978 C 1973.829 439.114 2000.577 456.499 2056.751 463.188 C 2094.201 469.875 2106.238 477.9 2106.238 499.301 C 2106.238 520.701 2087.512 535.413 2062.102 535.413 C 2027.325 535.413 2015.288 520.698 2011.275 500.636 C 2009.941 495.289 2005.928 492.611 2001.916 492.611 L 1979.176 492.611 C 1973.829 492.611 1969.817 496.623 1969.817 501.975 L 1969.817 503.313 C 1975.164 536.747 1996.565 560.822 2040.701 567.512 L 2040.701 599.611 C 2040.701 604.958 2044.713 608.971 2051.4 610.309 L 2071.462 610.309 C 2076.813 610.309 2080.825 606.297 2082.164 599.611 L 2082.164 567.512 C 2122.288 560.822 2149.037 532.735 2149.037 496.623 Z" fill="#fff" style=""/>
  <path d="M 1992.552 637.057 C 1888.23 599.611 1834.73 483.251 1873.519 380.264 C 1893.581 324.09 1937.717 281.292 1992.552 261.23 C 1997.903 258.556 2000.577 254.544 2000.577 247.854 L 2000.577 229.13 C 2000.577 223.779 1997.903 219.767 1992.552 218.432 C 1991.213 218.432 1988.54 218.432 1987.201 219.767 C 1860.143 259.892 1790.593 394.978 1830.717 522.037 C 1854.792 596.933 1912.304 654.446 1987.201 678.52 C 1992.552 681.194 1997.903 678.52 1999.238 673.169 C 2000.577 671.834 2000.577 670.495 2000.577 667.822 L 2000.577 649.095 C 2000.577 645.082 1996.565 639.735 1992.552 637.057 Z M 2134.325 219.767 C 2128.974 217.093 2123.624 219.767 2122.288 225.118 C 2120.949 226.457 2120.949 227.792 2120.949 230.469 L 2120.949 249.192 C 2120.949 254.544 2124.961 259.892 2128.974 262.568 C 2233.297 300.016 2286.797 416.375 2248.008 519.363 C 2227.946 575.537 2183.81 618.334 2128.974 638.396 C 2123.624 641.07 2120.949 645.082 2120.949 651.772 L 2120.949 670.495 C 2120.949 675.847 2123.624 679.859 2128.974 681.194 C 2130.313 681.194 2132.986 681.194 2134.325 679.859 C 2261.384 639.735 2330.934 504.648 2290.81 377.59 C 2266.735 301.354 2207.884 243.841 2134.325 219.767 Z" fill="#fff" style=""/>
</svg>