<svg version="1.1" viewBox="0.0 0.0 718.0 205.56167979002623" fill="none" stroke="none" stroke-linecap="square" stroke-miterlimit="10" xmlns:xlink="http://www.w3.org/1999/xlink" xmlns="http://www.w3.org/2000/svg"><clipPath id="p.0"><path d="m0 0l718.0 0l0 205.56168l-718.0 0l0 -205.56168z" clip-rule="nonzero"/></clipPath><g clip-path="url(#p.0)"><path fill="#000000" fill-opacity="0.0" d="m0 0l718.0 0l0 205.56168l-718.0 0z" fill-rule="evenodd"/><path fill="#ffffff" d="m0 1.0l717.95276 0l0 158.64568l-717.95276 0z" fill-rule="evenodd"/><path stroke="#000000" stroke-width="1.0" stroke-linejoin="round" stroke-linecap="butt" d="m0 1.0l717.95276 0l0 158.64568l-717.95276 0z" fill-rule="evenodd"/><path fill="#e6b8af" d="m85.62992 32.83312l138.86615 0l0 84.409454l-138.86615 0z" fill-rule="evenodd"/><path stroke="#000000" stroke-width="1.0" stroke-linejoin="round" stroke-linecap="butt" d="m85.62992 32.83312l138.86615 0l0 84.409454l-138.86615 0z" fill-rule="evenodd"/><path fill="#000000" d="m114.27624 59.535965q-0.109375 2.265625 -1.28125 3.4375q-1.171875 1.171875 -3.3125 1.171875q-2.25 0 -3.453125 -1.484375q-1.203125 -1.484375 -1.203125 -4.21875l0 -2.234375q0 -2.734375 1.234375 -4.21875q1.25 -1.484375 3.453125 -1.484375q2.171875 0 3.296875 1.21875q1.125 1.21875 1.28125 3.484375l-2.6875 0q-0.046875 -1.40625 -0.4375 -1.9375q-0.390625 -0.53125 -1.453125 -0.53125q-1.078125 0 -1.53125 0.75q-0.4375 0.75 -0.46875 2.46875l0 2.5q0 1.984375 0.4375 2.71875q0.453125 0.734375 1.53125 0.734375q1.046875 0 1.453125 -0.5q0.40625 -0.515625 0.453125 -1.875l2.6875 0zm6.3742676 -2.953125l-0.84375 -0.0625q-1.0625 0 -1.4375 0.921875l0 6.515625l-2.59375 0l0 -9.859375l2.4375 0l0.078125 1.0625q0.609375 -1.234375 1.6875 -1.234375q0.4375 0 0.703125 0.109375l-0.03125 2.546875zm4.646286 3.078125l1.3125 -5.5625l2.7499924 0l-3.2343674 11.328125q-0.734375 2.515625 -2.75 2.515625q-0.453125 0 -1.046875 -0.171875l0 -2.015625l0.296875 0q0.59375 0 0.890625 -0.234375q0.3125 -0.21875 0.46875 -0.796875l0.203125 -0.671875l-2.84375 -9.953125l2.78125 0l1.171875 5.5625zm12.857323 -0.328125q0 2.328125 -0.8125 3.578125q-0.796875 1.234375 -2.359375 1.234375q-1.203125 0 -1.9375 -0.984375l0 4.59375l-2.578125 0l0 -13.65625l2.390625 0l0.09375 0.90625q0.734375 -1.078125 2.0 -1.078125q1.578125 0 2.375 1.140625q0.796875 1.140625 0.828125 3.515625l0 0.75zm-2.578125 -0.640625q0 -1.4375 -0.3125 -2.015625q-0.3125 -0.59375 -1.0625 -0.59375q-0.796875 0 -1.15625 0.65625l0 4.625q0.34375 0.640625 1.171875 0.640625q0.765625 0 1.0625 -0.640625q0.296875 -0.65625 0.296875 -2.03125l0 -0.640625zm7.127655 -7.015625l0 2.421875l1.3125 0l0 1.9375l-1.3125 0l0 4.890625q0 0.59375 0.15625 0.8125q0.15625 0.21875 0.609375 0.21875q0.375 0 0.609375 -0.0625l-0.015625 2.0q-0.65625 0.25 -1.421875 0.25q-2.484375 0 -2.515625 -2.859375l0 -5.25l-1.140625 0l0 -1.9375l1.140625 0l0 -2.421875l2.578125 0zm7.417389 12.28125q-0.109375 -0.234375 -0.21875 -0.765625q-0.70314026 0.953125 -1.8750153 0.953125q-1.25 0 -2.0625 -0.8125q-0.8125 -0.828125 -0.8125 -2.140625q0 -1.546875 0.984375 -2.390625q0.984375 -0.84375 2.84375 -0.859375l0.79689026 0l0 -0.796875q0 -0.671875 -0.23439026 -0.9375q-0.234375 -0.28125 -0.671875 -0.28125q-0.953125 0 -0.953125 1.140625l-2.578125 0q0 -1.375 1.015625 -2.25q1.03125 -0.890625 2.59375 -0.890625q1.6250153 0 2.5156403 0.84375q0.890625 0.828125 0.890625 2.40625l0 4.625q0.015625 1.28125 0.359375 2.0l0 0.15625l-2.59375 0zm-1.5312653 -1.84375q0.4375 0 0.734375 -0.171875q0.296875 -0.171875 0.45314026 -0.40625l0 -2.046875l-0.62501526 0q-0.65625 0 -1.03125 0.421875q-0.375 0.40625 -0.375 1.109375q0 1.09375 0.84375 1.09375zm7.9846954 -8.015625l0.078125 0.984375q0.875 -1.15625 2.28125 -1.15625q2.546875 0 2.609375 3.546875l0 6.484375l-2.578125 0l0 -6.28125q0 -0.84375 -0.25 -1.21875q-0.25 -0.375 -0.875 -0.375q-0.703125 0 -1.09375 0.71875l0 7.15625l-2.59375 0l0 -9.859375l2.421875 0zm11.510498 9.859375q-0.109375 -0.234375 -0.21875 -0.765625q-0.703125 0.953125 -1.875 0.953125q-1.25 0 -2.0625 -0.8125q-0.8125 -0.828125 -0.8125 -2.140625q0 -1.546875 0.984375 -2.390625q0.984375 -0.84375 2.84375 -0.859375l0.796875 0l0 -0.796875q0 -0.671875 -0.234375 -0.9375q-0.234375 -0.28125 -0.671875 -0.28125q-0.953125 0 -0.953125 1.140625l-2.578125 0q0 -1.375 1.015625 -2.25q1.03125 -0.890625 2.59375 -0.890625q1.625 0 2.515625 0.84375q0.890625 0.828125 0.890625 2.40625l0 4.625q0.015625 1.28125 0.359375 2.0l0 0.15625l-2.59375 0zm-1.53125 -1.84375q0.4375 0 0.734375 -0.171875q0.296875 -0.171875 0.453125 -0.40625l0 -2.046875l-0.625 0q-0.65625 0 -1.03125 0.421875q-0.375 0.40625 -0.375 1.109375q0 1.09375 0.84375 1.09375zm8.32843 1.84375l-2.578125 0l0 -14.0l2.578125 0l0 14.0zm5.1536255 -4.296875l1.3125 -5.5625l2.75 0l-3.234375 11.328125q-0.734375 2.515625 -2.75 2.515625q-0.453125 0 -1.046875 -0.171875l0 -2.015625l0.296875 0q0.59375 0 0.890625 -0.234375q0.3125 -0.21875 0.46875 -0.796875l0.203125 -0.671875l-2.84375 -9.953125l2.78125 0l1.171875 5.5625zm9.529205 1.65625q0 -0.328125 -0.3125 -0.609375q-0.3125 -0.28125 -1.390625 -0.75q-1.59375 -0.640625 -2.203125 -1.328125q-0.59375 -0.703125 -0.59375 -1.734375q0 -1.296875 0.9375 -2.125q0.9375 -0.84375 2.46875 -0.84375q1.625 0 2.59375 0.84375q0.984375 0.828125 0.984375 2.234375l-2.578125 0q0 -1.203125 -1.0 -1.203125q-0.40625 0 -0.671875 0.265625q-0.265625 0.25 -0.265625 0.703125q0 0.328125 0.28125 0.578125q0.296875 0.25 1.375 0.71875q1.578125 0.578125 2.234375 1.296875q0.65625 0.71875 0.65625 1.859375q0 1.3125 -1.0 2.125q-0.984375 0.796875 -2.609375 0.796875q-1.078125 0 -1.90625 -0.421875q-0.828125 -0.4375 -1.296875 -1.1875q-0.46875 -0.75 -0.46875 -1.625l2.453125 0q0.015625 0.671875 0.3125 1.015625q0.296875 0.328125 0.96875 0.328125q1.03125 0 1.03125 -0.9375zm6.8155823 2.640625l-2.578125 0l0 -9.859375l2.578125 0l0 9.859375zm-2.703125 -12.40625q0 -0.609375 0.375 -0.984375q0.390625 -0.390625 1.03125 -0.390625q0.640625 0 1.015625 0.390625q0.390625 0.375 0.390625 0.984375q0 0.59375 -0.390625 0.984375q-0.375 0.390625 -1.03125 0.390625q-0.640625 0 -1.015625 -0.390625q-0.375 -0.390625 -0.375 -0.984375zm9.0598755 9.765625q0 -0.328125 -0.3125 -0.609375q-0.3125 -0.28125 -1.390625 -0.75q-1.59375 -0.640625 -2.203125 -1.328125q-0.59375 -0.703125 -0.59375 -1.734375q0 -1.296875 0.9375 -2.125q0.9375 -0.84375 2.46875 -0.84375q1.625 0 2.59375 0.84375q0.984375 0.828125 0.984375 2.234375l-2.578125 0q0 -1.203125 -1.0 -1.203125q-0.40625 0 -0.671875 0.265625q-0.265625 0.25 -0.265625 0.703125q0 0.328125 0.28125 0.578125q0.296875 0.25 1.375 0.71875q1.578125 0.578125 2.234375 1.296875q0.65625 0.71875 0.65625 1.859375q0 1.3125 -1.0 2.125q-0.984375 0.796875 -2.609375 0.796875q-1.078125 0 -1.90625 -0.421875q-0.828125 -0.4375 -1.296875 -1.1875q-0.46875 -0.75 -0.46875 -1.625l2.453125 0q0.015625 0.671875 0.3125 1.015625q0.296875 0.328125 0.96875 0.328125q1.03125 0 1.03125 -0.9375z" fill-rule="nonzero"/><path fill="#000000" d="m119.99597 77.30534l-3.6875 0l0 3.6875l4.296875 0l0 1.125l-5.609375 0l0 -10.421875l5.53125 0l0 1.140625l-4.21875 0l0 3.34375l3.6875 0l0 1.125zm3.2936554 -2.9375l0.03125 0.84375q0.734375 -0.984375 1.890625 -0.984375q2.046875 0 2.078125 2.75l0 5.140625l-1.265625 0l0 -5.09375q0 -0.90625 -0.3125 -1.28125q-0.296875 -0.390625 -0.890625 -0.390625q-0.484375 0 -0.859375 0.3125q-0.375 0.3125 -0.59375 0.828125l0 5.625l-1.28125 0l0 -7.75l1.203125 0zm8.67009 7.890625q-1.453125 0 -2.234375 -0.859375q-0.765625 -0.859375 -0.78125 -2.53125l0 -0.9375q0 -1.734375 0.75 -2.71875q0.765625 -0.984375 2.125 -0.984375q1.359375 0 2.03125 0.875q0.671875 0.859375 0.6875 2.6875l0 0.828125l-4.328125 0l0 0.1875q0 1.25 0.46875 1.8125q0.46875 0.5625 1.34375 0.5625q0.5625 0 0.984375 -0.203125q0.4375 -0.21875 0.796875 -0.671875l0.65625 0.796875q-0.8125 1.15625 -2.5 1.15625zm-0.140625 -6.9375q-0.796875 0 -1.171875 0.546875q-0.375 0.53125 -0.4375 1.671875l3.0625 0l0 -0.171875q-0.0625 -1.109375 -0.40625 -1.578125q-0.34375 -0.46875 -1.046875 -0.46875zm5.425461 -0.953125l0.03125 0.71875q0.703125 -0.859375 1.859375 -0.859375q1.296875 0 1.8125 1.125q0.734375 -1.125 2.03125 -1.125q2.140625 0 2.1875 2.671875l0 5.21875l-1.25 0l0 -5.09375q0 -0.84375 -0.3125 -1.25q-0.296875 -0.421875 -1.0 -0.421875q-0.578125 0 -0.9375 0.453125q-0.359375 0.4375 -0.421875 1.125l0 5.1875l-1.265625 0l0 -5.15625q-0.015625 -1.609375 -1.3125 -1.609375q-0.953125 0 -1.34375 0.96875l0 5.796875l-1.265625 0l0 -7.75l1.1875 0zm11.949844 5.640625l1.40625 -5.640625l1.34375 0l-2.53125 8.84375q-0.28125 1.0 -0.8125 1.515625q-0.515625 0.515625 -1.1875 0.515625q-0.25 0 -0.65625 -0.109375l0 -1.078125l0.28125 0.03125q0.546875 0 0.859375 -0.265625q0.3125 -0.25 0.515625 -0.90625l0.25 -0.859375l-2.28125 -7.6875l1.375 0l1.4375 5.640625zm14.335724 2.109375l-1.3125 0l0 -4.8125l-4.1875 0l0 4.8125l-1.3125 0l0 -10.421875l1.3125 0l0 4.484375l4.1875 0l0 -4.484375l1.3125 0l0 10.421875zm6.0885925 0q-0.125 -0.25 -0.171875 -0.84375q-0.671875 0.984375 -1.71875 0.984375q-1.046875 0 -1.640625 -0.578125q-0.59375 -0.59375 -0.59375 -1.671875q0 -1.1875 0.796875 -1.875q0.8125 -0.703125 2.203125 -0.703125l0.9375 0l0 -0.828125q0 -0.703125 -0.3125 -0.984375q-0.3125 -0.296875 -0.9375 -0.296875q-0.578125 0 -0.9375 0.34375q-0.34375 0.328125 -0.34375 0.859375l-1.28125 0q0 -0.59375 0.34375 -1.125q0.359375 -0.546875 0.953125 -0.859375q0.59375 -0.3125 1.328125 -0.3125q1.1875 0 1.796875 0.59375q0.625 0.59375 0.640625 1.71875l0 3.90625q0.015625 0.90625 0.25 1.5625l0 0.109375l-1.3125 0zm-1.703125 -1.015625q0.46875 0 0.890625 -0.25q0.421875 -0.265625 0.625 -0.640625l0 -1.84375l-0.71875 0q-0.90625 0 -1.4375 0.390625q-0.515625 0.390625 -0.515625 1.09375q0 0.65625 0.265625 0.953125q0.265625 0.296875 0.890625 0.296875zm7.426651 0.078125q0.625 0 1.0 -0.390625q0.390625 -0.390625 0.421875 -1.109375l1.1875 0q-0.03125 1.109375 -0.78125 1.84375q-0.75 0.734375 -1.828125 0.734375q-1.4375 0 -2.203125 -0.90625q-0.75 -0.90625 -0.75 -2.6875l0 -0.859375q0 -1.75 0.75 -2.65625q0.75 -0.921875 2.1875 -0.921875q1.1875 0 1.890625 0.75q0.703125 0.75 0.734375 2.0625l-1.1875 0q-0.046875 -0.859375 -0.421875 -1.28125q-0.359375 -0.4375 -1.015625 -0.4375q-0.84375 0 -1.25 0.5625q-0.40625 0.546875 -0.421875 1.8125l0 0.984375q0 1.375 0.40625 1.9375q0.40625 0.5625 1.28125 0.5625zm6.019928 -2.609375l-0.671875 0.78125l0 2.765625l-1.265625 0l0 -11.0l1.265625 0l0 6.578125l2.40625 -3.328125l1.515625 0l-2.453125 3.234375l2.78125 4.515625l-1.46875 0l-2.109375 -3.546875zm7.290222 3.6875q-1.453125 0 -2.234375 -0.859375q-0.765625 -0.859375 -0.78125 -2.53125l0 -0.9375q0 -1.734375 0.75 -2.71875q0.765625 -0.984375 2.125 -0.984375q1.359375 0 2.03125 0.875q0.671875 0.859375 0.6875 2.6875l0 0.828125l-4.328125 0l0 0.1875q0 1.25 0.46875 1.8125q0.46875 0.5625 1.34375 0.5625q0.5625 0 0.984375 -0.203125q0.4375 -0.21875 0.796875 -0.671875l0.65625 0.796875q-0.8125 1.15625 -2.5 1.15625zm-0.140625 -6.9375q-0.796875 0 -1.171875 0.546875q-0.375 0.53125 -0.4375 1.671875l3.0625 0l0 -0.171875q-0.0625 -1.109375 -0.40625 -1.578125q-0.34375 -0.46875 -1.046875 -0.46875zm7.425461 0.234375q-0.265625 -0.046875 -0.5625 -0.046875q-0.984375 0 -1.359375 1.078125l0 5.53125l-1.28125 0l0 -7.75l1.234375 0l0.03125 0.796875q0.5 -0.9375 1.4375 -0.9375q0.296875 0 0.5 0.109375l0 1.21875z" fill-rule="nonzero"/><path fill="#cc0000" d="m151.02676 95.60222l-3.28125 0l0 2.765625l3.875 0l0 1.75l-5.96875 0l0 -10.421875l5.96875 0l0 1.75l-3.875 0l0 2.46875l3.28125 0l0 1.6875zm4.068451 1.65625l0.984375 -4.890625l2.109375 0l-2.125 7.75l-1.9375 0l-2.140625 -7.75l2.125 0l0.984375 4.890625zm7.0688934 3.0q-1.5625 0 -2.4375 -0.921875q-0.859375 -0.9375 -0.859375 -2.671875l0 -0.609375q0 -1.828125 0.796875 -2.828125q0.796875 -1.0 2.296875 -1.0q1.453125 0 2.1875 0.9375q0.75 0.9375 0.765625 2.765625l0 1.0l-4.03125 0q0.046875 0.859375 0.375 1.265625q0.34375 0.390625 1.046875 0.390625q1.015625 0 1.6875 -0.703125l0.796875 1.21875q-0.375 0.515625 -1.09375 0.84375q-0.703125 0.3125 -1.53125 0.3125zm-1.265625 -4.75l2.015625 0l0 -0.1875q-0.015625 -0.6875 -0.234375 -1.046875q-0.203125 -0.359375 -0.734375 -0.359375q-0.53125 0 -0.765625 0.375q-0.234375 0.375 -0.28125 1.21875z" fill-rule="nonzero"/><path fill="#b6d7a8" d="m347.063 43.839764l128.32016 0l0 62.82178c-64.15665 0 -64.15665 24.170654 -128.32016 12.085327zm10.5720215 0l0 -8.144459l127.443726 0l0 63.215874c-4.8443604 0 -9.695587 0.43787384 -9.695587 0.43787384l0 -55.50929zm9.937134 -8.144459l0 -7.9474125l128.54785 0l0 63.01883c-5.52063 0 -11.04126 0.32839966 -11.04126 0.32839966l0 -55.39982z" fill-rule="evenodd"/><path fill="#000000" fill-opacity="0.0" d="m347.063 43.839764l128.32016 0l0 62.82178c-64.15665 0 -64.15665 24.170654 -128.32016 12.085327zm10.5720215 0l0 -8.144459l127.443726 0l0 63.215874c-4.8443604 0 -9.695587 0.43787384 -9.695587 0.43787384m-107.811005 -63.653748l0 -7.9474125l128.54785 0l0 63.01883c-5.52063 0 -11.04126 0.32839966 -11.04126 0.32839966" fill-rule="evenodd"/><path fill="#000000" fill-opacity="0.0" d="m347.063 118.74687c64.16351 12.085327 64.16351 -12.085327 128.32016 -12.085327l0 -7.3124924c0 0 4.851227 -0.43787384 9.695587 -0.43787384l0 -7.8160553c0 0 5.52063 -0.32839966 11.04126 -0.32839966l0 -63.01883l-128.54785 0l0 7.9474125l-9.937134 0l0 8.144459l-10.5720215 0z" fill-rule="evenodd"/><path stroke="#000000" stroke-width="1.0" stroke-linejoin="round" stroke-linecap="butt" d="m347.063 43.839764l128.32016 0l0 62.82178c-64.15665 0 -64.15665 24.170654 -128.32016 12.085327zm10.5720215 0l0 -8.144459l127.443726 0l0 63.215874c-4.8443604 0 -9.695587 0.43787384 -9.695587 0.43787384m-107.811005 -63.653748l0 -7.9474125l128.54785 0l0 63.01883c-5.52063 0 -11.04126 0.32839966 -11.04126 0.32839966" fill-rule="evenodd"/><path fill="#000000" d="m382.23074 52.94769l2.5 9.59375l2.5 -9.59375l3.5 0l0 13.265629l-2.6875 0l0 -3.5937538l0.25 -5.53125l-2.65625 9.125004l-1.8125 0l-2.65625 -9.125004l0.25 5.53125l0 3.5937538l-2.6875 0l0 -13.265629l3.5 0zm14.506409 13.453129q-1.984375 0 -3.109375 -1.1875q-1.109375 -1.1875 -1.109375 -3.3906288l0 -0.78125q0 -2.328125 1.015625 -3.59375q1.03125 -1.265625 2.9375 -1.265625q1.859375 0 2.796875 1.1875q0.9375 1.1875 0.953125 3.515625l0 1.265625l-5.125 0q0.046875 1.09375 0.46875 1.609375q0.4375 0.5000038 1.328125 0.5000038q1.296875 0 2.15625 -0.8906288l1.015625 1.5625038q-0.46875 0.65625 -1.375 1.0625q-0.90625 0.40625 -1.953125 0.40625zm-1.625 -6.046879l2.578125 0l0 -0.25q-0.015625 -0.875 -0.296875 -1.328125q-0.265625 -0.453125 -0.9375 -0.453125q-0.671875 0 -0.984375 0.484375q-0.296875 0.46875 -0.359375 1.546875zm10.927307 3.21875q0 -0.328125 -0.3125 -0.609375q-0.3125 -0.28125 -1.390625 -0.75q-1.59375 -0.640625 -2.203125 -1.328125q-0.59375 -0.703125 -0.59375 -1.734375q0 -1.296875 0.9375 -2.125q0.9375 -0.84375 2.46875 -0.84375q1.625 0 2.59375 0.84375q0.984375 0.828125 0.984375 2.234375l-2.578125 0q0 -1.203125 -1.0 -1.203125q-0.40625 0 -0.671875 0.265625q-0.265625 0.25 -0.265625 0.703125q0 0.328125 0.28125 0.578125q0.296875 0.25 1.375 0.71875q1.578125 0.578125 2.234375 1.296875q0.65625 0.71875 0.65625 1.859375q0 1.3125038 -1.0 2.1250038q-0.984375 0.796875 -2.609375 0.796875q-1.078125 0 -1.90625 -0.421875q-0.828125 -0.4375 -1.296875 -1.1875q-0.46875 -0.75 -0.46875 -1.6250038l2.453125 0q0.015625 0.671875 0.3125 1.0156288q0.296875 0.328125 0.96875 0.328125q1.03125 0 1.03125 -0.9375038zm8.471832 0q0 -0.328125 -0.3125 -0.609375q-0.3125 -0.28125 -1.390625 -0.75q-1.59375 -0.640625 -2.203125 -1.328125q-0.59375 -0.703125 -0.59375 -1.734375q0 -1.296875 0.9375 -2.125q0.9375 -0.84375 2.46875 -0.84375q1.625 0 2.59375 0.84375q0.984375 0.828125 0.984375 2.234375l-2.578125 0q0 -1.203125 -1.0 -1.203125q-0.40625 0 -0.671875 0.265625q-0.265625 0.25 -0.265625 0.703125q0 0.328125 0.28125 0.578125q0.296875 0.25 1.375 0.71875q1.578125 0.578125 2.234375 1.296875q0.65625 0.71875 0.65625 1.859375q0 1.3125038 -1.0 2.1250038q-0.984375 0.796875 -2.609375 0.796875q-1.078125 0 -1.90625 -0.421875q-0.828125 -0.4375 -1.296875 -1.1875q-0.46875 -0.75 -0.46875 -1.6250038l2.453125 0q0.015625 0.671875 0.3125 1.0156288q0.296875 0.328125 0.96875 0.328125q1.03125 0 1.03125 -0.9375038zm8.799957 2.6406288q-0.109375 -0.234375 -0.21875 -0.765625q-0.703125 0.953125 -1.875 0.953125q-1.25 0 -2.0625 -0.8125q-0.8125 -0.828125 -0.8125 -2.1406288q0 -1.546875 0.984375 -2.390625q0.984375 -0.84375 2.84375 -0.859375l0.796875 0l0 -0.796875q0 -0.671875 -0.234375 -0.9375q-0.234375 -0.28125 -0.671875 -0.28125q-0.953125 0 -0.953125 1.140625l-2.578125 0q0 -1.375 1.015625 -2.25q1.03125 -0.890625 2.59375 -0.890625q1.625 0 2.515625 0.84375q0.890625 0.828125 0.890625 2.40625l0 4.625004q0.015625 1.28125 0.359375 2.0l0 0.15625l-2.59375 0zm-1.53125 -1.84375q0.4375 0 0.734375 -0.171875q0.296875 -0.171875 0.453125 -0.4062538l0 -2.046875l-0.625 0q-0.65625 0 -1.03125 0.421875q-0.375 0.40625 -0.375 1.109375q0 1.0937538 0.84375 1.0937538zm5.312805 -3.3906288q0 -2.421875 0.875 -3.609375q0.875 -1.1875 2.453125 -1.1875q1.34375 0 2.0625 1.046875l0.109375 -0.875l2.3125 0l0 9.859379q0 1.890625 -1.0625 2.875q-1.046875 1.0 -3.015625 1.0q-0.8125 0 -1.703125 -0.328125q-0.890625 -0.3125 -1.328125 -0.8125l0.859375 -1.78125q0.359375 0.375 0.9375 0.609375q0.59375 0.25 1.109375 0.25q0.859375 0 1.234375 -0.421875q0.390625 -0.40625 0.390625 -1.328125l0 -0.84375q-0.734375 0.96875 -1.921875 0.96875q-1.5625 0 -2.4375 -1.21875q-0.859375 -1.2343788 -0.875 -3.4687538l0 -0.734375zm2.578125 0.65625q0 1.359375 0.359375 1.984375q0.359375 0.6250038 1.125 0.6250038q0.796875 0 1.171875 -0.5781288l0 -4.703125q-0.390625 -0.625 -1.15625 -0.625q-0.765625 0 -1.140625 0.625q-0.359375 0.625 -0.359375 2.015625l0 0.65625zm11.101532 4.765629q-1.984375 0 -3.109375 -1.1875q-1.109375 -1.1875 -1.109375 -3.3906288l0 -0.78125q0 -2.328125 1.015625 -3.59375q1.03125 -1.265625 2.9375 -1.265625q1.859375 0 2.796875 1.1875q0.9375 1.1875 0.953125 3.515625l0 1.265625l-5.125 0q0.046875 1.09375 0.46875 1.609375q0.4375 0.5000038 1.328125 0.5000038q1.296875 0 2.15625 -0.8906288l1.015625 1.5625038q-0.46875 0.65625 -1.375 1.0625q-0.90625 0.40625 -1.953125 0.40625zm-1.625 -6.046879l2.578125 0l0 -0.25q-0.015625 -0.875 -0.296875 -1.328125q-0.265625 -0.453125 -0.9375 -0.453125q-0.671875 0 -0.984375 0.484375q-0.296875 0.46875 -0.359375 1.546875z" fill-rule="nonzero"/><path fill="#000000" d="m371.18353 82.478935l-4.171875 0l0 3.515625l4.9375 0l0 2.21875l-7.625 0l0 -13.265625l7.59375 0l0 2.234375l-4.90625 0l0 3.140625l4.171875 0l0 2.15625zm1.6537476 0.484375q0 -2.421875 0.8125 -3.59375q0.8125 -1.1875 2.40625 -1.1875q1.28125 0 2.046875 1.15625l0.171875 -0.984375l2.25 0l0 13.65625l-2.59375 0l0 -4.5625q-0.71875 0.953125 -1.890625 0.953125q-1.5625 0 -2.375 -1.203125q-0.8125 -1.21875 -0.828125 -3.484375l0 -0.75zm2.578125 0.65625q0 1.421875 0.3125 2.03125q0.3125 0.609375 1.0625 0.609375q0.78125 0 1.140625 -0.609375l0 -4.703125q-0.359375 -0.625 -1.125 -0.625q-0.75 0 -1.0625 0.59375q-0.3125 0.578125 -0.328125 1.96875l0 0.734375zm11.882843 3.6875q-0.796875 1.09375 -2.140625 1.09375q-1.359375 0 -2.0625 -0.9375q-0.703125 -0.9375 -0.703125 -2.71875l0 -6.390625l2.578125 0l0 6.453125q0.015625 1.4375 0.953125 1.4375q0.890625 0 1.28125 -0.765625l0 -7.125l2.59375 0l0 9.859375l-2.421875 0l-0.078125 -0.90625zm7.041748 0.90625l-2.578125 0l0 -9.859375l2.578125 0l0 9.859375zm-2.703125 -12.40625q0 -0.609375 0.375 -0.984375q0.390625 -0.390625 1.03125 -0.390625q0.640625 0 1.015625 0.390625q0.390625 0.375 0.390625 0.984375q0 0.59375 -0.390625 0.984375q-0.375 0.390625 -1.03125 0.390625q-0.640625 0 -1.015625 -0.390625q-0.375 -0.390625 -0.375 -0.984375zm7.9348755 8.765625l1.25 -6.21875l2.6875 0l-2.703125 9.859375l-2.46875 0l-2.703125 -9.859375l2.6875 0l1.25 6.21875zm4.7127686 -1.609375q0 -2.234375 1.046875 -3.5q1.0625 -1.28125 2.9375 -1.28125q1.875 0 2.9375 1.28125q1.0625 1.265625 1.0625 3.515625l0 0.640625q0 2.25 -1.0625 3.515625q-1.046875 1.265625 -2.921875 1.265625q-1.90625 0 -2.953125 -1.265625q-1.046875 -1.28125 -1.046875 -3.546875l0 -0.625zm2.578125 0.65625q0 2.640625 1.421875 2.640625q1.296875 0 1.40625 -2.203125l0 -1.09375q0 -1.34375 -0.375 -1.984375q-0.375 -0.65625 -1.046875 -0.65625q-0.65625 0 -1.03125 0.65625q-0.375 0.640625 -0.375 1.984375l0 0.65625zm10.563812 2.640625q1.125 0 1.140625 -1.46875l2.421875 0q-0.015625 1.625 -1.0 2.625q-0.96875 0.984375 -2.5 0.984375q-1.90625 0 -2.921875 -1.1875q-1.0 -1.1875 -1.015625 -3.484375l0 -0.796875q0 -2.3125 0.984375 -3.53125q1.0 -1.21875 2.921875 -1.21875q1.640625 0 2.578125 1.0q0.9375 1.0 0.953125 2.859375l-2.421875 0q-0.015625 -0.828125 -0.28125 -1.265625q-0.265625 -0.453125 -0.875 -0.453125q-0.671875 0 -0.96875 0.484375q-0.28125 0.46875 -0.296875 1.84375l0 1.0q0 1.203125 0.109375 1.6875q0.125 0.46875 0.390625 0.703125q0.28125 0.21875 0.78125 0.21875zm9.706146 1.953125q-0.109375 -0.234375 -0.21875 -0.765625q-0.703125 0.953125 -1.875 0.953125q-1.25 0 -2.0625 -0.8125q-0.8125 -0.828125 -0.8125 -2.140625q0 -1.546875 0.984375 -2.390625q0.984375 -0.84375 2.84375 -0.859375l0.796875 0l0 -0.796875q0 -0.671875 -0.234375 -0.9375q-0.234375 -0.28125 -0.671875 -0.28125q-0.953125 0 -0.953125 1.140625l-2.578125 0q0 -1.375 1.015625 -2.25q1.03125 -0.890625 2.59375 -0.890625q1.625 0 2.515625 0.84375q0.890625 0.828125 0.890625 2.40625l0 4.625q0.015625 1.28125 0.359375 2.0l0 0.15625l-2.59375 0zm-1.53125 -1.84375q0.4375 0 0.734375 -0.171875q0.296875 -0.171875 0.453125 -0.40625l0 -2.046875l-0.625 0q-0.65625 0 -1.03125 0.421875q-0.375 0.40625 -0.375 1.109375q0 1.09375 0.84375 1.09375zm8.625305 -10.4375l0 2.421875l1.3125 0l0 1.9375l-1.3125 0l0 4.890625q0 0.59375 0.15625 0.8125q0.15625 0.21875 0.609375 0.21875q0.375 0 0.609375 -0.0625l-0.015625 2.0q-0.65625 0.25 -1.421875 0.25q-2.484375 0 -2.515625 -2.859375l0 -5.25l-1.140625 0l0 -1.9375l1.140625 0l0 -2.421875l2.578125 0zm5.433014 12.28125l-2.578125 0l0 -9.859375l2.578125 0l0 9.859375zm-2.703125 -12.40625q0 -0.609375 0.375 -0.984375q0.390625 -0.390625 1.03125 -0.390625q0.640625 0 1.015625 0.390625q0.390625 0.375 0.390625 0.984375q0 0.59375 -0.390625 0.984375q-0.375 0.390625 -1.03125 0.390625q-0.640625 0 -1.015625 -0.390625q-0.375 -0.390625 -0.375 -0.984375zm4.4036255 7.15625q0 -2.234375 1.046875 -3.5q1.0625 -1.28125 2.9375 -1.28125q1.875 0 2.9375 1.28125q1.0625 1.265625 1.0625 3.515625l0 0.640625q0 2.25 -1.0625 3.515625q-1.046875 1.265625 -2.921875 1.265625q-1.90625 0 -2.953125 -1.265625q-1.046875 -1.28125 -1.046875 -3.546875l0 -0.625zm2.578125 0.65625q0 2.640625 1.421875 2.640625q1.296875 0 1.40625 -2.203125l0 -1.09375q0 -1.34375 -0.375 -1.984375q-0.375 -0.65625 -1.046875 -0.65625q-0.65625 0 -1.03125 0.65625q-0.375 0.640625 -0.375 1.984375l0 0.65625zm9.360687 -5.265625l0.078125 0.984375q0.875 -1.15625 2.28125 -1.15625q2.546875 0 2.609375 3.546875l0 6.484375l-2.578125 0l0 -6.28125q0 -0.84375 -0.25 -1.21875q-0.25 -0.375 -0.875 -0.375q-0.703125 0 -1.09375 0.71875l0 7.15625l-2.59375 0l0 -9.859375l2.421875 0z" fill-rule="nonzero"/><path fill="#000000" fill-opacity="0.0" d="m21.204725 0.54330707l83.81102 0l0 103.65355l-83.81102 0z" fill-rule="evenodd"/><path fill="#000000" d="m38.5641 21.293932q-0.09375 1.828125 -1.03125 2.796875q-0.921875 0.96875 -2.625 0.96875q-1.71875 0 -2.734375 -1.296875q-0.9999981 -1.3125 -0.9999981 -3.53125l0 -2.0625q0 -2.218749 1.0312481 -3.499999q1.046875 -1.296875 2.828125 -1.296875q1.65625 0 2.546875 0.984375q0.90625 0.984375 0.984375 2.828124l-1.4375 0q-0.09375 -1.390624 -0.59375 -1.984374q-0.484375 -0.59375 -1.5 -0.59375q-1.15625 0 -1.78125 0.90625q-0.625 0.90624905 -0.625 2.671874l0 2.078125q0 1.734375 0.578125 2.65625q0.578125 0.921875 1.6875 0.921875q1.125 0 1.609375 -0.546875q0.5 -0.5625 0.625 -2.0l1.4375 0z" fill-rule="nonzero"/><path fill="#000000" d="m40.087536 24.903307l0 -7.578125l2.15625 0q1.046875 0 1.5625 0.515625q0.53125 0.5 0.53125 1.5q0 0.53125 -0.265625 0.9375q-0.265625 0.40625 -0.71875 0.640625q0.515625 0.15625 0.8125 0.640625q0.3125 0.484375 0.3125 1.15625q0 1.015625 -0.5625 1.609375q-0.5625 0.578125 -1.59375 0.578125l-2.234375 0zm0.953125 -3.546875l0 2.734375l1.296875 0q0.546875 0 0.859375 -0.359375q0.328125 -0.359375 0.328125 -1.0q0 -1.375 -1.15625 -1.375l-1.328125 0zm0 -0.796875l1.21875 0q0.5 0 0.796875 -0.328125q0.3125 -0.34375 0.3125 -0.890625q0 -0.625 -0.28125 -0.90625q-0.265625 -0.28125 -0.84375 -0.28125l-1.203125 0l0 2.40625z" fill-rule="nonzero"/><path fill="#000000" d="m35.59535 43.90331q-0.125 -0.28125 -0.1875 -0.921875q-0.734375 1.078125 -1.875 1.078125q-1.140625 0 -1.7968731 -0.640625q-0.640625 -0.65625 -0.640625 -1.828125q0 -1.28125 0.875 -2.03125q0.8749981 -0.765625 2.406248 -0.78125l1.015625 0l0 -0.90625q0 -0.75 -0.34375 -1.0625q-0.328125 -0.328125 -1.015625 -0.328125q-0.625 0 -1.015625 0.375q-0.390625 0.359375 -0.390625 0.9375l-1.3906231 0q0 -0.65625 0.375 -1.234375q0.3906231 -0.59375 1.0312481 -0.921875q0.65625 -0.34375 1.453125 -0.34375q1.296875 0 1.96875 0.640625q0.6875 0.640625 0.703125 1.875l0 4.265625q0 0.984375 0.265625 1.703125l0 0.125l-1.4375 0zm-1.84375 -1.109375q0.5 0 0.953125 -0.28125q0.46875 -0.28125 0.6875 -0.703125l0 -2.015625l-0.78125 0q-0.984375 0.015625 -1.5625 0.453125q-0.5625 0.421875 -0.5625 1.1875q0 0.71875 0.28125 1.046875q0.296875 0.3125 0.984375 0.3125zm6.4609375 -7.34375l0.03125 0.90625q0.8125 -1.0625 2.0625 -1.0625q2.234375 0 2.265625 2.984375l0 5.625l-1.375 0l0 -5.5625q0 -0.984375 -0.328125 -1.40625q-0.328125 -0.421875 -1.0 -0.421875q-0.515625 0 -0.921875 0.34375q-0.40625 0.34375 -0.65625 0.90625l0 6.140625l-1.390625 0l0 -8.453125l1.3125 0zm6.1484375 3.84375q0 -1.953125 0.71875 -2.96875q0.734375 -1.03125 2.109375 -1.03125q1.203125 0 1.890625 0.984375l0 -4.375002l1.375 0l0 12.000002l-1.265625 0l-0.0625 -0.90625q-0.6875 1.0625 -1.953125 1.0625q-1.3125 0 -2.0625 -1.015625q-0.734375 -1.03125 -0.75 -2.890625l0 -0.859375zm1.375 0.78125q0 1.421875 0.421875 2.09375q0.421875 0.671875 1.375 0.671875q1.03125 0 1.546875 -1.046875l0 -4.265625q-0.53125 -1.015625 -1.53125 -1.015625q-0.953125 0 -1.375 0.671875q-0.421875 0.671875 -0.4375 2.046875l0 0.84375zm7.234375 4.8125l-1.171875 0l3.984375 -12.359375l1.171875 0l-3.984375 12.359375zm5.2578125 -5.609375q0 -1.84375 0.890625 -2.90625q0.890625 -1.078125 2.359375 -1.078125q1.4687538 0 2.3593788 1.046875q0.90625 1.046875 0.921875 2.84375l0 0.890625q0 1.84375 -0.890625 2.921875q-0.890625 1.0625 -2.3750038 1.0625q-1.46875 0 -2.359375 -1.03125q-0.875 -1.046875 -0.90625 -2.828125l0 -0.921875zm1.375 0.796875q0 1.3125 0.515625 2.0625q0.515625 0.734375 1.375 0.734375q1.8281288 0 1.8906288 -2.640625l0 -0.953125q0 -1.296875 -0.515625 -2.046875q-0.515625 -0.75 -1.3906288 -0.75q-0.84375 0 -1.359375 0.75q-0.515625 0.75 -0.515625 2.046875l0 0.796875zm10.437504 -3.328125q-0.296875 -0.0625 -0.625 -0.0625q-1.0625 0 -1.484375 1.171875l0 6.046875l-1.390625 0l0 -8.453125l1.34375 0l0.03125 0.859375q0.546875 -1.015625 1.5625 -1.015625q0.328125 0 0.546875 0.109375l0.015625 1.34375z" fill-rule="nonzero"/><path fill="#000000" d="m38.5641 59.293934q-0.09375 1.828125 -1.03125 2.796875q-0.921875 0.96875 -2.625 0.96875q-1.71875 0 -2.734375 -1.296875q-0.9999981 -1.3125 -0.9999981 -3.53125l0 -2.0625q0 -2.21875 1.0312481 -3.5q1.046875 -1.296875 2.828125 -1.296875q1.65625 0 2.546875 0.984375q0.90625 0.984375 0.984375 2.828125l-1.4375 0q-0.09375 -1.390625 -0.59375 -1.984375q-0.484375 -0.59375 -1.5 -0.59375q-1.15625 0 -1.78125 0.90625q-0.625 0.90625 -0.625 2.671875l0 2.078125q0 1.734375 0.578125 2.65625q0.578125 0.921875 1.6875 0.921875q1.125 0 1.609375 -0.546875q0.5 -0.5625 0.625 -2.0l1.4375 0z" fill-rule="nonzero"/><path fill="#000000" d="m43.400036 60.981434q0 -0.5625 -0.3125 -0.859375q-0.296875 -0.296875 -1.109375 -0.578125q-0.796875 -0.296875 -1.21875 -0.609375q-0.421875 -0.3125 -0.640625 -0.71875q-0.203125 -0.40625 -0.203125 -0.921875q0 -0.90625 0.59375 -1.484375q0.609375 -0.59375 1.578125 -0.59375q0.671875 0 1.1875 0.3125q0.515625 0.296875 0.796875 0.828125q0.28125 0.53125 0.28125 1.15625l-0.953125 0q0 -0.703125 -0.34375 -1.078125q-0.328125 -0.390625 -0.96875 -0.390625q-0.578125 0 -0.890625 0.328125q-0.3125 0.3125 -0.3125 0.90625q0 0.46875 0.34375 0.796875q0.34375 0.328125 1.046875 0.578125q1.125 0.375 1.609375 0.921875q0.484375 0.53125 0.484375 1.40625q0 0.921875 -0.609375 1.484375q-0.59375 0.546875 -1.625 0.546875q-0.65625 0 -1.21875 -0.28125q-0.5625 -0.296875 -0.890625 -0.8125q-0.3125 -0.53125 -0.3125 -1.21875l0.96875 0q0 0.703125 0.390625 1.09375q0.390625 0.390625 1.0625 0.390625q0.625 0 0.9375 -0.3125q0.328125 -0.328125 0.328125 -0.890625z" fill-rule="nonzero"/><path fill="#000000" fill-opacity="0.0" d="m347.063 75.038284l-122.55118 0" fill-rule="evenodd"/><path stroke="#000000" stroke-width="1.0" stroke-linejoin="round" stroke-linecap="butt" d="m343.6359 75.03829l-119.124084 0" fill-rule="evenodd"/><path fill="#000000" stroke="#000000" stroke-width="1.0" stroke-linecap="butt" d="m343.6359 75.03829l-1.1245728 1.1245804l3.0897827 -1.1245804l-3.0897827 -1.124588z" fill-rule="evenodd"/><path fill="#000000" fill-opacity="0.0" d="m15.204724 75.03784l70.42519 0" fill-rule="evenodd"/><path stroke="#000000" stroke-width="1.0" stroke-linejoin="round" stroke-linecap="butt" d="m15.204724 75.03784l64.42519 0" fill-rule="evenodd"/><path fill="#000000" stroke="#000000" stroke-width="1.0" stroke-linecap="butt" d="m79.62992 76.689575l4.538101 -1.6517334l-4.538101 -1.6517334z" fill-rule="evenodd"/><path fill="#000000" fill-opacity="0.0" d="m384.4567 113.173225l321.00784 0l0 66.551186l-321.00784 0z" fill-rule="evenodd"/><path fill="#000000" d="m409.30438 127.3926l-2.984375 0l0 10.140633l-1.4375 0l0 -10.140633l-2.984375 0l0 -1.234375l7.40625 0l0 1.234375zm2.875 2.5468826q0.78125 -1.015625 2.015625 -1.015625q2.234375 0 2.265625 2.984375l0 5.625l-1.375 0l0 -5.5625q0 -0.984375 -0.328125 -1.40625q-0.328125 -0.421875 -1.0 -0.421875q-0.515625 0 -0.921875 0.34375q-0.40625 0.34375 -0.65625 0.90625l0 6.140625l-1.390625 0l0 -12.000008l1.390625 0l0 4.4062576zm9.3671875 7.75q-1.578125 0 -2.421875 -0.9375q-0.84375 -0.953125 -0.859375 -2.765625l0 -1.03125q0 -1.890625 0.8125 -2.953125q0.828125 -1.078125 2.3125 -1.078125q1.484375 0 2.21875 0.953125q0.734375 0.9375 0.75 2.9375l0 0.90625l-4.71875 0l0 0.1875q0 1.359375 0.5 1.984375q0.515625 0.609375 1.484375 0.609375q0.609375 0 1.0625 -0.21875q0.46875 -0.234375 0.875 -0.734375l0.71875 0.875q-0.890625 1.265625 -2.734375 1.265625zm-0.15625 -7.578125q-0.859375 0 -1.28125 0.59375q-0.40625 0.578125 -0.46875 1.828125l3.328125 0l0 -0.1875q-0.046875 -1.203125 -0.4375 -1.71875q-0.375 -0.515625 -1.140625 -0.515625zm14.390625 3.59375q0 2.015625 -0.71875 3.0q-0.71875 0.984375 -2.046875 0.984375q-1.265625 0 -1.953125 -0.96875l0 4.0625l-1.375 0l0 -11.703125l1.25 0l0.0625 0.9375q0.703125 -1.09375 2.0 -1.09375q1.390625 0 2.078125 0.96875q0.6875 0.96875 0.703125 2.890625l0 0.921875zm-1.375 -0.78125q0 -1.421875 -0.4375 -2.09375q-0.4375 -0.6875 -1.40625 -0.6875q-0.984375 0 -1.5 1.0l0 4.390625q0.5 0.96875 1.515625 0.96875q0.9375 0 1.375 -0.671875q0.453125 -0.671875 0.453125 -2.0625l0 -0.84375zm2.875 -0.015625q0 -1.84375 0.890625 -2.90625q0.890625 -1.078125 2.359375 -1.078125q1.46875 0 2.359375 1.046875q0.90625 1.046875 0.921875 2.84375l0 0.890625q0 1.84375 -0.890625 2.921875q-0.890625 1.0625 -2.375 1.0625q-1.46875 0 -2.359375 -1.03125q-0.875 -1.046875 -0.90625 -2.828125l0 -0.921875zm1.375 0.796875q0 1.3125 0.515625 2.0625q0.515625 0.734375 1.375 0.734375q1.828125 0 1.890625 -2.640625l0 -0.953125q0 -1.296875 -0.515625 -2.046875q-0.515625 -0.75 -1.390625 -0.75q-0.84375 0 -1.359375 0.75q-0.515625 0.75 -0.515625 2.046875l0 0.796875zm11.046875 1.65625q0 -0.4375 -0.34375 -0.75q-0.328125 -0.328125 -1.28125 -0.765625q-1.125 -0.453125 -1.578125 -0.78125q-0.453125 -0.328125 -0.6875 -0.75q-0.21875 -0.421875 -0.21875 -1.0q0 -1.03125 0.75 -1.703125q0.75 -0.6875 1.921875 -0.6875q1.234375 0 1.984375 0.71875q0.75 0.71875 0.75 1.84375l-1.375 0q0 -0.578125 -0.390625 -0.96875q-0.375 -0.40625 -0.96875 -0.40625q-0.609375 0 -0.953125 0.3125q-0.34375 0.3125 -0.34375 0.84375q0 0.421875 0.25 0.6875q0.25 0.25 1.21875 0.671875q1.546875 0.609375 2.09375 1.1875q0.5625 0.5625 0.5625 1.453125q0 1.09375 -0.765625 1.765625q-0.75 0.65625 -2.03125 0.65625q-1.3125 0 -2.140625 -0.75q-0.8125 -0.765625 -0.8125 -1.9375l1.390625 0q0.015625 0.703125 0.421875 1.109375q0.40625 0.390625 1.140625 0.390625q0.6875 0 1.046875 -0.296875q0.359375 -0.3125 0.359375 -0.84375zm7.2890625 0q0 -0.4375 -0.34375 -0.75q-0.328125 -0.328125 -1.28125 -0.765625q-1.125 -0.453125 -1.578125 -0.78125q-0.453125 -0.328125 -0.6875 -0.75q-0.21875 -0.421875 -0.21875 -1.0q0 -1.03125 0.75 -1.703125q0.75 -0.6875 1.921875 -0.6875q1.234375 0 1.984375 0.71875q0.75 0.71875 0.75 1.84375l-1.375 0q0 -0.578125 -0.390625 -0.96875q-0.375 -0.40625 -0.96875 -0.40625q-0.609375 0 -0.953125 0.3125q-0.34375 0.3125 -0.34375 0.84375q0 0.421875 0.25 0.6875q0.25 0.25 1.21875 0.671875q1.546875 0.609375 2.09375 1.1875q0.5625 0.5625 0.5625 1.453125q0 1.09375 -0.765625 1.765625q-0.75 0.65625 -2.03125 0.65625q-1.3125 0 -2.140625 -0.75q-0.8125 -0.765625 -0.8125 -1.9375l1.390625 0q0.015625 0.703125 0.421875 1.109375q0.40625 0.390625 1.140625 0.390625q0.6875 0 1.046875 -0.296875q0.359375 -0.3125 0.359375 -0.84375zm4.6796875 2.171875l-1.390625 0l0 -8.453125l1.390625 0l0 8.453125zm0.109375 -10.703133q0 0.359375 -0.203125 0.59375q-0.1875 0.234375 -0.59375 0.234375q-0.390625 0 -0.59375 -0.234375q-0.1875 -0.234375 -0.1875 -0.578125q0 -0.359375 0.1875 -0.59375q0.203125 -0.25 0.59375 -0.25q0.390625 0 0.59375 0.25q0.203125 0.234375 0.203125 0.578125zm8.1796875 6.8750076q0 1.984375 -0.71875 2.984375q-0.703125 1.0 -2.046875 1.0q-1.34375 0 -2.015625 -1.15625l-0.078125 1.0l-1.25 0l0 -12.000008l1.375 0l0 4.4687576q0.671875 -1.078125 1.953125 -1.078125q1.390625 0 2.078125 0.984375q0.703125 0.984375 0.703125 2.96875l0 0.828125zm-1.375 -0.78125q0 -1.5 -0.421875 -2.140625q-0.40625 -0.640625 -1.34375 -0.640625q-1.078125 0 -1.59375 1.15625l0 4.03125q0.515625 1.140625 1.609375 1.140625q0.9375 0 1.34375 -0.65625q0.40625 -0.65625 0.40625 -2.046875l0 -0.84375zm4.640625 4.609375l-1.390625 0l0 -8.453125l1.390625 0l0 8.453125zm0.109375 -10.703133q0 0.359375 -0.203125 0.59375q-0.1875 0.234375 -0.59375 0.234375q-0.390625 0 -0.59375 -0.234375q-0.1875 -0.234375 -0.1875 -0.578125q0 -0.359375 0.1875 -0.59375q0.203125 -0.25 0.59375 -0.25q0.390625 0 0.59375 0.25q0.203125 0.234375 0.203125 0.578125zm3.5546875 10.703133l-1.390625 0l0 -12.000008l1.390625 0l0 12.000008zm3.6640625 0l-1.390625 0l0 -8.453125l1.390625 0l0 8.453125zm0.109375 -10.703133q0 0.359375 -0.203125 0.59375q-0.1875 0.234375 -0.59375 0.234375q-0.390625 0 -0.59375 -0.234375q-0.1875 -0.234375 -0.1875 -0.578125q0 -0.359375 0.1875 -0.59375q0.203125 -0.25 0.59375 -0.25q0.390625 0 0.59375 0.25q0.203125 0.234375 0.203125 0.578125zm3.8671875 0.203125l0 2.0468826l1.28125 0l0 1.109375l-1.28125 0l0 5.25q0 0.5 0.15625 0.765625q0.171875 0.25 0.578125 0.25q0.265625 0 0.546875 -0.09375l-0.015625 1.171875q-0.46875 0.15625 -0.953125 0.15625q-0.828125 0 -1.265625 -0.578125q-0.421875 -0.59375 -0.421875 -1.671875l0 -5.25l-1.28125 0l0 -1.109375l1.28125 0l0 -2.0468826l1.375 0zm4.4140625 10.500008l-1.390625 0l0 -8.453125l1.390625 0l0 8.453125zm0.109375 -10.703133q0 0.359375 -0.203125 0.59375q-0.1875 0.234375 -0.59375 0.234375q-0.390625 0 -0.59375 -0.234375q-0.1875 -0.234375 -0.1875 -0.578125q0 -0.359375 0.1875 -0.59375q0.203125 -0.25 0.59375 -0.25q0.390625 0 0.59375 0.25q0.203125 0.234375 0.203125 0.578125zm5.0859375 10.859383q-1.578125 0 -2.421875 -0.9375q-0.84375 -0.953125 -0.859375 -2.765625l0 -1.03125q0 -1.890625 0.8125 -2.953125q0.828125 -1.078125 2.3125 -1.078125q1.484375 0 2.21875 0.953125q0.734375 0.9375 0.75 2.9375l0 0.90625l-4.71875 0l0 0.1875q0 1.359375 0.5 1.984375q0.515625 0.609375 1.484375 0.609375q0.609375 0 1.0625 -0.21875q0.46875 -0.234375 0.875 -0.734375l0.71875 0.875q-0.890625 1.265625 -2.734375 1.265625zm-0.15625 -7.578125q-0.859375 0 -1.28125 0.59375q-0.40625 0.578125 -0.46875 1.828125l3.328125 0l0 -0.1875q-0.046875 -1.203125 -0.4375 -1.71875q-0.375 -0.515625 -1.140625 -0.515625zm8.7265625 5.25q0 -0.4375 -0.34375 -0.75q-0.328125 -0.328125 -1.28125 -0.765625q-1.125 -0.453125 -1.578125 -0.78125q-0.453125 -0.328125 -0.6875 -0.75q-0.21875 -0.421875 -0.21875 -1.0q0 -1.03125 0.75 -1.703125q0.75 -0.6875 1.921875 -0.6875q1.234375 0 1.984375 0.71875q0.75 0.71875 0.75 1.84375l-1.375 0q0 -0.578125 -0.390625 -0.96875q-0.375 -0.40625 -0.96875 -0.40625q-0.609375 0 -0.953125 0.3125q-0.34375 0.3125 -0.34375 0.84375q0 0.421875 0.25 0.6875q0.25 0.25 1.21875 0.671875q1.546875 0.609375 2.09375 1.1875q0.5625 0.5625 0.5625 1.453125q0 1.09375 -0.765625 1.765625q-0.75 0.65625 -2.03125 0.65625q-1.3125 0 -2.140625 -0.75q-0.8125 -0.765625 -0.8125 -1.9375l1.390625 0q0.015625 0.703125 0.421875 1.109375q0.40625 0.390625 1.140625 0.390625q0.6875 0 1.046875 -0.296875q0.359375 -0.3125 0.359375 -0.84375zm6.5625 -2.453125q0 -1.84375 0.890625 -2.90625q0.890625 -1.078125 2.359375 -1.078125q1.46875 0 2.359375 1.046875q0.90625 1.046875 0.921875 2.84375l0 0.890625q0 1.84375 -0.890625 2.921875q-0.890625 1.0625 -2.375 1.0625q-1.46875 0 -2.359375 -1.03125q-0.875 -1.046875 -0.90625 -2.828125l0 -0.921875zm1.375 0.796875q0 1.3125 0.515625 2.0625q0.515625 0.734375 1.375 0.734375q1.828125 0 1.890625 -2.640625l0 -0.953125q0 -1.296875 -0.515625 -2.046875q-0.515625 -0.75 -1.390625 -0.75q-0.84375 0 -1.359375 0.75q-0.515625 0.75 -0.515625 2.046875l0 0.796875zm7.546875 3.828125l0 -7.34375l-1.09375 0l0 -1.109375l1.09375 0l0 -0.984375q0.03125 -1.2812576 0.65625 -2.0000076q0.625 -0.734375 1.78125 -0.734375q0.40625 0 0.828125 0.140625l-0.0625 1.171875q-0.296875 -0.078125 -0.640625 -0.078125q-1.171875 0 -1.171875 1.6875076l0 0.796875l1.4375 0l0 1.109375l-1.4375 0l0 7.34375l-1.390625 0zm9.9296875 -10.500008l0 2.0468826l1.28125 0l0 1.109375l-1.28125 0l0 5.25q0 0.5 0.15625 0.765625q0.171875 0.25 0.578125 0.25q0.265625 0 0.546875 -0.09375l-0.015625 1.171875q-0.46875 0.15625 -0.953125 0.15625q-0.828125 0 -1.265625 -0.578125q-0.421875 -0.59375 -0.421875 -1.671875l0 -5.25l-1.28125 0l0 -1.109375l1.28125 0l0 -2.0468826l1.375 0zm4.3046875 2.9062576q0.78125 -1.015625 2.015625 -1.015625q2.234375 0 2.265625 2.984375l0 5.625l-1.375 0l0 -5.5625q0 -0.984375 -0.328125 -1.40625q-0.328125 -0.421875 -1.0 -0.421875q-0.515625 0 -0.921875 0.34375q-0.40625 0.34375 -0.65625 0.90625l0 6.140625l-1.390625 0l0 -12.000008l1.390625 0l0 4.4062576zm9.3671875 7.75q-1.578125 0 -2.421875 -0.9375q-0.84375 -0.953125 -0.859375 -2.765625l0 -1.03125q0 -1.890625 0.8125 -2.953125q0.828125 -1.078125 2.3125 -1.078125q1.484375 0 2.21875 0.953125q0.734375 0.9375 0.75 2.9375l0 0.90625l-4.71875 0l0 0.1875q0 1.359375 0.5 1.984375q0.515625 0.609375 1.484375 0.609375q0.609375 0 1.0625 -0.21875q0.46875 -0.234375 0.875 -0.734375l0.71875 0.875q-0.890625 1.265625 -2.734375 1.265625zm-0.15625 -7.578125q-0.859375 0 -1.28125 0.59375q-0.40625 0.578125 -0.46875 1.828125l3.328125 0l0 -0.1875q-0.046875 -1.203125 -0.4375 -1.71875q-0.375 -0.515625 -1.140625 -0.515625zm11.21875 6.390625q0.6875 0 1.09375 -0.421875q0.421875 -0.421875 0.46875 -1.21875l1.296875 0q-0.046875 1.21875 -0.859375 2.03125q-0.8125 0.796875 -2.0 0.796875q-1.5625 0 -2.390625 -0.984375q-0.828125 -1.0 -0.828125 -2.953125l0 -0.921875q0 -1.921875 0.8125 -2.90625q0.828125 -1.0 2.40625 -1.0q1.296875 0 2.046875 0.828125q0.765625 0.8125 0.8125 2.234375l-1.296875 0q-0.046875 -0.9375 -0.453125 -1.40625q-0.40625 -0.46875 -1.109375 -0.46875q-0.921875 0 -1.375 0.609375q-0.4375 0.59375 -0.453125 1.984375l0 1.078125q0 1.484375 0.4375 2.109375q0.4375 0.609375 1.390625 0.609375zm4.171875 -3.59375q0 -1.84375 0.890625 -2.90625q0.890625 -1.078125 2.359375 -1.078125q1.46875 0 2.359375 1.046875q0.90625 1.046875 0.921875 2.84375l0 0.890625q0 1.84375 -0.890625 2.921875q-0.890625 1.0625 -2.375 1.0625q-1.46875 0 -2.359375 -1.03125q-0.875 -1.046875 -0.90625 -2.828125l0 -0.921875zm1.375 0.796875q0 1.3125 0.515625 2.0625q0.515625 0.734375 1.375 0.734375q1.828125 0 1.890625 -2.640625l0 -0.953125q0 -1.296875 -0.515625 -2.046875q-0.515625 -0.75 -1.390625 -0.75q-0.84375 0 -1.359375 0.75q-0.515625 0.75 -0.515625 2.046875l0 0.796875zm10.4375 -3.328125q-0.296875 -0.0625 -0.625 -0.0625q-1.0625 0 -1.484375 1.171875l0 6.046875l-1.390625 0l0 -8.453125l1.34375 0l0.03125 0.859375q0.546875 -1.015625 1.5625 -1.015625q0.328125 0 0.546875 0.109375l0.015625 1.34375zm4.8671875 0q-0.296875 -0.0625 -0.625 -0.0625q-1.0625 0 -1.484375 1.171875l0 6.046875l-1.390625 0l0 -8.453125l1.34375 0l0.03125 0.859375q0.546875 -1.015625 1.5625 -1.015625q0.328125 0 0.546875 0.109375l0.015625 1.34375zm4.25 7.3125q-1.578125 0 -2.421875 -0.9375q-0.84375 -0.953125 -0.859375 -2.765625l0 -1.03125q0 -1.890625 0.8125 -2.953125q0.828125 -1.078125 2.3125 -1.078125q1.484375 0 2.21875 0.953125q0.734375 0.9375 0.75 2.9375l0 0.90625l-4.71875 0l0 0.1875q0 1.359375 0.5 1.984375q0.515625 0.609375 1.484375 0.609375q0.609375 0 1.0625 -0.21875q0.46875 -0.234375 0.875 -0.734375l0.71875 0.875q-0.890625 1.265625 -2.734375 1.265625zm-0.15625 -7.578125q-0.859375 0 -1.28125 0.59375q-0.40625 0.578125 -0.46875 1.828125l3.328125 0l0 -0.1875q-0.046875 -1.203125 -0.4375 -1.71875q-0.375 -0.515625 -1.140625 -0.515625zm7.5546875 6.390625q0.6875 0 1.09375 -0.421875q0.421875 -0.421875 0.46875 -1.21875l1.296875 0q-0.046875 1.21875 -0.859375 2.03125q-0.8125 0.796875 -2.0 0.796875q-1.5625 0 -2.390625 -0.984375q-0.828125 -1.0 -0.828125 -2.953125l0 -0.921875q0 -1.921875 0.8125 -2.90625q0.828125 -1.0 2.40625 -1.0q1.296875 0 2.046875 0.828125q0.765625 0.8125 0.8125 2.234375l-1.296875 0q-0.046875 -0.9375 -0.453125 -1.40625q-0.40625 -0.46875 -1.109375 -0.46875q-0.921875 0 -1.375 0.609375q-0.4375 0.59375 -0.453125 1.984375l0 1.078125q0 1.484375 0.4375 2.109375q0.4375 0.609375 1.390625 0.609375zm6.265625 -9.468758l0 2.0468826l1.28125 0l0 1.109375l-1.28125 0l0 5.25q0 0.5 0.15625 0.765625q0.171875 0.25 0.578125 0.25q0.265625 0 0.546875 -0.09375l-0.015625 1.171875q-0.46875 0.15625 -0.953125 0.15625q-0.828125 0 -1.265625 -0.578125q-0.421875 -0.59375 -0.421875 -1.671875l0 -5.25l-1.28125 0l0 -1.109375l1.28125 0l0 -2.0468826l1.375 0zm6.296875 5.8906326q0 -1.953125 0.71875 -2.96875q0.734375 -1.03125 2.109375 -1.03125q1.203125 0 1.890625 0.984375l0 -4.3750076l1.375 0l0 12.000008l-1.265625 0l-0.0625 -0.90625q-0.6875 1.0625 -1.953125 1.0625q-1.3125 0 -2.0625 -1.015625q-0.734375 -1.03125 -0.75 -2.890625l0 -0.859375zm1.375 0.78125q0 1.421875 0.421875 2.09375q0.421875 0.671875 1.375 0.671875q1.03125 0 1.546875 -1.046875l0 -4.265625q-0.53125 -1.015625 -1.53125 -1.015625q-0.953125 0 -1.375 0.671875q-0.421875 0.671875 -0.4375 2.046875l0 0.84375zm9.875 3.984375q-1.578125 0 -2.421875 -0.9375q-0.84375 -0.953125 -0.859375 -2.765625l0 -1.03125q0 -1.890625 0.8125 -2.953125q0.828125 -1.078125 2.3125 -1.078125q1.484375 0 2.21875 0.953125q0.734375 0.9375 0.75 2.9375l0 0.90625l-4.71875 0l0 0.1875q0 1.359375 0.5 1.984375q0.515625 0.609375 1.484375 0.609375q0.609375 0 1.0625 -0.21875q0.46875 -0.234375 0.875 -0.734375l0.71875 0.875q-0.890625 1.265625 -2.734375 1.265625zm-0.15625 -7.578125q-0.859375 0 -1.28125 0.59375q-0.40625 0.578125 -0.46875 1.828125l3.328125 0l0 -0.1875q-0.046875 -1.203125 -0.4375 -1.71875q-0.375 -0.515625 -1.140625 -0.515625zm7.5546875 6.390625q0.6875 0 1.09375 -0.421875q0.421875 -0.421875 0.46875 -1.21875l1.296875 0q-0.046875 1.21875 -0.859375 2.03125q-0.8125 0.796875 -2.0 0.796875q-1.5625 0 -2.390625 -0.984375q-0.828125 -1.0 -0.828125 -2.953125l0 -0.921875q0 -1.921875 0.8125 -2.90625q0.828125 -1.0 2.40625 -1.0q1.296875 0 2.046875 0.828125q0.765625 0.8125 0.8125 2.234375l-1.296875 0q-0.046875 -0.9375 -0.453125 -1.40625q-0.40625 -0.46875 -1.109375 -0.46875q-0.921875 0 -1.375 0.609375q-0.4375 0.59375 -0.453125 1.984375l0 1.078125q0 1.484375 0.4375 2.109375q0.4375 0.609375 1.390625 0.609375zm7.953125 -6.125q-0.296875 -0.0625 -0.625 -0.0625q-1.0625 0 -1.484375 1.171875l0 6.046875l-1.390625 0l0 -8.453125l1.34375 0l0.03125 0.859375q0.546875 -1.015625 1.5625 -1.015625q0.328125 0 0.546875 0.109375l0.015625 1.34375zm3.8203125 4.859375l1.546875 -6.15625l1.46875 0l-2.765625 9.65625q-0.3125 1.078125 -0.890625 1.640625q-0.5625 0.578125 -1.296875 0.578125q-0.28125 0 -0.71875 -0.125l0 -1.171875l0.3125 0.03125q0.59375 0 0.9375 -0.296875q0.34375 -0.28125 0.546875 -0.984375l0.28125 -0.953125l-2.484375 -8.375l1.5 0l1.5625 6.15625zm10.4609375 -1.53125q0 2.015625 -0.71875 3.0q-0.71875 0.984375 -2.046875 0.984375q-1.265625 0 -1.953125 -0.96875l0 4.0625l-1.375 0l0 -11.703125l1.25 0l0.0625 0.9375q0.703125 -1.09375 2.0 -1.09375q1.390625 0 2.078125 0.96875q0.6875 0.96875 0.703125 2.890625l0 0.921875zm-1.375 -0.78125q0 -1.421875 -0.4375 -2.09375q-0.4375 -0.6875 -1.40625 -0.6875q-0.984375 0 -1.5 1.0l0 4.390625q0.5 0.96875 1.515625 0.96875q0.9375 0 1.375 -0.671875q0.453125 -0.671875 0.453125 -2.0625l0 -0.84375zm4.96875 -5.8906326l0 2.0468826l1.28125 0l0 1.109375l-1.28125 0l0 5.25q0 0.5 0.15625 0.765625q0.171875 0.25 0.578125 0.25q0.265625 0 0.546875 -0.09375l-0.015625 1.171875q-0.46875 0.15625 -0.953125 0.15625q-0.828125 0 -1.265625 -0.578125q-0.421875 -0.59375 -0.421875 -1.671875l0 -5.25l-1.28125 0l0 -1.109375l1.28125 0l0 -2.0468826l1.375 0zm4.4140625 10.500008l-1.390625 0l0 -8.453125l1.390625 0l0 8.453125zm0.109375 -10.703133q0 0.359375 -0.203125 0.59375q-0.1875 0.234375 -0.59375 0.234375q-0.390625 0 -0.59375 -0.234375q-0.1875 -0.234375 -0.1875 -0.578125q0 -0.359375 0.1875 -0.59375q0.203125 -0.25 0.59375 -0.25q0.390625 0 0.59375 0.25q0.203125 0.234375 0.203125 0.578125zm1.7734375 6.0781326q0 -1.84375 0.890625 -2.90625q0.890625 -1.078125 2.359375 -1.078125q1.46875 0 2.359375 1.046875q0.90625 1.046875 0.921875 2.84375l0 0.890625q0 1.84375 -0.890625 2.921875q-0.890625 1.0625 -2.375 1.0625q-1.46875 0 -2.359375 -1.03125q-0.875 -1.046875 -0.90625 -2.828125l0 -0.921875zm1.375 0.796875q0 1.3125 0.515625 2.0625q0.515625 0.734375 1.375 0.734375q1.828125 0 1.890625 -2.640625l0 -0.953125q0 -1.296875 -0.515625 -2.046875q-0.515625 -0.75 -1.390625 -0.75q-0.84375 0 -1.359375 0.75q-0.515625 0.75 -0.515625 2.046875l0 0.796875zm8.25 -4.625l0.03125 0.90625q0.8125 -1.0625 2.0625 -1.0625q2.234375 0 2.265625 2.984375l0 5.625l-1.375 0l0 -5.5625q0 -0.984375 -0.328125 -1.40625q-0.328125 -0.421875 -1.0 -0.421875q-0.515625 0 -0.921875 0.34375q-0.40625 0.34375 -0.65625 0.90625l0 6.140625l-1.390625 0l0 -8.453125l1.3125 0zm12.21875 4.578125l-0.734375 0.84375l0 3.03125l-1.375 0l0 -12.000008l1.375 0l0 7.1718826l2.640625 -3.625l1.65625 0l-2.6875 3.53125l3.03125 4.921875l-1.609375 0l-2.296875 -3.875zm7.9609375 4.03125q-1.578125 0 -2.421875 -0.9375q-0.84375 -0.953125 -0.859375 -2.765625l0 -1.03125q0 -1.890625 0.8125 -2.953125q0.828125 -1.078125 2.3125 -1.078125q1.484375 0 2.21875 0.953125q0.734375 0.9375 0.75 2.9375l0 0.90625l-4.71875 0l0 0.1875q0 1.359375 0.5 1.984375q0.515625 0.609375 1.484375 0.609375q0.609375 0 1.0625 -0.21875q0.46875 -0.234375 0.875 -0.734375l0.71875 0.875q-0.890625 1.265625 -2.734375 1.265625zm-0.15625 -7.578125q-0.859375 0 -1.28125 0.59375q-0.40625 0.578125 -0.46875 1.828125l3.328125 0l0 -0.1875q-0.046875 -1.203125 -0.4375 -1.71875q-0.375 -0.515625 -1.140625 -0.515625zm6.828125 5.125l1.546875 -6.15625l1.46875 0l-2.765625 9.65625q-0.3125 1.078125 -0.890625 1.640625q-0.5625 0.578125 -1.296875 0.578125q-0.28125 0 -0.71875 -0.125l0 -1.171875l0.3125 0.03125q0.59375 0 0.9375 -0.296875q0.34375 -0.28125 0.546875 -0.984375l0.28125 -0.953125l-2.484375 -8.375l1.5 0l1.5625 6.15625z" fill-rule="nonzero"/><path fill="#a4c2f4" d="m521.14435 43.18622l128.32013 0l0 62.821785c-64.15662 0 -64.15662 24.170647 -128.32013 12.085327zm10.5720215 0l0 -8.144455l127.443726 0l0 63.215874c-4.8443604 0 -9.695618 0.43787384 -9.695618 0.43787384l0 -55.509293zm9.937134 -8.144455l0 -7.9474125l128.54785 0l0 63.01882c-5.52063 0 -11.04126 0.3284073 -11.04126 0.3284073l0 -55.39982z" fill-rule="evenodd"/><path fill="#000000" fill-opacity="0.0" d="m521.14435 43.18622l128.32013 0l0 62.821785c-64.15662 0 -64.15662 24.170647 -128.32013 12.085327zm10.5720215 0l0 -8.144455l127.443726 0l0 63.215874c-4.8443604 0 -9.695618 0.43787384 -9.695618 0.43787384m-107.810974 -63.653748l0 -7.9474125l128.54785 0l0 63.01882c-5.52063 0 -11.04126 0.3284073 -11.04126 0.3284073" fill-rule="evenodd"/><path fill="#000000" fill-opacity="0.0" d="m521.14435 118.09333c64.16351 12.0853195 64.16351 -12.085327 128.32013 -12.085327l0 -7.3124924c0 0 4.8512573 -0.43787384 9.695618 -0.43787384l0 -7.8160553c0 0 5.52063 -0.3284073 11.04126 -0.3284073l0 -63.01882l-128.54785 0l0 7.9474125l-9.937134 0l0 8.144455l-10.5720215 0z" fill-rule="evenodd"/><path stroke="#000000" stroke-width="1.0" stroke-linejoin="round" stroke-linecap="butt" d="m521.14435 43.18622l128.32013 0l0 62.821785c-64.15662 0 -64.15662 24.170647 -128.32013 12.085327zm10.5720215 0l0 -8.144455l127.443726 0l0 63.215874c-4.8443604 0 -9.695618 0.43787384 -9.695618 0.43787384m-107.810974 -63.653748l0 -7.9474125l128.54785 0l0 63.01882c-5.52063 0 -11.04126 0.3284073 -11.04126 0.3284073" fill-rule="evenodd"/><path fill="#000000" d="m576.4918 60.434772l-1.046875 1.328125l0 3.7968712l-2.6875 0l0 -13.265621l2.6875 0l0 5.78125l0.84375 -1.421875l2.46875 -4.359375l3.28125 0l-3.796875 5.828125l3.859375 7.437496l-3.1875 0l-2.421875 -5.124996zm10.209045 5.312496q-1.984375 0 -3.109375 -1.1875q-1.109375 -1.1874962 -1.109375 -3.3906212l0 -0.78125q0 -2.328125 1.015625 -3.59375q1.03125 -1.265625 2.9375 -1.265625q1.859375 0 2.796875 1.1875q0.9375 1.1875 0.953125 3.515625l0 1.265625l-5.125 0q0.046875 1.09375 0.46875 1.609375q0.4375 0.5 1.328125 0.5q1.296875 0 2.15625 -0.890625l1.015625 1.5624962q-0.46875 0.65625 -1.375 1.0625q-0.90625 0.40625 -1.953125 0.40625zm-1.625 -6.046871l2.578125 0l0 -0.25q-0.015625 -0.875 -0.296875 -1.328125q-0.265625 -0.453125 -0.9375 -0.453125q-0.671875 0 -0.984375 0.484375q-0.296875 0.46875 -0.359375 1.546875zm9.605713 1.5625l1.3125 -5.5625l2.75 0l-3.234375 11.328121q-0.734375 2.515625 -2.75 2.515625q-0.453125 0 -1.046875 -0.171875l0 -2.015625l0.296875 0q0.59375 0 0.890625 -0.234375q0.3125 -0.21875 0.46875 -0.796875l0.203125 -0.671875l-2.84375 -9.953121l2.78125 0l1.171875 5.5625z" fill-rule="nonzero"/><path fill="#000000" d="m545.2649 81.82539l-4.171875 0l0 3.515625l4.9375 0l0 2.21875l-7.625 0l0 -13.265625l7.59375 0l0 2.234375l-4.90625 0l0 3.140625l4.171875 0l0 2.15625zm1.6537476 0.484375q0 -2.421875 0.8125 -3.59375q0.8125 -1.1875 2.40625 -1.1875q1.28125 0 2.046875 1.15625l0.171875 -0.984375l2.25 0l0 13.65625l-2.59375 0l0 -4.5625q-0.71875 0.953125 -1.890625 0.953125q-1.5625 0 -2.375 -1.203125q-0.8125 -1.21875 -0.828125 -3.484375l0 -0.75zm2.578125 0.65625q0 1.421875 0.3125 2.03125q0.3125 0.609375 1.0625 0.609375q0.78125 0 1.140625 -0.609375l0 -4.703125q-0.359375 -0.625 -1.125 -0.625q-0.75 0 -1.0625 0.59375q-0.3125 0.578125 -0.328125 1.96875l0 0.734375zm11.8828125 3.6875q-0.796875 1.09375 -2.140625 1.09375q-1.359375 0 -2.0625 -0.9375q-0.703125 -0.9375 -0.703125 -2.71875l0 -6.390625l2.578125 0l0 6.453125q0.015625 1.4375 0.953125 1.4375q0.890625 0 1.28125 -0.765625l0 -7.125l2.59375 0l0 9.859375l-2.421875 0l-0.078125 -0.90625zm7.041748 0.90625l-2.578125 0l0 -9.859375l2.578125 0l0 9.859375zm-2.703125 -12.40625q0 -0.609375 0.375 -0.984375q0.390625 -0.390625 1.03125 -0.390625q0.640625 0 1.015625 0.390625q0.390625 0.375 0.390625 0.984375q0 0.59375 -0.390625 0.984375q-0.375 0.390625 -1.03125 0.390625q-0.640625 0 -1.015625 -0.390625q-0.375 -0.390625 -0.375 -0.984375zm7.9348755 8.765625l1.25 -6.21875l2.6875 0l-2.703125 9.859375l-2.46875 0l-2.703125 -9.859375l2.6875 0l1.25 6.21875zm4.7127686 -1.609375q0 -2.234375 1.046875 -3.5q1.0625 -1.28125 2.9375 -1.28125q1.875 0 2.9375 1.28125q1.0625 1.265625 1.0625 3.515625l0 0.640625q0 2.25 -1.0625 3.515625q-1.046875 1.265625 -2.921875 1.265625q-1.90625 0 -2.953125 -1.265625q-1.046875 -1.28125 -1.046875 -3.546875l0 -0.625zm2.578125 0.65625q0 2.640625 1.421875 2.640625q1.296875 0 1.40625 -2.203125l0 -1.09375q0 -1.34375 -0.375 -1.984375q-0.375 -0.65625 -1.046875 -0.65625q-0.65625 0 -1.03125 0.65625q-0.375 0.640625 -0.375 1.984375l0 0.65625zm10.563843 2.640625q1.125 0 1.140625 -1.46875l2.421875 0q-0.015625 1.625 -1.0 2.625q-0.96875 0.984375 -2.5 0.984375q-1.90625 0 -2.921875 -1.1875q-1.0 -1.1875 -1.015625 -3.484375l0 -0.796875q0 -2.3125 0.984375 -3.53125q1.0 -1.21875 2.921875 -1.21875q1.640625 0 2.578125 1.0q0.9375 1.0 0.953125 2.859375l-2.421875 0q-0.015625 -0.828125 -0.28125 -1.265625q-0.265625 -0.453125 -0.875 -0.453125q-0.671875 0 -0.96875 0.484375q-0.28125 0.46875 -0.296875 1.84375l0 1.0q0 1.203125 0.109375 1.6875q0.125 0.46875 0.390625 0.703125q0.28125 0.21875 0.78125 0.21875zm9.706177 1.953125q-0.109375 -0.234375 -0.21875 -0.765625q-0.703125 0.953125 -1.875 0.953125q-1.25 0 -2.0625 -0.8125q-0.8125 -0.828125 -0.8125 -2.140625q0 -1.546875 0.984375 -2.390625q0.984375 -0.84375 2.84375 -0.859375l0.796875 0l0 -0.796875q0 -0.671875 -0.234375 -0.9375q-0.234375 -0.28125 -0.671875 -0.28125q-0.953125 0 -0.953125 1.140625l-2.578125 0q0 -1.375 1.015625 -2.25q1.03125 -0.890625 2.59375 -0.890625q1.625 0 2.515625 0.84375q0.890625 0.828125 0.890625 2.40625l0 4.625q0.015625 1.28125 0.359375 2.0l0 0.15625l-2.59375 0zm-1.53125 -1.84375q0.4375 0 0.734375 -0.171875q0.296875 -0.171875 0.453125 -0.40625l0 -2.046875l-0.625 0q-0.65625 0 -1.03125 0.421875q-0.375 0.40625 -0.375 1.109375q0 1.09375 0.84375 1.09375zm8.625305 -10.4375l0 2.421875l1.3125 0l0 1.9375l-1.3125 0l0 4.890625q0 0.59375 0.15625 0.8125q0.15625 0.21875 0.609375 0.21875q0.375 0 0.609375 -0.0625l-0.015625 2.0q-0.65625 0.25 -1.421875 0.25q-2.484375 0 -2.515625 -2.859375l0 -5.25l-1.140625 0l0 -1.9375l1.140625 0l0 -2.421875l2.578125 0zm5.4329834 12.28125l-2.578125 0l0 -9.859375l2.578125 0l0 9.859375zm-2.703125 -12.40625q0 -0.609375 0.375 -0.984375q0.390625 -0.390625 1.03125 -0.390625q0.640625 0 1.015625 0.390625q0.390625 0.375 0.390625 0.984375q0 0.59375 -0.390625 0.984375q-0.375 0.390625 -1.03125 0.390625q-0.640625 0 -1.015625 -0.390625q-0.375 -0.390625 -0.375 -0.984375zm4.4036255 7.15625q0 -2.234375 1.046875 -3.5q1.0625 -1.28125 2.9375 -1.28125q1.875 0 2.9375 1.28125q1.0625 1.265625 1.0625 3.515625l0 0.640625q0 2.25 -1.0625 3.515625q-1.046875 1.265625 -2.921875 1.265625q-1.90625 0 -2.953125 -1.265625q-1.046875 -1.28125 -1.046875 -3.546875l0 -0.625zm2.578125 0.65625q0 2.640625 1.421875 2.640625q1.296875 0 1.40625 -2.203125l0 -1.09375q0 -1.34375 -0.375 -1.984375q-0.375 -0.65625 -1.046875 -0.65625q-0.65625 0 -1.03125 0.65625q-0.375 0.640625 -0.375 1.984375l0 0.65625zm9.360718 -5.265625l0.078125 0.984375q0.875 -1.15625 2.28125 -1.15625q2.546875 0 2.609375 3.546875l0 6.484375l-2.578125 0l0 -6.28125q0 -0.84375 -0.25 -1.21875q-0.25 -0.375 -0.875 -0.375q-0.703125 0 -1.09375 0.71875l0 7.15625l-2.59375 0l0 -9.859375l2.421875 0z" fill-rule="nonzero"/><path fill="#000000" fill-opacity="0.0" d="m155.06299 117.24257l0 29.23471l540.1395 0l0 -72.10085l-24.98993 0" fill-rule="evenodd"/><path stroke="#000000" stroke-width="1.0" stroke-linejoin="round" stroke-linecap="butt" d="m155.06299 117.24257l0 29.23471l540.1395 0l0 -72.10085l-18.98993 0" fill-rule="evenodd"/><path fill="#000000" stroke="#000000" stroke-width="1.0" stroke-linecap="butt" d="m676.2126 72.72469l-4.538086 1.6517334l4.538086 1.6517334z" fill-rule="evenodd"/><path fill="#000000" fill-opacity="0.0" d="m205.83989 19.094488l156.22047 0l0 66.55118l-156.22047 0z" fill-rule="evenodd"/><path fill="#000000" d="m240.11029 33.313866l-2.984375 0l0 10.140625l-1.4375 0l0 -10.140625l-2.984375 0l0 -1.234375l7.40625 0l0 1.234375zm2.875 2.546875q0.78125 -1.015625 2.015625 -1.015625q2.234375 0 2.265625 2.984375l0 5.625l-1.375 0l0 -5.5625q0 -0.984375 -0.328125 -1.40625q-0.328125 -0.421875 -1.0 -0.421875q-0.515625 0 -0.921875 0.34375q-0.40625 0.34375 -0.65625 0.90625l0 6.140625l-1.390625 0l0 -12.000002l1.390625 0l0 4.406252zm9.3671875 7.75q-1.578125 0 -2.421875 -0.9375q-0.84375 -0.953125 -0.859375 -2.765625l0 -1.03125q0 -1.890625 0.8125 -2.953125q0.828125 -1.078125 2.3125 -1.078125q1.484375 0 2.21875 0.953125q0.734375 0.9375 0.75 2.9375l0 0.90625l-4.71875 0l0 0.1875q0 1.359375 0.5 1.984375q0.515625 0.609375 1.484375 0.609375q0.609375 0 1.0625 -0.21875q0.46875 -0.234375 0.875 -0.734375l0.71875 0.875q-0.890625 1.265625 -2.734375 1.265625zm-0.15625 -7.578125q-0.859375 0 -1.28125 0.59375q-0.40625 0.578125 -0.46875 1.828125l3.328125 0l0 -0.1875q-0.046875 -1.203125 -0.4375 -1.71875q-0.375 -0.515625 -1.140625 -0.515625zm14.390625 3.59375q0 2.015625 -0.71875 3.0q-0.71875 0.984375 -2.046875 0.984375q-1.265625 0 -1.953125 -0.96875l0 4.0625l-1.375 0l0 -11.703125l1.25 0l0.0625 0.9375q0.703125 -1.09375 2.0 -1.09375q1.390625 0 2.078125 0.96875q0.6875 0.96875 0.703125 2.890625l0 0.921875zm-1.375 -0.78125q0 -1.421875 -0.4375 -2.09375q-0.4375 -0.6875 -1.40625 -0.6875q-0.984375 0 -1.5 1.0l0 4.390625q0.5 0.96875 1.515625 0.96875q0.9375 0 1.375 -0.671875q0.453125 -0.671875 0.453125 -2.0625l0 -0.84375zm2.875 -0.015625q0 -1.84375 0.890625 -2.90625q0.890625 -1.078125 2.359375 -1.078125q1.46875 0 2.359375 1.046875q0.90625 1.046875 0.921875 2.84375l0 0.890625q0 1.84375 -0.890625 2.921875q-0.890625 1.0625 -2.375 1.0625q-1.46875 0 -2.359375 -1.03125q-0.875 -1.046875 -0.90625 -2.828125l0 -0.921875zm1.375 0.796875q0 1.3125 0.515625 2.0625q0.515625 0.734375 1.375 0.734375q1.828125 0 1.890625 -2.640625l0 -0.953125q0 -1.296875 -0.515625 -2.046875q-0.515625 -0.75 -1.390625 -0.75q-0.84375 0 -1.359375 0.75q-0.515625 0.75 -0.515625 2.046875l0 0.796875zm11.046875 1.65625q0 -0.4375 -0.34375 -0.75q-0.328125 -0.328125 -1.28125 -0.765625q-1.125 -0.453125 -1.578125 -0.78125q-0.453125 -0.328125 -0.6875 -0.75q-0.21875 -0.421875 -0.21875 -1.0q0 -1.03125 0.75 -1.703125q0.75 -0.6875 1.921875 -0.6875q1.234375 0 1.984375 0.71875q0.75 0.71875 0.75 1.84375l-1.375 0q0 -0.578125 -0.390625 -0.96875q-0.375 -0.40625 -0.96875 -0.40625q-0.609375 0 -0.953125 0.3125q-0.34375 0.3125 -0.34375 0.84375q0 0.421875 0.25 0.6875q0.25 0.25 1.21875 0.671875q1.546875 0.609375 2.09375 1.1875q0.5625 0.5625 0.5625 1.453125q0 1.09375 -0.765625 1.765625q-0.75 0.65625 -2.03125 0.65625q-1.3125 0 -2.140625 -0.75q-0.8125 -0.765625 -0.8125 -1.9375l1.390625 0q0.015625 0.703125 0.421875 1.109375q0.40625 0.390625 1.140625 0.390625q0.6875 0 1.046875 -0.296875q0.359375 -0.3125 0.359375 -0.84375zm7.2890625 0q0 -0.4375 -0.34375 -0.75q-0.328125 -0.328125 -1.28125 -0.765625q-1.125 -0.453125 -1.578125 -0.78125q-0.453125 -0.328125 -0.6875 -0.75q-0.21875 -0.421875 -0.21875 -1.0q0 -1.03125 0.75 -1.703125q0.75 -0.6875 1.921875 -0.6875q1.234375 0 1.984375 0.71875q0.75 0.71875 0.75 1.84375l-1.375 0q0 -0.578125 -0.390625 -0.96875q-0.375 -0.40625 -0.96875 -0.40625q-0.609375 0 -0.953125 0.3125q-0.34375 0.3125 -0.34375 0.84375q0 0.421875 0.25 0.6875q0.25 0.25 1.21875 0.671875q1.546875 0.609375 2.09375 1.1875q0.5625 0.5625 0.5625 1.453125q0 1.09375 -0.765625 1.765625q-0.75 0.65625 -2.03125 0.65625q-1.3125 0 -2.140625 -0.75q-0.8125 -0.765625 -0.8125 -1.9375l1.390625 0q0.015625 0.703125 0.421875 1.109375q0.40625 0.390625 1.140625 0.390625q0.6875 0 1.046875 -0.296875q0.359375 -0.3125 0.359375 -0.84375zm4.6796875 2.171875l-1.390625 0l0 -8.453125l1.390625 0l0 8.453125zm0.109375 -10.703125q0 0.359375 -0.203125 0.59375q-0.1875 0.234375 -0.59375 0.234375q-0.390625 0 -0.59375 -0.234375q-0.1875 -0.234375 -0.1875 -0.578125q0 -0.359375 0.1875 -0.59375q0.203125 -0.2500019 0.59375 -0.2500019q0.390625 0 0.59375 0.2500019q0.203125 0.234375 0.203125 0.578125zm8.1796875 6.875q0 1.984375 -0.71875 2.984375q-0.703125 1.0 -2.046875 1.0q-1.34375 0 -2.015625 -1.15625l-0.078125 1.0l-1.25 0l0 -12.000002l1.375 0l0 4.468752q0.671875 -1.078125 1.953125 -1.078125q1.390625 0 2.078125 0.984375q0.703125 0.984375 0.703125 2.96875l0 0.828125zm-1.375 -0.78125q0 -1.5 -0.421875 -2.140625q-0.40625 -0.640625 -1.34375 -0.640625q-1.078125 0 -1.59375 1.15625l0 4.03125q0.515625 1.140625 1.609375 1.140625q0.9375 0 1.34375 -0.65625q0.40625 -0.65625 0.40625 -2.046875l0 -0.84375zm4.640625 4.609375l-1.390625 0l0 -8.453125l1.390625 0l0 8.453125zm0.109375 -10.703125q0 0.359375 -0.203125 0.59375q-0.1875 0.234375 -0.59375 0.234375q-0.390625 0 -0.59375 -0.234375q-0.1875 -0.234375 -0.1875 -0.578125q0 -0.359375 0.1875 -0.59375q0.203125 -0.2500019 0.59375 -0.2500019q0.390625 0 0.59375 0.2500019q0.203125 0.234375 0.203125 0.578125zm3.5546875 10.703125l-1.390625 0l0 -12.000002l1.390625 0l0 12.000002zm3.6640625 0l-1.390625 0l0 -8.453125l1.390625 0l0 8.453125zm0.109375 -10.703125q0 0.359375 -0.203125 0.59375q-0.1875 0.234375 -0.59375 0.234375q-0.390625 0 -0.59375 -0.234375q-0.1875 -0.234375 -0.1875 -0.578125q0 -0.359375 0.1875 -0.59375q0.203125 -0.2500019 0.59375 -0.2500019q0.390625 0 0.59375 0.2500019q0.203125 0.234375 0.203125 0.578125zm3.8671875 0.203125l0 2.046875l1.28125 0l0 1.109375l-1.28125 0l0 5.25q0 0.5 0.15625 0.765625q0.171875 0.25 0.578125 0.25q0.265625 0 0.546875 -0.09375l-0.015625 1.171875q-0.46875 0.15625 -0.953125 0.15625q-0.828125 0 -1.265625 -0.578125q-0.421875 -0.59375 -0.421875 -1.671875l0 -5.25l-1.28125 0l0 -1.109375l1.28125 0l0 -2.046875l1.375 0zm4.4140625 10.5l-1.390625 0l0 -8.453125l1.390625 0l0 8.453125zm0.109375 -10.703125q0 0.359375 -0.203125 0.59375q-0.1875 0.234375 -0.59375 0.234375q-0.390625 0 -0.59375 -0.234375q-0.1875 -0.234375 -0.1875 -0.578125q0 -0.359375 0.1875 -0.59375q0.203125 -0.2500019 0.59375 -0.2500019q0.390625 0 0.59375 0.2500019q0.203125 0.234375 0.203125 0.578125zm5.0859375 10.859375q-1.578125 0 -2.421875 -0.9375q-0.84375 -0.953125 -0.859375 -2.765625l0 -1.03125q0 -1.890625 0.8125 -2.953125q0.828125 -1.078125 2.3125 -1.078125q1.484375 0 2.21875 0.953125q0.734375 0.9375 0.75 2.9375l0 0.90625l-4.71875 0l0 0.1875q0 1.359375 0.5 1.984375q0.515625 0.609375 1.484375 0.609375q0.609375 0 1.0625 -0.21875q0.46875 -0.234375 0.875 -0.734375l0.71875 0.875q-0.890625 1.265625 -2.734375 1.265625zm-0.15625 -7.578125q-0.859375 0 -1.28125 0.59375q-0.40625 0.578125 -0.46875 1.828125l3.328125 0l0 -0.1875q-0.046875 -1.203125 -0.4375 -1.71875q-0.375 -0.515625 -1.140625 -0.515625zm8.7265625 5.25q0 -0.4375 -0.34375 -0.75q-0.328125 -0.328125 -1.28125 -0.765625q-1.125 -0.453125 -1.578125 -0.78125q-0.453125 -0.328125 -0.6875 -0.75q-0.21875 -0.421875 -0.21875 -1.0q0 -1.03125 0.75 -1.703125q0.75 -0.6875 1.921875 -0.6875q1.234375 0 1.984375 0.71875q0.75 0.71875 0.75 1.84375l-1.375 0q0 -0.578125 -0.390625 -0.96875q-0.375 -0.40625 -0.96875 -0.40625q-0.609375 0 -0.953125 0.3125q-0.34375 0.3125 -0.34375 0.84375q0 0.421875 0.25 0.6875q0.25 0.25 1.21875 0.671875q1.546875 0.609375 2.09375 1.1875q0.5625 0.5625 0.5625 1.453125q0 1.09375 -0.765625 1.765625q-0.75 0.65625 -2.03125 0.65625q-1.3125 0 -2.140625 -0.75q-0.8125 -0.765625 -0.8125 -1.9375l1.390625 0q0.015625 0.703125 0.421875 1.109375q0.40625 0.390625 1.140625 0.390625q0.6875 0 1.046875 -0.296875q0.359375 -0.3125 0.359375 -0.84375z" fill-rule="nonzero"/><path fill="#000000" d="m240.9267 57.82949q0 -1.84375 0.890625 -2.90625q0.890625 -1.078125 2.359375 -1.078125q1.46875 0 2.359375 1.046875q0.90625 1.046875 0.921875 2.84375l0 0.890625q0 1.84375 -0.890625 2.921875q-0.890625 1.0625 -2.375 1.0625q-1.46875 0 -2.359375 -1.03125q-0.875 -1.046875 -0.90625 -2.828125l0 -0.921875zm1.375 0.796875q0 1.3125 0.515625 2.0625q0.515625 0.734375 1.375 0.734375q1.828125 0 1.890625 -2.640625l0 -0.953125q0 -1.296875 -0.515625 -2.046875q-0.515625 -0.75 -1.390625 -0.75q-0.84375 0 -1.359375 0.75q-0.515625 0.75 -0.515625 2.046875l0 0.796875zm7.546875 3.828125l0 -7.34375l-1.09375 0l0 -1.109375l1.09375 0l0 -0.984375q0.03125 -1.28125 0.65625 -2.0q0.625 -0.734375 1.78125 -0.734375q0.40625 0 0.828125 0.140625l-0.0625 1.171875q-0.296875 -0.078125 -0.640625 -0.078125q-1.171875 0 -1.171875 1.6875l0 0.796875l1.4375 0l0 1.109375l-1.4375 0l0 7.34375l-1.390625 0zm9.9296875 -10.5l0 2.046875l1.28125 0l0 1.109375l-1.28125 0l0 5.25q0 0.5 0.15625 0.765625q0.171875 0.25 0.578125 0.25q0.265625 0 0.546875 -0.09375l-0.015625 1.171875q-0.46875 0.15625 -0.953125 0.15625q-0.828125 0 -1.265625 -0.578125q-0.421875 -0.59375 -0.421875 -1.671875l0 -5.25l-1.28125 0l0 -1.109375l1.28125 0l0 -2.046875l1.375 0zm4.3046875 2.90625q0.78125 -1.015625 2.015625 -1.015625q2.234375 0 2.265625 2.984375l0 5.625l-1.375 0l0 -5.5625q0 -0.984375 -0.328125 -1.40625q-0.328125 -0.421875 -1.0 -0.421875q-0.515625 0 -0.921875 0.34375q-0.40625 0.34375 -0.65625 0.90625l0 6.140625l-1.390625 0l0 -12.0l1.390625 0l0 4.40625zm9.3671875 7.75q-1.578125 0 -2.421875 -0.9375q-0.84375 -0.953125 -0.859375 -2.765625l0 -1.03125q0 -1.890625 0.8125 -2.953125q0.828125 -1.078125 2.3125 -1.078125q1.484375 0 2.21875 0.953125q0.734375 0.9375 0.75 2.9375l0 0.90625l-4.71875 0l0 0.1875q0 1.359375 0.5 1.984375q0.515625 0.609375 1.484375 0.609375q0.609375 0 1.0625 -0.21875q0.46875 -0.234375 0.875 -0.734375l0.71875 0.875q-0.890625 1.265625 -2.734375 1.265625zm-0.15625 -7.578125q-0.859375 0 -1.28125 0.59375q-0.40625 0.578125 -0.46875 1.828125l3.328125 0l0 -0.1875q-0.046875 -1.203125 -0.4375 -1.71875q-0.375 -0.515625 -1.140625 -0.515625zm8.0 2.796875q0 -1.84375 0.890625 -2.90625q0.890625 -1.078125 2.359375 -1.078125q1.46875 0 2.359375 1.046875q0.90625 1.046875 0.921875 2.84375l0 0.890625q0 1.84375 -0.890625 2.921875q-0.890625 1.0625 -2.375 1.0625q-1.46875 0 -2.359375 -1.03125q-0.875 -1.046875 -0.90625 -2.828125l0 -0.921875zm1.375 0.796875q0 1.3125 0.515625 2.0625q0.515625 0.734375 1.375 0.734375q1.828125 0 1.890625 -2.640625l0 -0.953125q0 -1.296875 -0.515625 -2.046875q-0.515625 -0.75 -1.390625 -0.75q-0.84375 0 -1.359375 0.75q-0.515625 0.75 -0.515625 2.046875l0 0.796875zm10.4375 -3.328125q-0.296875 -0.0625 -0.625 -0.0625q-1.0625 0 -1.484375 1.171875l0 6.046875l-1.390625 0l0 -8.453125l1.34375 0l0.03125 0.859375q0.546875 -1.015625 1.5625 -1.015625q0.328125 0 0.546875 0.109375l0.015625 1.34375zm2.8671875 7.15625l-1.390625 0l0 -8.453125l1.390625 0l0 8.453125zm0.109375 -10.703125q0 0.359375 -0.203125 0.59375q-0.1875 0.234375 -0.59375 0.234375q-0.390625 0 -0.59375 -0.234375q-0.1875 -0.234375 -0.1875 -0.578125q0 -0.359375 0.1875 -0.59375q0.203125 -0.25 0.59375 -0.25q0.390625 0 0.59375 0.25q0.203125 0.234375 0.203125 0.578125zm1.7890625 6.09375q0 -1.984375 0.71875 -2.984375q0.71875 -1.015625 2.09375 -1.015625q1.296875 0 1.96875 1.09375l0.0625 -0.9375l1.25 0l0 8.53125q0 1.578125 -0.8125 2.40625q-0.796875 0.84375 -2.234375 0.84375q-0.625 0 -1.40625 -0.3125q-0.765625 -0.296875 -1.15625 -0.75l0.5625 -0.953125q0.859375 0.84375 1.890625 0.84375q1.734375 0 1.78125 -1.890625l0 -1.109375q-0.671875 1.0 -1.90625 1.0q-1.3125 0 -2.046875 -0.984375q-0.734375 -1.0 -0.765625 -2.84375l0 -0.9375zm1.375 0.78125q0 1.421875 0.421875 2.09375q0.421875 0.671875 1.375 0.671875q1.03125 0 1.546875 -1.0625l0 -4.21875q-0.546875 -1.046875 -1.53125 -1.046875q-0.953125 0 -1.375 0.671875q-0.421875 0.671875 -0.4375 2.046875l0 0.84375zm8.2734375 3.828125l-1.390625 0l0 -8.453125l1.390625 0l0 8.453125zm0.109375 -10.703125q0 0.359375 -0.203125 0.59375q-0.1875 0.234375 -0.59375 0.234375q-0.390625 0 -0.59375 -0.234375q-0.1875 -0.234375 -0.1875 -0.578125q0 -0.359375 0.1875 -0.59375q0.203125 -0.25 0.59375 -0.25q0.390625 0 0.59375 0.25q0.203125 0.234375 0.203125 0.578125zm3.3671875 2.25l0.03125 0.90625q0.8125 -1.0625 2.0625 -1.0625q2.234375 0 2.265625 2.984375l0 5.625l-1.375 0l0 -5.5625q0 -0.984375 -0.328125 -1.40625q-0.328125 -0.421875 -1.0 -0.421875q-0.515625 0 -0.921875 0.34375q-0.40625 0.34375 -0.65625 0.90625l0 6.140625l-1.390625 0l0 -8.453125l1.3125 0zm10.7890625 8.453125q-0.125 -0.28125 -0.1875 -0.921875q-0.734375 1.078125 -1.875 1.078125q-1.140625 0 -1.796875 -0.640625q-0.640625 -0.65625 -0.640625 -1.828125q0 -1.28125 0.875 -2.03125q0.875 -0.765625 2.40625 -0.78125l1.015625 0l0 -0.90625q0 -0.75 -0.34375 -1.0625q-0.328125 -0.328125 -1.015625 -0.328125q-0.625 0 -1.015625 0.375q-0.390625 0.359375 -0.390625 0.9375l-1.390625 0q0 -0.65625 0.375 -1.234375q0.390625 -0.59375 1.03125 -0.921875q0.65625 -0.34375 1.453125 -0.34375q1.296875 0 1.96875 0.640625q0.6875 0.640625 0.703125 1.875l0 4.265625q0 0.984375 0.265625 1.703125l0 0.125l-1.4375 0zm-1.84375 -1.109375q0.5 0 0.953125 -0.28125q0.46875 -0.28125 0.6875 -0.703125l0 -2.015625l-0.78125 0q-0.984375 0.015625 -1.5625 0.453125q-0.5625 0.421875 -0.5625 1.1875q0 0.71875 0.28125 1.046875q0.296875 0.3125 0.984375 0.3125zm6.6484375 1.109375l-1.390625 0l0 -12.0l1.390625 0l0 12.0z" fill-rule="nonzero"/><path fill="#000000" d="m263.79388 96.626366q0 2.015625 -0.71875 3.0q-0.71875 0.984375 -2.046875 0.984375q-1.265625 0 -1.953125 -0.96875l0 4.0625l-1.375 0l0 -11.703125l1.25 0l0.0625 0.9375q0.703125 -1.09375 2.0 -1.09375q1.390625 0 2.078125 0.96875q0.6875 0.96875 0.703125 2.890625l0 0.921875zm-1.375 -0.78125q0 -1.421875 -0.4375 -2.09375q-0.4375 -0.6875 -1.40625 -0.6875q-0.984375 0 -1.5 1.0l0 4.390625q0.5 0.96875 1.515625 0.96875q0.9375 0 1.375 -0.671875q0.453125 -0.671875 0.453125 -2.0625l0 -0.84375zm4.65625 4.609375l-1.390625 0l0 -12.0l1.390625 0l0 12.0zm6.5234375 0q-0.125 -0.28125 -0.1875 -0.921875q-0.734375 1.078125 -1.875 1.078125q-1.140625 0 -1.796875 -0.640625q-0.640625 -0.65625 -0.640625 -1.828125q0 -1.28125 0.875 -2.03125q0.875 -0.765625 2.40625 -0.78125l1.015625 0l0 -0.90625q0 -0.75 -0.34375 -1.0625q-0.328125 -0.328125 -1.015625 -0.328125q-0.625 0 -1.015625 0.375q-0.390625 0.359375 -0.390625 0.9375l-1.390625 0q0 -0.65625 0.375 -1.234375q0.390625 -0.59375 1.03125 -0.921875q0.65625 -0.34375 1.453125 -0.34375q1.296875 0 1.96875 0.640625q0.6875 0.640625 0.703125 1.875l0 4.265625q0 0.984375 0.265625 1.703125l0 0.125l-1.4375 0zm-1.84375 -1.109375q0.5 0 0.953125 -0.28125q0.46875 -0.28125 0.6875 -0.703125l0 -2.015625l-0.78125 0q-0.984375 0.015625 -1.5625 0.453125q-0.5625 0.421875 -0.5625 1.1875q0 0.71875 0.28125 1.046875q0.296875 0.3125 0.984375 0.3125zm6.6484375 1.109375l-1.390625 0l0 -8.453125l1.390625 0l0 8.453125zm0.109375 -10.703125q0 0.359375 -0.203125 0.59375q-0.1875 0.234375 -0.59375 0.234375q-0.390625 0 -0.59375 -0.234375q-0.1875 -0.234375 -0.1875 -0.578125q0 -0.359375 0.1875 -0.59375q0.203125 -0.25 0.59375 -0.25q0.390625 0 0.59375 0.25q0.203125 0.234375 0.203125 0.578125zm3.3671875 2.25l0.03125 0.90625q0.8125 -1.0625 2.0625 -1.0625q2.234375 0 2.265625 2.984375l0 5.625l-1.375 0l0 -5.5625q0 -0.984375 -0.328125 -1.40625q-0.328125 -0.421875 -1.0 -0.421875q-0.515625 0 -0.921875 0.34375q-0.40625 0.34375 -0.65625 0.90625l0 6.140625l-1.390625 0l0 -8.453125l1.3125 0zm8.2421875 -2.046875l0 2.046875l1.28125 0l0 1.109375l-1.28125 0l0 5.25q0 0.5 0.15625 0.765625q0.171875 0.25 0.578125 0.25q0.265625 0 0.546875 -0.09375l-0.015625 1.171875q-0.46875 0.15625 -0.953125 0.15625q-0.828125 0 -1.265625 -0.578125q-0.421875 -0.59375 -0.421875 -1.671875l0 -5.25l-1.28125 0l0 -1.109375l1.28125 0l0 -2.046875l1.375 0zm5.9453125 10.65625q-1.578125 0 -2.421875 -0.9375q-0.84375 -0.953125 -0.859375 -2.765625l0 -1.03125q0 -1.890625 0.8125 -2.953125q0.828125 -1.078125 2.3125 -1.078125q1.484375 0 2.21875 0.953125q0.734375 0.9375 0.75 2.9375l0 0.90625l-4.71875 0l0 0.1875q0 1.359375 0.5 1.984375q0.515625 0.609375 1.484375 0.609375q0.609375 0 1.0625 -0.21875q0.46875 -0.234375 0.875 -0.734375l0.71875 0.875q-0.890625 1.265625 -2.734375 1.265625zm-0.15625 -7.578125q-0.859375 0 -1.28125 0.59375q-0.40625 0.578125 -0.46875 1.828125l3.328125 0l0 -0.1875q-0.046875 -1.203125 -0.4375 -1.71875q-0.375 -0.515625 -1.140625 -0.515625zm7.0703125 2.046875l1.4375 -3.078125l1.609375 0l-2.296875 4.171875l2.34375 4.28125l-1.578125 0l-1.5 -3.171875l-1.5 3.171875l-1.59375 0l2.359375 -4.28125l-2.296875 -4.171875l1.59375 0l1.421875 3.078125zm6.3828125 -5.125l0 2.046875l1.28125 0l0 1.109375l-1.28125 0l0 5.25q0 0.5 0.15625 0.765625q0.171875 0.25 0.578125 0.25q0.265625 0 0.546875 -0.09375l-0.015625 1.171875q-0.46875 0.15625 -0.953125 0.15625q-0.828125 0 -1.265625 -0.578125q-0.421875 -0.59375 -0.421875 -1.671875l0 -5.25l-1.28125 0l0 -1.109375l1.28125 0l0 -2.046875l1.375 0z" fill-rule="nonzero"/><path fill="#000000" fill-opacity="0.0" d="m1.1645942 159.63603l717.95276 0l0 43.905518l-717.95276 0z" fill-rule="evenodd"/><path fill="#000000" d="m47.09727 181.27478l-5.15625 0l0 5.28125l-3.203125 0l0 -13.265625l8.875 0l0 2.46875l-5.671875 0l0 3.046875l5.15625 0l0 2.46875zm4.9370117 5.28125l-3.078125 0l0 -9.859375l3.078125 0l0 9.859375zm-3.25 -12.390625q0 -0.65625 0.46875 -1.078125q0.46875 -0.421875 1.21875 -0.421875q0.765625 0 1.234375 0.421875q0.484375 0.421875 0.484375 1.078125q0 0.65625 -0.484375 1.078125q-0.46875 0.40625 -1.234375 0.40625q-0.75 0 -1.21875 -0.40625q-0.46875 -0.421875 -0.46875 -1.078125zm4.784897 7.390625q0 -1.5 0.484375 -2.640625q0.5 -1.15625 1.421875 -1.765625q0.921875 -0.625 2.140625 -0.625q1.53125 0 2.40625 1.03125l0.109375 -0.859375l2.78125 0l0 9.484375q0 1.296875 -0.609375 2.25q-0.59375 0.96875 -1.75 1.484375q-1.140625 0.515625 -2.65625 0.515625q-1.078125 0 -2.09375 -0.40625q-1.015625 -0.40625 -1.5625 -1.0625l1.28125 -1.8125q0.859375 1.015625 2.265625 1.015625q2.046875 0 2.046875 -2.09375l0 -0.3125q-0.890625 0.984375 -2.234375 0.984375q-1.8125 0 -2.921875 -1.375q-1.109375 -1.390625 -1.109375 -3.703125l0 -0.109375zm3.078125 0.1875q0 1.21875 0.453125 1.921875q0.453125 0.703125 1.28125 0.703125q0.984375 0 1.453125 -0.65625l0 -4.15625q-0.453125 -0.671875 -1.4375 -0.671875q-0.8125 0 -1.28125 0.734375q-0.46875 0.734375 -0.46875 2.125zm13.887241 3.75q-0.984375 1.25 -2.640625 1.25q-1.609375 0 -2.453125 -0.9375q-0.828125 -0.953125 -0.828125 -2.71875l0 -6.390625l3.0625 0l0 6.40625q0 1.265625 1.234375 1.265625q1.0625 0 1.5 -0.75l0 -6.921875l3.09375 0l0 9.859375l-2.875 0l-0.09375 -1.0625zm10.615219 -6.015625l-1.015625 -0.078125q-1.453125 0 -1.859375 0.921875l0 6.234375l-3.0625 0l0 -9.859375l2.875 0l0.09375 1.265625q0.78125 -1.4375 2.15625 -1.4375q0.5 0 0.859375 0.109375l-0.046875 2.84375zm5.6926727 7.265625q-2.265625 0 -3.671875 -1.34375q-1.390625 -1.359375 -1.390625 -3.53125l0 -0.265625q0 -1.5 0.546875 -2.65625q0.5625 -1.15625 1.640625 -1.78125q1.078125 -0.640625 2.546875 -0.640625q2.078125 0 3.28125 1.296875q1.203125 1.28125 1.203125 3.578125l0 1.1875l-6.09375 0q0.15625 0.828125 0.703125 1.3125q0.5625 0.46875 1.453125 0.46875q1.453125 0 2.265625 -1.015625l1.40625 1.65625q-0.5625 0.796875 -1.625 1.265625q-1.046875 0.46875 -2.265625 0.46875zm-0.34375 -7.859375q-1.34375 0 -1.59375 1.78125l3.09375 0l0 -0.234375q0.015625 -0.734375 -0.375 -1.140625q-0.390625 -0.40625 -1.125 -0.40625zm19.584183 7.671875l-9.25 0l0 -2.0l4.265625 -4.484375q1.578125 -1.796875 1.578125 -2.859375q0 -0.84375 -0.375 -1.296875q-0.375 -0.453125 -1.09375 -0.453125q-0.703125 0 -1.140625 0.609375q-0.4375 0.59375 -0.4375 1.484375l-3.078125 0q0 -1.21875 0.609375 -2.25q0.625 -1.03125 1.703125 -1.609375q1.078125 -0.59375 2.421875 -0.59375q2.15625 0 3.3125 1.0q1.15625 0.984375 1.15625 2.84375q0 0.78125 -0.296875 1.53125q-0.28125 0.734375 -0.90625 1.546875q-0.609375 0.8125 -1.96875 2.1875l-1.71875 1.96875l5.21875 0l0 2.375zm3.5069885 -2.984375q0.71875 0 1.203125 0.4375q0.484375 0.4375 0.484375 1.109375q0 0.671875 -0.484375 1.109375q-0.484375 0.421875 -1.203125 0.421875q-0.75 0 -1.234375 -0.4375q-0.46875 -0.4375 -0.46875 -1.09375q0 -0.671875 0.46875 -1.109375q0.484375 -0.4375 1.234375 -0.4375zm0 -7.0q0.71875 0 1.203125 0.4375q0.484375 0.4375 0.484375 1.109375q0 0.671875 -0.484375 1.109375q-0.484375 0.421875 -1.203125 0.421875q-0.75 0 -1.234375 -0.4375q-0.46875 -0.4375 -0.46875 -1.09375q0 -0.671875 0.46875 -1.109375q0.484375 -0.4375 1.234375 -0.4375zm12.998184 5.046875l-1.3125 1.4375l0 3.5l-3.203125 0l0 -13.265625l3.203125 0l0 5.84375l1.109375 -1.671875l2.859375 -4.171875l3.953125 0l-4.484375 5.875l4.484375 7.390625l-3.796875 0l-2.8125 -4.9375zm11.805832 5.125q-2.265625 0 -3.671875 -1.34375q-1.390625 -1.359375 -1.390625 -3.53125l0 -0.265625q0 -1.5 0.546875 -2.65625q0.5625 -1.15625 1.640625 -1.78125q1.078125 -0.640625 2.546875 -0.640625q2.078125 0 3.28125 1.296875q1.203125 1.28125 1.203125 3.578125l0 1.1875l-6.09375 0q0.15625 0.828125 0.703125 1.3125q0.5625 0.46875 1.453125 0.46875q1.453125 0 2.265625 -1.015625l1.40625 1.65625q-0.5625 0.796875 -1.625 1.265625q-1.046875 0.46875 -2.265625 0.46875zm-0.34375 -7.859375q-1.34375 0 -1.59375 1.78125l3.09375 0l0 -0.234375q0.015625 -0.734375 -0.375 -1.140625q-0.390625 -0.40625 -1.125 -0.40625zm9.55423 3.375l1.640625 -5.5625l3.296875 0l-4.015625 11.515625l-0.1875 0.40625q-0.84375 1.921875 -3.015625 1.921875q-0.609375 0 -1.265625 -0.1875l0 -2.1875l0.40625 0q0.640625 0 0.984375 -0.1875q0.34375 -0.1875 0.5 -0.671875l0.25 -0.65625l-3.421875 -9.953125l3.28125 0l1.546875 5.5625zm6.7745514 5.4375l-2.171875 0l4.53125 -14.40625l2.1875 0l-4.546875 14.40625zm9.846603 -14.40625l2.953125 9.234375l2.953125 -9.234375l4.21875 0l0 13.265625l-3.21875 0l0 -3.09375l0.3125 -6.34375l-3.203125 9.4375l-2.109375 0l-3.21875 -9.453125l0.3125 6.359375l0 3.09375l-3.203125 0l0 -13.265625l4.203125 0zm16.773422 13.453125q-2.265625 0 -3.671875 -1.34375q-1.390625 -1.359375 -1.390625 -3.53125l0 -0.265625q0 -1.5 0.546875 -2.65625q0.5625 -1.15625 1.640625 -1.78125q1.078125 -0.640625 2.546875 -0.640625q2.078125 0 3.28125 1.296875q1.203125 1.28125 1.203125 3.578125l0 1.1875l-6.09375 0q0.15625 0.828125 0.703125 1.3125q0.5625 0.46875 1.453125 0.46875q1.453125 0 2.265625 -1.015625l1.40625 1.65625q-0.5625 0.796875 -1.625 1.265625q-1.046875 0.46875 -2.265625 0.46875zm-0.34375 -7.859375q-1.34375 0 -1.59375 1.78125l3.09375 0l0 -0.234375q0.015625 -0.734375 -0.375 -1.140625q-0.390625 -0.40625 -1.125 -0.40625zm10.891464 4.90625q0 -0.390625 -0.40625 -0.625q-0.40625 -0.25 -1.5625 -0.5q-1.140625 -0.25 -1.890625 -0.65625q-0.75 -0.421875 -1.140625 -1.015625q-0.390625 -0.59375 -0.390625 -1.359375q0 -1.359375 1.125 -2.234375q1.125 -0.875 2.9375 -0.875q1.9375 0 3.125 0.890625q1.1875 0.875 1.1875 2.3125l-3.078125 0q0 -1.1875 -1.25 -1.1875q-0.484375 0 -0.8125 0.265625q-0.328125 0.265625 -0.328125 0.671875q0 0.40625 0.40625 0.671875q0.40625 0.25 1.28125 0.421875q0.875 0.15625 1.546875 0.375q2.21875 0.765625 2.21875 2.75q0 1.34375 -1.203125 2.203125q-1.1875 0.84375 -3.09375 0.84375q-1.265625 0 -2.265625 -0.453125q-0.984375 -0.46875 -1.546875 -1.25q-0.5625 -0.78125 -0.5625 -1.640625l2.875 0q0.015625 0.671875 0.453125 1.0q0.4375 0.3125 1.125 0.3125q0.625 0 0.9375 -0.25q0.3125 -0.265625 0.3125 -0.671875zm9.555862 0q0 -0.390625 -0.40625 -0.625q-0.40625 -0.25 -1.5625 -0.5q-1.140625 -0.25 -1.890625 -0.65625q-0.75 -0.421875 -1.140625 -1.015625q-0.390625 -0.59375 -0.390625 -1.359375q0 -1.359375 1.125 -2.234375q1.125 -0.875 2.9375 -0.875q1.9375 0 3.125 0.890625q1.1875 0.875 1.1875 2.3125l-3.078125 0q0 -1.1875 -1.25 -1.1875q-0.484375 0 -0.8125 0.265625q-0.328125 0.265625 -0.328125 0.671875q0 0.40625 0.40625 0.671875q0.40625 0.25 1.28125 0.421875q0.875 0.15625 1.546875 0.375q2.21875 0.765625 2.21875 2.75q0 1.34375 -1.203125 2.203125q-1.1875 0.84375 -3.09375 0.84375q-1.265625 0 -2.265625 -0.453125q-0.984375 -0.46875 -1.546875 -1.25q-0.5625 -0.78125 -0.5625 -1.640625l2.875 0q0.015625 0.671875 0.453125 1.0q0.4375 0.3125 1.125 0.3125q0.625 0 0.9375 -0.25q0.3125 -0.265625 0.3125 -0.671875zm9.946487 2.765625q-0.15625 -0.296875 -0.28125 -0.890625q-0.84375 1.078125 -2.375 1.078125q-1.390625 0 -2.375 -0.84375q-0.96875 -0.84375 -0.96875 -2.125q0 -1.59375 1.1875 -2.40625q1.1875 -0.828125 3.4375 -0.828125l0.953125 0l0 -0.53125q0 -1.34375 -1.171875 -1.34375q-1.09375 0 -1.09375 1.0625l-3.078125 0q0 -1.421875 1.21875 -2.3125q1.21875 -0.890625 3.09375 -0.890625q1.890625 0 2.984375 0.921875q1.09375 0.90625 1.125 2.515625l0 4.359375q0.015625 1.359375 0.421875 2.078125l0 0.15625l-3.078125 0zm-1.921875 -2.0q0.578125 0 0.953125 -0.25q0.390625 -0.25 0.546875 -0.5625l0 -1.5625l-0.890625 0q-1.609375 0 -1.609375 1.4375q0 0.421875 0.28125 0.6875q0.28125 0.25 0.71875 0.25zm5.9176483 -3.0q0 -1.5 0.484375 -2.640625q0.5 -1.15625 1.421875 -1.765625q0.921875 -0.625 2.140625 -0.625q1.53125 0 2.40625 1.03125l0.109375 -0.859375l2.78125 0l0 9.484375q0 1.296875 -0.609375 2.25q-0.59375 0.96875 -1.75 1.484375q-1.140625 0.515625 -2.65625 0.515625q-1.078125 0 -2.09375 -0.40625q-1.015625 -0.40625 -1.5625 -1.0625l1.28125 -1.8125q0.859375 1.015625 2.265625 1.015625q2.046875 0 2.046875 -2.09375l0 -0.3125q-0.890625 0.984375 -2.234375 0.984375q-1.8125 0 -2.921875 -1.375q-1.109375 -1.390625 -1.109375 -3.703125l0 -0.109375zm3.078125 0.1875q0 1.21875 0.453125 1.921875q0.453125 0.703125 1.28125 0.703125q0.984375 0 1.453125 -0.65625l0 -4.15625q-0.453125 -0.671875 -1.4375 -0.671875q-0.8125 0 -1.28125 0.734375q-0.46875 0.734375 -0.46875 2.125zm12.777863 5.0q-2.265625 0 -3.671875 -1.34375q-1.390625 -1.359375 -1.390625 -3.53125l0 -0.265625q0 -1.5 0.546875 -2.65625q0.5625 -1.15625 1.640625 -1.78125q1.078125 -0.640625 2.546875 -0.640625q2.078125 0 3.28125 1.296875q1.203125 1.28125 1.203125 3.578125l0 1.1875l-6.09375 0q0.15625 0.828125 0.703125 1.3125q0.5625 0.46875 1.453125 0.46875q1.453125 0 2.265625 -1.015625l1.40625 1.65625q-0.5625 0.796875 -1.625 1.265625q-1.046875 0.46875 -2.265625 0.46875zm-0.34375 -7.859375q-1.34375 0 -1.59375 1.78125l3.09375 0l0 -0.234375q0.015625 -0.734375 -0.375 -1.140625q-0.390625 -0.40625 -1.125 -0.40625zm18.756058 2.046875l-5.03125 0l0 3.171875l5.9375 0l0 2.453125l-9.140625 0l0 -13.265625l9.15625 0l0 2.46875l-5.953125 0l0 2.796875l5.03125 0l0 2.375zm1.5006866 0.59375q0 -2.34375 1.015625 -3.671875q1.03125 -1.328125 2.828125 -1.328125q1.515625 0 2.421875 1.234375l0.21875 -1.0625l2.65625 0l0 13.65625l-3.078125 0l0 -4.609375q-0.890625 1.0 -2.234375 1.0q-1.75 0 -2.796875 -1.34375q-1.03125 -1.359375 -1.03125 -3.875zm3.078125 0.1875q0 2.65625 1.53125 2.65625q1.046875 0 1.453125 -0.796875l0 -3.90625q-0.375 -0.78125 -1.4375 -0.78125q-1.4375 0 -1.546875 2.28125l0 0.546875zm13.672516 3.78125q-0.984375 1.25 -2.640625 1.25q-1.609375 0 -2.453125 -0.9375q-0.828125 -0.953125 -0.828125 -2.71875l0 -6.390625l3.0625 0l0 6.40625q0 1.265625 1.234375 1.265625q1.0625 0 1.5 -0.75l0 -6.921875l3.09375 0l0 9.859375l-2.875 0l-0.09375 -1.0625zm7.880829 1.0625l-3.078125 0l0 -9.859375l3.078125 0l0 9.859375zm-3.25 -12.390625q0 -0.65625 0.46875 -1.078125q0.46875 -0.421875 1.21875 -0.421875q0.765625 0 1.234375 0.421875q0.484375 0.421875 0.484375 1.078125q0 0.65625 -0.484375 1.078125q-0.46875 0.40625 -1.234375 0.40625q-0.75 0 -1.21875 -0.40625q-0.46875 -0.421875 -0.46875 -1.078125zm9.081787 8.734375l1.546875 -6.203125l3.234375 0l-3.203125 9.859375l-3.140625 0l-3.21875 -9.859375l3.25 0l1.53125 6.203125zm5.173004 -1.359375q0 -1.484375 0.578125 -2.625q0.578125 -1.15625 1.640625 -1.765625q1.078125 -0.625 2.53125 -0.625q2.21875 0 3.484375 1.375q1.28125 1.359375 1.28125 3.71875l0 0.109375q0 2.3125 -1.28125 3.671875q-1.28125 1.34375 -3.46875 1.34375q-2.09375 0 -3.375 -1.265625q-1.28125 -1.265625 -1.375 -3.421875l-0.015625 -0.515625zm3.078125 0.1875q0 1.359375 0.421875 2.0q0.4375 0.640625 1.265625 0.640625q1.640625 0 1.6875 -2.515625l0 -0.3125q0 -2.65625 -1.703125 -2.65625q-1.53125 0 -1.671875 2.28125l0 0.5625zm11.960297 2.640625q0.640625 0 1.0 -0.34375q0.359375 -0.359375 0.34375 -0.984375l2.875 0q0 1.625 -1.15625 2.671875q-1.15625 1.03125 -3.0 1.03125q-2.140625 0 -3.390625 -1.34375q-1.234375 -1.359375 -1.234375 -3.75l0 -0.125q0 -1.484375 0.546875 -2.625q0.5625 -1.15625 1.59375 -1.765625q1.046875 -0.609375 2.46875 -0.609375q1.921875 0 3.046875 1.0625q1.125 1.0625 1.125 2.890625l-2.875 0q0 -0.765625 -0.375 -1.171875q-0.375 -0.421875 -1.0 -0.421875q-1.1875 0 -1.390625 1.515625q-0.0625 0.484375 -0.0625 1.34375q0 1.484375 0.34375 2.0625q0.359375 0.5625 1.140625 0.5625zm11.067505 2.1875q-0.15625 -0.296875 -0.28125 -0.890625q-0.84375 1.078125 -2.375 1.078125q-1.390625 0 -2.375 -0.84375q-0.96875 -0.84375 -0.96875 -2.125q0 -1.59375 1.1875 -2.40625q1.1875 -0.828125 3.4375 -0.828125l0.953125 0l0 -0.53125q0 -1.34375 -1.171875 -1.34375q-1.09375 0 -1.09375 1.0625l-3.078125 0q0 -1.421875 1.21875 -2.3125q1.21875 -0.890625 3.09375 -0.890625q1.890625 0 2.984375 0.921875q1.09375 0.90625 1.125 2.515625l0 4.359375q0.015625 1.359375 0.421875 2.078125l0 0.15625l-3.078125 0zm-1.921875 -2.0q0.578125 0 0.953125 -0.25q0.390625 -0.25 0.546875 -0.5625l0 -1.5625l-0.890625 0q-1.609375 0 -1.609375 1.4375q0 0.421875 0.28125 0.6875q0.28125 0.25 0.71875 0.25zm9.855164 -10.3125l0 2.453125l1.625 0l0 2.140625l-1.625 0l0 4.5q0 0.5625 0.203125 0.78125q0.203125 0.21875 0.78125 0.21875q0.46875 0 0.765625 -0.0625l0 2.203125q-0.828125 0.265625 -1.71875 0.265625q-1.59375 0 -2.359375 -0.75q-0.75 -0.75 -0.75 -2.265625l0 -4.890625l-1.25 0l0 -2.140625l1.25 0l0 -2.453125l3.078125 0zm6.0602417 12.3125l-3.078125 0l0 -9.859375l3.078125 0l0 9.859375zm-3.25 -12.390625q0 -0.65625 0.46875 -1.078125q0.46875 -0.421875 1.21875 -0.421875q0.765625 0 1.234375 0.421875q0.484375 0.421875 0.484375 1.078125q0 0.65625 -0.484375 1.078125q-0.46875 0.40625 -1.234375 0.40625q-0.75 0 -1.21875 -0.40625q-0.46875 -0.421875 -0.46875 -1.078125zm4.753662 7.375q0 -1.484375 0.578125 -2.625q0.578125 -1.15625 1.640625 -1.765625q1.078125 -0.625 2.53125 -0.625q2.21875 0 3.484375 1.375q1.28125 1.359375 1.28125 3.71875l0 0.109375q0 2.3125 -1.28125 3.671875q-1.28125 1.34375 -3.46875 1.34375q-2.09375 0 -3.375 -1.265625q-1.28125 -1.265625 -1.375 -3.421875l-0.015625 -0.515625zm3.078125 0.1875q0 1.359375 0.421875 2.0q0.4375 0.640625 1.265625 0.640625q1.640625 0 1.6875 -2.515625l0 -0.3125q0 -2.65625 -1.703125 -2.65625q-1.53125 0 -1.671875 2.28125l0 0.5625zm10.616547 -5.03125l0.09375 1.15625q1.015625 -1.328125 2.8125 -1.328125q1.546875 0 2.296875 0.921875q0.765625 0.90625 0.796875 2.765625l0 6.34375l-3.078125 0l0 -6.21875q0 -0.75 -0.3125 -1.09375q-0.296875 -0.359375 -1.09375 -0.359375q-0.890625 0 -1.328125 0.71875l0 6.953125l-3.078125 0l0 -9.859375l2.890625 0zm11.948547 4.84375q0 -1.484375 0.578125 -2.625q0.578125 -1.15625 1.640625 -1.765625q1.078125 -0.625 2.53125 -0.625q2.21875 0 3.484375 1.375q1.28125 1.359375 1.28125 3.71875l0 0.109375q0 2.3125 -1.28125 3.671875q-1.28125 1.34375 -3.46875 1.34375q-2.09375 0 -3.375 -1.265625q-1.28125 -1.265625 -1.375 -3.421875l-0.015625 -0.515625zm3.078125 0.1875q0 1.359375 0.421875 2.0q0.4375 0.640625 1.265625 0.640625q1.640625 0 1.6875 -2.515625l0 -0.3125q0 -2.65625 -1.703125 -2.65625q-1.53125 0 -1.671875 2.28125l0 0.5625zm8.475922 4.828125l0 -7.71875l-1.4375 0l0 -2.140625l1.4375 0l0 -0.78125q0 -1.6875 0.984375 -2.609375q1.0 -0.9375 2.78125 -0.9375q0.65625 0 1.453125 0.1875l0 2.265625q-0.28125 -0.078125 -0.75 -0.078125q-1.390625 0 -1.390625 1.203125l0 0.75l1.921875 0l0 2.140625l-1.921875 0l0 7.71875l-3.078125 0zm14.264465 0l-3.1875 0l0 -13.265625l3.1875 0l0 13.265625zm4.910919 -9.859375l0.09375 1.15625q1.015625 -1.328125 2.8125 -1.328125q1.546875 0 2.296875 0.921875q0.765625 0.90625 0.796875 2.765625l0 6.34375l-3.078125 0l0 -6.21875q0 -0.75 -0.3125 -1.09375q-0.296875 -0.359375 -1.09375 -0.359375q-0.890625 0 -1.328125 0.71875l0 6.953125l-3.078125 0l0 -9.859375l2.890625 0zm11.271454 -2.453125l0 2.453125l1.625 0l0 2.140625l-1.625 0l0 4.5q0 0.5625 0.203125 0.78125q0.203125 0.21875 0.78125 0.21875q0.46875 0 0.765625 -0.0625l0 2.203125q-0.828125 0.265625 -1.71875 0.265625q-1.59375 0 -2.359375 -0.75q-0.75 -0.75 -0.75 -2.265625l0 -4.890625l-1.25 0l0 -2.140625l1.25 0l0 -2.453125l3.078125 0zm7.5914917 12.5q-2.265625 0 -3.671875 -1.34375q-1.390625 -1.359375 -1.390625 -3.53125l0 -0.265625q0 -1.5 0.546875 -2.65625q0.5625 -1.15625 1.640625 -1.78125q1.078125 -0.640625 2.546875 -0.640625q2.078125 0 3.28125 1.296875q1.203125 1.28125 1.203125 3.578125l0 1.1875l-6.09375 0q0.15625 0.828125 0.703125 1.3125q0.5625 0.46875 1.453125 0.46875q1.453125 0 2.265625 -1.015625l1.40625 1.65625q-0.5625 0.796875 -1.625 1.265625q-1.046875 0.46875 -2.265625 0.46875zm-0.34375 -7.859375q-1.34375 0 -1.59375 1.78125l3.09375 0l0 -0.234375q0.015625 -0.734375 -0.375 -1.140625q-0.390625 -0.40625 -1.125 -0.40625zm11.7039795 0.59375l-1.015625 -0.078125q-1.453125 0 -1.859375 0.921875l0 6.234375l-3.0625 0l0 -9.859375l2.875 0l0.09375 1.265625q0.78125 -1.4375 2.15625 -1.4375q0.5 0 0.859375 0.109375l-0.046875 2.84375zm5.098938 4.890625q0.640625 0 1.0 -0.34375q0.359375 -0.359375 0.34375 -0.984375l2.875 0q0 1.625 -1.15625 2.671875q-1.15625 1.03125 -3.0 1.03125q-2.140625 0 -3.390625 -1.34375q-1.234375 -1.359375 -1.234375 -3.75l0 -0.125q0 -1.484375 0.546875 -2.625q0.5625 -1.15625 1.59375 -1.765625q1.046875 -0.609375 2.46875 -0.609375q1.921875 0 3.046875 1.0625q1.125 1.0625 1.125 2.890625l-2.875 0q0 -0.765625 -0.375 -1.171875q-0.375 -0.421875 -1.0 -0.421875q-1.1875 0 -1.390625 1.515625q-0.0625 0.484375 -0.0625 1.34375q0 1.484375 0.34375 2.0625q0.359375 0.5625 1.140625 0.5625zm10.286255 2.375q-2.265625 0 -3.671875 -1.34375q-1.390625 -1.359375 -1.390625 -3.53125l0 -0.265625q0 -1.5 0.546875 -2.65625q0.5625 -1.15625 1.640625 -1.78125q1.078125 -0.640625 2.546875 -0.640625q2.078125 0 3.28125 1.296875q1.203125 1.28125 1.203125 3.578125l0 1.1875l-6.09375 0q0.15625 0.828125 0.703125 1.3125q0.5625 0.46875 1.453125 0.46875q1.453125 0 2.265625 -1.015625l1.40625 1.65625q-0.5625 0.796875 -1.625 1.265625q-1.046875 0.46875 -2.265625 0.46875zm-0.34375 -7.859375q-1.34375 0 -1.59375 1.78125l3.09375 0l0 -0.234375q0.015625 -0.734375 -0.375 -1.140625q-0.390625 -0.40625 -1.125 -0.40625zm14.8914795 2.8125q0 2.296875 -1.046875 3.671875q-1.03125 1.375 -2.78125 1.375q-1.359375 0 -2.234375 -1.0l0 4.609375l-3.0625 0l0 -13.65625l2.859375 0l0.09375 0.90625q0.890625 -1.078125 2.328125 -1.078125q1.8125 0 2.828125 1.34375q1.015625 1.34375 1.015625 3.6875l0 0.140625zm-3.078125 -0.1875q0 -2.625 -1.53125 -2.625q-1.09375 0 -1.453125 0.78125l0 3.890625q0.40625 0.8125 1.46875 0.8125q1.46875 0 1.515625 -2.53125l0 -0.328125zm8.003235 -7.265625l0 2.453125l1.625 0l0 2.140625l-1.625 0l0 4.5q0 0.5625 0.203125 0.78125q0.203125 0.21875 0.78125 0.21875q0.46875 0 0.765625 -0.0625l0 2.203125q-0.828125 0.265625 -1.71875 0.265625q-1.59375 0 -2.359375 -0.75q-0.75 -0.75 -0.75 -2.265625l0 -4.890625l-1.25 0l0 -2.140625l1.25 0l0 -2.453125l3.078125 0zm7.5914917 12.5q-2.265625 0 -3.671875 -1.34375q-1.390625 -1.359375 -1.390625 -3.53125l0 -0.265625q0 -1.5 0.546875 -2.65625q0.5625 -1.15625 1.640625 -1.78125q1.078125 -0.640625 2.546875 -0.640625q2.078125 0 3.28125 1.296875q1.203125 1.28125 1.203125 3.578125l0 1.1875l-6.09375 0q0.15625 0.828125 0.703125 1.3125q0.5625 0.46875 1.453125 0.46875q1.453125 0 2.265625 -1.015625l1.40625 1.65625q-0.5625 0.796875 -1.625 1.265625q-1.046875 0.46875 -2.265625 0.46875zm-0.34375 -7.859375q-1.34375 0 -1.59375 1.78125l3.09375 0l0 -0.234375q0.015625 -0.734375 -0.375 -1.140625q-0.390625 -0.40625 -1.125 -0.40625zm5.3446045 2.671875q0 -2.34375 1.015625 -3.6875q1.015625 -1.34375 2.828125 -1.34375q1.3125 0 2.21875 1.03125l0 -5.0l3.078125 0l0 14.0l-2.765625 0l-0.140625 -1.0625q-0.953125 1.25 -2.40625 1.25q-1.765625 0 -2.796875 -1.34375q-1.03125 -1.359375 -1.03125 -3.84375zm3.078125 0.1875q0 2.625 1.53125 2.625q1.015625 0 1.453125 -0.859375l0 -3.75q-0.421875 -0.875 -1.4375 -0.875q-1.421875 0 -1.546875 2.296875l0 0.5625zm23.327484 0.328125q-0.0625 1.375 -0.75 2.4375q-0.6875 1.0625 -1.921875 1.65625q-1.234375 0.578125 -2.8125 0.578125q-2.609375 0 -4.125 -1.703125q-1.5 -1.703125 -1.5 -4.8125l0 -0.65625q0 -1.953125 0.671875 -3.40625q0.6875 -1.46875 1.953125 -2.265625q1.28125 -0.796875 2.96875 -0.796875q2.40625 0 3.875 1.28125q1.46875 1.265625 1.671875 3.484375l-3.1875 0q-0.046875 -1.203125 -0.625 -1.734375q-0.5625 -0.53125 -1.734375 -0.53125q-1.203125 0 -1.765625 0.890625q-0.546875 0.890625 -0.578125 2.859375l0 0.9375q0 2.125 0.53125 3.03125q0.546875 0.90625 1.84375 0.90625q1.09375 0 1.671875 -0.515625q0.59375 -0.515625 0.625 -1.640625l3.1875 0zm4.602539 4.484375l-3.078125 0l0 -9.859375l3.078125 0l0 9.859375zm-3.25 -12.390625q0 -0.65625 0.46875 -1.078125q0.46875 -0.421875 1.21875 -0.421875q0.765625 0 1.234375 0.421875q0.484375 0.421875 0.484375 1.078125q0 0.65625 -0.484375 1.078125q-0.46875 0.40625 -1.234375 0.40625q-0.75 0 -1.21875 -0.40625q-0.46875 -0.421875 -0.46875 -1.078125zm14.300507 7.53125q0 2.296875 -1.046875 3.671875q-1.03125 1.375 -2.78125 1.375q-1.359375 0 -2.234375 -1.0l0 4.609375l-3.0625 0l0 -13.65625l2.859375 0l0.09375 0.90625q0.890625 -1.078125 2.328125 -1.078125q1.8125 0 2.828125 1.34375q1.015625 1.34375 1.015625 3.6875l0 0.140625zm-3.078125 -0.1875q0 -2.625 -1.53125 -2.625q-1.09375 0 -1.453125 0.78125l0 3.890625q0.40625 0.8125 1.46875 0.8125q1.46875 0 1.515625 -2.53125l0 -0.328125zm7.42511 -3.75q0.984375 -1.234375 2.515625 -1.234375q1.625 0 2.453125 0.96875q0.84375 0.953125 0.859375 2.84375l0 6.21875l-3.078125 0l0 -6.15625q0 -0.78125 -0.328125 -1.140625q-0.3125 -0.375 -1.078125 -0.375q-0.953125 0 -1.34375 0.609375l0 7.0625l-3.0625 0l0 -14.0l3.0625 0l0 5.203125zm12.296234 8.984375q-2.265625 0 -3.671875 -1.34375q-1.3906555 -1.359375 -1.3906555 -3.53125l0 -0.265625q0 -1.5 0.5469055 -2.65625q0.5625 -1.15625 1.640625 -1.78125q1.078125 -0.640625 2.546875 -0.640625q2.078125 0 3.28125 1.296875q1.203125 1.28125 1.203125 3.578125l0 1.1875l-6.09375 0q0.15625 0.828125 0.703125 1.3125q0.5625 0.46875 1.453125 0.46875q1.453125 0 2.265625 -1.015625l1.40625 1.65625q-0.5625 0.796875 -1.625 1.265625q-1.046875 0.46875 -2.265625 0.46875zm-0.34375 -7.859375q-1.34375 0 -1.59375 1.78125l3.09375 0l0 -0.234375q0.015625 -0.734375 -0.375 -1.140625q-0.390625 -0.40625 -1.125 -0.40625zm11.7039795 0.59375l-1.015625 -0.078125q-1.453125 0 -1.859375 0.921875l0 6.234375l-3.0625 0l0 -9.859375l2.875 0l0.09375 1.265625q0.78125 -1.4375 2.15625 -1.4375q0.5 0 0.859375 0.109375l-0.046875 2.84375zm5.134094 -5.234375l0 2.453125l1.625 0l0 2.140625l-1.625 0l0 4.5q0 0.5625 0.203125 0.78125q0.203125 0.21875 0.78125 0.21875q0.46875 0 0.765625 -0.0625l0 2.203125q-0.828125 0.265625 -1.71875 0.265625q-1.59375 0 -2.359375 -0.75q-0.75 -0.75 -0.75 -2.265625l0 -4.890625l-1.25 0l0 -2.140625l1.25 0l0 -2.453125l3.078125 0zm7.5914917 12.5q-2.265625 0 -3.671875 -1.34375q-1.390625 -1.359375 -1.390625 -3.53125l0 -0.265625q0 -1.5 0.546875 -2.65625q0.5625 -1.15625 1.640625 -1.78125q1.078125 -0.640625 2.546875 -0.640625q2.078125 0 3.28125 1.296875q1.203125 1.28125 1.203125 3.578125l0 1.1875l-6.09375 0q0.15625 0.828125 0.703125 1.3125q0.5625 0.46875 1.453125 0.46875q1.453125 0 2.265625 -1.015625l1.40625 1.65625q-0.5625 0.796875 -1.625 1.265625q-1.046875 0.46875 -2.265625 0.46875zm-0.34375 -7.859375q-1.34375 0 -1.59375 1.78125l3.09375 0l0 -0.234375q0.015625 -0.734375 -0.375 -1.140625q-0.390625 -0.40625 -1.125 -0.40625zm9.7352295 0.53125l1.421875 -2.71875l3.1875 0l-2.59375 4.796875l2.71875 5.0625l-3.203125 0l-1.546875 -2.921875l-1.515625 2.921875l-3.234375 0l2.734375 -5.0625l-2.578125 -4.796875l3.21875 0l1.390625 2.71875zm9.179504 -5.171875l0 2.453125l1.625 0l0 2.140625l-1.625 0l0 4.5q0 0.5625 0.203125 0.78125q0.203125 0.21875 0.78125 0.21875q0.46875 0 0.765625 -0.0625l0 2.203125q-0.828125 0.265625 -1.71875 0.265625q-1.59375 0 -2.359375 -0.75q-0.75 -0.75 -0.75 -2.265625l0 -4.890625l-1.25 0l0 -2.140625l1.25 0l0 -2.453125l3.078125 0zm10.706055 12.3125l-3.078125 0l0 -9.859375l3.078125 0l0 9.859375zm-3.25 -12.390625q0 -0.65625 0.46875 -1.078125q0.46875 -0.421875 1.21875 -0.421875q0.765625 0 1.234375 0.421875q0.484375 0.421875 0.484375 1.078125q0 0.65625 -0.484375 1.078125q-0.46875 0.40625 -1.234375 0.40625q-0.75 0 -1.21875 -0.40625q-0.46875 -0.421875 -0.46875 -1.078125zm7.972412 2.53125l0.09375 1.15625q1.015625 -1.328125 2.8125 -1.328125q1.546875 0 2.296875 0.921875q0.765625 0.90625 0.796875 2.765625l0 6.34375l-3.078125 0l0 -6.21875q0 -0.75 -0.3125 -1.09375q-0.296875 -0.359375 -1.09375 -0.359375q-0.890625 0 -1.328125 0.71875l0 6.953125l-3.078125 0l0 -9.859375l2.890625 0zm23.214233 5.375q-0.0625 1.375 -0.75 2.4375q-0.6875 1.0625 -1.921875 1.65625q-1.234375 0.578125 -2.8125 0.578125q-2.609375 0 -4.125 -1.703125q-1.5 -1.703125 -1.5 -4.8125l0 -0.65625q0 -1.953125 0.671875 -3.40625q0.6875 -1.46875 1.953125 -2.265625q1.28125 -0.796875 2.96875 -0.796875q2.40625 0 3.875 1.28125q1.46875 1.265625 1.671875 3.484375l-3.1875 0q-0.046875 -1.203125 -0.625 -1.734375q-0.5625 -0.53125 -1.734375 -0.53125q-1.203125 0 -1.765625 0.890625q-0.546875 0.890625 -0.578125 2.859375l0 0.9375q0 2.125 0.53125 3.03125q0.546875 0.90625 1.84375 0.90625q1.09375 0 1.671875 -0.515625q0.59375 -0.515625 0.625 -1.640625l3.1875 0zm4.602539 4.484375l-3.078125 0l0 -9.859375l3.078125 0l0 9.859375zm-3.25 -12.390625q0 -0.65625 0.46875 -1.078125q0.46875 -0.421875 1.21875 -0.421875q0.765625 0 1.234375 0.421875q0.484375 0.421875 0.484375 1.078125q0 0.65625 -0.484375 1.078125q-0.46875 0.40625 -1.234375 0.40625q-0.75 0 -1.21875 -0.40625q-0.46875 -0.421875 -0.46875 -1.078125zm8.722412 0.078125l0 2.453125l1.625 0l0 2.140625l-1.625 0l0 4.5q0 0.5625 0.203125 0.78125q0.203125 0.21875 0.78125 0.21875q0.46875 0 0.765625 -0.0625l0 2.203125q-0.828125 0.265625 -1.71875 0.265625q-1.59375 0 -2.359375 -0.75q-0.75 -0.75 -0.75 -2.265625l0 -4.890625l-1.25 0l0 -2.140625l1.25 0l0 -2.453125l3.078125 0zm6.0602417 12.3125l-3.078125 0l0 -9.859375l3.078125 0l0 9.859375zm-3.25 -12.390625q0 -0.65625 0.46875 -1.078125q0.46875 -0.421875 1.21875 -0.421875q0.765625 0 1.234375 0.421875q0.484375 0.421875 0.484375 1.078125q0 0.65625 -0.484375 1.078125q-0.46875 0.40625 -1.234375 0.40625q-0.75 0 -1.21875 -0.40625q-0.46875 -0.421875 -0.46875 -1.078125zm11.019287 11.328125q-0.984375 1.25 -2.640625 1.25q-1.609375 0 -2.453125 -0.9375q-0.828125 -0.953125 -0.828125 -2.71875l0 -6.390625l3.0625 0l0 6.40625q0 1.265625 1.234375 1.265625q1.0625 0 1.5 -0.75l0 -6.921875l3.09375 0l0 9.859375l-2.875 0l-0.09375 -1.0625zm7.5527344 -8.796875l0.09375 1.15625q1.046875 -1.328125 2.8125 -1.328125q1.875 0 2.53125 1.484375q1.0 -1.484375 2.890625 -1.484375q3.0 0 3.078125 3.625l0 6.40625l-3.078125 0l0 -6.21875q0 -0.765625 -0.25 -1.109375q-0.25 -0.34375 -0.9375 -0.34375q-0.90625 0 -1.34375 0.8125l0 0.125l0 6.734375l-3.078125 0l0 -6.203125q0 -0.78125 -0.25 -1.125q-0.234375 -0.34375 -0.9375 -0.34375q-0.875 0 -1.34375 0.8125l0 6.859375l-3.0625 0l0 -9.859375l2.875 0zm29.183777 3.5q0 1.9375 -0.71875 3.4375q-0.71875 1.484375 -2.046875 2.296875q-1.328125 0.8125 -3.03125 0.8125q-1.6875 0 -3.0 -0.78125q-1.3125 -0.78125 -2.046875 -2.21875q-0.71875 -1.453125 -0.765625 -3.34375l0 -0.734375q0 -1.953125 0.71875 -3.4375q0.71875 -1.5 2.046875 -2.3125q1.34375 -0.8125 3.046875 -0.8125q1.671875 0 3.0 0.8125q1.328125 0.796875 2.046875 2.28125q0.734375 1.484375 0.75 3.390625l0 0.609375zm-3.25 -0.5625q0 -1.96875 -0.671875 -2.984375q-0.65625 -1.03125 -1.875 -1.03125q-2.40625 0 -2.546875 3.609375l-0.015625 0.96875q0 1.953125 0.640625 3.0q0.65625 1.046875 1.9375 1.046875q1.203125 0 1.859375 -1.03125q0.65625 -1.03125 0.671875 -2.953125l0 -0.625zm14.543579 -3.875l-3.984375 0l0 10.796875l-3.203125 0l0 -10.796875l-3.90625 0l0 -2.46875l11.09375 0l0 2.46875zm6.276001 6.109375l-1.734375 0l0 4.6875l-3.203125 0l0 -13.265625l5.21875 0q2.359375 0 3.6875 1.046875q1.328125 1.046875 1.328125 2.96875q0 1.375 -0.5625 2.296875q-0.546875 0.90625 -1.75 1.46875l2.78125 5.34375l0 0.140625l-3.4375 0l-2.328125 -4.6875zm-1.734375 -2.46875l2.015625 0q0.90625 0 1.359375 -0.46875q0.46875 -0.484375 0.46875 -1.328125q0 -0.859375 -0.46875 -1.34375q-0.453125 -0.5 -1.359375 -0.5l-2.015625 0l0 3.640625z" fill-rule="nonzero"/></g></svg>