<?xml version="1.0" encoding="utf-8"?>
<svg viewBox="-1482.792 1205.404 3197.008 2017.23" xmlns="http://www.w3.org/2000/svg">
  <path id="Rounded_Rectangle_1_copy_2" data-name="Rounded Rectangle 1 copy 2" class="cls-2" d="M -1243.22 1210.822 L -1049.769 1210.822 C -1023.628 1209.521 -1004.18 1234.633 -1011.958 1259.618 L -1103.294 1653.068 C -1110.57 1680.825 -1135.085 1700.602 -1163.758 1701.864 L -1357.22 1701.864 C -1383.361 1703.154 -1402.809 1678.053 -1395.028 1653.068 L -1303.695 1259.627 C -1296.416 1231.861 -1271.893 1212.073 -1243.22 1210.822 Z" style="fill: rgb(237, 23, 31); fill-rule: evenodd;"/>
  <path id="Rounded_Rectangle_1_copy" data-name="Rounded Rectangle 1 copy" class="cls-3" d="M -1069.21 1210.822 L -875.739 1210.822 C -849.597 1209.521 -830.149 1234.633 -837.928 1259.618 L -929.263 1653.068 C -936.539 1680.825 -961.054 1700.602 -989.726 1701.864 L -1183.189 1701.864 C -1209.329 1703.154 -1228.778 1678.053 -1220.997 1653.068 L -1129.665 1259.627 C -1122.385 1231.861 -1097.881 1212.084 -1069.21 1210.822 Z" style="fill: rgb(8, 47, 103); fill-rule: evenodd;"/>
  <path id="Rounded_Rectangle_1" data-name="Rounded Rectangle 1" class="cls-4" d="M -858.532 1210.822 L -665.072 1210.822 C -638.931 1209.521 -619.482 1234.633 -627.261 1259.618 L -718.595 1653.068 C -725.874 1680.817 -750.378 1700.602 -779.051 1701.864 L -972.522 1701.864 C -998.661 1703.154 -1018.112 1678.053 -1010.332 1653.068 L -918.998 1259.627 C -911.719 1231.861 -887.205 1212.073 -858.532 1210.822 Z" style="fill: rgb(0, 106, 101); fill-rule: evenodd;"/>
  <path class="cls-5" d="M -834.404 1349.768 C -841.289 1340.139 -854.96 1339.937 -870.732 1339.859 L -878.511 1339.927 C -898.731 1340.168 -906.809 1340.1 -910.14 1339.686 C -910.429 1341.169 -910.959 1343.799 -910.959 1343.799 C -910.959 1343.799 -918.199 1377.497 -918.199 1377.573 L -918.199 1377.573 C -918.199 1377.573 -935.53 1449.276 -936.319 1452.675 C -918.669 1452.454 -911.438 1452.454 -908.396 1452.789 C -907.714 1449.41 -903.584 1429.383 -903.584 1429.383 C -903.584 1429.383 -900.097 1414.682 -899.875 1414.152 C -899.279 1413.305 -898.537 1412.581 -897.691 1412.015 L -896.072 1412.015 C -880.85 1412.015 -863.683 1412.015 -850.213 1402.04 C -840.816 1394.828 -834.346 1384.468 -831.987 1372.874 C -831.179 1369.544 -830.755 1366.136 -830.735 1362.717 C -830.534 1358.114 -831.813 1353.57 -834.404 1349.768 Z M -860.63 1374.955 C -862.123 1382.176 -866.784 1388.357 -873.322 1391.775 C -878.973 1394.037 -885.077 1394.992 -891.153 1394.559 L -895.331 1394.559 L -895.004 1392.863 C -895.004 1392.863 -887.302 1359.223 -887.302 1359.347 L -887.052 1357.624 L -886.974 1356.305 L -883.903 1356.632 L -867.717 1358.029 C -861.228 1360.889 -858.118 1368.322 -860.63 1374.955 Z M -772.58 1387.018 C -784.231 1389.184 -787.36 1389.646 -798.577 1391.257 L -799.425 1391.959 C -799.54 1392.863 -799.665 1393.731 -799.761 1394.607 C -801.65 1391.497 -804.527 1389.128 -807.937 1387.866 L -807.937 1387.866 C -817.912 1386.596 -827.887 1390.235 -834.701 1397.629 C -841.193 1404.273 -845.515 1412.727 -847.103 1421.874 C -849.145 1430.54 -851.466 1446.513 -836.983 1452.182 C -832.901 1453.985 -828.453 1454.793 -824.006 1454.543 C -819.374 1454.042 -815.031 1452.04 -811.642 1448.842 C -811.999 1450.172 -812.337 1451.49 -812.682 1452.819 L -812.019 1453.676 C -801.59 1453.233 -798.365 1453.233 -787.062 1453.32 L -786.042 1452.54 C -784.395 1442.805 -782.836 1433.35 -778.55 1414.699 C -776.461 1405.784 -774.372 1396.946 -772.234 1388.051 Z M -804.498 1420.4 C -805.23 1423.597 -806.04 1426.755 -806.828 1429.933 C -807.492 1431.898 -808.419 1433.764 -809.583 1435.498 C -811.875 1438.144 -815.148 1439.735 -818.652 1439.907 C -822.224 1439.896 -824.882 1436.605 -824.14 1433.11 C -824.044 1429.499 -823.524 1425.907 -822.61 1422.422 C -820.115 1411.687 -817.256 1402.598 -809.822 1402.598 C -805.134 1402.598 -802.65 1406.969 -803.16 1414.394 C -803.546 1416.242 -803.988 1418.206 -804.498 1420.411 Z M -1007.954 1429.065 C -1004.844 1416.25 -1002.493 1403.273 -1000.926 1390.187 L -1000.087 1389.59 C -989.284 1388.051 -986.608 1387.75 -974.929 1385.353 L -974.023 1386.46 L -975.708 1392.998 C -973.783 1391.804 -971.857 1390.631 -969.843 1389.581 C -965.147 1387.347 -960.024 1386.142 -954.826 1386.046 C -949.307 1385.412 -944.012 1388.397 -941.693 1393.442 C -939.516 1398.756 -940.998 1405.294 -943.935 1418.166 L -945.398 1424.743 C -948.479 1439.012 -948.922 1441.679 -950.569 1451.528 L -951.705 1452.386 C -961.082 1452.231 -964.271 1452.231 -975.226 1452.808 L -975.632 1451.972 C -974.668 1447.774 -973.628 1443.673 -972.656 1439.454 L -971.386 1433.736 C -969.594 1426.35 -968.18 1418.888 -967.167 1411.369 C -965.859 1408.172 -968.248 1404.679 -971.704 1404.735 C -974.186 1404.966 -976.594 1405.716 -978.77 1406.949 C -980.04 1411.677 -982.747 1424.964 -984.065 1431.022 C -986.645 1443.769 -986.857 1445.231 -988.071 1451.528 L -988.91 1452.386 C -998.537 1452.231 -1001.839 1452.231 -1012.931 1452.808 L -1013.422 1451.847 C -1011.583 1444.279 -1009.735 1436.634 -1007.972 1429.057 Z M -998.595 1489.002 L -1003.014 1503.858 L -1036.211 1503.858 L -1039.814 1506.987 C -1041.045 1507.892 -1042.442 1508.567 -1043.924 1508.971 C -1047.284 1510.763 -1051.031 1511.735 -1054.844 1511.801 L -1065.435 1511.801 L -1061.247 1497.523 L -1058.039 1497.523 C -1056.171 1497.678 -1054.286 1497.388 -1052.551 1496.686 C -1051.031 1495.424 -1049.817 1493.835 -1048.999 1492.044 L -1042.865 1480.895 L -1018.727 1480.895 L -1022.974 1489.002 L -998.661 1489.002 Z M -1206.189 1411.235 C -1208.357 1425.003 -1216.164 1437.25 -1227.729 1445.039 C -1238.07 1450.594 -1249.69 1453.31 -1261.428 1452.924 C -1271.585 1452.924 -1289.542 1451.268 -1295.838 1440.206 C -1297.918 1436.316 -1298.939 1431.946 -1298.794 1427.535 L -1296.503 1410.493 L -1295.319 1405.284 L -1281.492 1343.865 C -1281.492 1343.865 -1280.828 1340.485 -1280.655 1339.899 C -1270.238 1340.871 -1259.752 1341.015 -1249.315 1340.322 C -1249.352 1340.593 -1249.421 1340.871 -1249.497 1341.141 C -1251.923 1348.342 -1265.453 1402.848 -1265.453 1402.848 C -1265.453 1402.848 -1268.033 1419.138 -1268.033 1419.138 L -1267.877 1421.893 C -1267.667 1429.374 -1261.062 1435.054 -1253.627 1434.15 C -1248.621 1434.247 -1243.76 1432.541 -1239.918 1429.335 C -1233.186 1422.135 -1229.085 1412.871 -1228.268 1403.06 C -1228.268 1403.012 -1215.346 1343.21 -1214.645 1339.899 C -1205.814 1340.63 -1196.947 1340.775 -1188.098 1340.322 C -1188.223 1340.582 -1188.299 1340.851 -1188.347 1341.141 C -1190.708 1348.496 -1204.659 1405.101 -1204.659 1405.101 Z M -1129.722 1418.129 L -1131.215 1424.704 C -1134.209 1439.012 -1134.699 1441.668 -1136.345 1451.528 L -1137.454 1452.386 C -1146.775 1452.231 -1150.105 1452.231 -1161.014 1452.808 L -1161.418 1451.972 C -1160.455 1447.774 -1159.493 1443.673 -1158.53 1439.454 L -1157.192 1433.736 C -1155.17 1424.859 -1153.215 1414.479 -1152.973 1411.369 C -1151.693 1408.172 -1154.071 1404.716 -1157.51 1404.764 C -1159.984 1405.005 -1162.382 1405.764 -1164.556 1406.978 C -1165.866 1411.705 -1168.514 1424.992 -1169.786 1431.05 C -1172.491 1443.806 -1172.674 1445.271 -1173.877 1451.576 L -1174.657 1452.434 C -1184.285 1452.279 -1187.656 1452.279 -1198.729 1452.858 L -1199.219 1451.895 C -1197.38 1444.327 -1195.55 1436.682 -1193.77 1429.113 C -1190.64 1416.308 -1188.291 1403.321 -1186.741 1390.235 L -1185.845 1389.638 C -1175.022 1388.099 -1172.366 1387.79 -1160.724 1385.401 L -1159.762 1386.508 L -1161.563 1393.046 C -1159.559 1391.853 -1157.711 1390.668 -1155.67 1389.629 C -1150.972 1387.395 -1145.851 1386.191 -1140.649 1386.094 C -1135.133 1385.431 -1129.838 1388.425 -1127.556 1393.49 C -1125.35 1398.804 -1126.824 1405.342 -1129.75 1418.214 L -1129.75 1418.214 Z M -1090.515 1413.98 C -1091.556 1418.523 -1092.644 1422.943 -1093.626 1427.381 C -1095.714 1436.846 -1096.562 1440.379 -1097.055 1442.949 C -1097.545 1445.327 -1097.678 1446.637 -1098.478 1451.538 L -1099.007 1451.982 L -1099.499 1452.394 C -1105.142 1452.394 -1108.79 1452.242 -1112.305 1452.394 C -1115.819 1452.55 -1119.247 1452.616 -1124.503 1452.858 L -1124.792 1452.394 L -1125.13 1451.904 C -1124.359 1448.755 -1123.386 1445.675 -1122.241 1442.651 C -1121.134 1439.591 -1120.248 1436.45 -1119.593 1433.273 C -1117.947 1426.071 -1116.945 1421.046 -1116.281 1416.646 C -1115.616 1412.245 -1115.097 1408.761 -1114.519 1404.552 L -1114.114 1404.225 L -1113.672 1403.811 C -1108.068 1403.022 -1104.495 1402.491 -1100.867 1401.884 C -1097.236 1401.28 -1093.491 1400.654 -1087.686 1399.526 L -1087.483 1400.018 L -1087.289 1400.498 C -1088.359 1404.936 -1089.475 1409.395 -1090.536 1413.901 Z M -1089.274 1394.721 C -1095.3 1399.015 -1103.129 1399.854 -1109.926 1396.938 C -1115.173 1393.779 -1114.48 1387.75 -1108.26 1383.534 C -1102.205 1379.211 -1094.328 1378.373 -1087.502 1381.347 C -1082.312 1384.41 -1083.083 1390.37 -1089.274 1394.721 Z M -1030.214 1592.265 L -1057.51 1592.265 C -1059.608 1592.226 -1061.698 1591.936 -1063.731 1591.409 C -1065.569 1591.032 -1067.149 1589.868 -1068.063 1588.231 C -1069.72 1586.556 -1070.295 1584.09 -1069.545 1581.868 L -1061.698 1555.795 L -1075.177 1555.795 L -1070.692 1540.889 L -1057.211 1540.889 L -1053.543 1528.729 L -1067.022 1528.729 L -1062.729 1514.536 L -1003.476 1514.536 L -1007.856 1528.729 L -1031.543 1528.729 L -1035.25 1540.858 L -1011.014 1540.858 L -1015.445 1555.514 L -1039.659 1555.514 L -1045.552 1575.213 C -1046.264 1577.379 -1039.774 1577.669 -1037.445 1577.669 L -1025.332 1575.993 L -1030.146 1592.237 L -1030.146 1592.237 Z M -929.694 1551.903 C -930.147 1554.522 -931.448 1556.928 -933.383 1558.768 C -936.378 1561.571 -940.401 1563.006 -944.502 1562.734 L -956 1563.217 L -956.086 1573.576 C -956.201 1576.465 -955.421 1576.204 -954.959 1576.666 C -954.536 1577.091 -954.015 1577.429 -953.448 1577.631 L -949.8 1577.429 L -938.821 1576.831 L -943.376 1591.956 L -955.99 1591.956 C -961.882 1592.611 -967.851 1591.956 -973.464 1590.031 C -975.38 1588.702 -976.315 1586.352 -975.825 1584.071 L -975.006 1543.633 L -954.891 1543.633 L -955.18 1551.894 L -950.367 1551.894 C -949.173 1551.999 -947.979 1551.798 -946.9 1551.296 C -946.217 1550.778 -945.745 1550.035 -945.562 1549.198 L -943.541 1542.727 L -927.741 1542.727 L -929.666 1551.914 L -929.666 1551.914 Z M -762.163 1525.215 L -785.696 1525.215 L -789.382 1537.029 L -765.735 1537.029 L -769.654 1549.939 L -795.189 1549.939 L -799.741 1555.389 L -789.382 1555.389 L -786.85 1571.66 C -786.802 1572.826 -786.524 1573.97 -786.031 1575.04 C -784.298 1575.705 -782.439 1576.003 -780.581 1575.907 L -777.443 1575.907 L -782.257 1591.735 L -790.211 1591.735 C -791.433 1591.735 -793.262 1591.649 -795.813 1591.542 C -797.854 1591.128 -799.781 1590.291 -801.485 1589.096 C -803.67 1588.018 -805.22 1585.978 -805.664 1583.58 L -808.158 1567.337 L -819.78 1583.339 C -823.534 1589.096 -830.013 1592.477 -836.887 1592.274 L -853.121 1592.274 L -848.855 1578.141 L -842.684 1578.141 C -841.086 1578.063 -839.526 1577.621 -838.131 1576.831 C -836.695 1576.263 -835.492 1575.252 -834.701 1573.942 L -817.747 1549.95 L -840.094 1549.95 L -836.244 1537.038 L -810.661 1537.038 L -807.061 1525.195 L -832.286 1525.195 L -827.991 1510.627 L -757.707 1510.627 L -762.087 1525.195 Z M -747.317 1480.307 L -748.279 1481.416 L -748.145 1481.416 L -757.214 1497.052 C -760.468 1503.156 -766.967 1506.815 -773.881 1506.429 L -788.324 1506.168 L -784.106 1492.103 L -781.265 1492.103 C -780.129 1492.188 -778.983 1492.025 -777.924 1491.621 C -777.135 1491.275 -776.481 1490.677 -776.076 1489.926 L -770.964 1481.799 L -771.012 1481.694 C -763.761 1470.718 -761.97 1465.982 -754.432 1453.483 C -755.77 1439.482 -756.357 1434.978 -757.494 1425.783 C -758.158 1420.304 -759.025 1414.719 -759.668 1409.164 C -760.178 1403.494 -760.998 1397.851 -762.135 1392.277 L -762.201 1392.122 C -762.173 1391.708 -762.105 1391.294 -762.018 1390.891 L -761.153 1390.101 C -749.993 1388.666 -749.704 1388.29 -737.631 1385.93 L -736.668 1386.952 L -735.049 1418.186 C -735.049 1418.888 -735.049 1419.294 -734.984 1419.949 C -728.561 1405.507 -728.801 1409.481 -720.906 1391.197 L -720.906 1391.37 C -720.858 1391.197 -720.82 1390.995 -720.79 1390.88 L -720.01 1390.091 C -709.418 1388.657 -707.32 1388.28 -695.785 1385.922 L -694.881 1386.962 C -694.881 1386.962 -741.318 1467.05 -747.423 1480.259 L -747.423 1480.259 Z M -859.323 1592.101 L -859.323 1592.101 L -859.323 1592.101 Z M -793.301 1492.044 C -796.034 1492.044 -797.307 1491.343 -797.153 1489.858 L -797.431 1481.078 L -820.924 1481.078 L -820.924 1481.078 C -832.575 1481.098 -844.215 1481.734 -855.798 1483.004 C -859.881 1484.284 -863.731 1486.2 -867.218 1488.675 L -864.907 1480.906 L -886.84 1480.906 L -891.423 1496.309 L -914.387 1572.826 L -918.843 1572.826 L -923.206 1587.268 L -879.435 1587.268 L -880.898 1592.082 L -859.332 1592.082 L -857.897 1587.316 L -851.85 1587.316 L -847.114 1571.748 L -853.275 1571.748 L -830.619 1496.377 L -823.1 1496.377 L -820.721 1488.607 L -820.482 1497.273 C -820.769 1502.616 -816.63 1507.345 -805.616 1506.565 L -792.924 1506.565 L -788.564 1492.044 L -793.378 1492.044 Z M -874.506 1571.958 L -892.018 1571.958 L -886.974 1555.012 L -869.508 1555.012 Z M -864.723 1539.223 C -864.723 1539.223 -870.212 1539.906 -873.812 1540.725 C -877.306 1542.015 -880.725 1543.517 -884.038 1545.23 L -878.029 1525.185 L -860.486 1525.185 Z M -856.058 1510.435 C -859.091 1510.618 -862.095 1511.041 -865.061 1511.715 C -868.488 1512.832 -871.849 1514.151 -875.132 1515.661 L -869.306 1496.405 L -851.831 1496.405 Z M -806.839 1429.941 C -805.712 1426.755 -804.768 1423.51 -804.017 1420.226 C -803.583 1418.322 -803.304 1416.395 -803.169 1414.45 C -803.566 1416.298 -804.008 1418.302 -804.509 1420.459 C -805.24 1423.606 -806.04 1426.755 -806.819 1429.933 Z M -1018.044 1394.721 C -1023.85 1388.694 -1032.101 1385.652 -1040.43 1386.46 C -1050.693 1386.066 -1060.734 1389.561 -1068.543 1396.243 C -1075.052 1402.935 -1079.395 1411.437 -1081.013 1420.64 L -1081.013 1420.64 C -1083.035 1429.49 -1085.345 1445.405 -1070.788 1451.326 C -1065.925 1453.061 -1060.794 1453.906 -1055.632 1453.8 C -1044.475 1454.292 -1033.623 1450.036 -1025.785 1442.082 C -1020.712 1435.614 -1017.205 1428.065 -1015.541 1420.025 C -1012.287 1405.555 -1014.827 1398.804 -1018.044 1394.721 Z M -1040.064 1418.957 C -1041.008 1424.338 -1042.856 1429.527 -1045.512 1434.304 C -1046.957 1436.884 -1049.566 1438.588 -1052.514 1438.876 L -1052.514 1438.876 C -1056.142 1438.887 -1058.83 1435.498 -1058.002 1431.964 C -1057.924 1428.354 -1057.424 1424.763 -1056.508 1421.276 C -1054.044 1410.349 -1051.155 1401.164 -1043.732 1401.164 C -1037.878 1401.144 -1037.453 1407.97 -1040.064 1418.957 Z M -944.522 1481.163 C -949.549 1481.878 -954.516 1482.955 -959.389 1484.39 C -963.347 1486.363 -967.071 1488.76 -970.51 1491.545 L -967.485 1481.059 L -988.186 1481.059 L -1017.14 1577.659 C -1017.947 1580.307 -1018.574 1583.021 -1019.008 1585.766 C -1018.419 1587.769 -1017.109 1589.482 -1015.338 1590.581 C -1013.248 1591.611 -1010.918 1592.063 -1008.599 1591.899 C -1006.017 1592.101 -1002.332 1592.226 -997.257 1592.226 L -981.332 1592.226 L -981.332 1592.226 L -976.44 1575.646 L -990.69 1576.995 C -991.894 1577.023 -993.04 1576.455 -993.763 1575.493 C -994.157 1573.713 -993.896 1571.844 -993.048 1570.235 L -983.98 1540.031 L -951.676 1540.031 C -946.969 1539.945 -943.578 1539.897 -941.364 1539.742 C -938.629 1539.376 -935.992 1538.48 -933.603 1537.114 C -931.283 1535.91 -929.328 1534.1 -927.962 1531.886 C -925.458 1527.957 -923.582 1523.672 -922.386 1519.176 L -910.968 1480.943 Z M -946.39 1526.416 C -947.883 1526.292 -949.386 1526.311 -950.877 1526.485 L -980.243 1526.485 L -978.155 1519.619 L -944.232 1519.619 Z M -939.651 1505.022 L -939.651 1505.022 C -939.651 1505.022 -955.767 1504.87 -958.349 1505.351 C -964.943 1506.421 -971.144 1509.201 -976.335 1513.429 L -971.375 1496.849 L -937.166 1496.849 Z" style="fill: rgb(255, 255, 255); fill-rule: evenodd;"/>
  <path d="M -399.153 1205.404 C -443.532 1205.404 -479.437 1241.006 -479.437 1284.959 L -479.437 1622.372 C -479.437 1666.29 -443.532 1701.912 -399.153 1701.912 L -58.53 1701.912 C -14.186 1701.912 21.733 1666.292 21.733 1622.372 L 21.733 1618.92 C 20.24 1618.303 -108.516 1565.098 -173.959 1533.922 C -218.111 1587.751 -275.059 1620.408 -334.187 1620.408 C -434.171 1620.408 -468.125 1533.716 -420.783 1476.649 C -410.459 1464.209 -392.901 1452.325 -365.646 1445.672 C -323.012 1435.296 -255.163 1452.152 -191.568 1472.943 C -180.131 1452.065 -170.507 1429.072 -163.339 1404.594 L -359.312 1404.594 L -359.312 1384.93 L -258.261 1384.93 L -258.261 1349.673 L -380.652 1349.673 L -380.652 1329.992 L -258.261 1329.992 L -258.261 1279.697 C -258.261 1279.697 -258.261 1271.226 -249.594 1271.226 L -200.195 1271.226 L -200.195 1329.992 L -79.2 1329.992 L -79.2 1349.673 L -200.195 1349.673 L -200.195 1384.93 L -101.432 1384.93 C -110.883 1423.287 -125.233 1458.594 -143.245 1489.589 C -113.271 1500.329 -86.364 1510.518 -66.311 1517.172 C 0.573 1539.343 19.318 1542.053 21.739 1542.336 L 21.739 1284.96 C 21.739 1241.008 -14.183 1205.406 -58.525 1205.406 L -399.148 1205.406 Z M -344.195 1474.414 C -348.486 1474.464 -352.799 1474.695 -357.142 1475.119 C -369.661 1476.366 -393.167 1481.842 -406.02 1493.102 C -444.539 1526.382 -421.485 1587.227 -343.523 1587.227 C -298.201 1587.227 -252.92 1558.522 -217.348 1512.559 C -263.207 1490.389 -302.708 1473.938 -344.195 1474.414 Z" fill="#00a1e9" style=""/>
  <path d="M 918.923 1550.563 L 896.551 1598.83 L 873.847 1550.563 L 851.666 1550.563 L 886.209 1617.298 L 886.209 1663.85 L 906.557 1663.85 L 906.557 1617.298 L 906.68 1617.038 L 941.083 1550.563 Z M 755.125 1579.765 L 770.906 1626.749 L 738.786 1626.749 Z M 775.753 1641.027 L 783.355 1663.843 L 804.679 1663.843 L 762.691 1550.555 L 746.388 1550.555 L 704.538 1663.843 L 725.883 1663.843 L 733.816 1641.027 Z M 616.598 1604.719 L 593.947 1604.719 L 593.947 1565.963 L 616.598 1565.963 C 627.985 1565.963 634.784 1575.856 634.784 1585.419 C 634.784 1594.775 628.42 1604.717 616.598 1604.717 M 617.748 1550.56 L 573.439 1550.56 L 573.439 1663.848 L 593.945 1663.848 L 593.945 1620.294 L 617.748 1620.294 C 639.856 1620.294 655.306 1605.948 655.306 1585.419 C 655.306 1564.888 639.858 1550.562 617.748 1550.562 M 469.775 1663.85 L 490.3 1663.85 L 490.3 1550.562 L 469.775 1550.562 Z M 325.517 1550.563 L 325.517 1663.852 L 394.551 1663.852 L 394.551 1648.415 L 346.023 1648.415 L 346.023 1550.563 Z M 208.693 1579.765 L 224.458 1626.749 L 192.357 1626.749 Z M 229.322 1641.027 L 236.925 1663.843 L 258.233 1663.843 L 216.244 1550.555 L 199.957 1550.555 L 158.108 1663.843 L 179.433 1663.843 L 187.368 1641.027 Z M 373.691 1329.101 L 285.72 1329.101 L 285.72 1297.778 L 387.729 1297.778 L 387.729 1278.269 L 285.72 1278.269 L 285.72 1238.579 L 240.246 1238.579 C 235.258 1238.579 231.231 1242.736 231.231 1247.845 L 231.231 1278.269 L 129.937 1278.269 L 129.937 1297.778 L 231.231 1297.778 L 231.231 1329.101 L 145.735 1329.101 L 145.735 1348.591 L 316.023 1348.591 C 316.023 1348.591 306.588 1385.198 259.875 1424.542 C 218.026 1393.063 204.041 1367.994 204.041 1367.994 L 158.355 1367.994 C 176.838 1399.822 203.1 1425.305 231.382 1445.524 C 205.401 1462.294 171.711 1478.458 128.155 1491.4 L 128.155 1514.753 C 128.155 1514.753 195.357 1502.157 260.31 1464.13 C 325.369 1501.864 390.706 1514.753 390.706 1514.753 L 390.706 1492.648 C 348.892 1477.524 315.761 1460.89 289.746 1444.847 C 327.427 1417.111 360.454 1379.463 373.687 1329.101 M 659.447 1242.485 L 613.657 1242.485 L 613.657 1290.026 L 500.787 1290.026 L 500.787 1309.169 L 613.657 1309.169 L 613.657 1480.085 C 613.256 1484.001 610.155 1487.049 606.263 1487.259 L 582.986 1487.259 L 582.986 1507.06 L 642.342 1507.06 C 651.741 1506.68 659.238 1498.935 659.449 1489.338 L 659.449 1309.169 L 678.035 1309.169 L 678.035 1290.026 L 659.449 1290.026 Z M 562.879 1341.42 C 561.206 1338.023 557.787 1335.685 553.812 1335.651 L 515.66 1335.651 L 545.391 1428.649 L 590.519 1428.649 Z M 450.183 1240.234 L 397.663 1363.675 L 437.959 1363.675 L 437.959 1510.554 L 482.023 1510.554 L 482.023 1315.724 L 466.051 1315.724 L 499.234 1240.238 Z M 961.144 1503.818 L 945.051 1449.798 C 943.969 1446.35 940.831 1443.856 937.099 1443.856 L 894.43 1443.856 L 906.811 1485.349 L 856.644 1485.349 L 856.644 1404.964 L 955.146 1404.964 L 955.146 1385.836 L 856.644 1385.836 L 856.644 1347.998 L 955.146 1347.998 L 955.146 1328.87 L 709.339 1328.87 L 709.339 1347.998 L 807.824 1347.998 L 807.824 1385.836 L 709.339 1385.836 L 709.339 1404.964 L 807.824 1404.964 L 807.824 1485.349 L 709.339 1485.349 L 709.339 1504.477 L 961.154 1504.477 L 960.944 1503.819 Z M 760.553 1283.233 L 904.009 1283.233 L 904.009 1311.454 L 955.257 1311.454 L 955.257 1278.019 C 955.241 1277.948 955.241 1277.914 955.241 1277.828 C 955.241 1270.308 949.313 1264.228 941.971 1264.105 L 859.039 1264.105 L 859.039 1237.788 L 805.421 1237.788 L 805.421 1264.105 L 709.323 1264.105 L 709.323 1311.454 L 760.553 1311.454 Z" fill="#3f3b3a" style=""/>
  <path fill="#253B80" d="M 637.973 2365.77 L 550.366 2365.77 C 544.374 2365.766 539.271 2370.125 538.337 2376.044 L 502.904 2600.69 C 502.213 2605.124 505.643 2609.127 510.13 2609.12 L 551.954 2609.12 C 557.951 2609.124 563.055 2604.757 563.984 2598.833 L 573.54 2538.243 C 574.466 2532.323 579.564 2527.961 585.555 2527.958 L 613.288 2527.958 C 670.996 2527.958 704.303 2500.03 713.001 2444.692 C 716.92 2420.481 713.167 2401.459 701.83 2388.136 C 689.38 2373.507 667.295 2365.77 637.973 2365.77 Z M 648.08 2447.82 C 643.29 2479.254 619.271 2479.254 596.046 2479.254 L 582.825 2479.254 L 592.102 2420.545 C 592.661 2416.997 595.72 2414.385 599.312 2414.385 L 605.372 2414.385 C 621.193 2414.385 636.116 2414.385 643.827 2423.403 C 648.427 2428.781 649.835 2436.775 648.08 2447.82 Z M 899.846 2446.806 L 857.893 2446.806 C 854.301 2446.806 851.242 2449.418 850.682 2452.967 L 848.824 2464.703 L 845.891 2460.448 C 836.809 2447.266 816.558 2442.86 796.342 2442.86 C 749.983 2442.86 710.388 2477.971 702.676 2527.226 C 698.666 2551.797 704.367 2575.288 718.305 2591.672 C 731.088 2606.738 749.381 2613.013 771.145 2613.013 C 808.498 2613.013 829.212 2588.997 829.212 2588.997 L 827.343 2600.652 C 826.632 2605.085 830.053 2609.102 834.542 2609.108 L 872.33 2609.108 C 878.327 2609.11 883.432 2604.746 884.359 2598.821 L 907.034 2455.233 C 907.742 2450.813 904.325 2446.805 899.846 2446.806 Z M 841.369 2528.457 C 837.321 2552.424 818.299 2568.513 794.037 2568.513 C 781.854 2568.513 772.119 2564.605 765.867 2557.202 C 759.667 2549.85 757.311 2539.383 759.284 2527.726 C 763.061 2503.965 782.405 2487.349 806.294 2487.349 C 818.208 2487.349 827.893 2491.306 834.272 2498.775 C 840.665 2506.321 843.2 2516.851 841.369 2528.457 Z M 1123.277 2446.806 L 1081.12 2446.806 C 1077.085 2446.814 1073.31 2448.811 1071.038 2452.147 L 1012.893 2537.794 L 988.248 2455.492 C 986.694 2450.336 981.949 2446.809 976.566 2446.806 L 935.137 2446.806 C 930.123 2446.791 926.59 2451.719 928.206 2456.464 L 974.643 2592.735 L 930.987 2654.365 C 927.732 2658.949 930.66 2665.337 936.256 2665.863 C 936.485 2665.883 936.714 2665.893 936.944 2665.893 L 979.05 2665.893 C 983.039 2665.898 986.779 2663.947 989.054 2660.667 L 1129.273 2458.271 C 1132.477 2453.653 1129.481 2447.297 1123.88 2446.829 C 1123.678 2446.815 1123.478 2446.807 1123.277 2446.806 Z" style=""/>
  <path fill="#179BD7" d="M 1262.854 2365.77 L 1175.233 2365.77 C 1169.246 2365.772 1164.15 2370.13 1163.218 2376.044 L 1127.786 2600.69 C 1127.085 2605.116 1130.506 2609.12 1134.985 2609.12 L 1179.948 2609.12 C 1184.138 2609.114 1187.702 2606.06 1188.352 2601.921 L 1198.406 2538.243 C 1199.334 2532.323 1204.432 2527.961 1210.423 2527.958 L 1238.143 2527.958 C 1295.865 2527.958 1329.157 2500.03 1337.869 2444.692 C 1341.801 2420.481 1338.023 2401.459 1326.685 2388.136 C 1314.247 2373.507 1292.176 2365.77 1262.854 2365.77 Z M 1272.961 2447.82 C 1268.182 2479.254 1244.165 2479.254 1220.926 2479.254 L 1207.72 2479.254 L 1217.008 2420.545 C 1217.557 2416.997 1220.615 2414.379 1224.206 2414.385 L 1230.265 2414.385 C 1246.073 2414.385 1261.009 2414.385 1268.721 2423.403 C 1273.32 2428.781 1274.715 2436.775 1272.961 2447.82 Z M 1524.715 2446.806 L 1482.787 2446.806 C 1479.194 2446.794 1476.132 2449.414 1475.589 2452.967 L 1473.732 2464.703 L 1470.785 2460.448 C 1461.703 2447.266 1441.463 2442.86 1421.249 2442.86 C 1374.89 2442.86 1335.306 2477.971 1327.598 2527.226 C 1323.599 2551.797 1329.273 2575.288 1343.21 2591.672 C 1356.019 2606.738 1374.287 2613.013 1396.051 2613.013 C 1433.406 2613.013 1454.119 2588.997 1454.119 2588.997 L 1452.249 2600.652 C 1451.538 2605.095 1454.976 2609.116 1459.474 2609.108 L 1497.251 2609.108 C 1503.241 2609.104 1508.338 2604.741 1509.265 2598.821 L 1531.952 2455.233 C 1532.635 2450.8 1529.201 2446.8 1524.715 2446.806 Z M 1466.238 2528.457 C 1462.215 2552.424 1443.168 2568.513 1418.905 2568.513 C 1406.748 2568.513 1396.985 2564.605 1390.734 2557.202 C 1384.535 2549.85 1382.205 2539.383 1384.152 2527.726 C 1387.955 2503.965 1407.271 2487.349 1431.163 2487.349 C 1443.077 2487.349 1452.761 2491.306 1459.14 2498.775 C 1465.558 2506.321 1468.094 2516.851 1466.238 2528.457 Z M 1574.174 2371.931 L 1538.216 2600.69 C 1537.516 2605.116 1540.934 2609.12 1545.415 2609.12 L 1581.566 2609.12 C 1587.572 2609.12 1592.67 2604.764 1593.594 2598.833 L 1629.051 2374.199 C 1629.752 2369.773 1626.334 2365.766 1621.851 2365.757 L 1581.372 2365.757 C 1577.783 2365.769 1574.733 2368.386 1574.174 2371.931 Z" style=""/>
  <path fill="#253B80" d="M 139.089 2652.776 L 145.791 2610.222 L 130.867 2609.876 L 59.605 2609.876 L 109.128 2295.867 C 109.434 2293.884 111.143 2292.423 113.15 2292.434 L 233.308 2292.434 C 273.198 2292.434 300.726 2300.734 315.098 2317.119 C 321.838 2324.805 326.128 2332.836 328.203 2341.675 C 330.38 2350.95 330.42 2362.03 328.293 2375.543 L 328.14 2376.529 L 328.14 2385.191 L 334.877 2389.009 C 340.023 2391.613 344.645 2395.138 348.52 2399.41 C 354.285 2405.981 358.012 2414.333 359.588 2424.236 C 361.214 2434.42 360.677 2446.537 358.012 2460.257 C 354.937 2476.038 349.967 2489.783 343.255 2501.029 C 337.332 2511.107 329.369 2519.833 319.877 2526.649 C 310.962 2532.978 300.368 2537.781 288.391 2540.856 C 276.785 2543.879 263.553 2545.403 249.038 2545.403 L 239.686 2545.403 C 233 2545.403 226.504 2547.811 221.408 2552.129 C 216.316 2556.491 212.94 2562.519 211.877 2569.14 L 211.174 2572.971 L 199.337 2647.974 L 198.797 2650.727 C 198.658 2651.6 198.415 2652.034 198.055 2652.329 C 197.708 2652.614 197.274 2652.771 196.826 2652.776 L 139.089 2652.776 Z" style=""/>
  <path fill="#179BD7" d="M 341.256 2377.529 C 340.898 2379.823 340.489 2382.167 340.027 2384.574 C 324.181 2465.93 269.969 2494.036 200.731 2494.036 L 165.48 2494.036 C 157.011 2494.036 149.876 2500.183 148.558 2508.536 L 130.508 2623.006 L 125.397 2655.453 C 124.532 2660.927 128.759 2665.879 134.3 2665.881 L 196.826 2665.881 C 204.23 2665.881 210.52 2660.501 211.684 2653.2 L 212.3 2650.023 L 224.072 2575.315 L 224.828 2571.217 C 225.98 2563.888 232.283 2558.508 239.686 2558.508 L 249.038 2558.508 C 309.617 2558.508 357.039 2533.913 370.899 2462.741 C 376.69 2433.009 373.69 2408.184 358.371 2390.724 C 353.515 2385.321 347.716 2380.853 341.256 2377.529 Z" style=""/>
  <path fill="#222D65" d="M 324.681 2370.919 C 319.621 2369.456 314.473 2368.314 309.27 2367.498 C 298.989 2365.919 288.598 2365.162 278.194 2365.232 L 184.016 2365.232 C 176.609 2365.226 170.307 2370.621 169.168 2377.94 L 149.135 2504.833 L 148.558 2508.536 C 149.848 2500.19 157.033 2494.031 165.48 2494.036 L 200.731 2494.036 C 269.969 2494.036 324.181 2465.919 340.027 2384.574 C 340.501 2382.167 340.898 2379.823 341.256 2377.529 C 337.075 2375.336 332.719 2373.5 328.23 2372.034 C 327.053 2371.644 325.87 2371.272 324.681 2370.919 Z" style=""/>
  <path fill="#253B80" d="M 169.168 2377.94 C 170.296 2370.619 176.606 2365.222 184.016 2365.244 L 278.194 2365.244 C 289.351 2365.244 299.765 2365.974 309.27 2367.512 C 315.703 2368.524 322.046 2370.035 328.243 2372.034 C 332.919 2373.584 337.259 2375.416 341.272 2377.529 C 345.984 2347.465 341.233 2326.995 324.976 2308.459 C 307.055 2288.053 274.71 2279.316 233.321 2279.316 L 113.163 2279.316 C 104.709 2279.316 97.495 2285.464 96.19 2293.828 L 46.143 2611.068 C 45.152 2617.329 49.986 2622.999 56.327 2623.006 L 130.508 2623.006 L 149.135 2504.833 L 169.168 2377.94 Z" style=""/>
  <path d="M 1640.499 1622.309 C 1676.904 1595.914 1700.17 1556.906 1700.17 1513.526 C 1700.17 1434.075 1622.846 1369.65 1527.487 1369.65 C 1432.128 1369.65 1354.803 1434.075 1354.803 1513.526 C 1354.803 1592.999 1432.128 1657.424 1527.487 1657.424 C 1547.193 1657.424 1566.209 1654.629 1583.862 1649.542 L 1588.926 1648.777 C 1592.246 1648.777 1595.256 1649.803 1598.099 1651.429 L 1635.913 1673.262 L 1639.233 1674.337 C 1642.41 1674.337 1644.99 1671.757 1644.99 1668.58 L 1644.058 1664.376 L 1636.271 1635.352 L 1635.673 1631.674 C 1635.673 1627.803 1637.584 1624.388 1640.499 1622.309 Z M 1334.092 1210.774 C 1219.647 1210.774 1126.868 1288.075 1126.868 1383.458 C 1126.868 1435.484 1154.768 1482.329 1198.46 1513.979 C 1201.971 1516.463 1204.264 1520.573 1204.264 1525.231 L 1203.547 1529.626 L 1194.207 1564.454 L 1193.084 1569.494 C 1193.084 1573.316 1196.19 1576.421 1199.987 1576.421 L 1204 1575.132 L 1249.363 1548.927 C 1252.755 1546.968 1256.362 1545.75 1260.352 1545.75 L 1266.444 1546.658 C 1287.608 1552.749 1310.444 1556.141 1334.092 1556.141 L 1345.463 1555.854 C 1340.972 1542.381 1338.512 1528.192 1338.512 1513.55 C 1338.512 1426.574 1423.121 1356.058 1527.487 1356.058 L 1538.738 1356.345 C 1523.139 1273.862 1437.454 1210.774 1334.092 1210.774 Z M 1469.918 1490.521 C 1457.209 1490.521 1446.914 1480.202 1446.914 1467.495 C 1446.914 1454.762 1457.209 1444.466 1469.918 1444.466 C 1482.65 1444.466 1492.946 1454.762 1492.946 1467.495 C 1492.946 1480.202 1482.65 1490.521 1469.918 1490.521 Z M 1585.056 1490.521 C 1572.324 1490.521 1562.028 1480.202 1562.028 1467.495 C 1562.028 1454.762 1572.324 1444.466 1585.056 1444.466 C 1597.764 1444.466 1608.059 1454.762 1608.059 1467.495 C 1608.059 1480.202 1597.764 1490.521 1585.056 1490.521 Z M 1265.01 1355.82 C 1249.745 1355.82 1237.396 1343.446 1237.396 1328.206 C 1237.396 1312.942 1249.745 1300.568 1265.01 1300.568 C 1280.274 1300.568 1292.648 1312.942 1292.648 1328.206 C 1292.648 1343.446 1280.274 1355.82 1265.01 1355.82 Z M 1403.152 1355.82 C 1387.888 1355.82 1375.538 1343.446 1375.538 1328.206 C 1375.538 1312.942 1387.888 1300.568 1403.152 1300.568 C 1418.416 1300.568 1430.79 1312.942 1430.79 1328.206 C 1430.79 1343.446 1418.416 1355.82 1403.152 1355.82 Z" style="fill: rgb(127, 180, 117);"/>
  <path class="cls-2" d="M -1192.596 1835.131 L -1273.544 2062.278 L -1282.238 2016.127 C -1302.847 1957.721 -1343.403 1908.462 -1396.761 1877.019 L -1322.749 2167.929 L -1235.22 2167.929 L -1105.01 1835.131 L -1192.596 1835.131 Z M -1123.241 2168.047 L -1071.519 1834.859 L -988.742 1834.859 L -1040.521 2168.047 L -1123.252 2168.047 Z M -740.528 1843.019 C -764.101 1833.609 -789.267 1828.842 -814.647 1828.98 C -896.487 1828.98 -953.993 1874.193 -954.49 1938.871 C -955.012 1986.898 -913.364 2013.549 -882.045 2029.546 C -849.812 2045.877 -839.006 2056.327 -839.136 2070.91 C -839.423 2093.155 -864.943 2103.297 -888.708 2103.297 C -915.677 2104.169 -942.423 2098.158 -966.427 2085.828 L -977.174 2080.626 L -988.742 2155.15 C -959.487 2167.084 -928.165 2173.138 -896.57 2172.964 C -809.719 2172.964 -753.259 2128.215 -752.583 2059.071 C -752.225 2021.066 -774.329 1992.291 -822.118 1968.503 C -850.93 1953.064 -868.827 1942.862 -868.542 1927.209 C -868.542 1913.361 -853.566 1898.599 -821.038 1898.599 C -799.694 1898.009 -778.508 1902.391 -759.15 1911.402 L -751.786 1915.25 L -740.528 1843.019 L -740.528 1843.019 Z M -528.49 1835.12 L -592.324 1835.12 C -611.503 1832.968 -629.582 1844.488 -635.733 1862.782 L -758.52 2167.999 L -671.586 2167.999 C -671.586 2167.999 -657.335 2126.979 -654.213 2117.941 C -644.712 2117.941 -560.39 2118.107 -548.347 2118.107 C -545.782 2129.792 -538.241 2167.988 -538.241 2167.988 L -461.437 2167.988 L -528.455 1835.06 L -528.455 1835.06 Z M -630.461 2049.844 C -623.536 2030.746 -597.468 1956.734 -597.468 1956.734 C -597.99 1957.625 -590.745 1937.411 -586.459 1924.928 L -580.936 1953.727 C -580.936 1953.727 -565.045 2033.216 -561.78 2049.83 L -630.424 2049.83 Z" style="fill: rgb(26, 31, 113); fill-rule: evenodd;"/>
  <path id="Shape_12_copy" data-name="Shape 12 copy" class="cls-3" d="M -1348.591 1829.444 L -1482.033 1829.444 L -1482.792 1835.168 C -1379.101 1862.696 -1310.694 1930.571 -1282.251 2010.617 L -1311.181 1857.567 C -1316.145 1836.38 -1330.683 1830.217 -1348.591 1829.444 Z" style="fill: rgb(242, 174, 20); fill-rule: evenodd;"/>
  <path id="Shape_3_copy" data-name="Shape 3 copy" class="cls-2" d="M 368.786 1986.572 C 368.786 2162.898 177.908 2273.102 25.206 2184.939 C -127.495 2096.775 -127.495 1876.369 25.206 1788.208 C 60.008 1768.113 99.486 1757.53 139.676 1757.52 C 266.199 1757.489 368.786 1860.048 368.786 1986.572 L 368.786 1986.572 Z" style="fill: rgb(252, 184, 53); fill-rule: evenodd;"/>
  <path class="cls-3" d="M 53.838 1986.572 C 53.838 2162.898 -137.04 2273.102 -289.743 2184.939 C -442.445 2096.775 -442.445 1876.369 -289.743 1788.208 C -254.936 1768.112 -215.454 1757.528 -175.263 1757.52 C -48.743 1757.494 53.838 1860.051 53.838 1986.572 L 53.838 1986.572 Z" style="fill: rgb(240, 55, 39); fill-rule: evenodd;"/>
  <path class="cls-4" d="M -118.965 1952.281 L -122.561 1967.694 L -142.146 1967.304 C -142.146 1967.304 -151.93 1969.269 -151.93 1972.429 C -151.93 1975.589 -144.723 1979.55 -133.899 1983.099 C -125.639 1985.986 -121.104 1994.859 -123.602 2003.247 C -124.624 2009.927 -126.169 2023.899 -157.598 2024.586 C -166.936 2025.046 -176.291 2024.249 -185.418 2022.219 L -181.295 2006.424 C -181.295 2006.424 -158.113 2011.196 -152.959 2008.39 C -147.805 2005.585 -141.632 2000.871 -151.422 1997.73 C -161.216 1994.59 -177.191 1989.407 -177.191 1976.734 C -177.747 1965.918 -170.652 1956.191 -160.184 1953.417 C -146.67 1950.223 -132.647 1949.824 -118.973 1952.243 L -118.973 1952.243 Z M -273.729 2022.784 L -296.49 2022.784 L -283.251 1962.732 L -311.397 2022.42 L -327.088 2022.42 L -330.905 1960.384 L -344.667 2022.83 L -366.218 2022.83 L -345.918 1931.209 L -319.795 1931.209 L -310.653 1983.976 L -280.256 1931.085 L -253.429 1931.085 L -273.729 2022.707 L -273.729 2022.707 Z M -98.637 2024.061 C -104.181 2024.517 -109.729 2023.228 -114.508 2020.378 C -117.798 2017.551 -119.568 2013.34 -119.279 2009.009 C -119.257 2007.778 -119.135 2006.55 -118.918 2005.337 C -118.736 2004.057 -118.392 2002.597 -118.21 2000.928 L -104.525 1942.28 L -83.174 1942.28 L -86.275 1953.732 L -66.331 1953.732 L -69.69 1968.22 L -89.625 1968.22 L -95.104 1993.215 C -95.458 1994.847 -95.81 1996.508 -96.163 1998.33 C -96.477 1999.783 -96.651 2001.264 -96.689 2002.75 C -96.996 2004.682 -96.274 2006.638 -94.78 2007.904 C -92.915 2008.998 -90.764 2009.511 -88.606 2009.373 C -87.18 2009.321 -85.765 2009.129 -84.378 2008.801 C -82.846 2008.445 -81.349 2007.957 -79.902 2007.34 L -78.136 2007.34 L -81.487 2022.038 C -83.968 2022.723 -86.501 2023.205 -89.064 2023.479 C -92.228 2023.893 -95.416 2024.084 -98.608 2024.051 L -98.608 2024.051 Z M 54.572 1973.078 C 48.785 1969.79 41.459 1971.262 37.393 1976.534 L 27.153 2022.82 L 5.794 2022.82 L 21.15 1953.771 L 42.481 1953.771 L 42.04 1959.345 C 47.727 1954.926 54.937 1952.945 62.083 1953.838 C 58.538 1959.793 56 1966.296 54.572 1973.078 L 54.572 1973.078 Z M 94.903 2024.615 C 84.885 2025.255 75.012 2021.957 67.39 2015.423 C 60.528 2008.475 56.984 1998.912 57.664 1989.17 C 57.555 1980.831 58.992 1972.542 61.902 1964.726 C 64.593 1957.731 68.601 1951.316 73.709 1945.831 C 84.017 1935.28 98.136 1929.322 112.887 1929.3 C 118.597 1929.295 124.285 1929.974 129.835 1931.323 C 132.392 1931.992 137.317 1933.794 137.317 1933.794 L 132.366 1955.565 C 130.148 1953.323 127.635 1951.394 124.893 1949.839 C 120.818 1947.861 116.344 1946.851 111.816 1946.89 C 103.212 1946.783 95.103 1950.903 90.113 1957.912 C 84.083 1966.008 81.025 1975.934 81.458 1986.019 C 80.938 1991.758 82.649 1997.474 86.229 2001.987 C 90 2005.356 94.962 2007.076 100.01 2006.758 C 105.309 2006.782 110.549 2005.652 115.366 2003.446 C 117.619 2002.301 119.823 2001.108 122 1999.733 L 117.027 2020.53 C 117.027 2020.53 114.46 2021.485 113.21 2021.809 C 110.232 2022.764 107.588 2023.279 105.288 2023.823 C 101.851 2024.336 98.38 2024.6 94.903 2024.615 L 94.903 2024.615 Z M -221.15 2020.367 C -221.95 2020.849 -222.776 2021.284 -223.623 2021.676 C -225.642 2022.514 -227.701 2023.247 -229.797 2023.871 C -232.475 2024.372 -235.193 2024.621 -237.919 2024.615 C -242.821 2024.794 -247.602 2023.086 -251.28 2019.843 C -254.79 2016.582 -256.726 2011.967 -256.586 2007.179 C -257.156 1997.115 -251.162 1987.836 -241.757 1984.216 C -236.605 1981.889 -231.136 1980.338 -225.531 1979.616 L -221.122 1979.061 C -215.744 1978.273 -210.328 1977.779 -204.898 1977.583 C -204.914 1977.15 -204.855 1976.717 -204.726 1976.304 C -204.566 1975.706 -204.506 1975.088 -204.544 1974.471 C -204.391 1971.779 -205.946 1969.283 -208.429 1968.23 C -212.175 1966.974 -216.124 1966.419 -220.071 1966.599 L -221.15 1966.599 C -224.737 1966.804 -228.286 1967.417 -231.735 1968.42 C -235.971 1969.708 -239.16 1970.626 -241.279 1971.551 L -243.187 1971.551 L -240.01 1955.211 C -236.245 1954.224 -232.419 1953.486 -228.557 1953.006 C -226.115 1952.507 -223.64 1952.186 -221.15 1952.054 C -218.455 1951.741 -215.743 1951.618 -213.028 1951.681 C -205.164 1951.203 -197.3 1952.656 -190.123 1955.908 C -185.322 1958.514 -182.488 1963.687 -182.88 1969.137 C -182.865 1970.185 -182.926 1971.236 -183.06 1972.276 C -183.242 1973.555 -183.424 1974.653 -183.595 1975.76 L -193.988 2022.764 L -215.186 2022.764 L -213.583 2015.405 C -214.823 2016.361 -216.588 2017.429 -218.354 2018.725 C -219.412 2019.27 -220.264 2019.823 -221.218 2020.358 L -221.218 2020.358 Z M -221.15 1991.736 C -223.133 1992.05 -225.085 1992.542 -226.982 1993.206 C -229.146 1993.899 -231.049 1995.229 -232.44 1997.023 C -233.862 1998.923 -234.539 2001.273 -234.351 2003.637 C -234.527 2005.621 -233.574 2007.535 -231.888 2008.592 C -229.57 2009.675 -227.026 2010.177 -224.472 2010.06 C -223.33 2010.049 -222.196 2009.862 -221.112 2009.506 C -219.973 2009.263 -218.851 2008.943 -217.752 2008.553 C -215.433 2007.451 -213.198 2006.175 -211.072 2004.735 L -207.895 1990.037 C -211.597 1990.401 -215.31 1990.783 -218.469 1991.345 C -219.367 1991.365 -220.261 1991.487 -221.132 1991.708 L -221.132 1991.708 Z M -36.582 1965.634 C -39.374 1965.977 -42.007 1967.123 -44.16 1968.935 C -47.327 1971.695 -49.701 1975.251 -51.039 1979.233 L -22.275 1979.233 C -22.275 1978.498 -22.093 1977.946 -22.093 1977.21 C -22.093 1976.666 -21.922 1975.932 -21.922 1975.397 C -21.78 1972.557 -22.876 1969.796 -24.929 1967.83 C -27.293 1966.004 -30.241 1965.099 -33.221 1965.281 C -34.35 1965.305 -35.473 1965.424 -36.582 1965.634 L -36.582 1965.634 Z M -36.582 2008.981 L -33.393 2008.981 C -28.869 2009.032 -24.377 2008.218 -20.157 2006.586 C -16.4 2005.117 -12.798 2003.276 -9.41 2001.09 L -6.938 2001.09 L -11.023 2018.888 C -15.192 2020.803 -19.571 2022.225 -24.07 2023.126 C -28.194 2024.014 -32.392 2024.513 -36.61 2024.615 L -38.519 2024.615 C -47.957 2025.27 -57.309 2022.461 -64.821 2016.714 C -71.052 2011.37 -74.445 2003.434 -74.003 1995.24 C -74.045 1989.346 -73.024 1983.494 -70.986 1977.965 C -69.074 1972.787 -66.155 1968.038 -62.396 1963.991 C -58.527 1960.058 -53.905 1956.943 -48.808 1954.83 C -44.881 1953.326 -40.794 1952.275 -36.629 1951.7 C -34.72 1951.538 -32.746 1951.538 -30.807 1951.538 C -22.839 1950.941 -14.911 1953.142 -8.389 1957.759 C -3.207 1962.411 -0.466 1969.198 -0.963 1976.141 C -0.939 1978.913 -1.175 1981.681 -1.67 1984.406 C -2.219 1987.077 -2.928 1989.712 -3.789 1992.3 L -53.178 1992.3 L -53.178 1993.759 C -53.326 1998.049 -51.503 2002.173 -48.234 2004.955 C -44.876 2007.496 -40.801 2008.915 -36.591 2009.009 L -36.591 2009.009 Z M 163.411 2020.349 C 162.575 2020.865 161.693 2021.303 160.777 2021.657 C 158.775 2022.521 156.719 2023.254 154.621 2023.852 C 151.998 2024.344 149.338 2024.592 146.67 2024.596 C 141.703 2024.788 136.846 2023.082 133.09 2019.823 C 129.628 2016.543 127.756 2011.923 127.956 2007.158 C 127.795 2002.242 129.094 1997.387 131.686 1993.206 C 134.418 1989.234 138.21 1986.113 142.633 1984.197 C 147.833 1981.845 153.357 1980.295 159.021 1979.596 C 160.443 1979.395 161.883 1979.223 163.419 1979.043 C 168.749 1978.255 174.119 1977.761 179.5 1977.563 C 179.638 1977.145 179.75 1976.717 179.837 1976.286 C 179.837 1975.75 180.026 1975.177 180.026 1974.452 C 180.116 1971.772 178.573 1969.303 176.123 1968.21 C 172.358 1966.946 168.389 1966.397 164.422 1966.589 L 163.382 1966.589 C 159.8 1966.767 156.252 1967.379 152.816 1968.412 C 148.571 1969.7 145.391 1970.616 143.274 1971.542 L 141.364 1971.542 L 144.379 1955.203 C 148.202 1954.197 152.089 1953.461 156.015 1952.998 C 158.45 1952.497 160.918 1952.178 163.401 1952.044 C 166.1 1951.73 168.817 1951.606 171.534 1951.67 C 179.416 1951.194 187.297 1952.644 194.496 1955.899 C 199.231 1958.568 202.034 1963.7 201.719 1969.127 C 201.734 1970.175 201.68 1971.224 201.557 1972.266 C 201.366 1973.546 201.195 1974.643 200.992 1975.75 L 190.573 2022.784 L 169.374 2022.784 L 171.007 2015.423 C 169.566 2016.377 168.001 2017.448 166.064 2018.747 L 163.382 2020.378 L 163.382 2020.378 Z M 163.411 1991.718 C 161.385 1992.056 159.389 1992.548 157.436 1993.187 C 155.294 1993.923 153.403 1995.244 151.977 1997.005 C 150.599 1998.927 149.901 2001.254 150.002 2003.618 C 149.812 2005.655 150.861 2007.605 152.665 2008.571 C 154.915 2009.66 157.402 2010.164 159.898 2010.041 C 161.088 2010.031 162.267 2009.844 163.401 2009.488 C 164.489 2009.27 165.552 2008.95 166.579 2008.534 C 168.917 2007.465 171.152 2006.187 173.259 2004.716 L 176.599 1990.018 C 172.725 1990.382 169.185 1990.761 165.835 1991.326 C 164.998 1991.337 164.167 1991.459 163.363 1991.689 L 163.363 1991.689 Z M 253.458 1973.078 C 247.67 1969.79 240.344 1971.262 236.279 1976.534 L 226.047 2022.82 L 204.679 2022.82 L 220.035 1953.771 L 241.364 1953.771 L 240.927 1959.345 C 246.612 1954.924 253.822 1952.942 260.967 1953.838 C 257.41 1959.782 254.875 1966.284 253.467 1973.068 L 253.467 1973.068 Z M 295.393 1968.458 C 294.345 1968.842 293.343 1969.336 292.396 1969.929 C 289.599 1971.45 287.186 1973.592 285.342 1976.19 C 283.514 1979.059 282.201 1982.228 281.468 1985.552 C 280.422 1989.071 279.883 1992.723 279.864 1996.392 C 279.612 1999.639 280.616 2002.859 282.672 2005.383 C 284.972 2007.502 288.047 2008.569 291.165 2008.333 C 292.612 2008.348 294.048 2008.096 295.402 2007.589 C 296.066 2007.424 296.707 2007.18 297.312 2006.864 C 299.393 2005.986 301.397 2004.94 303.304 2003.734 L 310.883 1969.756 C 309.43 1969.07 307.892 1968.571 306.311 1968.278 C 304.765 1967.807 303.155 1967.566 301.539 1967.562 C 299.453 1967.575 297.377 1967.898 295.384 1968.516 L 295.384 1968.516 Z M 295.393 2019.156 C 293.714 2020.338 291.938 2021.379 290.087 2022.268 C 288.439 2023.011 286.734 2023.625 284.99 2024.099 C 282.953 2024.494 280.881 2024.68 278.805 2024.652 C 272.932 2024.887 267.251 2022.535 263.259 2018.221 C 259.237 2012.901 257.235 2006.325 257.609 1999.668 C 257.486 1993.355 258.504 1987.073 260.615 1981.123 C 262.466 1975.585 265.276 1970.416 268.919 1965.853 C 272.28 1961.61 276.475 1958.106 281.249 1955.555 C 285.612 1953.233 290.445 1951.928 295.384 1951.738 L 296.128 1951.738 C 299.344 1951.681 302.554 1952.05 305.672 1952.836 C 308.579 1953.705 311.362 1954.943 313.956 1956.519 L 318.728 1932.44 L 340.03 1932.44 L 320.466 2022.811 L 299.105 2022.811 L 300.679 2015.654 C 298.771 2016.903 296.968 2018.03 295.393 2019.137 L 295.393 2019.137 Z" style="fill: rgb(255, 255, 255); fill-rule: evenodd;"/>
  <path class="cls-2" d="M 901.552 2002.769 C 907.806 2001.19 914.259 2000.539 920.703 2000.842 L 936.621 2000.842 L 936.621 1763.07 L 448.825 1763.07 L 448.825 1941.732 L 449.717 1939.578 L 466.226 1901.587 L 502.013 1901.587 L 506.479 1910.519 L 506.605 1901.587 L 548.741 1901.587 L 557.673 1922.256 L 566.92 1901.587 L 683.495 1901.587 C 683.495 1901.587 695.591 1901.587 701.478 1901.587 C 706.498 1901.667 711.377 1903.255 715.485 1906.141 L 715.485 1901.587 L 751.843 1901.587 L 751.843 1906.267 C 754.114 1905.155 756.475 1904.238 758.899 1903.525 C 762.195 1902.693 765.547 1902.117 768.93 1901.8 C 773.728 1901.755 778.57 1901.56 783.367 1901.612 L 827.969 1901.612 L 832.81 1910.965 L 832.81 1901.622 L 871.75 1901.622 L 877.29 1910.662 L 877.29 1901.622 L 915.183 1901.622 L 915.183 1982.02 L 877.066 1982.02 L 869.339 1969.754 L 869.339 1981.974 L 821.663 1981.974 L 816.124 1969.084 L 804.511 1969.084 L 799.152 1981.974 L 781.053 1981.974 C 773.735 1982.08 766.426 1981.434 759.239 1980.046 C 756.738 1979.248 754.292 1978.289 751.914 1977.178 L 751.914 1981.974 L 692.697 1981.974 L 692.697 1963.153 C 692.798 1962.255 692.258 1961.411 691.401 1961.125 C 690.453 1960.947 689.49 1960.879 688.525 1960.919 L 688.525 1981.974 L 573.888 1981.974 L 573.888 1972.88 L 569.894 1981.993 L 545.793 1981.993 L 541.727 1972.46 L 541.727 1981.974 L 495.537 1981.974 L 490.229 1969.209 L 478.304 1969.163 L 473.034 1981.974 L 448.825 1981.974 L 448.825 2254.208 L 936.569 2254.208 L 936.569 2078.442 C 930.497 2080.749 924.007 2081.753 917.523 2081.39 C 916.908 2081.39 894.887 2081.39 894.887 2081.39 L 882.192 2081.39 L 882.192 2076.639 C 878.089 2079.947 872.916 2081.638 867.651 2081.39 L 751.655 2081.39 L 751.655 2062.569 C 751.673 2061.86 751.339 2061.191 750.761 2060.781 C 749.575 2060.635 748.382 2060.581 747.189 2060.621 L 747.189 2081.399 L 710.206 2081.399 L 710.206 2059.825 C 707.569 2060.733 704.886 2061.493 702.167 2062.104 C 697.043 2062.612 691.894 2062.808 686.747 2062.692 L 686.747 2081.39 L 642.19 2081.39 L 631.112 2069.17 L 619.57 2081.39 L 546.651 2081.39 L 546.651 2000.894 L 620.633 2000.894 L 631.523 2012.953 L 643.002 2000.894 L 690.572 2000.894 C 694.51 2001.242 698.503 2001.324 702.443 2001.887 C 705.716 2002.508 708.832 2003.778 711.608 2005.62 L 711.608 2000.894 L 747.099 2000.894 C 750.352 2000.803 753.61 2000.893 756.854 2001.163 C 760.767 2001.28 764.65 2001.901 768.404 2003.011 C 770.443 2003.772 772.436 2004.648 774.371 2005.638 L 774.371 2000.894 L 841.566 2000.894 L 841.566 2005.728 C 843.484 2004.523 845.509 2003.498 847.614 2002.663 C 851.75 2001.598 855.993 2000.997 860.263 2000.877 C 871.928 2000.877 895.415 2000.877 895.415 2000.877 L 895.415 2005.709 C 897.374 2004.558 899.434 2003.587 901.57 2002.805 Z M 652.749 1925.053 L 652.749 1912.966 L 606.859 1912.966 L 606.859 1970.754 L 652.793 1970.754 L 652.793 1958.588 L 620.787 1958.588 L 620.946 1947.591 L 622.734 1947.431 L 652.033 1947.431 L 651.989 1942.821 L 651.989 1935.361 L 621.081 1935.281 L 621.081 1925.061 Z M 739.73 1912.985 L 725.374 1913.064 L 725.454 1970.789 L 739.747 1970.789 L 739.747 1912.966 Z M 596.801 1912.985 L 574.075 1912.985 L 569.974 1922.677 L 557.379 1952.156 L 552.234 1940.757 L 539.557 1912.949 L 517.047 1912.949 L 517.047 1967.387 L 515.957 1964.868 L 498.983 1925.187 L 493.875 1912.932 L 473.391 1912.932 L 448.825 1970.736 L 463.769 1970.736 L 464.359 1969.477 L 469.076 1957.998 L 497.786 1957.998 L 502.745 1970.728 L 530.651 1970.728 L 530.651 1925.535 L 543.246 1953.746 L 550.857 1970.718 L 562.918 1970.718 L 574.317 1944.707 L 582.704 1926.635 L 582.704 1970.736 L 596.899 1970.736 L 596.899 1912.949 Z M 474.06 1945.706 L 474.882 1943.669 L 483.226 1923.589 L 488.738 1936.318 L 492.409 1945.706 L 474.06 1945.706 Z M 763.983 1929.475 C 766.067 1927.335 768.823 1925.978 771.79 1925.634 C 777.15 1925.366 787.869 1925.473 787.869 1925.473 L 787.869 1913.028 L 778.821 1913.028 C 772.896 1912.664 766.955 1913.344 761.267 1915.039 C 759.451 1915.714 757.718 1916.595 756.103 1917.664 C 752.519 1920.391 749.828 1924.123 748.376 1928.385 C 747.286 1931.873 746.563 1935.467 746.223 1939.104 C 746.039 1941.39 746.011 1943.685 746.144 1945.974 C 746.353 1950.105 747.335 1954.157 749.037 1957.927 C 750.964 1962.762 754.828 1966.565 759.694 1968.413 C 763.034 1969.794 766.583 1970.603 770.192 1970.808 C 776.666 1970.693 789.655 1970.808 789.655 1970.808 L 794.533 1958.123 L 823.324 1958.123 L 828.435 1970.808 L 856.423 1970.808 L 856.529 1927.93 L 882.595 1970.916 L 901.989 1970.799 L 901.989 1913.011 L 887.705 1913.011 L 887.661 1952.405 L 878.414 1937.219 L 875.681 1932.521 L 866.266 1916.808 L 864.319 1913.028 L 842.772 1913.028 L 842.772 1950.352 L 842.611 1966.815 L 819.716 1913.028 L 799.169 1913.028 L 783.323 1950.191 C 783.323 1950.191 780.866 1955.739 779.856 1958.561 C 775.658 1958.856 771.439 1958.5 767.351 1957.508 C 764.239 1956.081 761.985 1953.269 761.276 1949.922 C 760.1 1944.801 760.137 1939.476 761.382 1934.371 C 762.015 1932.636 762.899 1931.004 764.009 1929.529 L 764.009 1929.529 Z M 801.904 1940.981 L 806.7 1929.234 L 809.202 1923.578 L 814.079 1935.193 L 816.42 1940.899 L 818.206 1945.581 L 800.232 1945.581 L 801.912 1941.026 L 801.912 1941.026 Z M 717.038 1933.905 C 718.184 1929.494 717.729 1924.819 715.753 1920.711 C 714.066 1917.959 711.51 1915.842 708.49 1914.7 C 705.025 1913.458 701.36 1912.874 697.681 1912.976 C 685.854 1912.976 662.262 1912.976 662.262 1912.976 L 662.262 1970.728 L 676.162 1970.728 L 676.162 1952.227 L 676.162 1949.788 C 676.162 1949.788 685.988 1949.788 690.678 1949.834 C 694.022 1949.62 697.355 1950.384 700.272 1952.032 C 701.303 1952.747 702.049 1953.804 702.38 1955.014 C 702.794 1956.554 703.028 1958.138 703.077 1959.731 C 703.202 1963.448 703.157 1970.728 703.157 1970.728 L 717.084 1970.728 C 717.264 1964.815 717.106 1958.899 716.61 1953.003 C 716.014 1950.369 714.505 1948.031 712.348 1946.403 C 711.142 1945.51 709.786 1944.875 708.57 1943.928 C 712.553 1941.778 715.571 1938.195 717.013 1933.905 Z M 699.753 1936.666 C 697.128 1937.776 694.255 1938.168 691.428 1937.801 L 676.107 1937.801 L 676.107 1925.035 L 678.921 1925.035 C 678.921 1925.035 689.641 1924.929 694.956 1925.143 C 696.678 1925.225 698.365 1925.653 699.914 1926.401 C 703.221 1929.055 703.128 1934.117 699.726 1936.649 L 699.726 1936.649 Z M 829.891 2024.557 L 829.891 2012.463 L 783.903 2012.463 L 783.903 2070.457 L 829.836 2070.457 L 829.836 2058.361 L 797.884 2058.361 L 797.884 2046.936 L 829.067 2046.936 L 829.067 2034.876 L 797.91 2034.876 L 797.91 2024.576 Z M 866.285 2057.914 C 856.807 2057.996 837.84 2057.996 837.84 2057.996 L 837.84 2070.501 C 837.84 2070.501 856.27 2070.501 865.48 2070.545 C 868.858 2070.759 872.244 2070.294 875.439 2069.179 C 878.766 2068.031 881.672 2065.912 883.782 2063.095 C 885.579 2059.876 886.521 2056.251 886.517 2052.563 C 886.789 2048.32 885.586 2044.112 883.113 2040.655 C 881.165 2038.762 878.777 2037.38 876.164 2036.636 C 869.178 2035.307 862.076 2034.69 854.966 2034.786 C 853.786 2034.594 852.717 2033.982 851.954 2033.063 C 850.422 2030.96 850.76 2028.033 852.732 2026.336 C 854.975 2025.199 857.493 2024.725 859.995 2024.97 L 883.721 2024.97 C 883.721 2024.97 883.721 2016.036 883.721 2012.525 L 854.117 2012.525 C 848.671 2012.513 843.503 2014.932 840.029 2019.127 C 835.625 2025.291 835.157 2033.436 838.823 2040.066 C 840.763 2042.925 843.669 2044.989 847.005 2045.881 C 851.077 2047.134 855.315 2047.768 859.575 2047.767 C 862.43 2047.766 865.286 2047.923 868.124 2048.24 C 869.883 2048.628 871.269 2049.982 871.697 2051.733 C 872.544 2055.128 869.767 2058.337 866.285 2057.985 L 866.285 2057.985 Z M 937.113 2041.209 C 934.13 2037.953 930.013 2035.959 925.608 2035.635 C 923.011 2035.302 920.393 2035.145 917.773 2035.161 C 914.888 2035.322 912.074 2034.813 909.198 2034.777 C 907.248 2034.692 905.553 2033.414 904.937 2031.562 C 904.273 2029.997 904.576 2028.189 905.715 2026.925 C 907.208 2025.596 909.145 2024.868 911.146 2024.888 L 937.212 2024.888 L 937.212 2012.471 L 908.385 2012.471 C 904.735 2012.471 901.152 2013.445 898.005 2015.294 C 894.575 2017.257 892.021 2020.45 890.858 2024.227 C 889.786 2028.015 889.703 2032.013 890.617 2035.841 C 891.618 2039.7 894.218 2042.949 897.764 2044.775 C 901.47 2046.3 905.385 2047.267 909.377 2047.641 C 912.736 2047.963 916.086 2047.561 919.445 2048.044 C 920.584 2048.017 921.717 2048.232 922.767 2048.678 C 925.267 2049.822 926.223 2052.879 924.821 2055.244 C 923.921 2056.976 922.12 2058.055 920.167 2058.031 C 910.689 2058.075 891.681 2058.075 891.681 2058.075 L 891.681 2070.58 C 891.681 2070.58 910.646 2070.58 920.124 2070.58 C 923.185 2070.513 926.224 2070.008 929.146 2069.08 C 932.805 2068.148 935.907 2065.725 937.696 2062.398 C 939.51 2059.171 940.325 2055.477 940.034 2051.787 C 940.255 2048.077 939.237 2044.401 937.141 2041.335 L 937.141 2041.335 Z M 699.521 2013.195 C 696.331 2012.61 693.089 2012.358 689.847 2012.446 C 675.946 2012.446 648.174 2012.446 648.174 2012.446 L 630.38 2031.204 L 613.406 2012.446 L 558.111 2012.446 L 558.111 2070.438 L 612.434 2070.438 L 621.367 2060.942 L 629.942 2051.795 L 646.915 2070.457 L 673.804 2070.457 L 673.804 2051.314 C 673.804 2051.314 687.65 2051.314 694.518 2051.151 C 698.281 2050.9 701.973 2050.023 705.444 2048.553 C 707.603 2047.423 709.524 2045.884 711.099 2044.024 C 713.125 2041.354 714.309 2038.141 714.501 2034.796 C 715.239 2029.848 714.321 2024.795 711.893 2020.422 C 708.844 2016.522 704.418 2013.934 699.521 2013.195 Z M 611.021 2052.384 L 605.511 2058.235 L 571.957 2058.28 L 571.957 2046.838 L 601.919 2046.838 L 601.919 2034.857 L 571.957 2034.857 L 571.957 2024.638 L 605.903 2024.638 L 621.089 2041.495 Z M 659.644 2053.233 L 659.644 2064.891 L 656.669 2061.478 L 639.18 2041.825 L 646.396 2033.786 L 659.644 2019.475 L 659.644 2053.233 L 659.644 2053.233 Z M 698.708 2035.831 C 697.8 2037.339 696.306 2038.4 694.581 2038.762 C 691.861 2039.19 689.104 2039.324 686.354 2039.163 C 682.226 2039.083 673.848 2039.04 673.848 2039.04 L 673.848 2024.576 C 673.848 2024.576 684.022 2024.576 689.105 2024.576 C 690.796 2024.509 692.489 2024.564 694.17 2024.737 C 696.722 2025.042 698.837 2026.854 699.53 2029.328 C 700.029 2031.536 699.744 2033.846 698.726 2035.867 L 698.726 2035.867 Z M 776.203 2031.365 C 776.977 2027.492 776.343 2023.47 774.417 2020.021 C 770.726 2015.433 765.205 2012.7 759.318 2012.542 C 757.372 2012.427 754.255 2012.542 754.255 2012.542 L 721.104 2012.542 C 721.023 2031.874 721.104 2070.536 721.104 2070.536 L 735.155 2070.536 L 735.155 2049.544 C 735.155 2049.544 741.917 2049.303 745.267 2049.383 C 749.221 2049.087 753.198 2049.43 757.042 2050.402 C 759.784 2051.57 761.573 2054.254 761.597 2057.234 C 761.83 2061.703 761.705 2070.509 761.705 2070.509 L 775.631 2070.509 C 775.631 2070.509 775.711 2061.121 775.631 2056.406 C 775.664 2053.412 774.793 2050.479 773.13 2047.989 C 771.297 2046.268 769.267 2044.769 767.082 2043.523 C 771.932 2041.185 775.337 2036.626 776.203 2031.312 Z M 759.998 2034.698 C 758.711 2036.387 756.709 2037.378 754.585 2037.378 C 748.108 2037.725 735.147 2037.378 735.147 2037.378 L 735.147 2024.592 L 735.066 2024.592 C 735.066 2024.592 744.973 2024.592 749.976 2024.592 C 751.967 2024.755 754.013 2024.862 755.987 2025.183 C 758.241 2025.283 760.184 2026.799 760.829 2028.963 C 761.257 2030.91 760.965 2032.948 760.007 2034.698 Z" style="fill: rgb(36, 120, 188); fill-rule: evenodd;"/>
  <path class="cls-2" d="M 1126.008 1763.231 C 1114.594 1762.514 1103.161 1764.196 1092.44 1768.169 C 1066.085 1777.531 1046.95 1800.539 1042.545 1828.158 C 1040.37 1851.555 1040.892 1904.66 1040.892 1940.434 L 1040.892 2046.882 C 1043.426 2048.263 1046.091 2049.449 1048.681 2050.721 C 1054.705 2053.559 1060.879 2056.071 1067.171 2058.248 C 1096.856 2068.929 1148.165 2074.119 1152.493 2029.588 C 1154.91 1996.802 1152.657 1963.114 1152.657 1930.243 L 1221.097 1930.243 L 1221.097 2012.91 C 1221.097 2033.231 1219.921 2053.549 1204.988 2068.537 C 1191.369 2080.584 1174.306 2088.038 1156.215 2089.847 L 1153.939 2090.161 C 1133.555 2092.558 1112.961 2092.616 1092.561 2090.337 C 1075.15 2088.719 1057.884 2085.81 1040.902 2081.635 L 1040.902 2254.042 C 1082.574 2254.042 1132.457 2254.194 1166.973 2253.629 C 1186.532 2251.884 1204.567 2242.34 1217.009 2227.141 C 1241.515 2199.274 1237.599 2162.095 1237.599 2127.32 L 1237.599 1763.178 C 1237.599 1763.178 1162.535 1763.133 1126.008 1763.231 Z" style="fill: rgb(30, 79, 143); fill-rule: evenodd;"/>
  <path class="cls-3" d="M 1350.332 1763.7 C 1333.381 1764.823 1317.347 1771.801 1304.974 1783.441 C 1287.341 1799.151 1277.27 1821.653 1277.301 1845.269 L 1277.301 1952.356 C 1314.73 1921.606 1371.521 1922.468 1416.75 1928.556 C 1429.39 1930.263 1441.936 1932.622 1454.332 1935.628 L 1454.332 1970.261 C 1436.582 1960.866 1417.251 1954.826 1397.311 1952.444 L 1395.898 1952.356 C 1362.015 1948.963 1326.673 1961.809 1323.107 2001.762 C 1322.651 2006.465 1322.651 2011.2 1323.107 2015.903 C 1323.28 2017.894 1323.551 2019.808 1323.889 2021.69 C 1326.296 2033.408 1332.251 2044.102 1340.946 2052.319 C 1345.715 2055.913 1350.928 2058.873 1356.456 2061.131 C 1377.42 2066.858 1399.568 2066.602 1420.394 2060.391 C 1431.975 2056.964 1443.185 2052.382 1453.852 2046.719 L 1453.852 2081.319 C 1448.513 2082.634 1443.236 2084.146 1437.84 2085.269 C 1432.447 2086.388 1426.834 2087.313 1421.296 2088.129 C 1410.92 2089.653 1400.52 2090.793 1390.047 2091.284 C 1381.192 2091.707 1372.381 2091.456 1363.528 2091.456 C 1354.694 2091.217 1345.97 2090.51 1337.204 2089.424 C 1328.904 2088.408 1320.72 2086.609 1312.762 2084.048 C 1306.28 2081.831 1299.971 2079.133 1293.889 2075.978 C 1287.986 2073.183 1282.496 2069.591 1277.574 2065.297 L 1277.574 2254.204 L 1385.738 2254.204 C 1392.95 2254.259 1400.158 2253.818 1407.308 2252.889 C 1414.779 2252.016 1422.048 2249.894 1428.813 2246.612 C 1434.349 2243.865 1439.621 2240.618 1444.562 2236.908 C 1454.284 2229.693 1462.275 2220.405 1467.962 2209.715 C 1472.271 2201.341 1475.078 2192.272 1476.25 2182.925 C 1477.43 2167.151 1477.655 2151.321 1476.923 2135.522 L 1476.923 1763.351 C 1475.987 1763.34 1371.999 1763.133 1350.332 1763.7 Z" style="fill: rgb(216, 32, 59); fill-rule: evenodd;"/>
  <path class="cls-4" d="M 1554.436 1994.376 L 1554.013 1994.376 L 1554.013 1954.521 L 1597.357 1954.521 C 1598.141 1954.566 1598.923 1954.627 1599.708 1954.705 C 1600.232 1954.729 1600.75 1954.793 1601.263 1954.902 C 1601.528 1954.936 1601.789 1954.992 1602.046 1955.066 C 1603.678 1955.42 1605.26 1955.987 1606.745 1956.751 L 1607.549 1957.155 C 1608.374 1957.609 1609.158 1958.129 1609.898 1958.709 C 1610.757 1959.358 1611.551 1960.089 1612.271 1960.885 C 1613.533 1962.23 1614.589 1963.755 1615.404 1965.412 C 1615.709 1966.008 1615.914 1966.606 1616.187 1967.238 C 1616.515 1968.108 1616.776 1969.003 1616.968 1969.914 C 1617.802 1973.879 1617.533 1978.001 1616.187 1981.824 C 1615.961 1982.442 1615.7 1983.044 1615.404 1983.629 C 1614.591 1985.284 1613.535 1986.811 1612.271 1988.155 C 1612.023 1988.431 1611.762 1988.698 1611.488 1988.949 C 1611.239 1989.198 1610.978 1989.434 1610.705 1989.655 C 1609.291 1990.886 1607.691 1991.88 1605.961 1992.603 C 1604.391 1993.268 1602.752 1993.77 1601.078 1994.104 C 1600.881 1994.122 1600.685 1994.151 1600.49 1994.191 C 1585.262 1995.388 1569.697 1994.465 1554.415 1994.465 L 1554.415 1994.465 Z M 1554.022 2061.958 L 1601.209 2061.958 C 1601.459 2061.958 1601.71 2061.958 1601.992 2061.958 C 1602.275 2061.958 1602.503 2061.903 1602.775 2061.869 C 1603.047 2061.838 1603.286 2061.869 1603.557 2061.815 C 1604.342 2061.75 1605.119 2061.66 1605.896 2061.544 L 1606.365 2061.413 L 1606.681 2061.338 C 1606.946 2061.297 1607.209 2061.231 1607.461 2061.141 C 1609.09 2060.628 1610.662 2059.963 1612.162 2059.152 C 1612.96 2058.678 1613.743 2058.179 1614.513 2057.65 C 1615.377 2057.05 1616.172 2056.35 1616.883 2055.573 C 1617.154 2055.268 1617.414 2055.005 1617.665 2054.724 C 1618.538 2053.699 1619.332 2052.608 1620.037 2051.46 C 1620.342 2050.993 1620.548 2050.483 1620.82 2050.014 C 1621.092 2049.547 1621.376 2048.763 1621.582 2048.099 C 1621.916 2047.22 1622.177 2046.313 1622.364 2045.39 C 1623.283 2041.155 1623.012 2036.746 1621.582 2032.653 C 1621.365 2032.033 1621.082 2031.426 1620.82 2030.803 C 1620.164 2029.452 1619.377 2028.166 1618.471 2026.965 C 1618.224 2026.632 1617.954 2026.317 1617.665 2026.018 C 1617.427 2025.688 1617.149 2025.39 1616.839 2025.126 C 1616.601 2024.85 1616.339 2024.595 1616.057 2024.366 C 1615.784 2024.093 1615.544 2023.897 1615.272 2023.647 C 1615.002 2023.397 1614.763 2023.235 1614.468 2023.049 C 1613.751 2022.445 1612.964 2021.934 1612.119 2021.526 C 1611.876 2021.356 1611.615 2021.221 1611.335 2021.123 C 1609.716 2020.364 1608.035 2019.741 1606.311 2019.264 L 1604.299 2018.939 C 1604.015 2018.939 1603.798 2018.939 1603.516 2018.939 C 1603.257 2018.894 1602.993 2018.868 1602.731 2018.86 C 1602.461 2018.86 1602.198 2018.86 1601.948 2018.785 C 1601.687 2018.804 1601.426 2018.804 1601.166 2018.785 L 1554.013 2018.785 L 1554.013 2062.078 Z M 1588.079 1763.351 C 1570.795 1764.264 1554.395 1771.27 1541.786 1783.127 C 1528.43 1794.972 1519.219 1810.785 1515.507 1828.246 C 1514.4 1833.746 1513.847 1839.344 1513.852 1844.953 L 1513.852 1929.351 C 1555.187 1929.481 1597.424 1927.36 1638.593 1930.438 C 1656.498 1931.755 1675.914 1940.229 1680.592 1959.644 C 1680.957 1961.218 1681.217 1962.814 1681.375 1964.419 C 1681.613 1967.007 1681.613 1969.611 1681.375 1972.196 C 1681.224 1973.769 1680.963 1975.328 1680.592 1976.864 C 1680.38 1977.806 1680.118 1978.735 1679.807 1979.648 C 1673.983 1994.381 1660.337 2004.561 1644.556 2005.95 L 1644.556 2006.852 C 1644.556 2007.016 1652.855 2008.245 1653.616 2008.364 C 1666.835 2010.09 1678.697 2017.349 1686.248 2028.336 C 1691.153 2036.6 1692.523 2046.493 1690.044 2055.779 C 1684.991 2071.467 1671.523 2082.964 1655.237 2085.496 C 1651.408 2086.315 1647.532 2086.884 1643.63 2087.205 C 1635.592 2087.9 1627.523 2088.291 1619.461 2088.554 C 1602.405 2089.086 1585.34 2088.792 1568.336 2088.367 C 1550.325 2087.923 1532.322 2087.279 1514.309 2087.279 L 1514.309 2254.194 L 1632.784 2254.194 C 1640.294 2254.156 1647.763 2253.118 1654.998 2251.105 C 1669.34 2246.627 1682.253 2238.452 1692.436 2227.402 C 1693.685 2226.048 1694.883 2224.646 1696.039 2223.203 C 1704.735 2212.418 1710.538 2199.591 1712.898 2185.938 C 1713.213 2183.892 1713.486 2181.815 1713.681 2179.716 C 1714.66 2132.519 1713.996 2085.215 1713.996 2038.658 L 1713.996 1763.243 C 1713.996 1763.243 1628.968 1763.143 1588.07 1763.351 Z" style="fill: rgb(77, 173, 71); fill-rule: evenodd;"/>
  <path class="cls-2" d="M -976.475 2279.913 L -1073.75 2279.913 C -1188.123 2279.866 -1282.251 2362.036 -1282.251 2480.897 C -1282.251 2589.615 -1188.147 2678.959 -1073.75 2678.437 L -976.475 2678.437 C -863.457 2678.959 -760.317 2589.591 -760.317 2480.897 C -760.317 2362.012 -863.457 2279.866 -976.475 2279.913 Z M -1073.275 2661.259 C -1177.785 2661.213 -1262.503 2579.565 -1262.525 2478.816 C -1262.549 2378.068 -1177.785 2296.38 -1073.275 2296.358 C -968.762 2296.333 -884.03 2378.052 -884.03 2478.816 C -884.03 2579.581 -968.747 2661.213 -1073.275 2661.259 Z M -1030.374 2370.909 L -1030.374 2586.771 C -947.29 2558.242 -926.245 2450.468 -992.493 2392.778 C -1003.593 2383.114 -1016.456 2375.688 -1030.374 2370.909 Z M -1193.187 2478.824 C -1192.643 2527.337 -1161.945 2570.38 -1116.252 2586.694 L -1116.252 2370.909 C -1161.934 2387.25 -1192.631 2430.281 -1193.217 2478.792 Z" style="fill: rgb(0, 121, 190); fill-rule: evenodd;"/>
  <rect id="Rounded_Rectangle_1_copy_3" data-name="Rounded Rectangle 1 copy 3" class="cls-1" width="637.642" height="398.526" rx="6" ry="6" style="fill: rgb(255, 255, 255); stroke: rgb(217, 217, 217); stroke-linejoin: round;" x="-668.765" y="2279.912"/>
  <path id="Rounded_Rectangle_1_copy_4" data-name="Rounded Rectangle 1 copy 4" class="cls-2" d="M -36.102 2524.011 L -36.102 2649.645 C -36.102 2664.038 -44.64 2673.458 -60.22 2673.458 L -474.517 2673.458 C -299.719 2646.557 -147.635 2593.753 -36.102 2524.011 Z" style="fill: rgb(242, 104, 34); fill-rule: evenodd;"/>
  <path class="cls-3" d="M -107.608 2424.608 L -105.642 2427.363 L -103.608 2427.363 L -105.92 2424.434 L -104.38 2422.44 C -104.368 2421.035 -105.651 2419.973 -107.031 2420.249 L -109.273 2420.249 L -109.273 2427.367 L -107.594 2427.367 L -107.594 2424.622 L -107.594 2424.622 L -107.594 2424.622 Z M -107.608 2421.563 L -107.305 2421.563 L -106.059 2422.475 L -107.329 2423.427 L -107.619 2423.427 L -107.619 2421.574 Z M -106.693 2429.997 C -101.922 2430.071 -98.861 2424.953 -101.185 2420.785 C -103.507 2416.617 -109.467 2416.527 -111.916 2420.621 C -112.491 2421.582 -112.795 2422.681 -112.795 2423.8 C -112.831 2427.201 -110.092 2429.981 -106.693 2429.997 Z M -106.693 2418.714 C -102.778 2418.538 -100.139 2422.665 -101.943 2426.146 C -103.749 2429.624 -108.643 2429.845 -110.752 2426.542 C -111.275 2425.724 -111.555 2424.772 -111.555 2423.8 C -111.613 2421.064 -109.454 2418.793 -106.717 2418.714 Z M -113.601 2443.095 C -113.601 2427.961 -123.883 2419.218 -141.827 2419.218 L -164.892 2419.218 L -164.892 2500.098 L -149.349 2500.098 L -149.349 2467.589 L -147.327 2467.589 L -125.802 2500.073 L -106.666 2500.073 L -131.764 2466.005 C -120.627 2464.328 -112.69 2454.314 -113.601 2443.09 L -113.601 2443.09 Z M -144.81 2456.449 L -149.349 2456.449 L -149.349 2431.956 L -144.557 2431.956 C -134.863 2431.956 -129.612 2436.066 -129.612 2443.942 C -129.627 2452.071 -134.897 2456.449 -144.836 2456.449 Z M -581.134 2419.218 L -603.968 2419.218 L -603.968 2500.098 L -581.253 2500.098 C -557.966 2501.56 -538.285 2483.05 -538.317 2459.717 C -538.317 2435.857 -555.9 2419.233 -581.122 2419.233 Z M -562.96 2479.958 C -568.928 2484.822 -576.578 2487.133 -584.242 2486.389 L -588.415 2486.389 L -588.415 2432.917 L -584.246 2432.917 C -574.194 2432.917 -568.095 2434.731 -562.964 2439.453 C -557.421 2444.672 -554.298 2451.963 -554.347 2459.579 C -554.289 2467.268 -557.407 2474.64 -562.964 2479.952 L -562.964 2479.952 Z M -531.163 2419.218 L -515.609 2419.218 L -515.609 2500.098 L -531.163 2500.098 L -531.163 2419.218 Z M -477.56 2450.252 C -486.897 2446.766 -489.636 2444.445 -489.636 2440.071 C -489.636 2434.975 -484.749 2431.104 -478.049 2431.104 C -473.079 2431.223 -468.448 2433.646 -465.515 2437.659 L -457.365 2426.869 C -463.776 2421.063 -472.128 2417.864 -480.779 2417.902 C -494.149 2417.157 -505.455 2427.687 -505.657 2441.077 C -505.657 2452.214 -500.64 2457.924 -486.038 2463.255 C -482.318 2464.448 -478.717 2465.99 -475.283 2467.859 C -472.367 2469.631 -470.595 2472.808 -470.617 2476.222 C -470.627 2482.789 -476.143 2488.005 -482.702 2487.645 C -490.004 2487.738 -496.67 2483.504 -499.689 2476.856 L -509.741 2486.647 C -504.061 2496.459 -493.46 2502.366 -482.13 2502.042 C -466.938 2502.99 -454.208 2490.699 -454.621 2475.485 C -454.621 2462.632 -459.866 2456.823 -477.536 2450.262 Z M -449.714 2459.717 C -450.064 2483.127 -431.029 2502.209 -407.62 2501.917 C -400.837 2501.924 -394.149 2500.311 -388.116 2497.209 L -388.116 2478.628 C -392.774 2484.195 -399.643 2487.433 -406.903 2487.485 C -422.277 2487.824 -434.65 2474.936 -433.682 2459.588 C -434.277 2444.674 -422.536 2432.163 -407.615 2431.811 C -400.1 2431.873 -392.985 2435.194 -388.112 2440.913 L -388.112 2422.36 C -393.961 2419.096 -400.548 2417.38 -407.245 2417.379 C -430.703 2417.241 -449.778 2436.249 -449.718 2459.708 Z M -264.757 2473.531 L -286.018 2419.233 L -303.036 2419.233 L -269.196 2502.175 L -260.833 2502.175 L -226.379 2419.233 L -243.232 2419.233 Z M -219.335 2500.098 L -175.219 2500.098 L -175.219 2486.385 L -203.799 2486.385 L -203.799 2464.555 L -176.274 2464.555 L -176.274 2450.86 L -203.799 2450.86 L -203.799 2432.927 L -175.223 2432.927 L -175.223 2419.207 L -219.335 2419.207 L -219.335 2500.098 Z" style="fill-rule: evenodd;"/>
  <circle class="cls-4" cx="-339.98" cy="2459.251" r="44.833" style="fill: rgb(242, 104, 34);"/>
  <g transform="matrix(3.660812, 0, 0, 3.660812, 1168.271729, 2716.322754)" style="">
    <g>
      <linearGradient id="SVGID_1_" gradientUnits="userSpaceOnUse" x1="8.0434" y1="99.1544" x2="136.6834" y2="99.1544">
        <stop offset="0" style="stop-color:#5BC4F1"/>
        <stop offset="0.1279" style="stop-color:#56BBE9"/>
        <stop offset="0.3366" style="stop-color:#47A3D3"/>
        <stop offset="0.6" style="stop-color:#307BAE"/>
        <stop offset="0.905" style="stop-color:#0F447D"/>
        <stop offset="1" style="stop-color:#04326C"/>
      </linearGradient>
      <path class="st0" d="M20.2,118.7c0.1,0.1,0.1,0.2,0.1,0.3c0,0.3-0.2,0.4-0.4,0.3c-0.1-0.1-0.2-0.2-0.3-0.3 c-0.1-0.3-0.3-0.5-0.6-0.6c-0.2-0.1-0.4-0.4-0.5-0.6c0-0.1,0-0.2,0-0.3c0,0,0.2-0.1,0.3,0C19.3,117.9,19.7,118.3,20.2,118.7z M20.9,97.5c0.2,0.2,0.5,0.4,0.9,0.4c0-0.3-0.4-0.6-0.6-0.8c-1.1-1.1-1.8-2.4-2-2.7c-2-3.2-2.5-7.9-2.3-8.4c0-0.1,0-2.7-0.3-3.1 c-0.1,0.2-0.1,0.4-0.2,0.5c-0.2,1.3-0.1,2.7,0,4.1C16.4,87.9,17.4,94.1,20.9,97.5z M9,87.5c0,0,0.1,0,0.1,0c0-1.3,0.1-3.6,0.2-4.9 c-0.1,0-0.2,0-0.2,0c-0.2,1.2,0,3.4-0.1,4.6C8.9,87.3,8.9,87.4,9,87.5z M21.7,99.1c0,0.1,0,0.2,0,0.3c0.2,0.2,0.4,0.3,0.7,0.1 c-0.1-0.3-0.2-0.5-0.5-0.5C21.9,99,21.7,99.1,21.7,99.1z M11.2,98.1c0.2,0.6,0.3,1.2,0.6,1.8c0.2,0.4,1,2.5,1.3,2.6 c0.1-0.1-1.4-3.2-1.6-5.2c-0.1,0-0.2,0-0.3,0C11.2,97.6,11.2,97.9,11.2,98.1z M10,91.3c-0.3,0.9-0.3,1.5,0.4,2.6 C10.1,92.9,10.6,92.9,10,91.3z M13.6,106c-0.1-0.1-0.1-0.2-0.2-0.3c-0.2,1.1-0.2,1.1,0.8,1.4C14,106.7,13.8,106.3,13.6,106z M8.7,94.2c-0.1-0.6-0.3-3.5-0.3-4.4c0-0.2,0-0.5,0-0.7c-0.2,0.2-0.2,0.3-0.2,0.5c-0.2,1.4,0,4.2,0,4.9c0.1,1.8,1.4,7.7,1.9,9.7 c1,3,3,6.5,3.7,7.3c0.1,0.3,0.5,0.4,0.8,0.5c-1.1-1.2-2-3.1-2-3.1C9.7,103,8.9,95.4,8.7,94.2z M86.7,127.8 c-0.2-0.2-0.6-0.2-0.7,0.1c-0.2,0.4-0.6,0.5-0.9,0.7c-0.2,0.1-0.3,0.3-0.2,0.5c0.1,0.1,0.3,0.2,0.4,0.2c0.6-0.2,1.1-0.3,1.4-0.9 C86.8,128.2,87,128,86.7,127.8z M83.6,129.7c0.1,0.1,0.3,0.3,0.4,0.2c0.1,0,0.2-0.3,0.3-0.4c-0.1-0.1-0.3-0.2-0.5-0.3 C83.7,129.5,83.5,129.7,83.6,129.7z M18.8,117.5c-0.1,0-0.2,0-0.3,0c0,0.1-0.1,0.2,0,0.3c0.2,0.2,0.3,0.5,0.5,0.6 c0.3,0.2,0.5,0.3,0.6,0.6c0,0.1,0.2,0.2,0.3,0.3c0.2,0.1,0.4,0,0.4-0.3c0-0.1,0-0.3-0.1-0.3C19.7,118.3,19.3,117.9,18.8,117.5z M136.6,64.9c0,0.1,0,0.2,0,0.3c-0.1,0.3-0.2,0.6-0.3,0.9c0,0-8.6,51.4-10.2,52.2c-0.7-0.3-4-9-4-9l-0.3-0.3l-0.2-0.9l-0.2-0.3 c-0.4,0.5-0.9,0.9-1.4,1.3c-0.1,0.1-0.2,0.1-0.4,0.2c0-0.2,0-0.3,0-0.5c-0.6,0.5-1.4,1.3-2.7,2.4c-1.7,1.8-4.2,4-7.8,6.2 c-0.3,0.5-1.4,1.2-1.3,1.2c-0.5,0.3-0.9,0.6-1.4,0.9c-0.2,0.4-0.5,0.5-0.6,0.6c-0.4,0.4-0.9,0.7-1.4,1c-1.2,0.6-2.4,1.2-3.7,1.9 c-0.8,0.5-1.7,1-2.5,1.4c-0.3,0.2-0.5,0.4-0.8,0.5c-2.6,1.6-5.3,2.9-8.3,3.9c-0.6,0.2-1.2,0.4-1.8,0.7c-1.2,0.9-2.5,1.5-4,1.8 c-1.5,0.3-3,1-4.6,1.3c-6.4,1.8-12,2.4-18.5,2.9c-4.2,0.3-9.8-0.4-10.7-0.5c0.3-0.3,0.5-0.5,0.9-0.3c0.2,0.1,0.5,0.1,0.8,0.1 c0.3,0,0.7-0.2,1-0.2c3.2,0.5,10.3-0.2,11.6-0.3c12.9-1.2,22.3-8,22.3-8s-13,6.3-23.2,7.1c-9.1,0.7-17.3-0.1-18.1-0.2 c-0.5-0.1-2.1-0.3-4.2-0.8c-1.2-0.1-2.7-0.5-4.7-1.2c-0.3,0-0.6,0-0.8-0.3c0,0,0,0,0,0c-0.3-0.1-0.6-0.2-0.9-0.3 c-0.1,0-0.2,0-0.3,0c-0.2-0.1-0.5-0.2-0.7-0.3c-0.2-0.1-0.3-0.2-0.5-0.3c-1.4-0.6-2.8-1.3-4.1-2.1c-1.1-0.7-2.2-1.4-3.3-2.2 c-0.6-0.3-1.1-0.6-1.6-1.1c-0.4-0.5-0.9-0.9-1.4-1.4c-4.7-4.3-7.4-8.6-7.6-8.8c0.3-0.2,0.4,0,0.5,0.1c0.2,0.2,2.1,2.5,2.5,2.5 c0.2-0.3,0-0.5-0.2-0.8c-0.7-0.8-0.2-0.4-0.9-1.2c-0.3-0.3-0.1-0.5,0.4,0c1.2,0.9,1.2,0.6,1.8,1.1c0.1,0.1,0.7,0.3,1.1,0.2 c0.2-0.3-0.7-1.4-1-1.8c-0.5-0.8-1.5-1.7-1.7-1.8c-0.4-0.2,0.2-0.2,0-0.6c-0.1-0.3-1.3-1.1-1.2-1.6c0.1-0.4,0.9,0.9,1.5,1.5 c0.2,0.2,0.5,0.2,0.8,0.5c0.3,0.2,2.2,3.2,2.6,3.6c0.5,0.4,2.9,2.9,4,3.8c0.6,0.4,3.8,3,8.8,4.8c3.8,1.4,12.8,1.9,12.8,1.9 s-8.8-1.8-12.1-3.1c-8.9-3.6-11.7-7.6-11.9-7.9c-1.1-1.2-6.2-6.9-6.7-7.5c-0.1-0.6-0.9-1.5-0.9-1.8c0-0.3,0.4-0.2,0.5-0.1 c0.2,0.2,0.8,1.6,1.1,1.2c0.4-0.3-0.4-0.6-0.4-0.9c-0.2-1-0.6-2.2-1.1-2.6c-0.4-0.3-0.6-0.9-1.1-1.9c-0.2-0.3-0.2-0.7-0.1-1 c0.1,0,0.1,0,0.2-0.1c0.1,0.2,0.3,0.4,0.4,0.7c0.3,0.6,2.2,3.9,2.3,4c0.5,0.7,1,1.3,1.5,1.9c0.8,1.1,1.9,2.4,3.1,3.4 c1.9,1.8,3.8,2.6,3.8,2.6c-4.5-3.1-6-5.4-8.5-9.8c-1-1.8-1.3-3.3-1.6-3.7c-0.3-0.7-0.5-1.4-0.7-1.8c-0.3-0.6-0.8-1.1-1.2-1.7 c-0.3,0.2,0.1,1.3,0.2,1.6c0.1,0.3,0.3,0.5,0.2,0.9c-0.2,0.1-0.4-0.2-0.4-0.2c-0.3-0.5-0.9-2-1.1-2.4c-1.3-2.8-1.1-5-1.1-6.2 c-0.1-1.5,0-2.6,0-3.6c0-1.5,0.6-6.6,0.8-8c0-0.2,0.1-0.3,0.2-0.6c0.3,0.7,0.2,1.2,0.2,1.8c0,0.5,0,3.4,0,4 c-0.2,2.2-0.2,4.2,0.7,6.2c0.8,1.9,0.3,2.1,2.3,6.9c6.4,14.7,19.2,16,19.2,16s-12.6-4.5-18-15.1c-1.6-3.2-0.5-0.2-1.9-5.6 c-0.2-0.8-0.4-1.9,0-1.9c0.3,0,0.3-0.9,0.4-1.3c0-0.3-0.1-0.8,0.1-1c0.3-0.1,0.2,1.5,0.5,2.1c0.3,0.7-0.7,0,0.8,3.5 c0.1,0.3,2,4.9,7.3,9.1c0,0,0,0,0,0c0.2,0.1,0.4,0.2,0.6,0.3c0.7,0.5,1.4,1.1,2.2,1.5c0.5,0.3,1.1,0.4,1.6,0.7 c1.1,0.5,2.1,1.1,3.2,1.6c0,0,0.5,0.2,1.3,0.6c0.3,0.1,0.6,0.2,0.9,0.3c0.6,0.2,1.3,0.4,1.9,0.5c0.1,0,0.2,0,0.3,0 c0.9,0.2,1.7,0.4,2.6,0.5c0.6,0.1,2.6,0.2,3,0.4c1.9,0.2,3.9,0.3,5.9,0.3c0.4,0,0.9-0.1,1.3-0.1c0.2,0,0.4-0.1,0.5,0.1 c0,0,0,0,0.1,0c2.4-0.1,4.7-0.4,6.9-0.8c0,0,0,0,0,0c0.9-0.2,2-0.3,2.8-0.4c0,0,0.1,0,0.1,0c0,0,0,0,0,0c0.3,0,0.7-0.1,0.8-0.1 c-0.2,0,0.5-0.1,0.7-0.2c0.3-0.1,0.6-0.3,0.9-0.4c1.1-0.3,2.1-0.8,3.2-1.2c2.2-0.8,4.5-1.8,6.7-2.6c0,0,1-0.4,2.6-1.1 c2.1-1,4.1-2.1,6.1-3.1c0.3-0.2,0.6-0.4,0.9-0.2c0.9-0.4,1.8-0.9,2.7-1.4c4.5-2.8,11.2-8.2,11.1-8.2c0.6-0.4,1.8-1.5,1.8-1.4 c1.1-0.9,1.3-1.1,1.3-1.4c0-0.3-1.4-0.6-1.4-0.6S85,84,85,83.6c0-0.4,6.4-2.3,10.9-4c0,0,0,0,0,0c0.3-0.2,0.6-0.5,0.9-0.6 c4.2-1.1,11.4-5.1,15.6-6c13.1-5.5,20.9-9.5,21.9-10c2.3-1.1,2.4,1.2,2.4,1.2L136.6,64.9C136.6,64.9,136.6,64.9,136.6,64.9z M99.1,88.6c-1.4,1.2-2.7,2.4-4.1,3.5c-1.4,1.2-2.8,2.3-4.2,3.3c-1.4,1.1-2.9,2.1-4.4,3.1c-0.8,0.5-1.5,1-2.3,1.4 c-0.8,0.5-1.6,0.9-2.4,1.3c1.7-0.6,3.3-1.4,4.9-2.3c1.6-0.9,3.1-1.9,4.5-3c1.4-1.1,2.9-2.2,4.2-3.5c0.7-0.6,1.3-1.3,2-1.9 C97.9,89.9,98.5,89.3,99.1,88.6z" style="fill: url(#SVGID_1_);"/>
      <linearGradient id="SVGID_2_" gradientUnits="userSpaceOnUse" x1="37.5965" y1="34.3235" x2="144.9962" y2="34.3235">
        <stop offset="0" style="stop-color:#04326C"/>
        <stop offset="0.1279" style="stop-color:#093B74"/>
        <stop offset="0.3366" style="stop-color:#18538A"/>
        <stop offset="0.6" style="stop-color:#2F7BAE"/>
        <stop offset="0.905" style="stop-color:#50B2E0"/>
        <stop offset="1" style="stop-color:#5BC4F1"/>
      </linearGradient>
      <path class="st1" d="M119.5,38.1c0.1,0.6-0.1,1.1-0.5,1.1c-0.4-5.9-2.8-10.1-3-10.5c0.5-0.1,0.8,0.1,1,0.4 C117.3,29.8,118.9,33.4,119.5,38.1z M116.1,28.1c0-0.9-5.7-6.8-6.3-7c-0.1,0-0.2,0-0.4,0.1c0.1,0.2,4.7,4.2,5.8,6.3 C115.4,27.9,115.7,28.1,116.1,28.1z M107,19.3c-0.1,0-0.2,0-0.4,0c0.4,0.4,1.8,1.2,2.1,1.3C108.8,20.6,107.7,19.7,107,19.3z M119.2,42.3c0,0.2,0.2,0.4,0.4,0.4c0-0.9,0.2-1.9-0.2-2.6c-0.1,0-0.2,0.1-0.2,0.1C119.2,40.9,119.2,41.6,119.2,42.3z M144.8,44.9 c-0.2,1.1-0.4,2.1-0.7,3.1c0,0,0,0,0,0c-0.1,1-0.7,2.5-1.4,3.9c-0.1,0.3-0.2,0.5-0.4,0.8l0,0c0,0,0,0,0,0c-0.4,0.8-0.7,1.4-1,1.7 c-0.4,0.8-0.9,1.5-1.1,1.7c0,0,0,0,0,0c-0.3,0.5-0.6,0.9-0.9,1.4c-0.1,0.2-0.5,0-0.4-0.2c0.9-2,1.3-3.8,1.4-5.4 c-0.5,1.2-1.9,2.5-2.1,3c-0.1,0.4-1,1.8-1.1,1.8c-0.7,0.5-1.6,1.6-2,2.4c-0.3,0.5-1.4,1.1-1.5,1.3c-0.2,0.3-0.5,0.5-1,0.6 c0.2-0.9,0.7-0.9,1-1.7c0.4-0.7,0.7-1.1,1-1.9c-0.4,0-0.9,1.2-1.3,1.3c-0.4,0.2-0.7-0.1-0.8-0.1c0.2-0.5,0.3-1.1,0.6-1.5 c0.6-0.5,1.5-4.2,1.5-4.5c0-0.8,0.7-2.9,0.9-3.5c0.1-0.4-0.4-1.8-0.2-2.8c0.1-0.3-0.3-0.6-0.5-0.6c-0.4,0.1-0.6,1.8-0.6,2.2 c0,0,0,0.2-0.1,0.4c0.1,0.4,0.2,0.6,0.2,0.7c0,0.3-0.1,1.1-0.2,2.3c-0.2,1.2-1.1,4.2-1.9,5.2c-0.7,1-0.5,0.6-1.5,1.3 s0.9-0.1-1.3,1c-2.2,1.1-2.5,1.5-2.6,1.8c-0.1,0.3-0.2-1.1,0.4-1.5c0-0.1,0.1-0.2,0.2-0.3l2.5-6.5c0.6-2.4,0.8-5.4,0.8-5.5 c0.5-3.4-1.5-10.6-1.5-10.6s1.2,7.7,0.5,11.2c-0.2,2-1,6.9-3.7,11.1c-0.2,0.3-2.2,3.3-2.3,3.3c-0.9,0.4-1.9,3-2.4,2.9 c-0.3-0.4,0-1.6,0.7-2c0.5-0.3,1.2-0.9,1.2-1.5c0-0.2,0.9-2.8,1.2-3.1c0.3-0.4,0.6-1.7,0.2-1.8c-0.3-0.1-0.6,0.1-0.7,0.4 c-0.2,0.6-0.9,2.1-1.1,2.1c-0.6,0.3-0.9,0.8-1.3,1.2c-0.2,0.2-3.1,4.5-3.6,4.5c-0.3,0-1.9,1.2-2.2,1.5c-0.2,0.3-0.5,0.6-0.8,0.9 c-0.1,0.1-0.6,0.1-0.9,0.2c-0.1,0-0.3,0-0.3,0.1c0,0,0.1-0.1,0.1-0.1l0,0c0,0,0.6-0.6,1.1-1.5c-0.1,0.2-0.2,0.4-0.3,0.6 c0,0,0,0,0,0c0.1-0.1,0.1-0.2,0.2-0.3c0,0,0,0,0-0.1c0.1-0.1,0.1-0.3,0.2-0.4c0,0,0,0,0-0.1c0.1-0.1,0.1-0.3,0.2-0.4 c0,0,0-0.1,0-0.1c0.1-0.1,0.1-0.3,0.2-0.4c0.1-0.1,0.1-0.2,0.2-0.4c0,0,0-0.1,0.1-0.1c0.3-0.6,0.6-1.2,0.8-1.8 c1.9-4,2.6-6.2,3.6-10.5c0.3-1.4,0.8-6.9,0.8-7.6c0-1.1,0-1.7-0.1-2.1c-0.5-12.2-5.9-19.4-12.2-23.5c-0.2-0.1-0.4-0.2-0.5-0.3 c-0.8-0.5-1.5-1-2.3-1.4c-0.5-0.3-1.1-0.4-1.7-0.6c-1.1-0.4-2.2-0.9-3.3-1.4c0,0-0.5-0.2-1.4-0.5c-1.1-0.3-2.3-0.6-3.4-0.9 c-0.1,0-0.2,0-0.2-0.1c-2.4-0.4-4.4-0.6-5.7-0.6c-4.2,0-8.9,0.3-13.4,1.1c-0.3,0.1-0.6,0.2-0.9,0.2c-0.6,0.1-1.1,0.4-1.7,0.5 c-1.2,0.3-2.3,0.5-3.5,0.8c0,0-0.5,0.1-1.3,0.3c-0.1,0-0.1,0-0.2,0.1c-1.1,0.4-2.1,0.8-3.2,1.2c-0.1,0-0.2,0.1-0.3,0.1 c0,0-0.1,0-0.1,0c-3.3,1.2-6.2,2.4-9,3.7c-0.2,0.1-0.6,0.4-0.7,0.4c0,0,0,0,0,0c-1.5,0.7-2.9,1.6-4.4,2.5l4.9,1.6 c-0.9,0.4-8.6,2.8-14,4.1c-0.9,0.3-1.7,0.7-2.6,0.8l0,0c0,0,0,0,0,0c0-0.1,0.3-0.2,0.4-0.3c-1,0.2-1.8,0.4-2.4,0.4 c-0.3,0-0.5,0-0.6-0.1c-0.6-0.7,10.8-16,10.8-16v0l0,0l-0.1,4.7c0,0,11.8-8.8,25.2-13.1c0.2-0.1,0.4-0.1,0.6-0.2 c0.1,0,0.2-0.1,0.2-0.1c1.3-0.5,2.7-1,4.1-1.3c0.3,0,0.6-0.1,0.9-0.3c0.6-0.3,2.7-0.6,3.1-0.6c5.7-1.3,11.5-2,17.2-2 c0.6,0,1.2-0.1,1.9-0.1c0.2,0,0.5,0,0.7,0c0.1-0.1,0.3-0.1,0.4-0.1c0.1,0,0.3,0,0.5,0.1c0,0,0,0,0,0c0.3,0,0.5,0,0.8,0.1 c0.2-0.1,0.3-0.2,0.4-0.2c0,0,0,0,0,0l0,0c0.3,0,0.5,0,0.8,0c0.8,0.2,1.7,0.4,2.5,0.5c0.4,0.1,0.8,0.1,1.1,0.1 c1.4,0.2,2.8,0.4,4.2,0.9c0.3,0.1,0.6,0.2,1,0.2c0.7,0,1.3,0.2,1.9,0.5c0.3,0.2,0.7,0.3,1,0.5c7.6,2.5,14.7,6.9,20.8,13.8 c0,0,0.4,0.5,1.1,1.4c0.1,0.1,0.2,0.3,0.4,0.6c0,0,0.1,0.1,0.1,0.1c0,0,0,0.1,0.1,0.1c0,0.1,0.1,0.2,0.2,0.2c0,0,0,0,0,0 c1.8,2.7,5.9,10.3,5.5,20C145,41.9,145,43.2,144.8,44.9z M135.3,18.8L135.3,18.8c1.8,1.9,3.5,4.1,4.9,6.6c0.3,0.6,0.7,1.1,1,1.7 c-0.4-1.4-1-2.7-1.6-4c-0.9-1.7-1.9-3.3-3.1-4.7l0,0c-1.8-2.2-3.6-3.9-5-5c-2.2-1.8-5.4-3.8-8.6-5c-0.1,0,6.8,4.5,10,7.8 C133.7,17.1,134.5,18,135.3,18.8L135.3,18.8L135.3,18.8z M67,9.8c-3,1.3-9.4,4.6-11.2,6.3c2-1.1,8.8-4.6,11.5-5.7 C73.7,7.8,78,6.3,80.2,5.6C76.3,6.2,70.7,8.2,67,9.8z" style="fill: url(#SVGID_2_);"/>
    </g>
    <g>
      <g>
        <path class="st2" d="M9.9,58.3c2.5-4.3,4.5-7.4,6.2-9.4c1.6-2,3.4-3.6,5.3-4.9c1.9-1.3,4.1-2.3,6.4-2.9c2.3-0.6,5-0.9,7.9-0.9h10 l-3.4,5.8H31.7c-2.8,0-5.3,0.6-7.3,1.9c-2,1.3-3.9,3.4-5.6,6.2l18.7,0L34.2,60H15.5L7.6,73.8H1L9.9,58.3z" style="fill: rgb(87, 87, 86);"/>
        <path class="st2" d="M50.8,40.2H65c2.4,0,4.2,0.1,5.5,0.4c1.3,0.3,2.2,0.7,2.7,1.3c0.8,1,1.2,2.2,1,3.8c-0.2,1.6-0.9,3.4-2.1,5.4 c-1.2,2-2.5,3.7-3.9,5.2c-1.4,1.4-3,2.6-4.8,3.6c-1.5,0.8-2.9,1.3-4.5,1.7c-1.5,0.3-3.6,0.5-6.3,0.5h-7.9L38,73.8h-6.5L50.8,40.2 z M61.5,46.2h-7.6l-5.7,9.9h8c2,0,3.7-0.4,5.1-1.2c1.4-0.8,2.6-2.1,3.6-3.7c1-1.8,1.3-3.1,0.8-3.8C65.1,46.6,63.8,46.2,61.5,46.2 z" style="fill: rgb(87, 87, 86);"/>
        <path class="st2" d="M106.6,46.2H90.5c-1.7,0-3.2,0.3-4.4,1c-1.2,0.7-2.3,1.8-3.1,3.3c-0.7,1.2-0.9,2.1-0.5,2.7 c0.3,0.6,1.2,0.9,2.6,0.9h8.6c3.6,0,5.7,0.7,6.4,2.2c0.7,1.5,0,3.9-1.9,7.3c-2,3.5-4.3,6-7,7.6c-2.7,1.6-5.9,2.4-9.6,2.4H64 l3.5-6h16.4c1.9,0,3.3-0.3,4.4-0.9c1.1-0.6,2-1.6,2.8-2.9c0.8-1.4,1-2.4,0.7-3c-0.4-0.6-1.4-0.9-3.1-0.9h-7.7 c-3.6,0-5.7-0.8-6.5-2.3c-0.8-1.5-0.2-4,1.7-7.3c2.1-3.6,4.4-6.2,7.1-7.8c2.7-1.6,5.9-2.5,9.7-2.5h17.1L106.6,46.2z" style="fill: rgb(87, 87, 86);"/>
      </g>
    </g>
  </g>
  <g fill="none" fill-rule="evenodd" transform="matrix(2.596463, 0, 0, 2.596463, -1322.25061, 2720.79248)" style="">
    <path fill="#DB0011" d="M71.848 36.76c-21.079-.03-38.25 17.047-38.28 38.07-.015 10.33.11 35.835.11 36.092.007 1.201.971 2.172 2.16 2.174h.011c.267 0 26.57-.106 35.895-.093 21.08.03 38.253-17.048 38.282-38.069.028-21.02-17.099-38.146-38.178-38.174m-.099 71.876c-7.756-.01-27.237.06-33.755.084-.03-6.426-.113-25.349-.102-33.886.026-18.61 15.257-33.733 33.951-33.707 18.694.027 33.882 15.19 33.856 33.802-.025 18.612-15.254 33.733-33.95 33.707"/>
    <path fill="#DB0011" d="M71.87 19.573C41.54 19.53 16.829 44.341 16.786 74.877c-.018 11.828.088 37.093.136 48.091-.006.06-.018.117-.018.176l-.07 50.733c0 1.224.969 2.213 2.168 2.215 1.198 0 2.169-.988 2.17-2.209l.06-43.418c8.257-.032 38.67-.144 50.49-.128 30.334.041 55.047-24.767 55.088-55.307.04-30.537-24.604-55.416-54.938-55.457m-.145 106.341c-11.791-.017-42.084.095-50.452.127-.04-8.335-.17-38.037-.151-51.157.037-28.097 22.802-50.928 50.743-50.889 27.942.04 50.642 22.932 50.605 51.03-.038 28.098-22.802 50.926-50.745 50.89"/>
    <g transform="translate(0 .279)">
      <mask id="b" fill="#fff">
        <path d="M0 .721h144.682V193H0z" transform="matrix(1, 0, 0, 1, 0, 0)"/>
      </mask>
      <path fill="#DB0011" d="M72.44.72C32.551.667.058 33.094.002 73.009c-.027 20.163.211 69.962.213 70.448l-.039 29.949C.17 178.48 3.535 192.979 18.58 193c16.103.022 19.746-13.901 19.752-18.781.005-3.551.262-22.393.35-28.667a9073.24 9073.24 0 0 1 33.563-.056c39.888.056 72.383-32.373 72.438-72.287C144.737 33.294 112.33.776 72.44.72m-.19 140.343c-6.767-.011-18.62.01-35.237.06-.206 0-.409.029-.606.089l-.502.148a2.21 2.21 0 0 0-1.572 2.095c-.015 1.079-.37 26.475-.378 30.757 0 .145-.678 14.373-15.37 14.353-13.453-.02-14.036-15.004-14.036-15.156l.042-29.96c-.003-.502-.241-50.288-.213-70.437.049-37.47 30.579-67.91 68.054-67.86 37.478.055 67.924 30.58 67.874 68.049-.051 37.469-30.582 67.914-68.056 67.862" mask="url(#b)"/>
    </g>
    <path fill="#DB0011" d="M197.348 62.618l-13.064-.018-.039 28.174 10.265.013c10.472.015 20.635-1.646 20.652-14.632.016-11.418-8.17-13.523-17.814-13.537m14.263 33.851c-3.945 1.458-8.713 1.977-13.586 1.97l-13.789-.02-.044 32.365-9.747-.015.1-75.725 23.124.032c6.428.011 13.064.123 18.66 3.798 6.111 3.988 9.003 10.905 8.993 18.027-.013 9.217-5.1 16.434-13.71 19.568M259.187 104.178c-8.088-.01-21.363.913-21.378 11.701-.01 6.493 5.48 9.96 11.497 9.97 13.166.016 14.53-10.772 14.545-21.454-2.177-.213-3.213-.213-4.664-.217zm6.497 26.72c-.416-2.203-.825-5.242-.927-7.44-4.363 6.383-10.171 8.574-17.74 8.564-9.748-.014-18.348-4.949-18.333-15.736.02-15.815 17.239-17.677 29.99-17.66a72.47 72.47 0 0 1 5.184.218l.003-3.143c.013-8.169-2.885-12.78-11.49-12.792-6.428-.009-10.27 2.393-10.9 9.304l-8.915-.012c.532-11.517 9.767-15.276 19.616-15.262 13.374.016 19.9 5.158 19.882 18.985l-.03 19.48c-.01 6.913.918 13.091 1.642 15.503l-7.982-.01zM303.39 150.848l-9.123-.014 8.633-19.99-22.222-52.82 10.37.015 16.425 43.28 16.442-43.235 9.227.013zM414.977 131.102l.092-68.182-26.53 68.145-8.917-.01L353.17 62.73l-.091 68.287-8.815-.013.103-75.723 15.554.02 24.59 64.03 24.14-63.96 15.554.022-.103 75.724zM463.556 83.62c-9.643-.013-14.425 7.938-15.264 16.739l29.032.039c.116-8.694-4.229-16.764-13.768-16.777zm-15.48 22.813l-.002 1.047c-.015 9.742 5.16 18.649 15.734 18.663 7.465.01 12.346-4.591 13.496-12.025l8.711.013c-2.09 12.459-11.016 18.208-22.938 18.192-16.279-.023-24.147-11.031-24.125-26.744.021-15.813 7.92-28.264 24.925-28.243 17.52.025 22.48 13.752 22.46 29.149l-38.26-.052zM72.37 53.948c-11.31-.016-20.527 9.377-20.54 20.94-.008 5.607.055 19.374.055 19.374.006.924.73 1.672 1.624 1.672h.008s13.854-.055 18.796-.048c11.311.014 20.526-9.38 20.542-20.94.015-11.563-9.174-20.982-20.485-20.998m-.05 37.498c-3.668-.005-12.563.026-16.137.04-.017-3.604-.053-12.46-.048-16.59.013-9.115 7.293-16.519 16.228-16.507 8.937.013 16.197 7.436 16.184 16.552-.01 9.112-7.292 16.518-16.227 16.505"/>
    <path fill="#000" d="M520.848 166.159l-1.493-.004.211-139.982 1.492.003zM755.956 51.968h9.992v2.623h-6.83v4.825h6.366v2.622h-6.366v7.42h-3.162zM768.338 60.895c0-1.71-.027-2.933-.104-4.074h2.75l.102 2.413h.103c.617-1.788 2.082-2.697 3.416-2.697.308 0 .487.025.743.078v3.01a4.335 4.335 0 0 0-.925-.105c-1.513 0-2.542.987-2.823 2.413a5.486 5.486 0 0 0-.105.986v6.538h-3.157v-8.562zM779.715 63.153c0 2.438 1.183 4.28 3.108 4.28 1.794 0 3.055-1.789 3.055-4.333 0-1.97-.875-4.229-3.032-4.229-2.236 0-3.131 2.18-3.131 4.282m9.425-.132c0 4.647-3.237 6.721-6.423 6.721-3.543 0-6.265-2.465-6.265-6.51 0-4.154 2.697-6.695 6.471-6.695 3.726 0 6.217 2.648 6.217 6.484M791.736 60.585c0-1.453-.028-2.672-.106-3.762h2.723l.133 1.867h.077c.613-.984 1.745-2.152 3.851-2.152 1.645 0 2.927.933 3.468 2.334.486-.7 1-1.22 1.591-1.582.695-.492 1.49-.752 2.519-.752 2.078 0 4.183 1.424 4.183 5.473v7.446h-3.08v-6.98c0-2.1-.719-3.345-2.237-3.345-1.079 0-1.872.78-2.208 1.684a4.597 4.597 0 0 0-.155 1.067v7.574h-3.079v-7.314c0-1.765-.695-3.011-2.159-3.011-1.182 0-1.978.933-2.26 1.816-.129.31-.18.675-.18 1.038v7.47h-3.081v-8.871zM782.794 101.817h-17.201v17.152h-8.626V78.838h8.626v16.429h17.2V78.838h8.629v40.131h-8.628zM812.078 119.691c-8.571 0-15.606-3.441-15.77-13.044h8.624c.112 4.273 2.584 6.828 7.312 6.828 3.516 0 7.472-1.776 7.472-5.773 0-3.108-2.692-4.108-7.145-5.385l-2.857-.833c-6.264-1.832-12.474-4.274-12.474-11.489 0-8.938 8.244-11.934 15.773-11.934 7.748 0 14.394 2.72 14.45 11.601h-8.627c-.33-3.664-2.416-5.772-6.485-5.772-3.185 0-6.374 1.72-6.374 5.272 0 2.941 2.639 3.83 8.245 5.606l3.297 1.056c6.813 2.165 11.099 4.55 11.099 11.212 0 9.158-8.737 12.655-16.54 12.655M848.147 112.974c4.012 0 7.97-.943 7.97-5.827 0-4.776-3.408-5.885-7.475-5.885h-6.814v11.712h6.32zm-.823-17.429c3.791 0 7.636-.778 7.636-5.44 0-4.163-3.625-5.273-7.086-5.273h-6.046v10.713h5.496zm-13.849-16.707h13.792c4.343 0 6.101.112 7.805.498 4.835 1.11 8.461 4.275 8.461 9.66 0 5.161-3.24 7.826-7.912 9.045 5.385 1.001 9.341 3.775 9.341 9.714 0 9.104-8.903 11.214-15.88 11.214h-15.607V78.84z"/>
    <g transform="translate(868 77.279)">
      <mask id="d" fill="#fff">
        <path d="M.87.782h35.059v41.63H.87z" transform="matrix(1, 0, 0, 1, 0, 0)"/>
      </mask>
      <path fill="#000" d="M19.444 42.412C6.64 42.412.87 34.14.87 21.93.87 9.83 7.245.782 19.884.782c7.913 0 15.606 3.552 15.827 12.655h-8.903C26.367 9.44 23.73 7.33 19.884 7.33c-7.748 0-10.112 8.437-10.112 14.876 0 6.385 2.364 13.821 9.836 13.821 3.901 0 6.759-2.108 7.363-6.16h8.958c-.989 9.104-8.242 12.545-16.485 12.545" mask="url(#d)"/>
    </g>
    <path fill="#DB0011" d="M741.155 98.903l-47.436-47.917v95.834z"/>
    <path fill="#DB0011" d="M646.284 98.903l47.436-47.917h-94.872zM551.412 98.903l47.435 47.917V50.986zM646.284 98.903l-47.437 47.917h94.873z"/>
    <path fill="#FFF" d="M646.284 98.903L693.72 50.82v96zM598.846 50.986l47.438 47.917-47.437 47.916z"/>
  </g>
  <rect x="1125.513" y="2779.638" width="5.257" height="5.257" style="fill: rgb(216, 216, 216);"/>
  <line style="stroke: rgb(0, 0, 0); stroke-width: 3px;" x1="1087.661" y1="2794.895" x2="1087.661" y2="3142.194"/>
</svg>